<svg width="166" height="53" viewBox="0 0 166 53" fill="none" xmlns="http://www.w3.org/2000/svg">
<path d="M25.4495 11.5667L25.9871 10.6451C25.825 10.5505 25.6408 10.5004 25.4531 10.4998C25.2654 10.4991 25.0809 10.548 24.9181 10.6415C24.7554 10.735 24.6202 10.8698 24.5262 11.0322C24.4322 11.1947 24.3828 11.3791 24.3828 11.5667H25.4495ZM25.4495 41.4334H24.3828C24.3828 41.6211 24.4322 41.8055 24.5262 41.9679C24.6202 42.1304 24.7554 42.2651 24.9181 42.3586C25.0809 42.4521 25.2654 42.501 25.4531 42.5004C25.6408 42.4997 25.825 42.4496 25.9871 42.355L25.4495 41.4334ZM51.0495 26.5001L51.5871 27.4217C51.7482 27.3278 51.8819 27.1933 51.9749 27.0315C52.0678 26.8698 52.1167 26.6866 52.1167 26.5001C52.1167 26.3136 52.0678 26.1303 51.9749 25.9686C51.8819 25.8069 51.7482 25.6724 51.5871 25.5785L51.0495 26.5001ZM24.3828 11.5667V41.4334H26.5161V11.5667H24.3828ZM25.9871 42.355L51.5871 27.4217L50.5119 25.5785L24.9119 40.5118L25.9871 42.355ZM51.5871 25.5785L25.9871 10.6451L24.9119 12.4883L50.5119 27.4217L51.5871 25.5785ZM26.1513 37.9689L43.218 23.0355L41.8143 21.4313L24.7476 36.3646L26.1513 37.9689ZM24.7476 16.6355L41.8143 31.5689L43.218 29.9646L26.1513 15.0313L24.7476 16.6355Z" fill="#FBFFFF" fill-opacity="0.8"/>
<path opacity="0.5" d="M69.305 21.156C68.759 21.156 68.3083 21.065 67.953 20.883C67.5977 20.701 67.3333 20.4627 67.16 20.168C66.9867 19.8647 66.9 19.5353 66.9 19.18C66.9 18.556 67.1427 18.062 67.628 17.698C68.1133 17.334 68.8067 17.152 69.708 17.152H71.398V17.035C71.398 16.5323 71.2593 16.1553 70.982 15.904C70.7133 15.6527 70.3623 15.527 69.929 15.527C69.5477 15.527 69.214 15.6223 68.928 15.813C68.6507 15.995 68.4817 16.268 68.421 16.632H67.043C67.0863 16.164 67.2423 15.7653 67.511 15.436C67.7883 15.098 68.135 14.8423 68.551 14.669C68.9757 14.487 69.4393 14.396 69.942 14.396C70.8433 14.396 71.541 14.6343 72.035 15.111C72.529 15.579 72.776 16.2203 72.776 17.035V21H71.58L71.463 19.895C71.281 20.2503 71.0167 20.5493 70.67 20.792C70.3233 21.0347 69.8683 21.156 69.305 21.156ZM69.578 20.038C69.9507 20.038 70.2627 19.9513 70.514 19.778C70.774 19.596 70.9733 19.3577 71.112 19.063C71.2593 18.7683 71.3503 18.4433 71.385 18.088H69.851C69.305 18.088 68.915 18.1833 68.681 18.374C68.4557 18.5647 68.343 18.803 68.343 19.089C68.343 19.3837 68.4513 19.6177 68.668 19.791C68.8933 19.9557 69.1967 20.038 69.578 20.038ZM75.9739 21L73.5559 14.552H74.9989L76.7929 19.687L78.5869 14.552H80.0169L77.6119 21H75.9739ZM82.9652 21.156C82.4192 21.156 81.9685 21.065 81.6132 20.883C81.2578 20.701 80.9935 20.4627 80.8202 20.168C80.6468 19.8647 80.5602 19.5353 80.5602 19.18C80.5602 18.556 80.8028 18.062 81.2882 17.698C81.7735 17.334 82.4668 17.152 83.3682 17.152H85.0582V17.035C85.0582 16.5323 84.9195 16.1553 84.6422 15.904C84.3735 15.6527 84.0225 15.527 83.5892 15.527C83.2078 15.527 82.8742 15.6223 82.5882 15.813C82.3108 15.995 82.1418 16.268 82.0812 16.632H80.7032C80.7465 16.164 80.9025 15.7653 81.1712 15.436C81.4485 15.098 81.7952 14.8423 82.2112 14.669C82.6358 14.487 83.0995 14.396 83.6022 14.396C84.5035 14.396 85.2012 14.6343 85.6952 15.111C86.1892 15.579 86.4362 16.2203 86.4362 17.035V21H85.2402L85.1232 19.895C84.9412 20.2503 84.6768 20.5493 84.3302 20.792C83.9835 21.0347 83.5285 21.156 82.9652 21.156ZM83.2382 20.038C83.6108 20.038 83.9228 19.9513 84.1742 19.778C84.4342 19.596 84.6335 19.3577 84.7722 19.063C84.9195 18.7683 85.0105 18.4433 85.0452 18.088H83.5112C82.9652 18.088 82.5752 18.1833 82.3412 18.374C82.1158 18.5647 82.0032 18.803 82.0032 19.089C82.0032 19.3837 82.1115 19.6177 82.3282 19.791C82.5535 19.9557 82.8568 20.038 83.2382 20.038ZM88.8229 13.33C88.5629 13.33 88.3462 13.252 88.1729 13.096C88.0082 12.9313 87.9259 12.7277 87.9259 12.485C87.9259 12.2423 88.0082 12.043 88.1729 11.887C88.3462 11.7223 88.5629 11.64 88.8229 11.64C89.0829 11.64 89.2952 11.7223 89.4599 11.887C89.6332 12.043 89.7199 12.2423 89.7199 12.485C89.7199 12.7277 89.6332 12.9313 89.4599 13.096C89.2952 13.252 89.0829 13.33 88.8229 13.33ZM88.1339 21V14.552H89.5119V21H88.1339ZM91.331 21V11.64H92.709V21H91.331ZM96.638 21.156C96.092 21.156 95.6413 21.065 95.286 20.883C94.9307 20.701 94.6663 20.4627 94.493 20.168C94.3197 19.8647 94.233 19.5353 94.233 19.18C94.233 18.556 94.4757 18.062 94.961 17.698C95.4463 17.334 96.1397 17.152 97.041 17.152H98.731V17.035C98.731 16.5323 98.5923 16.1553 98.315 15.904C98.0463 15.6527 97.6953 15.527 97.262 15.527C96.8807 15.527 96.547 15.6223 96.261 15.813C95.9837 15.995 95.8147 16.268 95.754 16.632H94.376C94.4193 16.164 94.5753 15.7653 94.844 15.436C95.1213 15.098 95.468 14.8423 95.884 14.669C96.3087 14.487 96.7723 14.396 97.275 14.396C98.1763 14.396 98.874 14.6343 99.368 15.111C99.862 15.579 100.109 16.2203 100.109 17.035V21H98.913L98.796 19.895C98.614 20.2503 98.3497 20.5493 98.003 20.792C97.6563 21.0347 97.2013 21.156 96.638 21.156ZM96.911 20.038C97.2837 20.038 97.5957 19.9513 97.847 19.778C98.107 19.596 98.3063 19.3577 98.445 19.063C98.5923 18.7683 98.6833 18.4433 98.718 18.088H97.184C96.638 18.088 96.248 18.1833 96.014 18.374C95.7887 18.5647 95.676 18.803 95.676 19.089C95.676 19.3837 95.7843 19.6177 96.001 19.791C96.2263 19.9557 96.5297 20.038 96.911 20.038ZM105.343 21.156C104.84 21.156 104.394 21.0563 104.004 20.857C103.622 20.6577 103.319 20.376 103.094 20.012L102.951 21H101.716V11.64H103.094V15.553C103.302 15.2497 103.588 14.981 103.952 14.747C104.316 14.513 104.784 14.396 105.356 14.396C105.98 14.396 106.53 14.5433 107.007 14.838C107.483 15.1327 107.856 15.5357 108.125 16.047C108.402 16.5583 108.541 17.139 108.541 17.789C108.541 18.439 108.402 19.0197 108.125 19.531C107.856 20.0337 107.483 20.4323 107.007 20.727C106.53 21.013 105.975 21.156 105.343 21.156ZM105.109 19.96C105.698 19.96 106.183 19.7607 106.565 19.362C106.946 18.9547 107.137 18.426 107.137 17.776C107.137 17.3513 107.05 16.9743 106.877 16.645C106.703 16.3157 106.465 16.06 106.162 15.878C105.858 15.6873 105.507 15.592 105.109 15.592C104.519 15.592 104.034 15.7957 103.653 16.203C103.28 16.6103 103.094 17.1347 103.094 17.776C103.094 18.426 103.28 18.9547 103.653 19.362C104.034 19.7607 104.519 19.96 105.109 19.96ZM110.031 21V11.64H111.409V21H110.031ZM116.17 21.156C115.538 21.156 114.974 21.0173 114.48 20.74C113.995 20.454 113.614 20.0597 113.336 19.557C113.059 19.0543 112.92 18.4693 112.92 17.802C112.92 17.126 113.055 16.5323 113.323 16.021C113.601 15.5097 113.982 15.111 114.467 14.825C114.961 14.539 115.533 14.396 116.183 14.396C116.816 14.396 117.366 14.539 117.834 14.825C118.302 15.1023 118.666 15.475 118.926 15.943C119.186 16.411 119.316 16.9267 119.316 17.49C119.316 17.5767 119.312 17.672 119.303 17.776C119.303 17.8713 119.299 17.9797 119.29 18.101H114.272C114.316 18.725 114.519 19.2017 114.883 19.531C115.256 19.8517 115.685 20.012 116.17 20.012C116.56 20.012 116.885 19.9253 117.145 19.752C117.414 19.57 117.613 19.3273 117.743 19.024H119.121C118.948 19.6307 118.601 20.1377 118.081 20.545C117.57 20.9523 116.933 21.156 116.17 21.156ZM116.17 15.527C115.711 15.527 115.304 15.6657 114.948 15.943C114.593 16.2117 114.376 16.619 114.298 17.165H117.938C117.912 16.6623 117.735 16.2637 117.405 15.969C117.076 15.6743 116.664 15.527 116.17 15.527ZM127.037 21.156C126.422 21.156 125.867 21.0173 125.373 20.74C124.888 20.454 124.502 20.0597 124.216 19.557C123.93 19.0457 123.787 18.452 123.787 17.776C123.787 17.1 123.93 16.5107 124.216 16.008C124.511 15.4967 124.905 15.1023 125.399 14.825C125.893 14.539 126.444 14.396 127.05 14.396C127.666 14.396 128.216 14.539 128.701 14.825C129.195 15.1023 129.585 15.4967 129.871 16.008C130.166 16.5107 130.313 17.1 130.313 17.776C130.313 18.452 130.166 19.0457 129.871 19.557C129.585 20.0597 129.195 20.454 128.701 20.74C128.207 21.0173 127.653 21.156 127.037 21.156ZM127.037 19.973C127.367 19.973 127.67 19.8907 127.947 19.726C128.233 19.5613 128.463 19.3187 128.636 18.998C128.81 18.6687 128.896 18.2613 128.896 17.776C128.896 17.2907 128.81 16.8877 128.636 16.567C128.472 16.2377 128.246 15.9907 127.96 15.826C127.683 15.6613 127.38 15.579 127.05 15.579C126.721 15.579 126.413 15.6613 126.127 15.826C125.85 15.9907 125.625 16.2377 125.451 16.567C125.278 16.8877 125.191 17.2907 125.191 17.776C125.191 18.2613 125.278 18.6687 125.451 18.998C125.625 19.3187 125.85 19.5613 126.127 19.726C126.405 19.8907 126.708 19.973 127.037 19.973ZM131.804 21V14.552H133.026L133.13 15.683C133.329 15.2843 133.619 14.9723 134.001 14.747C134.391 14.513 134.837 14.396 135.34 14.396C136.12 14.396 136.731 14.6387 137.173 15.124C137.623 15.6093 137.849 16.333 137.849 17.295V21H136.484V17.438C136.484 16.19 135.972 15.566 134.95 15.566C134.438 15.566 134.014 15.748 133.676 16.112C133.346 16.476 133.182 16.996 133.182 17.672V21H131.804Z" fill="#FBFFFF"/>
<path opacity="0.8" d="M67.338 40V28.8H71.482C72.378 28.8 73.1193 28.9493 73.706 29.248C74.2927 29.5467 74.73 29.9573 75.018 30.48C75.306 31.0027 75.45 31.5893 75.45 32.24C75.45 32.8587 75.3113 33.4293 75.034 33.952C74.7567 34.464 74.3247 34.88 73.738 35.2C73.1513 35.5093 72.3993 35.664 71.482 35.664H69.386V40H67.338ZM69.386 34H71.354C72.0687 34 72.5807 33.8453 72.89 33.536C73.21 33.216 73.37 32.784 73.37 32.24C73.37 31.6853 73.21 31.2533 72.89 30.944C72.5807 30.624 72.0687 30.464 71.354 30.464H69.386V34ZM77.0088 40V28.48H79.0568V40H77.0088ZM83.8854 40.192C83.2027 40.192 82.6427 40.0853 82.2054 39.872C81.768 39.648 81.4427 39.3547 81.2294 38.992C81.016 38.6293 80.9094 38.2293 80.9094 37.792C80.9094 37.056 81.1974 36.4587 81.7734 36C82.3494 35.5413 83.2134 35.312 84.3654 35.312H86.3814V35.12C86.3814 34.576 86.2267 34.176 85.9174 33.92C85.608 33.664 85.224 33.536 84.7654 33.536C84.3494 33.536 83.9867 33.6373 83.6774 33.84C83.368 34.032 83.176 34.32 83.1014 34.704H81.1014C81.1547 34.128 81.3467 33.6267 81.6774 33.2C82.0187 32.7733 82.456 32.448 82.9894 32.224C83.5227 31.9893 84.12 31.872 84.7814 31.872C85.912 31.872 86.8027 32.1547 87.4534 32.72C88.104 33.2853 88.4294 34.0853 88.4294 35.12V40H86.6854L86.4934 38.72C86.2587 39.1467 85.928 39.4987 85.5014 39.776C85.0854 40.0533 84.5467 40.192 83.8854 40.192ZM84.3494 38.592C84.936 38.592 85.3894 38.4 85.7094 38.016C86.04 37.632 86.248 37.1573 86.3334 36.592H84.5894C84.0454 36.592 83.656 36.6933 83.4214 36.896C83.1867 37.088 83.0694 37.328 83.0694 37.616C83.0694 37.9253 83.1867 38.1653 83.4214 38.336C83.656 38.5067 83.9654 38.592 84.3494 38.592ZM91.1101 43.52L92.9501 39.472H92.4701L89.3821 32.064H91.6061L93.8301 37.648L96.1501 32.064H98.3261L93.2861 43.52H91.1101ZM107.35 40.192C106.528 40.192 105.803 40.0533 105.174 39.776C104.544 39.488 104.048 39.0827 103.686 38.56C103.323 38.0267 103.136 37.3813 103.126 36.624H105.286C105.307 37.1467 105.494 37.5893 105.846 37.952C106.208 38.304 106.704 38.48 107.334 38.48C107.878 38.48 108.31 38.352 108.63 38.096C108.95 37.8293 109.11 37.4773 109.11 37.04C109.11 36.5813 108.966 36.224 108.678 35.968C108.4 35.712 108.027 35.504 107.558 35.344C107.088 35.184 106.587 35.0133 106.054 34.832C105.19 34.5333 104.528 34.1493 104.07 33.68C103.622 33.2107 103.398 32.5867 103.398 31.808C103.387 31.1467 103.542 30.5813 103.862 30.112C104.192 29.632 104.64 29.264 105.206 29.008C105.771 28.7413 106.422 28.608 107.158 28.608C107.904 28.608 108.56 28.7413 109.126 29.008C109.702 29.2747 110.15 29.648 110.47 30.128C110.8 30.608 110.976 31.1787 110.998 31.84H108.806C108.795 31.4453 108.64 31.0987 108.342 30.8C108.054 30.4907 107.648 30.336 107.126 30.336C106.678 30.3253 106.299 30.4373 105.99 30.672C105.691 30.896 105.542 31.2267 105.542 31.664C105.542 32.0373 105.659 32.336 105.894 32.56C106.128 32.7733 106.448 32.9547 106.854 33.104C107.259 33.2533 107.723 33.4133 108.246 33.584C108.8 33.776 109.307 34 109.766 34.256C110.224 34.512 110.592 34.8533 110.87 35.28C111.147 35.696 111.286 36.2347 111.286 36.896C111.286 37.4827 111.136 38.0267 110.838 38.528C110.539 39.0293 110.096 39.4347 109.51 39.744C108.923 40.0427 108.203 40.192 107.35 40.192ZM116.56 40C115.728 40 115.062 39.7973 114.56 39.392C114.059 38.9867 113.808 38.2667 113.808 37.232V33.776H112.448V32.064H113.808L114.048 29.936H115.856V32.064H118V33.776H115.856V37.248C115.856 37.632 115.936 37.8987 116.096 38.048C116.267 38.1867 116.555 38.256 116.96 38.256H117.952V40H116.56ZM123.364 40.192C122.596 40.192 121.902 40.016 121.284 39.664C120.676 39.312 120.19 38.8267 119.828 38.208C119.476 37.5787 119.3 36.8533 119.3 36.032C119.3 35.2107 119.481 34.4907 119.844 33.872C120.206 33.2427 120.692 32.752 121.3 32.4C121.918 32.048 122.612 31.872 123.38 31.872C124.137 31.872 124.82 32.048 125.428 32.4C126.046 32.752 126.532 33.2427 126.884 33.872C127.246 34.4907 127.428 35.2107 127.428 36.032C127.428 36.8533 127.246 37.5787 126.884 38.208C126.532 38.8267 126.046 39.312 125.428 39.664C124.809 40.016 124.121 40.192 123.364 40.192ZM123.364 38.416C123.897 38.416 124.361 38.2187 124.756 37.824C125.15 37.4187 125.348 36.8213 125.348 36.032C125.348 35.2427 125.15 34.6507 124.756 34.256C124.361 33.8507 123.902 33.648 123.38 33.648C122.836 33.648 122.366 33.8507 121.972 34.256C121.588 34.6507 121.396 35.2427 121.396 36.032C121.396 36.8213 121.588 37.4187 121.972 37.824C122.366 38.2187 122.83 38.416 123.364 38.416ZM129.259 40V32.064H131.083L131.275 33.552C131.563 33.04 131.952 32.6347 132.443 32.336C132.944 32.0267 133.531 31.872 134.203 31.872V34.032H133.627C133.179 34.032 132.779 34.1013 132.427 34.24C132.075 34.3787 131.797 34.6187 131.595 34.96C131.403 35.3013 131.307 35.776 131.307 36.384V40H129.259ZM139.318 40.192C138.518 40.192 137.809 40.0213 137.19 39.68C136.571 39.3387 136.086 38.8587 135.734 38.24C135.382 37.6213 135.206 36.9067 135.206 36.096C135.206 35.2747 135.377 34.544 135.718 33.904C136.07 33.264 136.55 32.768 137.158 32.416C137.777 32.0533 138.502 31.872 139.334 31.872C140.113 31.872 140.801 32.0427 141.398 32.384C141.995 32.7253 142.459 33.1947 142.79 33.792C143.131 34.3787 143.302 35.0347 143.302 35.76C143.302 35.8773 143.297 36 143.286 36.128C143.286 36.256 143.281 36.3893 143.27 36.528H137.238C137.281 37.1467 137.494 37.632 137.878 37.984C138.273 38.336 138.747 38.512 139.302 38.512C139.718 38.512 140.065 38.4213 140.342 38.24C140.63 38.048 140.843 37.8027 140.982 37.504H143.062C142.913 38.0053 142.662 38.464 142.31 38.88C141.969 39.2853 141.542 39.6053 141.03 39.84C140.529 40.0747 139.958 40.192 139.318 40.192ZM139.334 33.536C138.833 33.536 138.39 33.68 138.006 33.968C137.622 34.2453 137.377 34.672 137.27 35.248H141.222C141.19 34.7253 140.998 34.3093 140.646 34C140.294 33.6907 139.857 33.536 139.334 33.536Z" fill="#FBFFFF"/>
<rect x="1" y="0.5" width="164.5" height="52" rx="5.5" stroke="#FBFFFF" stroke-opacity="0.5"/>
</svg>
