<svg width="166" height="53" viewBox="0 0 166 53" fill="none" xmlns="http://www.w3.org/2000/svg">
<path fill-rule="evenodd" clip-rule="evenodd" d="M44.0306 12.3358C44.0243 12.1917 43.987 12.0506 43.9211 11.9223C43.8552 11.794 43.7623 11.6814 43.6488 11.5924C43.5353 11.5034 43.4039 11.4399 43.2636 11.4065C43.1233 11.373 42.9774 11.3703 42.8359 11.3985C42.1693 11.5318 39.9933 12.0731 38.2759 13.7905C37.3986 14.6678 36.9133 15.7745 36.6493 16.7825C36.5227 17.2733 36.4362 17.7736 36.3906 18.2785C36.2828 18.2318 36.1748 18.1856 36.0666 18.1398C35.1426 17.7451 33.9466 17.2865 32.5866 17.2865C31.1306 17.2865 29.0639 17.8785 27.3573 19.5531C25.6266 21.2518 24.3506 23.9771 24.3506 28.0865C24.3506 30.3958 25.5053 33.7531 27.0613 36.4798C27.8479 37.8571 28.7746 39.1398 29.7746 40.0851C30.7466 41.0025 31.9306 41.7358 33.2213 41.7025C34.1813 41.6985 35.1546 41.3211 35.9106 41.0278L35.9773 41.0011C36.8493 40.6638 37.4706 40.4358 37.9919 40.4358C38.4906 40.4358 39.1173 40.6638 40.0026 41.0038L40.0679 41.0278C40.8359 41.3225 41.8266 41.7025 42.7773 41.7025C43.4959 41.7025 44.3266 41.3185 45.0546 40.8665C45.9295 40.3098 46.7336 39.649 47.4492 38.8985C48.9652 37.3225 50.4052 35.0705 50.3492 32.6598C50.3449 32.4747 50.2893 32.2944 50.1885 32.139C50.0878 31.9836 49.9459 31.8593 49.7786 31.7798C49.0739 31.4213 48.4447 30.9306 47.9252 30.3345C47.2946 29.6105 46.8292 28.7185 46.7999 27.6838C46.7679 26.3782 47.0821 25.0873 47.7106 23.9425C48.2732 22.9158 48.9106 22.3291 49.2066 22.1731C49.3331 22.1068 49.4439 22.0141 49.5316 21.9013C49.6193 21.7885 49.6818 21.6582 49.7149 21.5193C49.748 21.3803 49.7509 21.2358 49.7235 21.0956C49.6961 20.9554 49.6389 20.8227 49.5559 20.7065C49.0999 20.0665 48.2332 19.2238 47.2119 18.5451C46.2026 17.8731 44.8866 17.2585 43.5399 17.2851C43.3039 17.2905 43.0732 17.3078 42.8466 17.3345C43.3399 16.6011 43.6279 15.6918 43.7959 14.8945C43.9745 14.0538 44.0537 13.195 44.0319 12.3358H44.0306ZM39.6906 15.2038C40.4119 14.4825 41.2599 14.0265 41.9626 13.7451C41.931 13.9925 41.8897 14.2384 41.8386 14.4825C41.6639 15.3118 41.3892 16.0051 41.0519 16.3998C40.4119 17.1451 39.5533 17.9585 38.4013 18.2798C38.4386 17.9638 38.4973 17.6265 38.5853 17.2878C38.7919 16.4945 39.1453 15.7505 39.6906 15.2038ZM43.5799 19.2838C44.3333 19.2705 45.2359 19.6318 46.1052 20.2105C46.5639 20.5145 46.9692 20.8505 47.2919 21.1598C46.8159 21.6371 46.3479 22.2665 45.9559 22.9811C45.157 24.4378 44.7586 26.0803 44.8013 27.7411C44.8466 29.3678 45.5799 30.6878 46.4172 31.6478C47.0306 32.3505 47.7239 32.8931 48.3239 33.2611C48.1546 34.7211 47.2252 36.2478 46.0079 37.5118C45.4072 38.1427 44.7326 38.6987 43.9986 39.1678C43.3213 39.5891 42.8999 39.7025 42.7773 39.7025C42.2439 39.7025 41.5933 39.4705 40.7186 39.1358L40.6119 39.0958C39.8599 38.8065 38.8973 38.4371 37.9919 38.4371C37.0586 38.4371 36.1013 38.8091 35.3519 39.0998L35.2559 39.1371C34.3919 39.4705 33.7533 39.7025 33.2066 39.7025H33.1759C32.6746 39.7185 31.9839 39.4198 31.1493 38.6318C30.3386 37.8651 29.5266 36.7611 28.7986 35.4878C27.3266 32.9091 26.3506 29.9051 26.3506 28.0878C26.3506 24.4118 27.4773 22.2371 28.7573 20.9811C30.0613 19.7011 31.6119 19.2851 32.5879 19.2851C33.5146 19.2851 34.3919 19.5985 35.2813 19.9785L35.6413 20.1345C35.9586 20.2718 36.2879 20.4145 36.5866 20.5278C37.0026 20.6838 37.4919 20.8331 37.9919 20.8331C38.4919 20.8331 38.9866 20.6931 39.4186 20.5398C39.7399 20.4265 40.0919 20.2811 40.4319 20.1411L40.7679 20.0025C41.6919 19.6265 42.6106 19.3051 43.5799 19.2851V19.2838Z" fill="#FBFFFF" fill-opacity="0.8"/>
<path opacity="0.5" d="M68.805 21.156C68.259 21.156 67.8083 21.065 67.453 20.883C67.0977 20.701 66.8333 20.4627 66.66 20.168C66.4867 19.8647 66.4 19.5353 66.4 19.18C66.4 18.556 66.6427 18.062 67.128 17.698C67.6133 17.334 68.3067 17.152 69.208 17.152H70.898V17.035C70.898 16.5323 70.7593 16.1553 70.482 15.904C70.2133 15.6527 69.8623 15.527 69.429 15.527C69.0477 15.527 68.714 15.6223 68.428 15.813C68.1507 15.995 67.9817 16.268 67.921 16.632H66.543C66.5863 16.164 66.7423 15.7653 67.011 15.436C67.2883 15.098 67.635 14.8423 68.051 14.669C68.4757 14.487 68.9393 14.396 69.442 14.396C70.3433 14.396 71.041 14.6343 71.535 15.111C72.029 15.579 72.276 16.2203 72.276 17.035V21H71.08L70.963 19.895C70.781 20.2503 70.5167 20.5493 70.17 20.792C69.8233 21.0347 69.3683 21.156 68.805 21.156ZM69.078 20.038C69.4507 20.038 69.7627 19.9513 70.014 19.778C70.274 19.596 70.4733 19.3577 70.612 19.063C70.7593 18.7683 70.8503 18.4433 70.885 18.088H69.351C68.805 18.088 68.415 18.1833 68.181 18.374C67.9557 18.5647 67.843 18.803 67.843 19.089C67.843 19.3837 67.9513 19.6177 68.168 19.791C68.3933 19.9557 68.6967 20.038 69.078 20.038ZM75.4739 21L73.0559 14.552H74.4989L76.2929 19.687L78.0869 14.552H79.5169L77.1119 21H75.4739ZM82.4652 21.156C81.9192 21.156 81.4685 21.065 81.1132 20.883C80.7578 20.701 80.4935 20.4627 80.3202 20.168C80.1468 19.8647 80.0602 19.5353 80.0602 19.18C80.0602 18.556 80.3028 18.062 80.7882 17.698C81.2735 17.334 81.9668 17.152 82.8682 17.152H84.5582V17.035C84.5582 16.5323 84.4195 16.1553 84.1422 15.904C83.8735 15.6527 83.5225 15.527 83.0892 15.527C82.7078 15.527 82.3742 15.6223 82.0882 15.813C81.8108 15.995 81.6418 16.268 81.5812 16.632H80.2032C80.2465 16.164 80.4025 15.7653 80.6712 15.436C80.9485 15.098 81.2952 14.8423 81.7112 14.669C82.1358 14.487 82.5995 14.396 83.1022 14.396C84.0035 14.396 84.7012 14.6343 85.1952 15.111C85.6892 15.579 85.9362 16.2203 85.9362 17.035V21H84.7402L84.6232 19.895C84.4412 20.2503 84.1768 20.5493 83.8302 20.792C83.4835 21.0347 83.0285 21.156 82.4652 21.156ZM82.7382 20.038C83.1108 20.038 83.4228 19.9513 83.6742 19.778C83.9342 19.596 84.1335 19.3577 84.2722 19.063C84.4195 18.7683 84.5105 18.4433 84.5452 18.088H83.0112C82.4652 18.088 82.0752 18.1833 81.8412 18.374C81.6158 18.5647 81.5032 18.803 81.5032 19.089C81.5032 19.3837 81.6115 19.6177 81.8282 19.791C82.0535 19.9557 82.3568 20.038 82.7382 20.038ZM88.3229 13.33C88.0629 13.33 87.8462 13.252 87.6729 13.096C87.5082 12.9313 87.4259 12.7277 87.4259 12.485C87.4259 12.2423 87.5082 12.043 87.6729 11.887C87.8462 11.7223 88.0629 11.64 88.3229 11.64C88.5829 11.64 88.7952 11.7223 88.9599 11.887C89.1332 12.043 89.2199 12.2423 89.2199 12.485C89.2199 12.7277 89.1332 12.9313 88.9599 13.096C88.7952 13.252 88.5829 13.33 88.3229 13.33ZM87.6339 21V14.552H89.0119V21H87.6339ZM90.831 21V11.64H92.209V21H90.831ZM96.138 21.156C95.592 21.156 95.1413 21.065 94.786 20.883C94.4307 20.701 94.1663 20.4627 93.993 20.168C93.8197 19.8647 93.733 19.5353 93.733 19.18C93.733 18.556 93.9757 18.062 94.461 17.698C94.9463 17.334 95.6397 17.152 96.541 17.152H98.231V17.035C98.231 16.5323 98.0923 16.1553 97.815 15.904C97.5463 15.6527 97.1953 15.527 96.762 15.527C96.3807 15.527 96.047 15.6223 95.761 15.813C95.4837 15.995 95.3147 16.268 95.254 16.632H93.876C93.9193 16.164 94.0753 15.7653 94.344 15.436C94.6213 15.098 94.968 14.8423 95.384 14.669C95.8087 14.487 96.2723 14.396 96.775 14.396C97.6763 14.396 98.374 14.6343 98.868 15.111C99.362 15.579 99.609 16.2203 99.609 17.035V21H98.413L98.296 19.895C98.114 20.2503 97.8497 20.5493 97.503 20.792C97.1563 21.0347 96.7013 21.156 96.138 21.156ZM96.411 20.038C96.7837 20.038 97.0957 19.9513 97.347 19.778C97.607 19.596 97.8063 19.3577 97.945 19.063C98.0923 18.7683 98.1833 18.4433 98.218 18.088H96.684C96.138 18.088 95.748 18.1833 95.514 18.374C95.2887 18.5647 95.176 18.803 95.176 19.089C95.176 19.3837 95.2843 19.6177 95.501 19.791C95.7263 19.9557 96.0297 20.038 96.411 20.038ZM104.843 21.156C104.34 21.156 103.894 21.0563 103.504 20.857C103.122 20.6577 102.819 20.376 102.594 20.012L102.451 21H101.216V11.64H102.594V15.553C102.802 15.2497 103.088 14.981 103.452 14.747C103.816 14.513 104.284 14.396 104.856 14.396C105.48 14.396 106.03 14.5433 106.507 14.838C106.983 15.1327 107.356 15.5357 107.625 16.047C107.902 16.5583 108.041 17.139 108.041 17.789C108.041 18.439 107.902 19.0197 107.625 19.531C107.356 20.0337 106.983 20.4323 106.507 20.727C106.03 21.013 105.475 21.156 104.843 21.156ZM104.609 19.96C105.198 19.96 105.683 19.7607 106.065 19.362C106.446 18.9547 106.637 18.426 106.637 17.776C106.637 17.3513 106.55 16.9743 106.377 16.645C106.203 16.3157 105.965 16.06 105.662 15.878C105.358 15.6873 105.007 15.592 104.609 15.592C104.019 15.592 103.534 15.7957 103.153 16.203C102.78 16.6103 102.594 17.1347 102.594 17.776C102.594 18.426 102.78 18.9547 103.153 19.362C103.534 19.7607 104.019 19.96 104.609 19.96ZM109.531 21V11.64H110.909V21H109.531ZM115.67 21.156C115.038 21.156 114.474 21.0173 113.98 20.74C113.495 20.454 113.114 20.0597 112.836 19.557C112.559 19.0543 112.42 18.4693 112.42 17.802C112.42 17.126 112.555 16.5323 112.823 16.021C113.101 15.5097 113.482 15.111 113.967 14.825C114.461 14.539 115.033 14.396 115.683 14.396C116.316 14.396 116.866 14.539 117.334 14.825C117.802 15.1023 118.166 15.475 118.426 15.943C118.686 16.411 118.816 16.9267 118.816 17.49C118.816 17.5767 118.812 17.672 118.803 17.776C118.803 17.8713 118.799 17.9797 118.79 18.101H113.772C113.816 18.725 114.019 19.2017 114.383 19.531C114.756 19.8517 115.185 20.012 115.67 20.012C116.06 20.012 116.385 19.9253 116.645 19.752C116.914 19.57 117.113 19.3273 117.243 19.024H118.621C118.448 19.6307 118.101 20.1377 117.581 20.545C117.07 20.9523 116.433 21.156 115.67 21.156ZM115.67 15.527C115.211 15.527 114.804 15.6657 114.448 15.943C114.093 16.2117 113.876 16.619 113.798 17.165H117.438C117.412 16.6623 117.235 16.2637 116.905 15.969C116.576 15.6743 116.164 15.527 115.67 15.527ZM126.537 21.156C125.922 21.156 125.367 21.0173 124.873 20.74C124.388 20.454 124.002 20.0597 123.716 19.557C123.43 19.0457 123.287 18.452 123.287 17.776C123.287 17.1 123.43 16.5107 123.716 16.008C124.011 15.4967 124.405 15.1023 124.899 14.825C125.393 14.539 125.944 14.396 126.55 14.396C127.166 14.396 127.716 14.539 128.201 14.825C128.695 15.1023 129.085 15.4967 129.371 16.008C129.666 16.5107 129.813 17.1 129.813 17.776C129.813 18.452 129.666 19.0457 129.371 19.557C129.085 20.0597 128.695 20.454 128.201 20.74C127.707 21.0173 127.153 21.156 126.537 21.156ZM126.537 19.973C126.867 19.973 127.17 19.8907 127.447 19.726C127.733 19.5613 127.963 19.3187 128.136 18.998C128.31 18.6687 128.396 18.2613 128.396 17.776C128.396 17.2907 128.31 16.8877 128.136 16.567C127.972 16.2377 127.746 15.9907 127.46 15.826C127.183 15.6613 126.88 15.579 126.55 15.579C126.221 15.579 125.913 15.6613 125.627 15.826C125.35 15.9907 125.125 16.2377 124.951 16.567C124.778 16.8877 124.691 17.2907 124.691 17.776C124.691 18.2613 124.778 18.6687 124.951 18.998C125.125 19.3187 125.35 19.5613 125.627 19.726C125.905 19.8907 126.208 19.973 126.537 19.973ZM131.304 21V14.552H132.526L132.63 15.683C132.829 15.2843 133.119 14.9723 133.501 14.747C133.891 14.513 134.337 14.396 134.84 14.396C135.62 14.396 136.231 14.6387 136.673 15.124C137.123 15.6093 137.349 16.333 137.349 17.295V21H135.984V17.438C135.984 16.19 135.472 15.566 134.45 15.566C133.938 15.566 133.514 15.748 133.176 16.112C132.846 16.476 132.682 16.996 132.682 17.672V21H131.304Z" fill="#FBFFFF"/>
<path opacity="0.8" d="M66.118 40L70.214 28.8H72.518L76.614 40H74.438L73.542 37.408H69.174L68.262 40H66.118ZM69.734 35.808H72.982L71.35 31.152L69.734 35.808ZM78.0088 43.52V32.064H79.8328L80.0568 33.2C80.3128 32.848 80.6488 32.5387 81.0648 32.272C81.4914 32.0053 82.0408 31.872 82.7128 31.872C83.4594 31.872 84.1261 32.0533 84.7128 32.416C85.2994 32.7787 85.7634 33.2747 86.1048 33.904C86.4461 34.5333 86.6168 35.248 86.6168 36.048C86.6168 36.848 86.4461 37.5627 86.1048 38.192C85.7634 38.8107 85.2994 39.3013 84.7128 39.664C84.1261 40.016 83.4594 40.192 82.7128 40.192C82.1154 40.192 81.5928 40.08 81.1448 39.856C80.6968 39.632 80.3341 39.3173 80.0568 38.912V43.52H78.0088ZM82.2808 38.4C82.9314 38.4 83.4701 38.1813 83.8968 37.744C84.3234 37.3067 84.5368 36.7413 84.5368 36.048C84.5368 35.3547 84.3234 34.784 83.8968 34.336C83.4701 33.888 82.9314 33.664 82.2808 33.664C81.6194 33.664 81.0754 33.888 80.6488 34.336C80.2328 34.7733 80.0248 35.3387 80.0248 36.032C80.0248 36.7253 80.2328 37.296 80.6488 37.744C81.0754 38.1813 81.6194 38.4 82.2808 38.4ZM88.4463 43.52V32.064H90.2703L90.4943 33.2C90.7503 32.848 91.0863 32.5387 91.5023 32.272C91.9289 32.0053 92.4783 31.872 93.1503 31.872C93.8969 31.872 94.5636 32.0533 95.1503 32.416C95.7369 32.7787 96.2009 33.2747 96.5423 33.904C96.8836 34.5333 97.0543 35.248 97.0543 36.048C97.0543 36.848 96.8836 37.5627 96.5423 38.192C96.2009 38.8107 95.7369 39.3013 95.1503 39.664C94.5636 40.016 93.8969 40.192 93.1503 40.192C92.5529 40.192 92.0303 40.08 91.5823 39.856C91.1343 39.632 90.7716 39.3173 90.4943 38.912V43.52H88.4463ZM92.7183 38.4C93.3689 38.4 93.9076 38.1813 94.3343 37.744C94.7609 37.3067 94.9743 36.7413 94.9743 36.048C94.9743 35.3547 94.7609 34.784 94.3343 34.336C93.9076 33.888 93.3689 33.664 92.7183 33.664C92.0569 33.664 91.5129 33.888 91.0863 34.336C90.6703 34.7733 90.4623 35.3387 90.4623 36.032C90.4623 36.7253 90.6703 37.296 91.0863 37.744C91.5129 38.1813 92.0569 38.4 92.7183 38.4ZM106.568 40.192C105.747 40.192 105.022 40.0533 104.392 39.776C103.763 39.488 103.267 39.0827 102.904 38.56C102.542 38.0267 102.355 37.3813 102.344 36.624H104.504C104.526 37.1467 104.712 37.5893 105.064 37.952C105.427 38.304 105.923 38.48 106.552 38.48C107.096 38.48 107.528 38.352 107.848 38.096C108.168 37.8293 108.328 37.4773 108.328 37.04C108.328 36.5813 108.184 36.224 107.896 35.968C107.619 35.712 107.246 35.504 106.776 35.344C106.307 35.184 105.806 35.0133 105.272 34.832C104.408 34.5333 103.747 34.1493 103.288 33.68C102.84 33.2107 102.616 32.5867 102.616 31.808C102.606 31.1467 102.76 30.5813 103.08 30.112C103.411 29.632 103.859 29.264 104.424 29.008C104.99 28.7413 105.64 28.608 106.376 28.608C107.123 28.608 107.779 28.7413 108.344 29.008C108.92 29.2747 109.368 29.648 109.688 30.128C110.019 30.608 110.195 31.1787 110.216 31.84H108.024C108.014 31.4453 107.859 31.0987 107.56 30.8C107.272 30.4907 106.867 30.336 106.344 30.336C105.896 30.3253 105.518 30.4373 105.208 30.672C104.91 30.896 104.76 31.2267 104.76 31.664C104.76 32.0373 104.878 32.336 105.112 32.56C105.347 32.7733 105.667 32.9547 106.072 33.104C106.478 33.2533 106.942 33.4133 107.464 33.584C108.019 33.776 108.526 34 108.984 34.256C109.443 34.512 109.811 34.8533 110.088 35.28C110.366 35.696 110.504 36.2347 110.504 36.896C110.504 37.4827 110.355 38.0267 110.056 38.528C109.758 39.0293 109.315 39.4347 108.728 39.744C108.142 40.0427 107.422 40.192 106.568 40.192ZM115.779 40C114.947 40 114.28 39.7973 113.779 39.392C113.278 38.9867 113.027 38.2667 113.027 37.232V33.776H111.667V32.064H113.027L113.267 29.936H115.075V32.064H117.219V33.776H115.075V37.248C115.075 37.632 115.155 37.8987 115.315 38.048C115.486 38.1867 115.774 38.256 116.179 38.256H117.171V40H115.779ZM122.582 40.192C121.814 40.192 121.121 40.016 120.502 39.664C119.894 39.312 119.409 38.8267 119.046 38.208C118.694 37.5787 118.518 36.8533 118.518 36.032C118.518 35.2107 118.7 34.4907 119.062 33.872C119.425 33.2427 119.91 32.752 120.518 32.4C121.137 32.048 121.83 31.872 122.598 31.872C123.356 31.872 124.038 32.048 124.646 32.4C125.265 32.752 125.75 33.2427 126.102 33.872C126.465 34.4907 126.646 35.2107 126.646 36.032C126.646 36.8533 126.465 37.5787 126.102 38.208C125.75 38.8267 125.265 39.312 124.646 39.664C124.028 40.016 123.34 40.192 122.582 40.192ZM122.582 38.416C123.116 38.416 123.58 38.2187 123.974 37.824C124.369 37.4187 124.566 36.8213 124.566 36.032C124.566 35.2427 124.369 34.6507 123.974 34.256C123.58 33.8507 123.121 33.648 122.598 33.648C122.054 33.648 121.585 33.8507 121.19 34.256C120.806 34.6507 120.614 35.2427 120.614 36.032C120.614 36.8213 120.806 37.4187 121.19 37.824C121.585 38.2187 122.049 38.416 122.582 38.416ZM128.478 40V32.064H130.302L130.494 33.552C130.782 33.04 131.171 32.6347 131.661 32.336C132.163 32.0267 132.75 31.872 133.422 31.872V34.032H132.846C132.398 34.032 131.998 34.1013 131.646 34.24C131.294 34.3787 131.016 34.6187 130.814 34.96C130.622 35.3013 130.526 35.776 130.526 36.384V40H128.478ZM138.537 40.192C137.737 40.192 137.027 40.0213 136.409 39.68C135.79 39.3387 135.305 38.8587 134.953 38.24C134.601 37.6213 134.425 36.9067 134.425 36.096C134.425 35.2747 134.595 34.544 134.937 33.904C135.289 33.264 135.769 32.768 136.377 32.416C136.995 32.0533 137.721 31.872 138.553 31.872C139.331 31.872 140.019 32.0427 140.617 32.384C141.214 32.7253 141.678 33.1947 142.009 33.792C142.35 34.3787 142.521 35.0347 142.521 35.76C142.521 35.8773 142.515 36 142.505 36.128C142.505 36.256 142.499 36.3893 142.489 36.528H136.457C136.499 37.1467 136.713 37.632 137.097 37.984C137.491 38.336 137.966 38.512 138.521 38.512C138.937 38.512 139.283 38.4213 139.561 38.24C139.849 38.048 140.062 37.8027 140.201 37.504H142.281C142.131 38.0053 141.881 38.464 141.529 38.88C141.187 39.2853 140.761 39.6053 140.249 39.84C139.747 40.0747 139.177 40.192 138.537 40.192ZM138.553 33.536C138.051 33.536 137.609 33.68 137.225 33.968C136.841 34.2453 136.595 34.672 136.489 35.248H140.441C140.409 34.7253 140.217 34.3093 139.865 34C139.513 33.6907 139.075 33.536 138.553 33.536Z" fill="#FBFFFF"/>
<rect x="0.5" y="0.5" width="164.5" height="52" rx="5.5" stroke="#FBFFFF" stroke-opacity="0.5"/>
</svg>
