<svg width="154" height="66" viewBox="0 0 154 66" fill="none" xmlns="http://www.w3.org/2000/svg">
<path opacity="0.1" fill-rule="evenodd" clip-rule="evenodd" d="M3.52366 33.7052C19.4953 39.3446 39.529 40.5005 59.3596 40.7814C67.2439 40.9002 73.0786 41.0515 77.51 41.6133C80.1689 41.9482 82.2923 42.564 84.0833 43.0717C90.4535 44.8543 96.879 47.0906 103.877 48.549C107.958 42.8773 111.706 37.2379 116.857 32.506C120.606 29.049 125.24 26.6506 129.838 23.4096C130.392 22.4589 131.463 21.6703 133.051 21.0653C133.272 20.4171 133.678 19.7689 135.34 19.0559C134.638 16.7007 134.731 14.8642 136.54 14.1403C136.559 12.4982 137.408 11.6664 139.07 11.634C139.181 10.5968 139.439 9.65695 140.806 9.44088C140.602 7.59351 140.861 6.37271 142.19 6.49155C141.692 4.84944 142.006 4.00678 143.15 3.97437C143.187 2.60234 143.575 1.75968 144.72 2.08378C144.905 0.754964 145.551 0.37686 146.659 0.949438C147.674 0.128382 148.745 -0.725086 150.112 1.01426C154.081 6.09184 154.506 10.4672 153.601 14.4212C152.364 20.7196 147.822 25.97 140.972 30.3454C131.315 36.5033 124.095 46.7449 126.2 48.8191C131.869 48.3438 134.546 49.4673 134.38 52.6111C135.377 53.443 135.672 54.3936 135.857 55.3659C135.1 55.0202 134.195 54.9554 133.124 55.1823C129.69 58.5205 125.369 59.5361 120.606 59.5037C113.497 61.2214 109.213 61.6643 105.705 61.7724C99.2609 63.0256 93.02 63.9006 86.8899 64.592C81.7937 66.1045 78.8763 66.3962 78.1562 65.4779C75.6451 65.64 74.3895 65.4239 74.4265 64.8189C72.2292 65.1322 70.9367 64.9485 70.5859 64.2679C68.4994 64.0627 67.5947 63.5765 67.8717 62.8095C65.7298 62.4422 65.0097 62.0208 65.7113 61.5347C64.8251 61.0269 62.9602 59.9682 65.6006 60.0114C71.9338 60.1194 78.3409 59.2444 84.7665 58.2289C84.6926 57.7859 84.8219 57.3214 87.5546 56.5975C87.056 56.079 87.3515 55.42 88.4778 54.6313C86.7791 54.8258 85.3204 54.5449 84.0463 53.8103C81.4983 52.2762 75.7559 52.1033 74.2049 51.0662C70.6228 50.7421 67.8347 50.0831 66.1914 48.9272C64.6219 48.9163 63.8834 48.4626 63.2371 47.9549C62.1477 48.0305 61.2245 47.8144 60.449 47.3283C59.0827 47.4147 58.141 47.177 57.624 46.6152C56.4607 46.7233 55.5929 46.5396 55.0205 46.0427C53.1187 46.4316 52.694 45.8914 51.9924 45.5457C50.5337 45.6645 49.4258 45.2972 48.6688 44.4546C46.8778 44.8327 46.1761 44.2817 45.6222 43.5903C43.8127 43.6659 42.871 43.4282 42.7972 42.8773C31.7001 42.3479 16.8549 42.51 14.9715 40.1872C11.7218 39.7011 10.4293 39.0637 11.1125 38.2751C6.62566 38.2534 5.64706 37.3352 6.79185 36.7194C2.24963 36.4709 1.82496 36.0279 3.24671 35.4878C-1.44322 34.1265 -0.778493 32.2144 3.48675 33.7268L3.52366 33.7052Z" fill="url(#paint0_linear_536_28637)"/>
<defs>
<linearGradient id="paint0_linear_536_28637" x1="83.0892" y1="25.9281" x2="83.0892" y2="86.4269" gradientUnits="userSpaceOnUse">
<stop stop-color="#FBFBFB"/>
<stop offset="1" stop-color="#FBFBFB" stop-opacity="0"/>
</linearGradient>
</defs>
</svg>
