<svg width="279" height="75" viewBox="0 0 279 75" fill="none" xmlns="http://www.w3.org/2000/svg">
<rect x="1.0136" y="1.58391" width="276.797" height="72.0621" rx="3.16074" fill="#212121"/>
<rect x="12.7192" y="14.3069" width="102.132" height="46.9576" rx="23.4788" fill="#242424"/>
<g clip-path="url(#clip0_380_33001)">
<path d="M57.5118 40.3142C58.9077 34.2486 55.1221 28.1998 49.0565 26.8039C42.9909 25.4081 36.9422 29.1936 35.5463 35.2592C34.1504 41.3248 37.9359 47.3735 44.0015 48.7694C50.0671 50.1653 56.1159 46.3798 57.5118 40.3142Z" fill="#FFD34F"/>
<path d="M46.5292 47.7478C52.0306 47.7478 56.4905 43.288 56.4905 37.7865C56.4905 32.285 52.0306 27.8252 46.5292 27.8252C41.0277 27.8252 36.5679 32.285 36.5679 37.7865C36.5679 43.288 41.0277 47.7478 46.5292 47.7478Z" fill="#FCB638"/>
<path d="M55.7636 39.9199C56.9422 34.8186 53.7623 29.7278 48.6611 28.5491C43.5599 27.3705 38.469 30.5504 37.2904 35.6516C36.1117 40.7528 39.2916 45.8437 44.3928 47.0223C49.4941 48.201 54.5849 45.0211 55.7636 39.9199Z" fill="#F5A42A"/>
<path d="M54.9472 39.7348C56.0239 35.0823 53.1251 30.4378 48.4725 29.3611C43.8199 28.2844 39.1754 31.1832 38.0987 35.8358C37.022 40.4883 39.9208 45.1328 44.5734 46.2095C49.226 47.2862 53.8705 44.3874 54.9472 39.7348Z" fill="#FCB638"/>
<path d="M46.5265 46.051C51.0915 46.051 54.7922 42.3503 54.7922 37.7852C54.7922 33.2202 51.0915 29.5195 46.5265 29.5195C41.9614 29.5195 38.2607 33.2202 38.2607 37.7852C38.2607 42.3503 41.9614 46.051 46.5265 46.051Z" fill="#FFD34F"/>
<path d="M46.5309 26.8328C46.3993 26.8328 46.2932 26.9389 46.2932 27.0705V27.3082C46.2932 27.4399 46.3993 27.546 46.5309 27.546C46.6626 27.546 46.7687 27.4399 46.7687 27.3082V27.0705C46.7687 26.9389 46.6626 26.8328 46.5309 26.8328Z" fill="#FCB638"/>
<path d="M46.5309 47.9846C46.3993 47.9846 46.2932 48.0907 46.2932 48.2224V48.4601C46.2932 48.5917 46.3993 48.6978 46.5309 48.6978C46.6626 48.6978 46.7687 48.5917 46.7687 48.4601V48.2224C46.7687 48.0907 46.6626 47.9846 46.5309 47.9846Z" fill="#FCB638"/>
<path d="M57.4622 37.7646C57.4622 37.633 57.3561 37.5269 57.2245 37.5269H56.9868C56.8551 37.5269 56.749 37.633 56.749 37.7646C56.749 37.8962 56.8551 38.0023 56.9868 38.0023H57.2245C57.3561 38.0023 57.4622 37.8962 57.4622 37.7646Z" fill="#FCB638"/>
<path d="M36.3101 37.7646C36.3101 37.633 36.204 37.5269 36.0724 37.5269H35.8347C35.703 37.5269 35.5969 37.633 35.5969 37.7646C35.5969 37.8962 35.703 38.0023 35.8347 38.0023H36.0724C36.204 38.0023 36.3101 37.8962 36.3101 37.7646Z" fill="#FCB638"/>
<path d="M54.368 30.1521C54.2756 30.0578 54.1263 30.0558 54.032 30.1462L53.8611 30.3112C53.7667 30.4036 53.7648 30.5529 53.8552 30.6472C53.9475 30.7415 54.0968 30.7435 54.1911 30.6531L54.3621 30.488C54.4564 30.3957 54.4583 30.2464 54.368 30.1521Z" fill="#FCB638"/>
<path d="M39.1927 44.8803C39.1003 44.786 38.951 44.7841 38.8567 44.8744L38.6858 45.0395C38.5915 45.1318 38.5895 45.2812 38.6799 45.3755C38.7722 45.4698 38.9215 45.4717 39.0158 45.3814L39.1868 45.2163C39.2811 45.124 39.283 44.9747 39.1927 44.8803Z" fill="#FCB638"/>
<path d="M54.1352 45.6097C54.2295 45.5173 54.2315 45.368 54.1411 45.2737L53.9761 45.1028C53.8837 45.0084 53.7344 45.0065 53.6401 45.0969C53.5458 45.1892 53.5438 45.3385 53.6342 45.4328L53.7993 45.6038C53.8916 45.6981 54.0409 45.7 54.1352 45.6097Z" fill="#FCB638"/>
<path d="M39.4111 30.4319C39.5054 30.3396 39.5074 30.1903 39.417 30.096L39.252 29.925C39.1596 29.8307 39.0103 29.8287 38.916 29.9191C38.8217 30.0115 38.8197 30.1608 38.9101 30.2551L39.0751 30.426C39.1675 30.5203 39.3168 30.5223 39.4111 30.4319Z" fill="#FCB638"/>
<path d="M48.079 26.9419C47.9493 26.9222 47.8275 27.0126 47.8098 27.1443L47.7764 27.38C47.7587 27.5097 47.8491 27.6315 47.9787 27.6492C48.1084 27.6688 48.2302 27.5785 48.2479 27.4468L48.2813 27.2111C48.299 27.0814 48.2106 26.9596 48.079 26.9419Z" fill="#FCB638"/>
<path d="M45.0741 47.8777C44.9444 47.858 44.8226 47.9484 44.8049 48.0801L44.7715 48.3158C44.7518 48.4455 44.8422 48.5673 44.9739 48.585C45.1035 48.6027 45.2253 48.5143 45.243 48.3826L45.2764 48.1469C45.2961 48.0172 45.2057 47.8954 45.0741 47.8777Z" fill="#FCB638"/>
<path d="M57.3487 39.315C57.3664 39.1854 57.278 39.0635 57.1463 39.0459L56.9105 39.0125C56.7809 38.9948 56.6591 39.0852 56.6414 39.2148C56.6237 39.3445 56.7141 39.4663 56.8437 39.484L57.0795 39.5174C57.2092 39.5371 57.331 39.4467 57.3487 39.315Z" fill="#FCB638"/>
<path d="M36.4104 36.3148C36.4301 36.1851 36.3397 36.0633 36.2081 36.0456L35.9723 36.0122C35.8426 35.9926 35.7208 36.0829 35.7031 36.2146C35.6835 36.3442 35.7739 36.4661 35.9055 36.4837L36.1413 36.5171C36.2709 36.5368 36.3928 36.4464 36.4104 36.3148Z" fill="#FCB638"/>
<path d="M55.2155 31.1243C55.1349 31.0201 54.9856 31.0005 54.8815 31.0791L54.6929 31.2245C54.5887 31.305 54.5691 31.4543 54.6477 31.5585C54.7282 31.6626 54.8776 31.6823 54.9817 31.6037L55.1703 31.4583C55.2744 31.3777 55.2941 31.2284 55.2155 31.1243Z" fill="#FCB638"/>
<path d="M38.4159 43.9724C38.3354 43.8683 38.1861 43.8486 38.0819 43.9272L37.8933 44.0726C37.7892 44.1532 37.7695 44.3025 37.8481 44.4066C37.9287 44.5108 38.078 44.5304 38.1821 44.4518L38.3707 44.3064C38.4749 44.2259 38.4945 44.0765 38.4159 43.9724Z" fill="#FCB638"/>
<path d="M53.1774 46.4487C53.2815 46.3681 53.3012 46.2188 53.2226 46.1146L53.0772 45.926C52.9966 45.8219 52.8473 45.8022 52.7432 45.8808C52.639 45.9614 52.6194 46.1107 52.698 46.2148L52.8434 46.4035C52.9239 46.5076 53.0732 46.5272 53.1774 46.4487Z" fill="#FCB638"/>
<path d="M40.3273 29.6488C40.4314 29.5683 40.4511 29.419 40.3725 29.3148L40.2271 29.1262C40.1465 29.0221 39.9972 29.0024 39.8931 29.081C39.7889 29.1616 39.7693 29.3109 39.8479 29.415L39.9933 29.6037C40.0738 29.7078 40.2231 29.7274 40.3273 29.6488Z" fill="#FCB638"/>
<path d="M49.3396 27.2008C49.2119 27.1674 49.0822 27.2421 49.0488 27.3698L48.9879 27.5997C48.9545 27.7274 49.0292 27.8571 49.1569 27.8905C49.2846 27.9239 49.4143 27.8492 49.4477 27.7215L49.5086 27.4916C49.542 27.3639 49.4673 27.2342 49.3396 27.2008Z" fill="#FCB638"/>
<path d="M43.9019 47.64C43.7742 47.6066 43.6445 47.6813 43.6111 47.809L43.5502 48.0389C43.5168 48.1666 43.5915 48.2963 43.7192 48.3297C43.8469 48.3631 43.9765 48.2884 44.0099 48.1607L44.0709 47.9308C44.1043 47.8031 44.0296 47.6734 43.9019 47.64Z" fill="#FCB638"/>
<path d="M57.0955 40.5762C57.1289 40.4485 57.0543 40.3188 56.9266 40.2854L56.6967 40.2245C56.569 40.1911 56.4393 40.2658 56.4059 40.3935C56.3725 40.5212 56.4472 40.6509 56.5749 40.6843L56.8048 40.7452C56.9325 40.7786 57.0621 40.7039 57.0955 40.5762Z" fill="#FCB638"/>
<path d="M36.6544 35.138C36.6878 35.0103 36.6131 34.8806 36.4854 34.8472L36.2555 34.7863C36.1278 34.7529 35.9981 34.8275 35.9647 34.9552C35.9313 35.083 36.006 35.2126 36.1337 35.246L36.3636 35.3069C36.4913 35.3403 36.621 35.2657 36.6544 35.138Z" fill="#FCB638"/>
<path d="M55.9269 32.1735C55.8601 32.0596 55.7128 32.0242 55.6008 32.091L55.3964 32.2128C55.2825 32.2796 55.2471 32.427 55.3139 32.539C55.3807 32.6529 55.5281 32.6883 55.6401 32.6215L55.8444 32.4997C55.9583 32.4329 55.9937 32.2855 55.9269 32.1735Z" fill="#FCB638"/>
<path d="M37.748 42.9912C37.6812 42.8772 37.5338 42.8418 37.4218 42.9086L37.2175 43.0304C37.1035 43.0972 37.0681 43.2446 37.135 43.3566C37.2018 43.4706 37.3491 43.5059 37.4611 43.4391L37.6654 43.3173C37.7794 43.2505 37.8148 43.1031 37.748 42.9912Z" fill="#FCB638"/>
<path d="M52.1208 47.1603C52.2348 47.0935 52.2701 46.9461 52.2033 46.8342L52.0815 46.6298C52.0147 46.5159 51.8673 46.4805 51.7554 46.5473C51.6434 46.6141 51.606 46.7615 51.6728 46.8735L51.7946 47.0778C51.8615 47.1917 52.0088 47.2271 52.1208 47.1603Z" fill="#FCB638"/>
<path d="M41.3002 28.9853C41.4142 28.9185 41.4495 28.7711 41.3827 28.6591L41.2609 28.4548C41.1941 28.3408 41.0467 28.3055 40.9348 28.3723C40.8208 28.4391 40.7854 28.5864 40.8522 28.6984L40.9741 28.9027C41.0409 29.0167 41.1882 29.0521 41.3002 28.9853Z" fill="#FCB638"/>
<path d="M50.6757 27.6507C50.5539 27.6015 50.4144 27.6585 50.3653 27.7803L50.2749 28.0004C50.2258 28.1222 50.2828 28.2617 50.4046 28.3108C50.5264 28.3599 50.6659 28.303 50.715 28.1811L50.8054 27.9611C50.8545 27.8393 50.7976 27.6998 50.6757 27.6507Z" fill="#FCB638"/>
<path d="M42.6523 47.2198C42.5305 47.1706 42.391 47.2276 42.3419 47.3494L42.2515 47.5695C42.2024 47.6913 42.2594 47.8308 42.3812 47.8799C42.503 47.929 42.6425 47.8721 42.6916 47.7502L42.782 47.5302C42.8311 47.4084 42.7741 47.2689 42.6523 47.2198Z" fill="#FCB638"/>
<path d="M56.6438 41.913C56.6929 41.7912 56.636 41.6517 56.5142 41.6026L56.2941 41.5122C56.1723 41.4631 56.0328 41.5201 55.9837 41.6419C55.9346 41.7637 55.9915 41.9032 56.1133 41.9523L56.3334 42.0427C56.4552 42.0918 56.5947 42.0349 56.6438 41.913Z" fill="#FCB638"/>
<path d="M37.0716 33.8889C37.1207 33.7671 37.0637 33.6276 36.9419 33.5784L36.7218 33.4881C36.6 33.4389 36.4605 33.4959 36.4114 33.6177C36.3623 33.7396 36.4193 33.879 36.5411 33.9282L36.7611 34.0185C36.8829 34.0677 37.0224 34.0107 37.0716 33.8889Z" fill="#FCB638"/>
<path d="M56.5879 33.4836C56.5368 33.3618 56.3973 33.3068 56.2755 33.3579L56.0554 33.4502C55.9336 33.5013 55.8786 33.6408 55.9297 33.7626C55.9808 33.8845 56.1203 33.9395 56.2421 33.8884L56.4621 33.796C56.5839 33.745 56.639 33.6055 56.5879 33.4836Z" fill="#FCB638"/>
<path d="M37.1247 41.7649C37.0737 41.6431 36.9342 41.5881 36.8123 41.6392L36.5923 41.7315C36.4705 41.7826 36.4155 41.9221 36.4665 42.0439C36.5176 42.1657 36.6571 42.2207 36.7789 42.1696L36.999 42.0773C37.1208 42.0262 37.1758 41.8867 37.1247 41.7649Z" fill="#FCB638"/>
<path d="M50.8098 47.8242C50.9316 47.7731 50.9866 47.6336 50.9355 47.5118L50.8432 47.2918C50.7921 47.1699 50.6526 47.1149 50.5308 47.166C50.409 47.2171 50.3539 47.3566 50.405 47.4784L50.4974 47.6985C50.5484 47.8203 50.6879 47.8753 50.8098 47.8242Z" fill="#FCB638"/>
<path d="M42.5263 28.3616C42.6481 28.3105 42.7031 28.171 42.6521 28.0492L42.5597 27.8291C42.5086 27.7073 42.3691 27.6523 42.2473 27.7034C42.1255 27.7544 42.0705 27.8939 42.1216 28.0158L42.2139 28.2358C42.265 28.3576 42.4045 28.4126 42.5263 28.3616Z" fill="#FCB638"/>
<path d="M52.1691 28.401C52.0571 28.3323 51.9097 28.3696 51.8429 28.4816L51.7192 28.6859C51.6504 28.7979 51.6877 28.9453 51.7997 29.0121C51.9117 29.0808 52.0591 29.0435 52.1259 28.9315L52.2496 28.7272C52.3184 28.6152 52.2811 28.4678 52.1691 28.401Z" fill="#FCB638"/>
<path d="M41.2555 46.5187C41.1435 46.4499 40.9962 46.4873 40.9294 46.5993L40.8056 46.8036C40.7368 46.9156 40.7741 47.063 40.8861 47.1298C40.9981 47.1985 41.1455 47.1612 41.2123 47.0492L41.3361 46.8449C41.4048 46.7329 41.3675 46.5855 41.2555 46.5187Z" fill="#FCB638"/>
<path d="M55.8902 43.4079C55.959 43.2959 55.9217 43.1485 55.8097 43.0817L55.6054 42.9579C55.4934 42.8892 55.346 42.9265 55.2792 43.0385C55.2104 43.1505 55.2478 43.2978 55.3598 43.3646L55.5641 43.4884C55.6761 43.5572 55.8234 43.5198 55.8902 43.4079Z" fill="#FCB638"/>
<path d="M37.777 32.4913C37.8457 32.3794 37.8084 32.232 37.6964 32.1652L37.4921 32.0414C37.3801 31.9727 37.2327 32.01 37.1659 32.122C37.0972 32.234 37.1345 32.3813 37.2465 32.4481L37.4508 32.5719C37.5628 32.6407 37.7102 32.6033 37.777 32.4913Z" fill="#FCB638"/>
<path d="M57.0377 34.7426C57.0003 34.6168 56.8687 34.5441 56.7429 34.5795L56.515 34.6463C56.3893 34.6817 56.3166 34.8153 56.352 34.941C56.3893 35.0668 56.5209 35.1394 56.6467 35.1041L56.8746 35.0373C57.0003 35 57.073 34.8683 57.0377 34.7426Z" fill="#FCB638"/>
<path d="M36.7112 40.5907C36.6739 40.465 36.5423 40.3923 36.4165 40.4276L36.1886 40.4944C36.0629 40.5318 35.9902 40.6634 36.0255 40.7892C36.0629 40.9149 36.1945 40.9876 36.3203 40.9522L36.5482 40.8854C36.6739 40.8481 36.7466 40.7165 36.7112 40.5907Z" fill="#FCB638"/>
<path d="M49.5582 48.2745C49.6839 48.2371 49.7566 48.1055 49.7213 47.9798L49.6545 47.7518C49.6171 47.6261 49.4855 47.5534 49.3598 47.5888C49.234 47.6261 49.1613 47.7577 49.1967 47.8835L49.2635 48.1114C49.3008 48.2371 49.4325 48.3098 49.5582 48.2745Z" fill="#FCB638"/>
<path d="M43.7071 27.9459C43.8329 27.9085 43.9056 27.7769 43.8702 27.6511L43.8034 27.4232C43.768 27.2975 43.6344 27.2248 43.5087 27.2602C43.3829 27.2975 43.3102 27.4291 43.3456 27.5549L43.4124 27.7828C43.4497 27.9085 43.5814 27.9812 43.7071 27.9459Z" fill="#FCB638"/>
<path d="M53.303 29.1869C53.1989 29.1063 53.0496 29.122 52.969 29.2262L52.8217 29.4128C52.7411 29.517 52.7568 29.6663 52.8609 29.7468C52.9651 29.8274 53.1144 29.8117 53.195 29.7075L53.3423 29.5209C53.4229 29.4168 53.4071 29.2674 53.303 29.1869Z" fill="#FCB638"/>
<path d="M40.1949 45.7831C40.0907 45.7025 39.9414 45.7182 39.8609 45.8224L39.7135 46.009C39.6329 46.1132 39.6487 46.2625 39.7528 46.343C39.8569 46.4236 40.0062 46.4079 40.0868 46.3037L40.2342 46.1171C40.3147 46.013 40.299 45.8636 40.1949 45.7831Z" fill="#FCB638"/>
<path d="M55.105 44.543C55.1855 44.4389 55.1698 44.2896 55.0657 44.209L54.879 44.0616C54.7749 43.9811 54.6256 43.9968 54.545 44.1009C54.4645 44.2051 54.4802 44.3544 54.5843 44.4349L54.771 44.5823C54.8751 44.6629 55.0244 44.6471 55.105 44.543Z" fill="#FCB638"/>
<path d="M38.5068 31.4305C38.5874 31.3263 38.5717 31.177 38.4676 31.0964L38.2809 30.9491C38.1768 30.8685 38.0274 30.8843 37.9469 30.9884C37.8663 31.0925 37.8821 31.2418 37.9862 31.3224L38.1728 31.4698C38.277 31.5503 38.4263 31.5346 38.5068 31.4305Z" fill="#FCB638"/>
<path d="M57.3526 36.2434C57.3349 36.1137 57.2131 36.0233 57.0834 36.041L56.8476 36.0744C56.718 36.0921 56.6276 36.2139 56.6453 36.3436C56.663 36.4733 56.7848 36.5637 56.9144 36.546L57.1502 36.5126C57.2799 36.4949 57.3703 36.3731 57.3526 36.2434Z" fill="#FCB638"/>
<path d="M36.4075 39.1872C36.3898 39.0576 36.268 38.9672 36.1383 38.9849L35.9026 39.0183C35.7729 39.036 35.6825 39.1578 35.7002 39.2874C35.7179 39.4171 35.8397 39.5075 35.9694 39.4898L36.2051 39.4564C36.3348 39.4387 36.4252 39.3169 36.4075 39.1872Z" fill="#FCB638"/>
<path d="M48.0497 48.5901C48.1793 48.5725 48.2697 48.4506 48.252 48.321L48.2186 48.0852C48.2009 47.9555 48.0791 47.8651 47.9495 47.8828C47.8198 47.9005 47.7294 48.0223 47.7471 48.152L47.7805 48.3878C47.7982 48.5174 47.92 48.6078 48.0497 48.5901Z" fill="#FCB638"/>
<path d="M45.1024 27.6458C45.2321 27.6281 45.3224 27.5063 45.3048 27.3766L45.2714 27.1409C45.2537 27.0112 45.1319 26.9208 45.0022 26.9385C44.8725 26.9562 44.7821 27.078 44.7998 27.2077L44.8332 27.4434C44.8509 27.5731 44.9727 27.6635 45.1024 27.6458Z" fill="#FCB638"/>
<path d="M52.1925 31.7661C51.3653 30.9881 50.379 30.379 49.2866 29.9919C47.9113 31.4026 46.5536 32.829 45.1744 34.2083C43.0367 36.3479 40.9011 38.4915 38.7673 40.635C39.1446 41.6606 39.7202 42.5919 40.4452 43.3798C42.7676 41.0692 45.0879 38.7547 47.4064 36.4403C48.9742 34.8744 50.5991 33.336 52.1925 31.7661Z" fill="#FFE07C"/>
<path d="M48.8144 38.8708C50.4785 37.2263 52.18 35.6054 53.8539 33.9589C53.626 33.5247 53.3628 33.1141 53.0641 32.729C51.4884 34.3283 49.9382 35.9532 48.3664 37.5446C46.105 39.8336 43.8396 42.1186 41.5703 44.4016C41.8906 44.6413 42.2265 44.8594 42.5802 45.0519C44.655 42.9889 46.7317 40.9299 48.8144 38.8728V38.8708Z" fill="#FFE07C"/>
<path d="M41.0418 41.8816L41.1429 41.9404L47.1774 38.4494C47.267 38.3973 47.267 38.268 47.1774 38.2169L46.5054 37.828L44.3392 36.5756C44.2497 36.5235 44.2497 36.3942 44.3392 36.3431L45.0825 35.9118L51.3173 32.304L47.7483 30.2391C47.5404 30.1185 47.2852 30.1185 47.0773 30.2391L41.0408 33.7321C40.8329 33.8527 40.7058 34.0746 40.7058 34.3149V41.3007C40.7058 41.54 40.8339 41.7619 41.0418 41.8816Z" fill="#F5882A"/>
<path d="M53.8522 33.7793L53.7494 33.7214L47.6136 37.2115C47.5225 37.2636 47.5225 37.3929 47.6136 37.444L48.297 37.8328L50.4999 39.0872C50.5909 39.1393 50.5909 39.2686 50.4999 39.3198L49.744 39.7491L43.4016 43.3578L47.03 45.4227C47.2415 45.5433 47.501 45.5433 47.7125 45.4227L53.8512 41.9298C54.0627 41.8092 54.1929 41.5873 54.1929 41.347V34.3612C54.1929 34.1219 54.0627 33.8999 53.8522 33.7793Z" fill="#F5882A"/>
<path d="M40.6094 41.66L40.7047 41.7156L46.3929 38.4141C46.4773 38.3648 46.4773 38.2425 46.3929 38.1941L45.7594 37.8264L43.7176 36.6419C43.6332 36.5926 43.6332 36.4704 43.7176 36.422L44.4182 36.0141L50.2951 32.6021L46.931 30.6493C46.735 30.5352 46.4945 30.5352 46.2985 30.6493L40.6085 33.9527C40.4125 34.0667 40.2927 34.2766 40.2927 34.5038V41.1106C40.2927 41.3369 40.4134 41.5468 40.6094 41.66Z" fill="#FDB628"/>
<path d="M52.6847 33.9969L52.5878 33.9421L46.8042 37.2428C46.7183 37.2921 46.7183 37.4143 46.8042 37.4627L47.4483 37.8305L49.5248 39.0168C49.6106 39.066 49.6106 39.1883 49.5248 39.2367L48.8123 39.6428L42.834 43.0557L46.2541 45.0085C46.4535 45.1226 46.698 45.1226 46.8974 45.0085L52.6838 41.7051C52.8831 41.591 53.0059 41.3811 53.0059 41.1539V34.5472C53.0059 34.3208 52.8831 34.111 52.6847 33.9969Z" fill="#FDB628"/>
</g>
<path opacity="0.9" d="M73.0634 44.7856V42.1885H66.1708V40.1507L72.7237 30.8008H75.6206V39.9709H77.4586V42.1885H75.6206V44.7856H73.0634ZM68.9079 39.9709H73.2232V33.6178L68.9079 39.9709ZM85.2027 45.0254C83.9108 45.0254 82.8053 44.7257 81.8863 44.1264C80.9673 43.5137 80.2547 42.6679 79.7486 41.5891C79.2558 40.497 79.0094 39.2317 79.0094 37.7932C79.0094 36.3681 79.2558 35.1095 79.7486 34.0173C80.2547 32.9252 80.9673 32.0794 81.8863 31.4801C82.8053 30.8674 83.9108 30.5611 85.2027 30.5611C86.4946 30.5611 87.6001 30.8674 88.5191 31.4801C89.4381 32.0794 90.144 32.9252 90.6368 34.0173C91.1429 35.1095 91.396 36.3681 91.396 37.7932C91.396 39.2317 91.1429 40.497 90.6368 41.5891C90.144 42.6679 89.4381 43.5137 88.5191 44.1264C87.6001 44.7257 86.4946 45.0254 85.2027 45.0254ZM85.2027 42.7279C86.2549 42.7279 87.1139 42.2884 87.7799 41.4093C88.4458 40.5303 88.7788 39.3249 88.7788 37.7932C88.7788 36.2616 88.4458 35.0562 87.7799 34.1772C87.1139 33.2981 86.2549 32.8586 85.2027 32.8586C84.1372 32.8586 83.2714 33.2981 82.6055 34.1772C81.9529 35.0562 81.6266 36.2616 81.6266 37.7932C81.6266 39.3249 81.9529 40.5303 82.6055 41.4093C83.2714 42.2884 84.1372 42.7279 85.2027 42.7279Z" fill="#FBFFFF"/>
<rect x="114.852" y="14.3069" width="151.254" height="46.9576" rx="23.4788" fill="#242424"/>
<g filter="url(#filter0_i_380_33001)">
<path d="M137.895 43.7822L138.051 43.8688L147.345 38.7314C147.483 38.6547 147.483 38.4644 147.345 38.3892L146.31 37.8169L142.974 35.9738C142.836 35.8972 142.836 35.7069 142.974 35.6316L144.118 34.9969L153.721 29.6877L148.224 26.649C147.904 26.4715 147.511 26.4715 147.191 26.649L137.893 31.7892C137.573 31.9667 137.377 32.2933 137.377 32.6469V42.9273C137.377 43.2795 137.575 43.6061 137.895 43.7822Z" fill="url(#paint0_radial_380_33001)"/>
</g>
<g filter="url(#filter1_i_380_33001)">
<path d="M157.525 31.7883L157.369 31.7031L148.077 36.8391C147.939 36.9158 147.939 37.1061 148.077 37.1813L149.112 37.7535L152.448 39.5995C152.586 39.6762 152.586 39.8664 152.448 39.9417L151.303 40.5736L141.698 45.8842L147.193 48.9229C147.513 49.1004 147.906 49.1004 148.226 48.9229L157.523 43.7827C157.844 43.6052 158.041 43.2786 158.041 42.925V32.6446C158.041 32.2924 157.844 31.9658 157.525 31.7883Z" fill="url(#paint1_radial_380_33001)"/>
</g>
<path opacity="0.9" d="M168.443 44.7856V33.7177L166.145 34.2571V32.2992L169.521 30.8008H171.1V44.7856H168.443ZM178.826 45.0254C177.8 45.0254 176.915 44.8456 176.169 44.486C175.436 44.1264 174.857 43.6336 174.431 43.0076C174.018 42.3683 173.778 41.649 173.711 40.8499H176.209C176.329 41.4226 176.622 41.9021 177.088 42.2884C177.554 42.6613 178.133 42.8477 178.826 42.8477C179.572 42.8477 180.178 42.5747 180.644 42.0286C181.123 41.4826 181.363 40.8033 181.363 39.9908C181.363 39.1518 181.123 38.4858 180.644 37.993C180.178 37.5002 179.585 37.2538 178.866 37.2538C178.266 37.2538 177.747 37.4003 177.307 37.6933C176.868 37.9864 176.555 38.3526 176.368 38.7921H173.911L175.11 30.8008H182.861V33.0384H177.028L176.388 36.2749C176.681 35.9552 177.081 35.6955 177.587 35.4957C178.093 35.2826 178.659 35.1761 179.285 35.1761C180.284 35.1761 181.117 35.4025 181.783 35.8553C182.449 36.2949 182.955 36.8809 183.301 37.6134C183.647 38.3326 183.82 39.1185 183.82 39.9709C183.82 40.9431 183.607 41.8089 183.181 42.5681C182.768 43.3272 182.182 43.9266 181.423 44.3661C180.677 44.8056 179.811 45.0254 178.826 45.0254ZM191.934 45.0254C190.642 45.0254 189.537 44.7257 188.618 44.1264C187.699 43.5137 186.986 42.6679 186.48 41.5891C185.987 40.497 185.741 39.2317 185.741 37.7932C185.741 36.3681 185.987 35.1095 186.48 34.0173C186.986 32.9252 187.699 32.0794 188.618 31.4801C189.537 30.8674 190.642 30.5611 191.934 30.5611C193.226 30.5611 194.331 30.8674 195.25 31.4801C196.169 32.0794 196.875 32.9252 197.368 34.0173C197.874 35.1095 198.127 36.3681 198.127 37.7932C198.127 39.2317 197.874 40.497 197.368 41.5891C196.875 42.6679 196.169 43.5137 195.25 44.1264C194.331 44.7257 193.226 45.0254 191.934 45.0254ZM191.934 42.7279C192.986 42.7279 193.845 42.2884 194.511 41.4093C195.177 40.5303 195.51 39.3249 195.51 37.7932C195.51 36.2616 195.177 35.0562 194.511 34.1772C193.845 33.2981 192.986 32.8586 191.934 32.8586C190.868 32.8586 190.003 33.2981 189.337 34.1772C188.684 35.0562 188.358 36.2616 188.358 37.7932C188.358 39.3249 188.684 40.5303 189.337 41.4093C190.003 42.2884 190.868 42.7279 191.934 42.7279ZM206.118 45.0254C204.826 45.0254 203.72 44.7257 202.801 44.1264C201.882 43.5137 201.17 42.6679 200.664 41.5891C200.171 40.497 199.924 39.2317 199.924 37.7932C199.924 36.3681 200.171 35.1095 200.664 34.0173C201.17 32.9252 201.882 32.0794 202.801 31.4801C203.72 30.8674 204.826 30.5611 206.118 30.5611C207.41 30.5611 208.515 30.8674 209.434 31.4801C210.353 32.0794 211.059 32.9252 211.552 34.0173C212.058 35.1095 212.311 36.3681 212.311 37.7932C212.311 39.2317 212.058 40.497 211.552 41.5891C211.059 42.6679 210.353 43.5137 209.434 44.1264C208.515 44.7257 207.41 45.0254 206.118 45.0254ZM206.118 42.7279C207.17 42.7279 208.029 42.2884 208.695 41.4093C209.361 40.5303 209.694 39.3249 209.694 37.7932C209.694 36.2616 209.361 35.0562 208.695 34.1772C208.029 33.2981 207.17 32.8586 206.118 32.8586C205.052 32.8586 204.187 33.2981 203.521 34.1772C202.868 35.0562 202.542 36.2616 202.542 37.7932C202.542 39.3249 202.868 40.5303 203.521 41.4093C204.187 42.2884 205.052 42.7279 206.118 42.7279ZM218.649 44.7856L223.024 37.7133L218.589 30.8008H221.526L224.662 35.6755L227.539 30.8008H230.416L226.041 37.8332L230.516 44.7856H227.579L224.403 39.851L221.526 44.7856H218.649ZM232.498 44.7856V30.8008H237.672C238.791 30.8008 239.716 30.9873 240.449 31.3602C241.181 31.7331 241.728 32.2459 242.087 32.8985C242.447 33.5512 242.627 34.2837 242.627 35.0962C242.627 35.8687 242.453 36.5812 242.107 37.2338C241.761 37.8731 241.221 38.3926 240.489 38.7921C239.756 39.1784 238.817 39.3715 237.672 39.3715H235.055V44.7856H232.498ZM235.055 37.2938H237.512C238.404 37.2938 239.044 37.1007 239.43 36.7144C239.83 36.3148 240.029 35.7754 240.029 35.0962C240.029 34.4036 239.83 33.8642 239.43 33.4779C239.044 33.0783 238.404 32.8786 237.512 32.8786H235.055V37.2938Z" fill="#FBFFFF"/>
<rect x="1.0136" y="1.58391" width="276.797" height="72.0621" rx="3.16074" stroke="#424242" stroke-width="1.19174"/>
<defs>
<filter id="filter0_i_380_33001" x="137.377" y="26.5159" width="16.3435" height="17.5263" filterUnits="userSpaceOnUse" color-interpolation-filters="sRGB">
<feFlood flood-opacity="0" result="BackgroundImageFix"/>
<feBlend mode="normal" in="SourceGraphic" in2="BackgroundImageFix" result="shape"/>
<feColorMatrix in="SourceAlpha" type="matrix" values="0 0 0 0 0 0 0 0 0 0 0 0 0 0 0 0 0 0 127 0" result="hardAlpha"/>
<feOffset dy="0.173481"/>
<feGaussianBlur stdDeviation="0.173481"/>
<feComposite in2="hardAlpha" operator="arithmetic" k2="-1" k3="1"/>
<feColorMatrix type="matrix" values="0 0 0 0 0 0 0 0 0 0 0 0 0 0 0 0 0 0 0.45 0"/>
<feBlend mode="normal" in2="shape" result="effect1_innerShadow_380_33001"/>
</filter>
<filter id="filter1_i_380_33001" x="141.698" y="31.7031" width="16.3435" height="17.5265" filterUnits="userSpaceOnUse" color-interpolation-filters="sRGB">
<feFlood flood-opacity="0" result="BackgroundImageFix"/>
<feBlend mode="normal" in="SourceGraphic" in2="BackgroundImageFix" result="shape"/>
<feColorMatrix in="SourceAlpha" type="matrix" values="0 0 0 0 0 0 0 0 0 0 0 0 0 0 0 0 0 0 127 0" result="hardAlpha"/>
<feOffset dy="0.173481"/>
<feGaussianBlur stdDeviation="0.173481"/>
<feComposite in2="hardAlpha" operator="arithmetic" k2="-1" k3="1"/>
<feColorMatrix type="matrix" values="0 0 0 0 0 0 0 0 0 0 0 0 0 0 0 0 0 0 0.35 0"/>
<feBlend mode="normal" in2="shape" result="effect1_innerShadow_380_33001"/>
</filter>
<radialGradient id="paint0_radial_380_33001" cx="0" cy="0" r="1" gradientUnits="userSpaceOnUse" gradientTransform="translate(133.988 47.7928) scale(33.0694 31.6679)">
<stop stop-color="#DE956E"/>
<stop offset="0.9955" stop-color="#E6C4B3"/>
</radialGradient>
<radialGradient id="paint1_radial_380_33001" cx="0" cy="0" r="1" gradientUnits="userSpaceOnUse" gradientTransform="translate(133.991 47.7933) scale(33.0694 31.6679)">
<stop stop-color="#E69D77"/>
<stop offset="0.9955" stop-color="#E6C8B3"/>
</radialGradient>
<clipPath id="clip0_380_33001">
<rect width="22.5396" height="22.5396" fill="white" transform="translate(35.2585 26.5159)"/>
</clipPath>
</defs>
</svg>
