<svg width="29" height="28" viewBox="0 0 29 28" fill="none" xmlns="http://www.w3.org/2000/svg">
<g opacity="0.9">
<path d="M23.0565 2.75469C22.9051 1.94022 23.4426 1.15719 24.257 1.00575C25.0715 0.854301 25.8545 1.39178 26.006 2.20625L23.0565 2.75469ZM26.006 2.20625L28.8705 17.6113L25.921 18.1597L23.0565 2.75469L26.006 2.20625Z" fill="#FFF616"/>
<path d="M8.18904 3.80823C7.77502 3.09068 8.02109 2.17336 8.73864 1.75935C9.45619 1.34533 10.3735 1.5914 10.7875 2.30895L8.18904 3.80823ZM10.7875 2.30895L21.5794 21.013L18.9809 22.5123L8.18904 3.80823L10.7875 2.30895Z" fill="#FFF616"/>
<path d="M0.991042 17.1842C0.37803 16.6269 0.332811 15.6783 0.890044 15.0653C1.44728 14.4522 2.39595 14.407 3.00896 14.9643L0.991042 17.1842ZM3.00896 14.9643L14.6036 25.5039L12.5857 27.7238L0.991042 17.1842L3.00896 14.9643Z" fill="#FFF616"/>
</g>
</svg>
