<svg width="278" height="57" viewBox="0 0 278 57" fill="none" xmlns="http://www.w3.org/2000/svg">
<path d="M12.0303 44.7891V43.4117C12.6843 43.3289 13.1366 43.1417 13.394 42.8444C13.6514 42.5466 13.7837 42.0482 13.7837 41.3424V18.4732C13.7837 17.7531 13.6514 17.2412 13.394 16.9295C13.1366 16.6182 12.6843 16.4243 12.0303 16.3411V14.9847H20.3866C23.295 14.9847 25.5632 15.5866 27.1984 16.798C28.8264 18.0095 29.6475 19.6843 29.6475 21.8162C29.6475 23.7198 29.0074 25.3117 27.7342 26.592C26.4539 27.8727 24.638 28.7449 22.2723 29.2155C24.9373 29.6515 26.9688 30.5168 28.3744 31.8112C29.7796 33.1054 30.4827 34.7666 30.4827 36.7809C30.4827 39.3766 29.6475 41.3631 27.9777 42.7333C26.308 44.104 23.8864 44.7891 20.7207 44.7891H12.0303ZM19.0019 28.5858H19.5099C21.1034 28.5858 22.2512 28.1081 22.9539 27.153C23.6638 26.1975 24.0118 24.6266 24.0118 22.4391C24.0118 20.0721 23.7405 18.466 23.2046 17.615C22.6687 16.7634 21.7158 16.3343 20.338 16.3343C19.7954 16.3343 19.4333 16.4315 19.2595 16.625C19.0855 16.8188 18.9951 17.2205 18.9951 17.8295V28.5858H19.0019ZM19.0019 29.8871V41.2246C19.0019 42.0482 19.1272 42.6227 19.3707 42.9411C19.6142 43.2597 20.0389 43.4188 20.6371 43.4188C21.9938 43.4188 23.0028 42.9272 23.6638 41.9376C24.325 40.9479 24.6519 39.4251 24.6519 37.3554C24.6519 34.7045 24.2136 32.8009 23.3299 31.6451C22.4391 30.4823 20.9988 29.9006 19.0019 29.8871Z" fill="#FBFFFF"/>
<path d="M42.8546 28.5099C42.8546 27.769 42.75 27.2499 42.5484 26.9593C42.3466 26.6687 41.971 26.4676 41.4284 26.3641V25.0628C42.7222 25.0628 43.8354 25.0489 44.7679 25.0142C45.7074 24.9796 46.57 24.9313 47.3561 24.8622V41.3839C47.3561 42.1523 47.4675 42.6854 47.6903 42.9693C47.9126 43.253 48.3305 43.4329 48.9426 43.5158V44.8725C47.3007 44.9419 46.0623 44.9971 45.241 45.0457C44.4199 45.0938 43.6616 45.1425 42.9657 45.1977L42.8825 42.2562C42.082 43.3219 41.2892 44.0974 40.5167 44.5748C39.7441 45.0525 38.9024 45.2948 37.9908 45.2948C36.495 45.2948 35.4373 44.8032 34.8111 43.8274C34.1849 42.8446 33.8719 41.1487 33.8719 38.7262V28.5099C33.8719 27.7415 33.7747 27.2153 33.5797 26.9386C33.3848 26.6615 33.016 26.4676 32.4873 26.3641V25.0628C33.7815 25.0628 34.8947 25.0489 35.8272 25.0142C36.7663 24.9796 37.6293 24.9313 38.4154 24.8622V39.1968C38.4154 40.3597 38.5546 41.1902 38.8327 41.6817C39.1111 42.1731 39.5703 42.4222 40.2105 42.4222C41.0385 42.4222 41.6858 42.0277 42.1448 41.2387C42.604 40.4497 42.8407 39.3353 42.8407 37.9023V28.5099H42.8546Z" fill="#FBFFFF"/>
<path d="M51.1288 36.9055H52.5761C52.9585 39.0648 53.6197 40.7747 54.5659 42.0135C55.5123 43.2596 56.5977 43.8825 57.8363 43.8825C58.5457 43.8825 59.1233 43.6541 59.5758 43.2043C60.0276 42.7544 60.2572 42.1728 60.2572 41.4737C60.2572 40.906 60.0767 40.3454 59.7078 39.7918C59.339 39.238 58.8103 38.7328 58.1144 38.269C57.9267 38.1444 57.6553 37.9712 57.3004 37.7432C54.4199 35.8533 52.6526 34.372 51.9986 33.2991C51.6993 32.8287 51.4764 32.3094 51.3376 31.7558C51.1912 31.202 51.1221 30.6207 51.1221 30.0113C51.1221 28.4678 51.5878 27.1804 52.5205 26.1353C53.4526 25.0972 54.5937 24.5708 55.9576 24.5708C56.5699 24.5708 57.2657 24.7301 58.0587 25.0485C58.8449 25.367 59.3323 25.5263 59.506 25.5263C59.7356 25.5263 59.9513 25.443 60.1462 25.2839C60.3408 25.1246 60.5079 24.8966 60.6471 24.6127H61.9343V31.9149H60.5498C60.0209 29.9698 59.3601 28.4817 58.5736 27.4643C57.7874 26.4466 56.9038 25.9347 55.9226 25.9347C55.3381 25.9347 54.8372 26.1421 54.4267 26.5646C54.0094 26.9865 53.8076 27.4988 53.8076 28.1079C53.8076 29.2016 54.9764 30.4751 57.3143 31.9217L57.3979 31.9636C59.5619 33.3132 61.0507 34.538 61.8718 35.632C62.6926 36.7255 63.1032 37.9712 63.1032 39.3625C63.1032 40.996 62.5677 42.3944 61.4958 43.5573C60.4244 44.7202 59.1233 45.3014 57.5995 45.3014C56.8412 45.3014 56.0479 45.1215 55.2271 44.7544C54.406 44.3879 53.919 44.2079 53.773 44.2079C53.6125 44.2079 53.432 44.277 53.2298 44.4085C53.0353 44.547 52.7221 44.8376 52.3048 45.3014H51.1427V36.9055H51.1288Z" fill="#FBFFFF"/>
<path d="M71.0617 41.3838C71.0617 42.1107 71.1798 42.6297 71.4095 42.9343C71.6391 43.2388 72.0563 43.4464 72.6548 43.5503V44.789H64.9666V43.5503C65.5789 43.4394 65.9962 43.2388 66.219 42.9343C66.4413 42.6297 66.5527 42.1107 66.5527 41.3838V28.5857C66.5527 27.8034 66.4345 27.2635 66.2049 26.9729C65.9755 26.6819 65.5648 26.5021 64.9805 26.4328V25.0558C65.7249 25.0278 66.5459 24.9932 67.4296 24.9447C68.3132 24.8964 69.524 24.8271 71.0545 24.73V41.3838H71.0617ZM70.9431 17.3724C70.9431 18.0507 70.6857 18.6391 70.178 19.1443C69.67 19.6496 69.0715 19.9059 68.3968 19.9059C67.7148 19.9059 67.1233 19.6568 66.6157 19.1584C66.1076 18.6598 65.8502 18.0646 65.8502 17.3724C65.8502 16.694 66.1076 16.1056 66.6157 15.6004C67.1233 15.0953 67.7217 14.8392 68.3968 14.8392C69.0924 14.8392 69.6906 15.0953 70.1919 15.6004C70.6928 16.1056 70.9431 16.7011 70.9431 17.3724Z" fill="#FBFFFF"/>
<path d="M80.7877 41.3833C80.7877 42.1102 80.9059 42.6292 81.1355 42.9338C81.3653 43.2385 81.7828 43.4459 82.381 43.5498V44.7887H74.6924V43.5498C75.2908 43.4391 75.7013 43.2385 75.917 42.9407C76.1327 42.643 76.2442 42.1237 76.2442 41.3766V28.5852C76.2442 27.789 76.1327 27.2491 75.9103 26.9655C75.6874 26.6816 75.2908 26.5088 74.7202 26.4394V25.062C76.3137 24.9927 77.5177 24.9375 78.3455 24.8888C79.1735 24.8407 79.939 24.7921 80.6276 24.7368L80.7112 27.6784C81.5113 26.6401 82.3043 25.8789 83.0769 25.4081C83.8492 24.9375 84.6911 24.6949 85.6025 24.6949C87.0985 24.6949 88.156 25.1794 88.7822 26.1556C89.4084 27.1317 89.7216 28.8274 89.7216 31.2429V41.3833C89.7216 42.1237 89.8259 42.643 90.0275 42.9338C90.2297 43.2246 90.5914 43.4324 91.1062 43.5498V44.7887H85.1711V30.7584C85.1711 29.5681 85.0389 28.7374 84.7745 28.2668C84.51 27.7962 84.0581 27.5538 83.418 27.5538C82.5899 27.5538 81.9427 27.9414 81.4835 28.7165C81.0244 29.4916 80.7877 30.5993 80.7877 32.0319V41.3833Z" fill="#FBFFFF"/>
<path d="M105.412 38.1033H106.755C106.595 40.3597 105.934 42.1245 104.786 43.3984C103.638 44.6719 102.135 45.3016 100.27 45.3016C98.1062 45.3016 96.3389 44.3674 94.9611 42.5055C93.5837 40.6364 92.8945 38.2207 92.8945 35.2444C92.8945 32.0673 93.5698 29.4924 94.9125 27.527C96.2553 25.5612 97.988 24.5781 100.11 24.5781C102.191 24.5781 103.819 25.5126 104.994 27.3884C106.17 29.2642 106.755 31.8805 106.755 35.2444V35.4037H97.9461V36.1514C97.9461 38.463 98.2315 40.2072 98.8019 41.3907C99.3726 42.5746 100.228 43.1626 101.369 43.1626C102.427 43.1626 103.311 42.7268 104.02 41.8478C104.73 40.9755 105.196 39.7227 105.412 38.1033ZM97.9112 33.7424H102.093V32.4618C102.093 30.0254 101.94 28.3228 101.648 27.3538C101.349 26.3777 100.841 25.8932 100.117 25.8932C99.3865 25.8932 98.8298 26.5094 98.4681 27.7416C98.0994 28.9732 97.9183 30.8355 97.9183 33.3412V33.7424H97.9112Z" fill="#FBFFFF"/>
<path d="M108.899 36.9055H110.346C110.729 39.0648 111.389 40.7747 112.336 42.0135C113.282 43.2596 114.367 43.8825 115.606 43.8825C116.316 43.8825 116.893 43.6541 117.345 43.2043C117.798 42.7544 118.027 42.1728 118.027 41.4737C118.027 40.906 117.846 40.3454 117.478 39.7918C117.109 39.238 116.58 38.7328 115.884 38.269C115.696 38.1444 115.425 37.9712 115.07 37.7432C112.19 35.8533 110.422 34.372 109.768 33.2991C109.469 32.8287 109.247 32.3094 109.107 31.7558C108.961 31.202 108.892 30.6207 108.892 30.0113C108.892 28.4678 109.358 27.1804 110.29 26.1353C111.222 25.0972 112.363 24.5708 113.727 24.5708C114.34 24.5708 115.035 24.7301 115.828 25.0485C116.615 25.367 117.102 25.5263 117.276 25.5263C117.505 25.5263 117.721 25.443 117.916 25.2839C118.111 25.1246 118.278 24.8966 118.417 24.6127H119.704V31.9149H118.319C117.791 29.9698 117.13 28.4817 116.344 27.4643C115.557 26.4466 114.674 25.9347 113.693 25.9347C113.108 25.9347 112.607 26.1421 112.197 26.5646C111.779 26.9865 111.577 27.4988 111.577 28.1079C111.577 29.2016 112.746 30.4751 115.084 31.9217L115.167 31.9636C117.332 33.3132 118.82 34.538 119.641 35.632C120.463 36.7255 120.873 37.9712 120.873 39.3625C120.873 40.996 120.337 42.3944 119.266 43.5573C118.194 44.7202 116.893 45.3014 115.369 45.3014C114.611 45.3014 113.818 45.1215 112.997 44.7544C112.176 44.3879 111.689 44.2079 111.543 44.2079C111.383 44.2079 111.202 44.277 111 44.4085C110.805 44.547 110.492 44.8376 110.075 45.3014H108.912V36.9055H108.899Z" fill="#FBFFFF"/>
<path d="M123.002 36.9055H124.449C124.832 39.0648 125.493 40.7747 126.439 42.0135C127.386 43.2596 128.471 43.8825 129.709 43.8825C130.419 43.8825 130.997 43.6541 131.449 43.2043C131.901 42.7544 132.131 42.1728 132.131 41.4737C132.131 40.906 131.95 40.3454 131.581 39.7918C131.212 39.238 130.684 38.7328 129.988 38.269C129.8 38.1444 129.529 37.9712 129.174 37.7432C126.293 35.8533 124.526 34.372 123.872 33.2991C123.573 32.8287 123.35 32.3094 123.211 31.7558C123.065 31.202 122.995 30.6207 122.995 30.0113C122.995 28.4678 123.461 27.1804 124.394 26.1353C125.326 25.0972 126.467 24.5708 127.831 24.5708C128.443 24.5708 129.139 24.7301 129.932 25.0485C130.718 25.367 131.205 25.5263 131.379 25.5263C131.609 25.5263 131.825 25.443 132.019 25.2839C132.214 25.1246 132.381 24.8966 132.521 24.6127H133.808V31.9149H132.423C131.894 29.9698 131.233 28.4817 130.447 27.4643C129.661 26.4466 128.777 25.9347 127.796 25.9347C127.212 25.9347 126.711 26.1421 126.3 26.5646C125.883 26.9865 125.681 27.4988 125.681 28.1079C125.681 29.2016 126.85 30.4751 129.188 31.9217L129.271 31.9636C131.435 33.3132 132.924 34.538 133.745 35.632C134.566 36.7255 134.977 37.9712 134.977 39.3625C134.977 40.996 134.441 42.3944 133.369 43.5573C132.298 44.7202 130.997 45.3014 129.473 45.3014C128.715 45.3014 127.921 45.1215 127.1 44.7544C126.279 44.3879 125.792 44.2079 125.646 44.2079C125.486 44.2079 125.305 44.277 125.103 44.4085C124.909 44.547 124.596 44.8376 124.178 45.3014H123.016V36.9055H123.002Z" fill="#FBFFFF"/>
<path d="M145.65 45.3015V35.0783H147.404C148.099 37.8466 149.018 39.9856 150.172 41.4736C151.327 42.969 152.636 43.7162 154.082 43.7162C155.036 43.7162 155.809 43.4049 156.4 42.7819C156.992 42.1588 157.284 41.3491 157.284 40.3455C157.284 39.3833 156.991 38.4143 156.407 37.4247C155.822 36.4346 154.438 34.8359 152.246 32.6208C151.92 32.3095 151.46 31.8664 150.861 31.2851C149.039 29.4993 147.856 28.2051 147.313 27.3951C146.728 26.5021 146.29 25.6023 145.998 24.6887C145.706 23.7751 145.56 22.8542 145.56 21.92C145.56 19.8507 146.165 18.1133 147.382 16.7081C148.6 15.3027 150.075 14.5969 151.815 14.5969C152.538 14.5969 153.36 14.8047 154.277 15.2266C155.202 15.6491 155.787 15.8565 156.031 15.8565C156.344 15.8565 156.637 15.7598 156.907 15.5731C157.18 15.3859 157.415 15.1021 157.624 14.7215H158.989V24.4327H157.319C156.707 21.6778 155.927 19.5943 154.975 18.1962C154.021 16.7979 152.914 16.0989 151.647 16.0989C150.792 16.0989 150.089 16.3688 149.546 16.9088C149.004 17.4485 148.732 18.1475 148.732 18.9991C148.732 20.5426 150.361 22.889 153.625 26.0594L154.034 26.4467C154.133 26.5439 154.291 26.6891 154.521 26.8899C156.044 28.3086 157.298 29.6654 158.292 30.9667C159.024 31.9702 159.58 33.0292 159.941 34.1508C160.31 35.2717 160.492 36.4418 160.492 37.6599C160.492 39.861 159.885 41.6814 158.669 43.1143C157.45 44.5471 155.921 45.2668 154.069 45.2668C153.13 45.2668 152.115 45.0316 151.014 44.5538C149.915 44.0765 149.247 43.8409 149.018 43.8409C148.705 43.8409 148.419 43.9309 148.162 44.1178C147.904 44.3045 147.536 44.6923 147.063 45.3015H145.65Z" fill="#FBFFFF"/>
<path d="M164.02 40.6364V26.7241H161.938V25.0628C163.379 24.3083 164.507 23.1937 165.322 21.7263C166.135 20.2589 166.656 18.397 166.893 16.1406H168.521V25.0628H172.146V26.7241H168.521V40.7127C168.521 41.4947 168.599 42.0416 168.757 42.3461C168.917 42.6507 169.182 42.8028 169.564 42.8028C170.093 42.8028 170.505 42.429 170.796 41.6886C171.09 40.9481 171.234 39.9165 171.234 38.6084H172.578V38.9336C172.578 41.0174 172.188 42.5954 171.408 43.6818C170.63 44.7619 169.481 45.3016 167.971 45.3016C166.615 45.3016 165.613 44.9279 164.972 44.1735C164.333 43.419 164.02 42.2422 164.02 40.6364Z" fill="#FBFFFF"/>
<path d="M181.852 42.54C181.267 43.4464 180.599 44.132 179.856 44.5958C179.11 45.059 178.295 45.2948 177.426 45.2948C176.216 45.2948 175.227 44.8656 174.449 44.0074C173.668 43.1491 173.286 42.0484 173.286 40.7127C173.286 38.9269 174.01 37.293 175.457 35.8121C176.905 34.3308 178.944 33.1473 181.58 32.2544V29.458C181.58 28.2534 181.406 27.4022 181.059 26.8899C180.711 26.3776 180.126 26.1283 179.297 26.1283C178.929 26.1283 178.575 26.1977 178.226 26.3294C177.878 26.4676 177.565 26.6474 177.28 26.876C177.822 27.0632 178.247 27.3538 178.546 27.7483C178.846 28.1428 178.992 28.5997 178.992 29.1257C178.992 29.7761 178.768 30.3025 178.33 30.7109C177.892 31.1189 177.308 31.3199 176.592 31.3199C175.804 31.3199 175.165 31.0915 174.684 30.6276C174.205 30.1706 173.962 29.5754 173.962 28.8418C173.962 27.679 174.574 26.6822 175.798 25.8516C177.023 25.0213 178.539 24.6057 180.342 24.6057C182.325 24.6057 183.785 25.0348 184.71 25.8931C185.643 26.7513 186.11 28.108 186.11 29.956V40.6223C186.11 41.3771 186.158 41.8684 186.255 42.0829C186.353 42.2975 186.52 42.4081 186.763 42.4081C187.078 42.4081 187.305 42.2214 187.46 41.8477C187.605 41.4739 187.682 40.9062 187.682 40.131H188.74V40.6988C188.74 42.1868 188.447 43.3219 187.869 44.1041C187.292 44.8864 186.464 45.2809 185.394 45.2809C184.606 45.2809 183.924 45.059 183.347 44.6093C182.769 44.1594 182.275 43.4882 181.852 42.54ZM181.588 33.8602C180.417 34.1993 179.506 34.8914 178.853 35.9366C178.199 36.9817 177.87 38.2969 177.87 39.8819C177.87 40.8027 177.996 41.4878 178.247 41.9516C178.498 42.4081 178.873 42.6435 179.38 42.6435C179.993 42.6435 180.516 42.2907 180.941 41.5778C181.364 40.8648 181.58 39.9717 181.58 38.8921V33.8602H181.588Z" fill="#FBFFFF"/>
<path d="M195.962 41.3833C195.962 42.1102 196.079 42.6292 196.309 42.9338C196.539 43.2385 196.956 43.4459 197.555 43.5498V44.7887H189.873V43.5498C190.472 43.4391 190.881 43.2385 191.097 42.9407C191.314 42.643 191.424 42.1237 191.424 41.3766V28.5852C191.424 27.789 191.314 27.2491 191.092 26.9655C190.868 26.6816 190.472 26.5088 189.902 26.4394V25.062C191.495 24.9927 192.698 24.9375 193.527 24.8888C194.353 24.8407 195.12 24.7921 195.809 24.7368L195.892 27.6784C196.692 26.6401 197.485 25.8789 198.258 25.4081C199.03 24.9375 199.872 24.6949 200.783 24.6949C202.278 24.6949 203.336 25.1794 203.962 26.1556C204.589 27.1317 204.902 28.8274 204.902 31.2429V41.3833C204.902 42.1237 205.007 42.643 205.209 42.9338C205.41 43.2246 205.771 43.4324 206.287 43.5498V44.7887H200.351V30.7584C200.351 29.5681 200.22 28.7374 199.955 28.2668C199.69 27.7962 199.239 27.5538 198.597 27.5538C197.771 27.5538 197.124 27.9414 196.665 28.7165C196.205 29.4916 195.967 30.5993 195.967 32.0319V41.3833H195.962Z" fill="#FBFFFF"/>
<path d="M218.379 18.3692C218.379 17.6424 218.24 17.1233 217.97 16.8259C217.698 16.5282 217.184 16.3275 216.417 16.2167V14.9847C217.572 14.9293 218.692 14.8736 219.772 14.8115C220.849 14.7493 221.9 14.6802 222.923 14.5969V41.4669C222.923 42.2488 223.027 42.768 223.23 43.0104C223.431 43.2525 223.834 43.4049 224.433 43.4535V44.789C224.335 44.789 224.198 44.7962 224.002 44.8101C221.691 44.9209 219.868 45.0316 218.54 45.1561L218.457 43.0036C217.802 43.7581 217.147 44.3325 216.479 44.7203C215.813 45.1077 215.166 45.2946 214.525 45.2946C212.66 45.2946 211.192 44.3878 210.12 42.5745C209.049 40.7607 208.514 38.2482 208.514 35.0298C208.514 31.9079 209.091 29.3815 210.246 27.4574C211.401 25.5331 212.876 24.5709 214.672 24.5709C215.38 24.5709 216.035 24.7441 216.647 25.0971C217.259 25.4503 217.837 25.99 218.379 26.7167V18.3692ZM218.379 31.0013C218.379 29.7138 218.157 28.7103 217.705 27.9767C217.254 27.2429 216.647 26.8829 215.867 26.8829C214.956 26.8829 214.324 27.4022 213.975 28.4471C213.621 29.4854 213.447 31.6105 213.447 34.8151C213.447 38.1513 213.635 40.3594 214.009 41.4391C214.386 42.5187 215.046 43.0519 216 43.0519C216.724 43.0519 217.302 42.7058 217.732 42.0207C218.163 41.3352 218.387 40.394 218.387 39.2033V31.0013H218.379Z" fill="#FBFFFF"/>
<path d="M234.243 42.54C233.66 43.4464 232.992 44.132 232.246 44.5958C231.503 45.059 230.688 45.2948 229.819 45.2948C228.608 45.2948 227.619 44.8656 226.841 44.0074C226.061 43.1491 225.679 42.0484 225.679 40.7127C225.679 38.9269 226.403 37.293 227.849 35.8121C229.297 34.3308 231.335 33.1473 233.972 32.2544V29.458C233.972 28.2534 233.799 27.4022 233.451 26.8899C233.104 26.3776 232.518 26.1283 231.69 26.1283C231.321 26.1283 230.966 26.1977 230.618 26.3294C230.271 26.4676 229.958 26.6474 229.672 26.876C230.215 27.0632 230.64 27.3538 230.939 27.7483C231.238 28.1428 231.385 28.5997 231.385 29.1257C231.385 29.7761 231.161 30.3025 230.723 30.7109C230.284 31.1189 229.701 31.3199 228.983 31.3199C228.197 31.3199 227.558 31.0915 227.077 30.6276C226.598 30.1706 226.353 29.5754 226.353 28.8418C226.353 27.679 226.967 26.6822 228.191 25.8516C229.415 25.0213 230.931 24.6057 232.735 24.6057C234.716 24.6057 236.178 25.0348 237.103 25.8931C238.035 26.7513 238.501 28.108 238.501 29.956V40.6223C238.501 41.3771 238.551 41.8684 238.648 42.0829C238.746 42.2975 238.912 42.4081 239.155 42.4081C239.468 42.4081 239.698 42.2214 239.853 41.8477C239.997 41.4739 240.075 40.9062 240.075 40.131H241.133V40.6988C241.133 42.1868 240.839 43.3219 240.262 44.1041C239.685 44.8864 238.856 45.2809 237.784 45.2809C236.998 45.2809 236.317 45.059 235.739 44.6093C235.162 44.1594 234.662 43.4882 234.243 42.54ZM233.972 33.8602C232.804 34.1993 231.893 34.8914 231.238 35.9366C230.584 36.9817 230.257 38.2969 230.257 39.8819C230.257 40.8027 230.383 41.4878 230.632 41.9516C230.883 42.4081 231.259 42.6435 231.767 42.6435C232.379 42.6435 232.901 42.2907 233.326 41.5778C233.75 40.8648 233.965 39.9717 233.965 38.8921V33.8602H233.972Z" fill="#FBFFFF"/>
<path d="M242.052 44.7892V43.5503C242.784 43.3909 243.271 43.1764 243.5 42.9136C243.728 42.6506 243.848 42.1242 243.848 41.3423V28.5096C243.848 27.755 243.715 27.229 243.45 26.9383C243.186 26.6473 242.678 26.4467 241.934 26.3428V25.0625L242.303 25.0419C244.842 24.9312 246.804 24.8341 248.197 24.7373L248.237 28.9731C248.71 27.5821 249.322 26.5232 250.06 25.7894C250.798 25.0558 251.626 24.6954 252.538 24.6954C253.324 24.6954 253.97 24.9447 254.465 25.4364C254.959 25.9276 255.21 26.5712 255.21 27.3535C255.21 28.094 254.967 28.7031 254.486 29.1808C254.005 29.6514 253.38 29.8938 252.621 29.8938C252.037 29.8938 251.551 29.7279 251.153 29.3886C250.757 29.0495 250.45 28.5511 250.234 27.8867C249.595 28.7657 249.108 29.9631 248.78 31.4788C248.446 32.9946 248.28 34.7805 248.28 36.8295V41.1071C248.28 41.9861 248.426 42.5674 248.718 42.858C249.01 43.149 249.587 43.2942 250.458 43.2942H250.701V44.7964H242.052V44.7892Z" fill="#FBFFFF"/>
<path d="M265.894 18.3688C265.894 17.642 265.755 17.1229 265.485 16.8256C265.212 16.5278 264.697 16.3272 263.932 16.2163V14.9843C265.087 14.9289 266.207 14.8733 267.286 14.8111C268.364 14.7489 269.414 14.6798 270.438 14.5966V41.4665C270.438 42.2484 270.542 42.7677 270.745 43.01C270.946 43.2522 271.349 43.4045 271.948 43.4532V44.7887C271.851 44.7887 271.71 44.7958 271.517 44.8097C269.206 44.9206 267.383 45.0312 266.054 45.1558L265.971 43.0032C265.317 43.7577 264.664 44.3322 263.996 44.7199C263.328 45.1073 262.681 45.2942 262.04 45.2942C260.174 45.2942 258.707 44.3874 257.635 42.5742C256.563 40.7603 256.028 38.2479 256.028 35.0294C256.028 31.9075 256.606 29.3811 257.76 27.4571C258.915 25.5328 260.391 24.5705 262.186 24.5705C262.895 24.5705 263.55 24.7438 264.162 25.0968C264.774 25.4499 265.351 25.9897 265.894 26.7163V18.3688ZM265.894 31.0009C265.894 29.7135 265.672 28.7099 265.22 27.9763C264.768 27.2425 264.162 26.8826 263.384 26.8826C262.47 26.8826 261.839 27.4018 261.489 28.4467C261.136 29.485 260.962 31.6101 260.962 34.8147C260.962 38.1509 261.149 40.3591 261.526 41.4387C261.901 42.5184 262.561 43.0515 263.515 43.0515C264.239 43.0515 264.816 42.7055 265.247 42.0203C265.68 41.3348 265.902 40.3936 265.902 39.203V31.0009H265.894Z" fill="#FBFFFF"/>
</svg>
