<svg width="150" height="57" viewBox="0 0 150 57" fill="none" xmlns="http://www.w3.org/2000/svg">
<path fill-rule="evenodd" clip-rule="evenodd" d="M81.4394 22.8994C78.4411 22.3295 75.4181 22.0321 73.2872 22.0321C65.7296 22.0321 63.0288 25.179 63.0288 30.6551V35.6356C63.0288 40.6162 64.8872 44.0109 73.8323 44.0109C76.2111 44.0109 79.1349 43.7878 81.9845 43.2179V38.7825C79.7296 39.2038 77.6482 39.3029 74.3527 39.3029C70.8093 39.3029 68.827 37.5932 68.827 34.5949V31.7206C68.827 28.5489 70.4128 26.7401 73.5597 26.7401C74.0801 26.7401 75.1208 26.7401 75.6659 26.8887V30.1348H81.4641V22.8994H81.4394ZM57.2305 30.1348C57.2305 24.2126 54.5297 22.0321 49.5987 22.0321C47.7403 22.0321 45.9314 22.5525 43.8005 23.5932L43.2801 22.5525H35.6483V27.2604H38.8199V39.3029H36.1934V44.0109H47.2447V39.3029H44.6182V27.2604C45.8075 26.8392 46.9969 26.7153 48.3598 26.7153C51.7544 26.7153 51.4819 29.664 51.4819 31.6958V43.9861H60.427V39.2781H57.2553V30.1348H57.2305ZM29.85 39.2781H33.0217V43.9861H20.8801V39.2781H24.0518V18.8852H21.4253V14.1772H32.4766V18.8852H29.85V39.2781Z" fill="#FBFFFF"/>
<path fill-rule="evenodd" clip-rule="evenodd" d="M123.043 24.1136C123.043 21.9331 122.25 18.8853 118.558 18.8853C114.668 18.8853 112.884 22.6269 114.073 26.7402H108.894C108.498 25.5756 108.275 22.3048 109.514 19.703C110.901 16.8287 114.172 14.2021 118.484 14.2021H107.755H98.8094L87.7581 30.68V37.7419H99.6023V33.034H93.2837L102.501 18.9101H102.774V44.011H107.779C107.779 34.7189 113.231 31.7207 118.31 29.5897C121.11 28.4251 123.043 26.988 123.043 24.1136ZM128.296 23.8659V39.303H115.139C115.139 36.6765 117.592 36.2304 120.664 34.5951C124.604 32.4641 128.296 29.8623 128.296 23.8659Z" fill="#FBFFFF"/>
</svg>
