<svg width="265" height="73" viewBox="0 0 265 73" fill="none" xmlns="http://www.w3.org/2000/svg">
<g style="mix-blend-mode:luminosity">
<path d="M40.7393 35.6896V36.0537C40.7393 36.0537 40.0112 37.0649 37.746 37.0649C35.4809 37.0649 33.4988 35.811 33.4988 33.4245C33.4988 33.4245 33.337 30.4312 37.1797 30.4312C41.0224 30.4312 40.8606 32.9391 40.8606 33.829H42.964L40.7393 35.6896ZM65.4944 36.7009C65.4944 36.7009 65.3326 33.5863 62.0966 31.9683C62.0966 31.9683 65.2112 30.593 65.2921 25.9413C65.0494 21.0469 61.3685 19.1053 57.9708 19.1053H33.4584L29.6966 22.3413V23.0694L27.8359 24.0806L23.7505 19.1053H13.5977L9.4314 22.3818V48.4717H19.3415L23.6292 45.1953V39.6537L31.4359 48.4717H39.4449L40.8202 47.5818V48.4717H56.2719C56.2719 48.4717 58.2944 48.3908 59.7505 46.9346L63.2696 43.7391C63.2292 43.6986 66.182 40.6649 65.4944 36.7009Z" fill="#333333"/>
<path d="M60.1967 32.1702C63.5945 30.7545 64.4843 27.923 64.363 25.6174C64.2416 23.3118 62.2596 20.0758 58.2147 19.9545H34.2281V22.2196C32.2461 22.5028 28.9697 23.8781 27.5944 25.132L23.1854 19.8331H14.1248V44.3455H22.6596V31.2803L34.0663 44.3455H42.9652V42.323V41.8376H43.4506C46.363 41.7972 49.0731 40.7051 50.9742 38.723C52.4709 37.186 53.4012 35.2039 53.6843 33.0601H44.3001C44.0978 35.8107 41.509 37.9949 38.3135 37.9949C34.9967 37.9949 32.327 35.6084 32.327 32.6961C32.327 29.7433 34.9967 27.3972 38.3135 27.3972C40.9023 27.3972 43.127 28.8938 43.936 30.9163H53.7248C53.1989 26.1433 48.0619 23.3927 43.572 22.5028C43.3293 22.4623 43.127 22.1792 43.2079 21.9365C43.2484 21.6938 43.5315 21.532 43.7742 21.5725C48.8304 22.5837 54.736 25.8601 54.736 31.6848C54.7765 34.5972 53.6843 37.3478 51.6619 39.4107C49.6394 41.4332 46.9293 42.6466 43.936 42.768V44.3455H58.2551C58.2551 44.3455 64.4034 44.5882 64.7675 37.8331C65.0102 34.6376 62.0169 32.3725 60.1967 32.1702Z" fill="#FFEF00"/>
<path d="M181.418 48.392H184.412C186.636 48.392 187.607 46.774 187.607 44.7515C187.607 42.7695 186.636 41.1111 184.412 41.1111H181.418V48.392ZM182.672 42.1628H183.926C185.908 42.1628 186.353 43.2954 186.353 44.7515C186.353 46.2077 185.949 47.3403 183.926 47.3403H182.672V42.1628ZM172.479 48.392H177.778V47.2999H173.733V45.156H177.374V44.1043H173.733V42.2032H177.697V41.1111H172.479V48.392ZM163.257 42.2032H165.562V48.3515H166.816V42.2032H169.122V41.1111H163.257V42.2032ZM158.686 48.392H159.94V41.1515H158.686V48.392ZM147.077 48.392H148.29V42.81H148.331L150.353 48.392H151.405L153.427 42.81H153.468V48.392H154.681V41.1515H152.902L150.96 46.8145H150.92L148.938 41.1515H147.158V48.392H147.077ZM141.778 48.392H143.032V41.1515H141.778V48.392ZM133.486 48.392H138.461V47.2999H134.78V41.1515H133.526V48.392H133.486Z" fill="#FBFFFF"/>
<path d="M240.764 29.8245C240.804 33.465 244.89 33.9099 246.305 33.9099C249.096 33.9099 252.13 32.9391 252.13 29.9863C252.13 27.8829 250.35 27.1549 248.571 26.7099C246.791 26.265 244.971 26.1032 244.93 25.2942C244.93 24.647 245.78 24.5256 246.305 24.5256C246.71 24.5256 247.155 24.6065 247.438 24.8088C247.762 25.011 247.964 25.2942 247.883 25.7391H251.564C251.443 22.9481 249.016 22.0178 246.305 22.0178C243.717 22.0178 241.209 23.1504 241.209 25.7796C241.209 28.0852 243.474 28.5706 245.496 29.0964C247.681 29.6627 248.207 29.8245 248.207 30.3908C248.207 31.2402 247.236 31.4425 246.589 31.4425C245.861 31.4425 245.011 31.2807 244.728 30.5931C244.647 30.3908 244.607 30.1481 244.607 29.8245H240.764ZM232.714 33.6268H236.598V25.1324H240.117V22.22H229.195V25.1324H232.714V33.6268ZM217.465 33.6268H228.103V30.7144H221.348V29.2987H227.294V26.5886H221.348V25.1728H227.901V22.2605H217.465V33.6268ZM203.631 33.6268H207.514V30.2695L208.607 29.2178L211.721 33.6672H216.575L211.276 26.7099L215.847 22.2605H211.074L207.595 26.1841H207.555V22.2605H203.672V33.6268H203.631ZM194.045 24.9706H195.865C197.362 24.9706 197.766 25.3751 197.766 26.1032C197.766 27.1144 196.795 27.2358 196.067 27.2358H194.045V24.9706ZM190.162 33.6268H194.045V29.6627H196.108C197.645 29.6627 197.766 30.7953 197.847 31.8874C197.887 32.4942 197.968 33.0605 198.171 33.6268H202.054C201.69 33.1009 201.69 31.7256 201.649 31.1998C201.528 29.7841 200.84 28.7324 199.789 28.3683C201.083 27.9234 201.69 26.7099 201.69 25.4964C201.69 23.3526 199.789 22.2605 197.564 22.2605H190.162V33.6268ZM176.126 33.6268H180.009L180.575 32.0088H184.58L185.105 33.6268H189.15L184.58 22.22H180.777L176.126 33.6268ZM181.424 29.5818L182.638 26.0627H182.678L183.811 29.5818H181.424ZM156.953 33.6268H160.876V22.6245H160.917L164.274 33.6268H167.469L170.827 22.6245H170.867V33.6268H174.791V19.1054H168.642L165.892 28.7728H165.851L163.101 19.1054H156.953V33.6268ZM139.478 33.6268H148.944V30.7144H143.362V22.22H139.478V33.6268ZM125.442 33.6268H129.326L129.892 32.0088H133.896L134.422 33.6268H138.467L133.896 22.22H130.094L125.442 33.6268ZM130.741 29.5818L131.955 26.0627H131.995L133.128 29.5818H130.741ZM119.011 33.6268H122.894V25.1324H126.413V22.22H115.492V25.1324H119.011V33.6268ZM110.355 33.6268H114.238V22.22H110.355V33.6268ZM101.82 25.1728H103.559C104.53 25.1728 105.379 25.2537 105.379 26.265C105.379 27.3976 104.328 27.4785 103.317 27.4785H101.82V25.1728ZM97.9368 33.6268H101.82V30.1886H104.126C107.038 30.1886 109.06 28.8942 109.06 26.1436C109.06 24.5256 107.847 22.2605 104.449 22.2605H97.9772V33.6268H97.9368ZM83.8604 33.6268H87.7435L88.3098 32.0088H92.3143L92.8402 33.6268H96.8851L92.3143 22.22H88.5121L83.8604 33.6268ZM89.1997 29.5818L90.4132 26.0627H90.4536L91.5862 29.5818H89.1997ZM83.8604 24.3234C83.739 20.8447 80.0177 18.8223 76.539 18.8223C71.6851 18.8223 68.53 22.1796 68.53 26.3863C68.53 30.5931 71.6851 33.9504 76.539 33.9504C80.6244 33.9504 83.6177 31.7661 83.8604 28.0043H79.6536C79.4918 29.6627 78.3593 30.674 76.4177 30.674C73.7076 30.674 72.6963 28.5301 72.6963 26.3863C72.6963 24.2425 73.748 22.0987 76.4177 22.0987C78.157 22.0987 79.4109 22.8672 79.6536 24.3234H83.8604Z" fill="#FBFFFF"/>
<path d="M68.6484 36.9849H251.561" stroke="#FBFFFF" stroke-width="0.471075"/>
</g>
</svg>
