<svg width="185" height="49" viewBox="0 0 185 49" fill="none" xmlns="http://www.w3.org/2000/svg">
<g style="mix-blend-mode:luminosity" clip-path="url(#clip0_510_72018)">
<path d="M29.4506 0.908203C33.9971 0.908203 36.5775 4.17896 36.5775 7.82712C36.5775 13.5509 32.2154 17.262 24.351 17.262C23.2451 17.262 22.0163 17.1991 20.7261 17.1363C20.6647 15.8153 20.6033 14.5573 20.6033 13.4251C20.6033 5.37405 24.2282 0.908203 29.4506 0.908203Z" fill="#87D447"/>
<path d="M29.4506 37.3895C24.2282 37.3895 20.6033 32.9236 20.6033 24.8726C20.6033 23.7404 20.6647 22.4824 20.7262 21.1615C22.0165 21.0986 23.2451 21.0358 24.3511 21.0358C32.2154 21.0358 36.5777 24.7467 36.5777 30.4706C36.5777 34.1187 33.9971 37.3895 29.4506 37.3895Z" fill="#50AFCD"/>
<path d="M8.07013 37.3895C3.52358 37.3895 0.943115 34.1187 0.943115 30.4706C0.943115 24.7467 5.30534 21.0358 13.1696 21.0358C14.2756 21.0358 15.5043 21.0986 16.7946 21.1615C16.856 22.4824 16.9175 23.7404 16.9175 24.8726C16.9175 32.9236 13.2925 37.3895 8.07013 37.3895Z" fill="#EFAA02"/>
<path d="M8.07013 0.908203C13.2925 0.908203 16.9175 5.37405 16.9175 13.4251C16.9175 14.5573 16.856 15.8153 16.7946 17.1363C15.5043 17.1991 14.2756 17.262 13.1696 17.262C5.30534 17.262 0.943115 13.5509 0.943115 7.82712C0.943115 4.17896 3.52358 0.908203 8.07013 0.908203Z" fill="#D95423"/>
<path fill-rule="evenodd" clip-rule="evenodd" d="M58.3947 34.0336V34.6469C58.3947 35.9249 57.748 37.4073 54.7633 37.4073C53.1219 37.4073 51.9777 36.7939 51.4803 35.4137C50.8833 36.6405 49.3911 37.3563 47.65 37.3563C43.4219 37.3563 41.1833 33.8801 41.1833 24.8323C41.1833 15.7844 43.4219 12.3083 47.65 12.3083C49.6397 12.3083 50.7839 13.1262 51.1819 14.0975V1.47125C51.1819 0.908945 51.5799 0.5 52.1269 0.5H56.3552C56.9024 0.5 57.3003 0.908945 57.3003 1.47125V32.3977C57.3003 33.5735 57.6486 34.0336 58.3947 34.0336ZM49.7392 32.7047C50.3362 32.7047 50.7839 32.5513 51.1817 32.3469V17.3181C50.7839 17.1136 50.3362 16.9603 49.7392 16.9603C48.3464 16.9603 47.3017 17.5737 47.3017 24.8325C47.3017 32.0401 48.3464 32.7047 49.7392 32.7047ZM76.1532 34.6473V34.0339C75.4071 34.0339 75.059 33.5737 75.059 32.398V19.5163C75.059 14.5067 72.522 12.2575 67.7465 12.2575C63.6676 12.2575 60.484 14.4044 60.484 19.2607C60.484 20.1808 61.1307 20.4875 61.7276 20.4875H64.8116C65.5081 20.4875 65.7568 20.0785 65.7071 19.1073C65.6573 18.0339 65.906 16.7559 67.4979 16.7559C68.9404 16.7559 69.2885 17.8293 69.2885 19.0563V22.8901C68.4927 22.7367 67.5974 22.5833 66.304 22.5833C61.4291 22.5833 59.6383 26.1616 59.6383 29.9444C59.6383 33.8805 61.1307 37.4076 65.1599 37.4076C67.2988 37.4076 68.8907 36.7431 69.5373 35.3629C69.9353 36.7943 70.8307 37.4076 72.4721 37.4076C75.5065 37.4076 76.1532 35.9252 76.1532 34.6473ZM67.2988 33.3685C68.0947 33.4196 68.7414 33.1129 69.2885 32.704V26.2119C68.7414 26.1608 68.2936 26.1608 67.846 26.1608C66.0055 26.2119 65.4086 27.6432 65.4086 29.9947C65.4086 32.2439 66.0055 33.2663 67.2988 33.3685ZM84.4107 36.1296V13.5354C84.4107 12.9731 84.0128 12.5641 83.4656 12.5641H79.2374C78.6902 12.5641 78.2923 12.9731 78.2923 13.5354V36.1296C78.2923 36.6919 78.6902 37.1009 79.2374 37.1009H83.4656C84.0128 37.1009 84.4107 36.6919 84.4107 36.1296ZM81.3265 2.28907C83.1173 2.28907 84.5101 3.72037 84.5101 5.56063C84.5101 7.34976 83.1173 8.83219 81.3265 8.83219C79.5856 8.83219 78.143 7.34976 78.143 5.56063C78.143 3.72037 79.5856 2.28907 81.3265 2.28907ZM93.7128 36.1293V1.47125C93.7128 0.908945 93.3148 0.5 92.7676 0.5H88.5395C87.9923 0.5 87.5943 0.908945 87.5943 1.47125V36.1293C87.5943 36.6917 87.9923 37.1007 88.5395 37.1007H92.7676C93.3148 37.1007 93.7128 36.6917 93.7128 36.1293ZM112.964 13.5354V37.2543C112.964 44.7175 110.178 48.5003 103.661 48.5003C101.921 48.5003 98.7369 47.8868 98.7369 46.7623V43.184C98.7369 42.6728 98.9856 42.4172 99.4333 42.4172C99.7317 42.4172 100.179 42.5705 100.627 42.7749C101.274 43.0305 102.169 43.2351 102.965 43.2351C105.95 43.2351 106.845 41.4459 106.845 37.5099V35.5673C105.9 36.4875 104.258 37.4076 102.219 37.4076C98.5379 37.4076 96.8467 35.1584 96.8467 31.0179V13.5354C96.8467 12.9731 97.2446 12.5641 97.7918 12.5641H102.02C102.567 12.5641 102.965 12.9731 102.965 13.5354V30.8644C102.965 32.1424 103.512 32.6536 104.557 32.6536C105.204 32.6536 106.099 32.4491 106.845 32.0401V13.5354C106.845 12.9731 107.243 12.5641 107.79 12.5641H112.018C112.566 12.5641 112.964 12.9731 112.964 13.5354ZM132.264 36.1293V18.6469C132.264 14.5064 130.573 12.2572 126.942 12.2572C124.803 12.2572 123.111 13.3818 122.266 14.3531V1.47125C122.266 0.908945 121.868 0.5 121.321 0.5H117.092C116.545 0.5 116.147 0.908945 116.147 1.47125V36.1293C116.147 36.6917 116.545 37.1007 117.092 37.1007H121.321C121.868 37.1007 122.266 36.6917 122.266 36.1293V17.6247C123.062 17.2156 123.957 17.0112 124.604 17.0112C125.648 17.0112 126.146 17.5224 126.146 18.8003V36.1293C126.146 36.6917 126.544 37.1007 127.091 37.1007H131.319C131.866 37.1007 132.264 36.6917 132.264 36.1293ZM152.56 34.0337V34.6472C152.56 35.9252 151.913 37.4076 148.928 37.4076C147.237 37.4076 146.093 36.7431 145.596 35.3117C144.651 36.3341 142.959 37.4076 140.72 37.4076C137.04 37.4076 135.348 35.1584 135.348 31.0179V13.5354C135.348 12.9731 135.747 12.5641 136.293 12.5641H140.521C141.069 12.5641 141.467 12.9731 141.467 13.5354V30.8644C141.467 32.1424 142.013 32.6536 143.059 32.6536C143.705 32.6536 144.6 32.4491 145.347 32.0401V13.5354C145.347 12.9731 145.744 12.5641 146.292 12.5641H150.52C151.067 12.5641 151.465 12.9731 151.465 13.5354V32.398C151.465 33.5737 151.813 34.0337 152.56 34.0337ZM170.816 36.1297V18.6472C170.816 14.5067 169.124 12.2575 165.493 12.2575C163.204 12.2575 161.613 13.331 160.668 14.3023C160.32 13.1265 159.275 12.5642 158.081 12.5642H155.644C155.096 12.5642 154.699 12.9731 154.699 13.5354V36.1297C154.699 36.692 155.096 37.1009 155.644 37.1009H159.872C160.419 37.1009 160.817 36.692 160.817 36.1297V17.6249C161.613 17.216 162.508 17.0115 163.155 17.0115C164.2 17.0115 164.697 17.5227 164.697 18.8007V36.1297C164.697 36.692 165.095 37.1009 165.643 37.1009H169.871C170.417 37.1009 170.816 36.692 170.816 36.1297ZM183.699 16.7559H181.163V31.2223C181.163 32.398 181.46 32.9092 182.356 32.9092C182.74 32.9092 182.977 32.8341 183.351 32.716C183.413 32.6964 183.479 32.6755 183.549 32.6536C183.62 32.6296 183.684 32.6057 183.745 32.5831C183.944 32.5091 184.105 32.4492 184.296 32.4492C184.693 32.4492 184.943 32.6536 184.943 33.2671V34.2893C184.943 35.3629 184.644 35.9252 184.097 36.2831C182.753 37.152 181.511 37.4587 179.62 37.4587C176.636 37.4587 175.044 35.874 175.044 32.7047V16.7559H173.352C172.805 16.7559 172.407 16.3469 172.407 15.7847V13.5354C172.407 12.9731 172.805 12.5641 173.352 12.5641H175.044V7.60568C175.044 7.04339 175.441 6.63444 175.989 6.63444H180.217C180.764 6.63444 181.163 7.04339 181.163 7.60568V12.5641H183.699C184.247 12.5641 184.644 12.9731 184.644 13.5354V15.7847C184.644 16.3469 184.247 16.7559 183.699 16.7559Z" fill="#FBFFFF"/>
</g>
<defs>
<clipPath id="clip0_510_72018">
<rect width="184" height="48" fill="white" transform="translate(0.942139 0.5)"/>
</clipPath>
</defs>
</svg>
