<svg width="57" height="57" viewBox="0 0 57 57" fill="none" xmlns="http://www.w3.org/2000/svg">
<circle cx="28.7733" cy="28.5" r="28" fill="#FBFFFF" fill-opacity="0.1"/>
<circle cx="28.7733" cy="28.5" r="27.7083" stroke="#FFF616" stroke-opacity="0.2" stroke-width="0.583333"/>
<g clip-path="url(#clip0_380_33097)">
<path d="M27.8983 19.75C28.983 19.75 30.0038 19.9551 30.9608 20.3652C31.9178 20.7754 32.7518 21.3405 33.4628 22.0605C34.1737 22.7806 34.7343 23.6146 35.1444 24.5625C35.5546 25.5104 35.7642 26.5312 35.7733 27.625C35.7733 28.1992 35.7369 28.737 35.6639 29.2383C35.591 29.7396 35.4771 30.2181 35.3221 30.6738C35.1672 31.1296 34.9667 31.5807 34.7206 32.0273C34.4745 32.474 34.1828 32.9297 33.8456 33.3945C33.5813 33.7591 33.3488 34.0872 33.1483 34.3789C32.9478 34.6706 32.7837 34.9622 32.6561 35.2539C32.5285 35.5456 32.4328 35.8646 32.369 36.2109C32.3052 36.5573 32.2733 36.9629 32.2733 37.4277V39.875C32.2733 40.2396 32.205 40.5814 32.0682 40.9004C31.9315 41.2194 31.7447 41.4974 31.5077 41.7344C31.2707 41.9714 30.9927 42.1582 30.6737 42.2949C30.3547 42.4316 30.0129 42.5 29.6483 42.5H26.1483C25.7837 42.5 25.4419 42.4316 25.1229 42.2949C24.8039 42.1582 24.5259 41.9714 24.2889 41.7344C24.052 41.4974 23.8651 41.2194 23.7284 40.9004C23.5917 40.5814 23.5233 40.2396 23.5233 39.875V37.4141C23.5233 36.9492 23.4914 36.5482 23.4276 36.2109C23.3638 35.8737 23.2681 35.5592 23.1405 35.2676C23.0129 34.9759 22.8488 34.6797 22.6483 34.3789C22.4478 34.0781 22.2154 33.75 21.951 33.3945C21.6138 32.9297 21.3267 32.4785 21.0897 32.041C20.8527 31.6035 20.6522 31.1523 20.4882 30.6875C20.3241 30.2227 20.2056 29.7396 20.1327 29.2383C20.0598 28.737 20.0233 28.1992 20.0233 27.625C20.0233 26.5404 20.2284 25.5195 20.6385 24.5625C21.0487 23.6055 21.6138 22.7715 22.3339 22.0605C23.0539 21.3496 23.8879 20.7891 24.8358 20.3789C25.7837 19.9688 26.8046 19.7591 27.8983 19.75ZM30.5233 39.875V39H25.2733V39.875C25.2733 40.112 25.3599 40.3171 25.5331 40.4902C25.7063 40.6634 25.9113 40.75 26.1483 40.75H29.6483C29.8853 40.75 30.0904 40.6634 30.2635 40.4902C30.4367 40.3171 30.5233 40.112 30.5233 39.875ZM34.0233 27.625C34.0233 26.7773 33.8638 25.9844 33.5448 25.2461C33.2258 24.5078 32.7883 23.8561 32.2323 23.291C31.6763 22.7259 31.0292 22.2884 30.2909 21.9785C29.5526 21.6686 28.7551 21.5091 27.8983 21.5C27.0507 21.5 26.2577 21.6595 25.5194 21.9785C24.7811 22.2975 24.1294 22.735 23.5643 23.291C22.9992 23.847 22.5617 24.4941 22.2518 25.2324C21.9419 25.9707 21.7824 26.7682 21.7733 27.625C21.7733 28.4362 21.8553 29.1335 22.0194 29.7168C22.1835 30.3001 22.3977 30.8197 22.662 31.2754C22.9263 31.7311 23.2043 32.1595 23.496 32.5605C23.7876 32.9616 24.0656 33.3809 24.33 33.8184C24.5943 34.2559 24.813 34.748 24.9862 35.2949C25.1594 35.8418 25.2551 36.4935 25.2733 37.25H30.5233C30.5324 36.4935 30.6236 35.8464 30.7968 35.3086C30.9699 34.7708 31.1887 34.2786 31.453 33.832C31.7173 33.3854 31.9953 32.9661 32.287 32.5742C32.5787 32.1823 32.8566 31.7539 33.121 31.2891C33.3853 30.8242 33.5995 30.3001 33.7635 29.7168C33.9276 29.1335 34.0142 28.4362 34.0233 27.625ZM27.8983 18C27.6613 18 27.4563 17.9134 27.2831 17.7402C27.1099 17.5671 27.0233 17.362 27.0233 17.125V15.375C27.0233 15.138 27.1099 14.9329 27.2831 14.7598C27.4563 14.5866 27.6613 14.5 27.8983 14.5C28.1353 14.5 28.3404 14.5866 28.5135 14.7598C28.6867 14.9329 28.7733 15.138 28.7733 15.375V17.125C28.7733 17.362 28.6867 17.5671 28.5135 17.7402C28.3404 17.9134 28.1353 18 27.8983 18ZM17.3983 27.1875H15.6483C15.4113 27.1875 15.2063 27.1009 15.0331 26.9277C14.8599 26.7546 14.7733 26.5495 14.7733 26.3125C14.7733 26.0755 14.8599 25.8704 15.0331 25.6973C15.2063 25.5241 15.4113 25.4375 15.6483 25.4375H17.3983C17.6353 25.4375 17.8404 25.5241 18.0135 25.6973C18.1867 25.8704 18.2733 26.0755 18.2733 26.3125C18.2733 26.5495 18.1867 26.7546 18.0135 26.9277C17.8404 27.1009 17.6353 27.1875 17.3983 27.1875ZM18.1229 30.7559C18.3599 30.7559 18.565 30.8424 18.7382 31.0156C18.9113 31.1888 18.9979 31.3984 18.9979 31.6445C18.9979 31.8268 18.9478 31.9863 18.8475 32.123C18.7473 32.2598 18.6106 32.3691 18.4374 32.4512C18.3371 32.4967 18.2004 32.556 18.0272 32.6289C17.854 32.7018 17.6672 32.7793 17.4667 32.8613C17.2662 32.9434 17.0839 33.0117 16.9198 33.0664C16.7557 33.1211 16.6099 33.153 16.4823 33.1621C16.2453 33.1621 16.0402 33.0755 15.8671 32.9023C15.6939 32.7292 15.6073 32.5195 15.6073 32.2734C15.6073 32.0911 15.6574 31.9316 15.7577 31.7949C15.858 31.6582 15.9947 31.5488 16.1678 31.4668C16.2681 31.4303 16.4048 31.3711 16.578 31.2891C16.7512 31.207 16.938 31.1296 17.1385 31.0566C17.3391 30.9837 17.5214 30.9154 17.6854 30.8516C17.8495 30.7878 17.9953 30.7559 18.1229 30.7559ZM20.201 21.9375C20.201 22.1745 20.1145 22.3796 19.9413 22.5527C19.7681 22.7259 19.563 22.8125 19.326 22.8125C19.162 22.8125 19.0116 22.7715 18.8749 22.6895L17.3846 21.7734C17.257 21.6914 17.1568 21.5866 17.0839 21.459C17.0109 21.3314 16.9699 21.1855 16.9608 21.0215C16.9608 20.7845 17.0474 20.5794 17.2206 20.4062C17.3938 20.2331 17.5988 20.1465 17.8358 20.1465C17.9816 20.1465 18.132 20.1921 18.287 20.2832L19.7909 21.1855C19.9185 21.2585 20.0188 21.3633 20.0917 21.5C20.1646 21.6367 20.201 21.7826 20.201 21.9375ZM21.3358 16.9062C21.3358 16.6693 21.4224 16.4642 21.5956 16.291C21.7688 16.1178 21.9738 16.0312 22.2108 16.0312C22.3658 16.0312 22.5116 16.0723 22.6483 16.1543C22.785 16.2363 22.8944 16.3457 22.9764 16.4824L23.8241 18.0137C23.897 18.1413 23.9335 18.278 23.9335 18.4238C23.9335 18.6699 23.8469 18.8796 23.6737 19.0527C23.5005 19.2259 23.2955 19.3125 23.0585 19.3125C22.9035 19.3125 22.7577 19.2715 22.621 19.1895C22.4843 19.1074 22.3749 18.998 22.2928 18.8613L21.4452 17.3301C21.3723 17.2025 21.3358 17.0612 21.3358 16.9062ZM40.1483 25.4375C40.3853 25.4375 40.5904 25.5241 40.7635 25.6973C40.9367 25.8704 41.0233 26.0755 41.0233 26.3125C41.0233 26.5495 40.9367 26.7546 40.7635 26.9277C40.5904 27.1009 40.3853 27.1875 40.1483 27.1875H38.3983C38.1613 27.1875 37.9563 27.1009 37.7831 26.9277C37.6099 26.7546 37.5233 26.5495 37.5233 26.3125C37.5233 26.0755 37.6099 25.8704 37.7831 25.6973C37.9563 25.5241 38.1613 25.4375 38.3983 25.4375H40.1483ZM40.1757 32.2871C40.1757 32.5241 40.0891 32.7292 39.9159 32.9023C39.7427 33.0755 39.5376 33.1621 39.3007 33.1621C39.2004 33.1621 39.0637 33.1348 38.8905 33.0801C38.7173 33.0254 38.5305 32.9525 38.33 32.8613C38.1294 32.7702 37.9471 32.6927 37.7831 32.6289C37.619 32.5651 37.4777 32.5013 37.3593 32.4375C37.1952 32.3646 37.063 32.2552 36.9628 32.1094C36.8625 31.9635 36.8078 31.7995 36.7987 31.6172C36.7987 31.3711 36.8853 31.166 37.0585 31.002C37.2316 30.8379 37.4413 30.7513 37.6874 30.7422C37.7968 30.7422 37.938 30.7741 38.1112 30.8379C38.2844 30.9017 38.4667 30.9746 38.6581 31.0566C38.8495 31.1387 39.0318 31.2207 39.205 31.3027C39.3781 31.3848 39.5194 31.444 39.6288 31.4805C39.7928 31.5534 39.925 31.6582 40.0253 31.7949C40.1255 31.9316 40.1757 32.0957 40.1757 32.2871ZM36.4706 22.8125C36.2336 22.8125 36.0285 22.7259 35.8553 22.5527C35.6822 22.3796 35.5956 22.1745 35.5956 21.9375C35.5956 21.7826 35.632 21.6367 35.705 21.5C35.7779 21.3633 35.8781 21.2585 36.0057 21.1855L37.5096 20.2832C37.6646 20.1921 37.815 20.1465 37.9608 20.1465C38.1978 20.1465 38.4029 20.2331 38.576 20.4062C38.7492 20.5794 38.8358 20.7845 38.8358 21.0215C38.8358 21.1764 38.7994 21.3177 38.7264 21.4453C38.6535 21.5729 38.5487 21.6823 38.412 21.7734L36.9218 22.6895C36.785 22.7715 36.6346 22.8125 36.4706 22.8125ZM31.8632 18.4238C31.8632 18.278 31.8996 18.1413 31.9725 18.0137L32.8202 16.4824C32.8931 16.3457 32.9979 16.2363 33.1346 16.1543C33.2714 16.0723 33.4218 16.0312 33.5858 16.0312C33.8228 16.0312 34.0279 16.1178 34.201 16.291C34.3742 16.4642 34.4608 16.6693 34.4608 16.9062C34.4608 17.0612 34.4244 17.2025 34.3514 17.3301L33.5038 18.8613C33.4309 18.998 33.326 19.1074 33.1893 19.1895C33.0526 19.2715 32.9022 19.3125 32.7382 19.3125C32.5012 19.3125 32.2961 19.2259 32.1229 19.0527C31.9497 18.8796 31.8632 18.6699 31.8632 18.4238Z" fill="#FFF616"/>
</g>
<defs>
<clipPath id="clip0_380_33097">
<rect width="28" height="28" fill="white" transform="translate(14.7733 14.5)"/>
</clipPath>
</defs>
</svg>
