<svg width="57" height="57" viewBox="0 0 57 57" fill="none" xmlns="http://www.w3.org/2000/svg">
<circle cx="28.7733" cy="28.5" r="28" fill="#FBFFFF" fill-opacity="0.1"/>
<circle cx="28.7733" cy="28.5" r="27.7083" stroke="#FFF616" stroke-opacity="0.2" stroke-width="0.583333"/>
<path d="M22.0767 39.4527H21.7734C20.6732 39.4527 20.1237 39.4527 19.7819 39.1109C19.4401 38.7702 19.4401 38.2207 19.4401 37.1206V35.8232C19.4401 35.2189 19.4401 34.9167 19.5952 34.6461C19.7504 34.3766 19.9849 34.2401 20.4539 33.9671C23.5409 32.1716 27.9229 31.1612 30.8489 32.9054C31.0449 33.0232 31.2222 33.1656 31.3739 33.3347C31.5306 33.5065 31.6513 33.7078 31.7289 33.927C31.8065 34.1461 31.8394 34.3785 31.8257 34.6106C31.812 34.8426 31.7519 35.0696 31.6491 35.2781C31.5463 35.4866 31.4027 35.6723 31.2269 35.8244C31.0867 35.9577 30.9155 36.0539 30.7287 36.1044C30.8687 36.0881 31.0029 36.0694 31.1312 36.0496C32.1941 35.8804 33.0866 35.3111 33.9032 34.6939L36.0126 33.1014C36.3889 32.8277 36.8422 32.6802 37.3076 32.6802C37.7729 32.6802 38.2263 32.8277 38.6026 33.1014C39.2711 33.6066 39.4764 34.4384 39.0529 35.1174C38.5594 35.9084 37.8641 36.9199 37.1967 37.5382C36.5282 38.1566 35.5331 38.7096 34.7211 39.1016C33.8204 39.5367 32.8264 39.7864 31.8149 39.9509C29.7639 40.2822 27.6266 40.2309 25.5966 39.8132C24.4384 39.5751 23.2591 39.4535 22.0767 39.4527ZM22.4571 17.5171C22.0289 17.9452 21.8691 18.5356 21.8096 19.4584C22.4935 19.449 23.1467 19.1731 23.6302 18.6894C24.1137 18.2057 24.3893 17.5523 24.3984 16.8684C23.4767 16.9291 22.8852 17.0889 22.4571 17.5171ZM35.0897 17.5171C34.6616 17.0889 34.0712 16.9291 33.1484 16.8696C33.1578 17.5535 33.4337 18.2067 33.9174 18.6902C34.4012 19.1737 35.0545 19.4494 35.7384 19.4584C35.6777 18.5367 35.5179 17.9452 35.0897 17.5171ZM35.0897 25.4831C34.6616 25.9112 34.0712 26.0711 33.1484 26.1306C33.1578 25.4467 33.4337 24.7935 33.9174 24.3099C34.4012 23.8264 35.0545 23.5508 35.7384 23.5417C35.6777 24.4634 35.5179 25.0549 35.0897 25.4831ZM22.4571 25.4831C22.8852 25.9112 23.4756 26.0711 24.3984 26.1306C24.389 25.4467 24.1131 24.7935 23.6294 24.3099C23.1456 23.8264 22.4923 23.5508 21.8084 23.5417C21.8691 24.4634 22.0289 25.0549 22.4571 25.4831Z" fill="#FFF616"/>
<path fill-rule="evenodd" clip-rule="evenodd" d="M21.7733 21.2083C22.9336 21.2083 24.0464 20.7473 24.8669 19.9268C25.6874 19.1064 26.1483 17.9936 26.1483 16.8333H31.3983C31.3983 17.9936 31.8593 19.1064 32.6797 19.9268C33.5002 20.7473 34.613 21.2083 35.7733 21.2083V21.7916C34.613 21.7916 33.5002 22.2525 32.6797 23.073C31.8593 23.8935 31.3983 25.0063 31.3983 26.1666H26.1483C26.1483 25.0063 25.6874 23.8935 24.8669 23.073C24.0464 22.2525 22.9336 21.7916 21.7733 21.7916V21.2083ZM28.7733 22.6666C29.0827 22.6666 29.3795 22.5437 29.5983 22.3249C29.8171 22.1061 29.94 21.8093 29.94 21.4999C29.94 21.1905 29.8171 20.8938 29.5983 20.675C29.3795 20.4562 29.0827 20.3333 28.7733 20.3333C28.4639 20.3333 28.1672 20.4562 27.9484 20.675C27.7296 20.8938 27.6066 21.1905 27.6066 21.4999C27.6066 21.8093 27.7296 22.1061 27.9484 22.3249C28.1672 22.5437 28.4639 22.6666 28.7733 22.6666Z" fill="#FFF616"/>
</svg>
