<svg width="57" height="57" viewBox="0 0 57 57" fill="none" xmlns="http://www.w3.org/2000/svg">
<circle cx="28.7733" cy="28.5" r="28" fill="#FBFFFF" fill-opacity="0.1"/>
<circle cx="28.7733" cy="28.5" r="27.7083" stroke="#FFF616" stroke-opacity="0.2" stroke-width="0.583333"/>
<path d="M28.7734 40.1666C26.0706 39.486 23.8392 37.9351 22.0791 35.5139C20.319 33.0927 19.4393 30.4047 19.4401 27.4499V20.3333L28.7734 16.8333L38.1067 20.3333V27.4499C38.1067 30.4055 37.2267 33.0939 35.4666 35.5151C33.7065 37.9363 31.4754 39.4868 28.7734 40.1666ZM28.7734 37.7166C30.6595 37.1333 32.2345 35.981 33.4984 34.2598C34.7623 32.5385 35.5012 30.6186 35.7151 28.4999H28.7734V19.3124L21.7734 21.9374V27.9749C21.7734 28.111 21.7928 28.286 21.8317 28.4999H28.7734V37.7166Z" fill="#FFF616"/>
</svg>
