<svg width="57" height="57" viewBox="0 0 57 57" fill="none" xmlns="http://www.w3.org/2000/svg">
<circle cx="28.7733" cy="28.5" r="28" fill="#FBFFFF" fill-opacity="0.1"/>
<circle cx="28.7733" cy="28.5" r="27.7083" stroke="#FFF616" stroke-opacity="0.2" stroke-width="0.583333"/>
<path d="M20.3734 28.1501L17.4567 25.2334C17.2234 25.0001 17.1067 24.7279 17.1067 24.4167C17.1067 24.1056 17.2234 23.8334 17.4567 23.6001L20.3734 20.6834C20.6067 20.4501 20.8789 20.3334 21.19 20.3334C21.5011 20.3334 21.7734 20.4501 22.0067 20.6834L24.9234 23.6001C25.1567 23.8334 25.2734 24.1056 25.2734 24.4167C25.2734 24.7279 25.1567 25.0001 24.9234 25.2334L22.0067 28.1501C21.7734 28.3834 21.5011 28.5001 21.19 28.5001C20.8789 28.5001 20.6067 28.3834 20.3734 28.1501ZM26.44 40.1667C26.1095 40.1667 25.8322 40.0547 25.6082 39.8307C25.3842 39.6067 25.2726 39.3299 25.2734 39.0001V34.3334C24.3011 34.2556 23.3386 34.1487 22.3859 34.0126C21.4331 33.8765 20.4803 33.7015 19.5275 33.4876C19.197 33.4098 18.9294 33.2251 18.7249 32.9334C18.5203 32.6417 18.467 32.3306 18.565 32.0001C18.6622 31.6695 18.8617 31.4265 19.1635 31.2709C19.4653 31.1154 19.7811 31.0765 20.1109 31.1542C21.5303 31.4848 22.9645 31.7084 24.4135 31.8251C25.8625 31.9417 27.3158 32.0001 28.7734 32.0001C30.2317 32.0001 31.6854 31.9417 33.1344 31.8251C34.5834 31.7084 36.0172 31.4848 37.4359 31.1542C37.7664 31.0765 38.0826 31.1154 38.3844 31.2709C38.6861 31.4265 38.8852 31.6695 38.9817 32.0001C39.0789 32.3306 39.0252 32.6417 38.8207 32.9334C38.6161 33.2251 38.349 33.4098 38.0192 33.4876C37.0664 33.7015 36.1136 33.8765 35.1609 34.0126C34.2081 34.1487 33.2456 34.2556 32.2734 34.3334V39.0001C32.2734 39.3306 32.1617 39.6079 31.9385 39.8319C31.7153 40.0559 31.438 40.1675 31.1067 40.1667H26.44ZM28.7734 22.6667C27.8011 22.6667 26.9747 22.3265 26.2942 21.6459C25.6136 20.9654 25.2734 20.139 25.2734 19.1667C25.2734 18.1945 25.6136 17.3681 26.2942 16.6876C26.9747 16.007 27.8011 15.6667 28.7734 15.6667C29.7456 15.6667 30.572 16.007 31.2525 16.6876C31.9331 17.3681 32.2734 18.1945 32.2734 19.1667C32.2734 20.139 31.9331 20.9654 31.2525 21.6459C30.572 22.3265 29.7456 22.6667 28.7734 22.6667ZM28.7734 30.8334C28.1317 30.8334 27.5822 30.6047 27.1249 30.1474C26.6675 29.6901 26.4392 29.141 26.44 28.5001C26.44 27.8584 26.6687 27.3089 27.126 26.8516C27.5834 26.3942 28.1325 26.166 28.7734 26.1667C29.415 26.1667 29.9645 26.3954 30.4219 26.8527C30.8792 27.3101 31.1075 27.8592 31.1067 28.5001C31.1067 29.1417 30.878 29.6912 30.4207 30.1486C29.9634 30.6059 29.4142 30.8342 28.7734 30.8334ZM34.3442 27.9167L33.0025 25.5834C32.9053 25.4084 32.8567 25.214 32.8567 25.0001C32.8567 24.7862 32.9053 24.5917 33.0025 24.4167L34.3442 22.0834C34.4414 21.889 34.5775 21.7431 34.7525 21.6459C34.9275 21.5487 35.122 21.5001 35.3359 21.5001H37.9609C38.1747 21.5001 38.3692 21.5487 38.5442 21.6459C38.7192 21.7431 38.8553 21.889 38.9525 22.0834L40.2942 24.4167C40.3914 24.5917 40.44 24.7862 40.44 25.0001C40.44 25.214 40.3914 25.4084 40.2942 25.5834L38.9525 27.9167C38.8553 28.1112 38.7192 28.257 38.5442 28.3542C38.3692 28.4515 38.1747 28.5001 37.9609 28.5001H35.3359C35.122 28.5001 34.9275 28.4515 34.7525 28.3542C34.5775 28.257 34.4414 28.1112 34.3442 27.9167Z" fill="#FFF616"/>
</svg>
