<svg width="627" height="752" viewBox="0 0 627 752" fill="none" xmlns="http://www.w3.org/2000/svg">
<path d="M314.413 151.723L314.413 705.604" stroke="#545326" stroke-width="1.82799"/>
<ellipse cx="164.52" cy="164.519" rx="49.3557" ry="40.2158" fill="#E3A101"/>
<ellipse cx="164.52" cy="155.379" rx="49.3557" ry="38.3878" fill="#FFE600"/>
<path opacity="0.8" d="M131.355 176.703C122.773 161.854 116.209 130.486 158.604 123.803L131.355 176.703Z" fill="#F5EC9A"/>
<rect opacity="0.8" x="180.765" y="130.151" width="18.6536" height="59.0495" transform="rotate(27.8158 180.765 130.151)" fill="#F5EC9A"/>
<path d="M162.948 168.615V144.851L165.032 147.009H157.537V143.024H167.701V168.615H162.948Z" fill="#121212"/>
<circle opacity="0.8" cx="455.17" cy="352.802" r="68.5496" stroke="#2C2C2C" stroke-width="12.7959"/>
<ellipse cx="455.171" cy="356.458" rx="49.3557" ry="40.2158" fill="#2C2C2C"/>
<ellipse cx="455.171" cy="347.318" rx="49.3557" ry="38.3878" fill="#343434"/>
<path opacity="0.8" d="M422.006 368.642C413.425 353.793 406.86 322.425 449.256 315.742L422.006 368.642Z" fill="#2C2C2C"/>
<rect opacity="0.8" x="471.416" y="322.09" width="18.6536" height="59.0495" transform="rotate(27.8158 471.416 322.09)" fill="#2C2C2C"/>
<path opacity="0.4" d="M445.842 360.554V357.374L456.006 347.722C456.859 346.918 457.493 346.211 457.907 345.601C458.321 344.992 458.589 344.431 458.711 343.92C458.858 343.383 458.931 342.884 458.931 342.421C458.931 341.251 458.529 340.349 457.724 339.715C456.92 339.057 455.738 338.728 454.178 338.728C452.935 338.728 451.802 338.947 450.778 339.386C449.779 339.825 448.913 340.495 448.182 341.397L444.855 338.838C445.854 337.497 447.195 336.461 448.877 335.73C450.583 334.975 452.484 334.597 454.58 334.597C456.432 334.597 458.041 334.902 459.406 335.511C460.795 336.096 461.855 336.937 462.587 338.033C463.342 339.13 463.72 340.434 463.72 341.945C463.72 342.774 463.61 343.603 463.391 344.431C463.172 345.236 462.757 346.089 462.148 346.991C461.539 347.892 460.649 348.904 459.479 350.025L450.741 358.324L449.754 356.533H464.707V360.554H445.842Z" fill="#FFF616"/>
<ellipse cx="164.52" cy="548.397" rx="49.3557" ry="40.2158" fill="#2C2C2C"/>
<ellipse cx="164.52" cy="539.257" rx="49.3557" ry="38.3878" fill="#343434"/>
<path opacity="0.8" d="M131.355 560.581C122.773 545.732 116.209 514.363 158.604 507.681L131.355 560.581Z" fill="#2C2C2C"/>
<rect opacity="0.8" x="180.765" y="514.029" width="18.6536" height="59.0495" transform="rotate(27.8158 180.765 514.029)" fill="#2C2C2C"/>
<path opacity="0.3" d="M163.563 552.859C161.759 552.859 159.992 552.603 158.262 552.091C156.556 551.555 155.118 550.824 153.948 549.897L155.995 546.205C156.921 546.96 158.043 547.57 159.359 548.033C160.675 548.496 162.052 548.728 163.49 548.728C165.196 548.728 166.524 548.386 167.475 547.704C168.426 546.997 168.901 546.046 168.901 544.852C168.901 543.682 168.462 542.756 167.585 542.074C166.707 541.391 165.294 541.05 163.344 541.05H161.004V537.796L168.316 529.095L168.937 530.886H155.191V526.901H172.63V530.082L165.318 538.783L162.832 537.321H164.258C167.402 537.321 169.754 538.028 171.314 539.441C172.898 540.831 173.69 542.622 173.69 544.816C173.69 546.254 173.325 547.582 172.593 548.801C171.862 550.019 170.741 551.006 169.23 551.762C167.743 552.493 165.854 552.859 163.563 552.859Z" fill="#FFF616"/>
<ellipse cx="438.717" cy="709.26" rx="49.3557" ry="40.2158" fill="#2C2C2C"/>
<ellipse cx="438.717" cy="700.12" rx="49.3557" ry="38.3878" fill="#343434"/>
<path opacity="0.8" d="M405.552 721.444C396.97 706.595 390.406 675.227 432.801 668.544L405.552 721.444Z" fill="#2C2C2C"/>
<rect opacity="0.8" x="454.962" y="674.892" width="18.6536" height="59.0495" transform="rotate(27.8158 454.962 674.892)" fill="#2C2C2C"/>
<path opacity="0.4" d="M427.257 707.543V704.253L439.87 687.765H444.952L432.522 704.253L430.145 703.522H450.436V707.543H427.257ZM441.296 713.356V707.543L441.442 703.522V698.367H445.903V713.356H441.296Z" fill="#FFF616"/>
<g opacity="0.4">
<path d="M597.752 194.681H354.63C353.115 194.681 351.888 195.909 351.888 197.423V244.306C351.888 245.82 353.115 247.047 354.63 247.047H441.002C442.605 247.047 444.091 247.888 444.918 249.262L454.244 264.764C455.32 266.552 457.92 266.531 458.966 264.724L467.881 249.328C468.698 247.916 470.205 247.047 471.836 247.047H597.752C599.267 247.047 600.494 245.82 600.494 244.306V197.423C600.494 195.909 599.267 194.681 597.752 194.681Z" stroke="#FBFFFF" stroke-width="1.82799"/>
<path d="M403.515 229.788C402.312 229.788 401.161 229.62 400.061 229.282C398.961 228.93 398.088 228.483 397.443 227.94L398.433 225.718C399.049 226.202 399.812 226.606 400.721 226.928C401.63 227.251 402.562 227.412 403.515 227.412C404.322 227.412 404.974 227.324 405.473 227.148C405.972 226.972 406.338 226.738 406.573 226.444C406.808 226.136 406.925 225.792 406.925 225.41C406.925 224.941 406.756 224.567 406.419 224.288C406.082 223.995 405.642 223.768 405.099 223.606C404.571 223.43 403.977 223.269 403.317 223.122C402.672 222.976 402.019 222.807 401.359 222.616C400.714 222.411 400.12 222.154 399.577 221.846C399.049 221.524 398.616 221.098 398.279 220.57C397.942 220.042 397.773 219.368 397.773 218.546C397.773 217.71 397.993 216.948 398.433 216.258C398.888 215.554 399.57 214.997 400.479 214.586C401.403 214.161 402.569 213.948 403.977 213.948C404.901 213.948 405.818 214.066 406.727 214.3C407.636 214.535 408.428 214.872 409.103 215.312L408.201 217.534C407.512 217.124 406.8 216.823 406.067 216.632C405.334 216.427 404.63 216.324 403.955 216.324C403.163 216.324 402.518 216.42 402.019 216.61C401.535 216.801 401.176 217.05 400.941 217.358C400.721 217.666 400.611 218.018 400.611 218.414C400.611 218.884 400.772 219.265 401.095 219.558C401.432 219.837 401.865 220.057 402.393 220.218C402.936 220.38 403.537 220.541 404.197 220.702C404.857 220.849 405.51 221.018 406.155 221.208C406.815 221.399 407.409 221.648 407.937 221.956C408.48 222.264 408.912 222.682 409.235 223.21C409.572 223.738 409.741 224.406 409.741 225.212C409.741 226.034 409.514 226.796 409.059 227.5C408.619 228.19 407.937 228.747 407.013 229.172C406.089 229.583 404.923 229.788 403.515 229.788ZM416.735 229.722C415.444 229.722 414.447 229.392 413.743 228.732C413.039 228.058 412.687 227.068 412.687 225.762V215.224H415.437V225.696C415.437 226.254 415.576 226.686 415.855 226.994C416.148 227.302 416.551 227.456 417.065 227.456C417.681 227.456 418.194 227.295 418.605 226.972L419.375 228.93C419.052 229.194 418.656 229.392 418.187 229.524C417.717 229.656 417.233 229.722 416.735 229.722ZM410.751 220.108V217.908H418.583V220.108H410.751ZM428.875 229.568V227.192L428.721 226.686V222.528C428.721 221.722 428.479 221.098 427.995 220.658C427.511 220.204 426.778 219.976 425.795 219.976C425.135 219.976 424.482 220.079 423.837 220.284C423.206 220.49 422.671 220.776 422.231 221.142L421.153 219.14C421.784 218.656 422.532 218.297 423.397 218.062C424.277 217.813 425.186 217.688 426.125 217.688C427.826 217.688 429.139 218.099 430.063 218.92C431.002 219.727 431.471 220.981 431.471 222.682V229.568H428.875ZM425.179 229.722C424.299 229.722 423.529 229.576 422.869 229.282C422.209 228.974 421.696 228.556 421.329 228.028C420.977 227.486 420.801 226.877 420.801 226.202C420.801 225.542 420.955 224.948 421.263 224.42C421.586 223.892 422.106 223.474 422.825 223.166C423.544 222.858 424.497 222.704 425.685 222.704H429.095V224.53H425.883C424.944 224.53 424.314 224.684 423.991 224.992C423.668 225.286 423.507 225.652 423.507 226.092C423.507 226.591 423.705 226.987 424.101 227.28C424.497 227.574 425.047 227.72 425.751 227.72C426.426 227.72 427.027 227.566 427.555 227.258C428.098 226.95 428.486 226.496 428.721 225.894L429.183 227.544C428.919 228.234 428.442 228.769 427.753 229.15C427.078 229.532 426.22 229.722 425.179 229.722ZM435 229.568V217.82H437.618V221.054L437.31 220.108C437.662 219.316 438.212 218.715 438.96 218.304C439.723 217.894 440.669 217.688 441.798 217.688V220.306C441.681 220.277 441.571 220.262 441.468 220.262C441.366 220.248 441.263 220.24 441.16 220.24C440.119 220.24 439.29 220.548 438.674 221.164C438.058 221.766 437.75 222.668 437.75 223.87V229.568H435ZM448.983 229.722C447.692 229.722 446.695 229.392 445.991 228.732C445.287 228.058 444.935 227.068 444.935 225.762V215.224H447.685V225.696C447.685 226.254 447.824 226.686 448.103 226.994C448.396 227.302 448.8 227.456 449.313 227.456C449.929 227.456 450.442 227.295 450.853 226.972L451.623 228.93C451.3 229.194 450.904 229.392 450.435 229.524C449.966 229.656 449.482 229.722 448.983 229.722ZM442.999 220.108V217.908H450.831V220.108H442.999ZM460.229 229.568V214.168H463.089V227.148H471.141V229.568H460.229ZM478.55 229.722C477.244 229.722 476.1 229.466 475.118 228.952C474.15 228.424 473.394 227.706 472.852 226.796C472.324 225.887 472.06 224.853 472.06 223.694C472.06 222.521 472.316 221.487 472.83 220.592C473.358 219.683 474.076 218.972 474.986 218.458C475.91 217.945 476.958 217.688 478.132 217.688C479.276 217.688 480.295 217.938 481.19 218.436C482.084 218.935 482.788 219.639 483.302 220.548C483.815 221.458 484.072 222.528 484.072 223.76C484.072 223.878 484.064 224.01 484.05 224.156C484.05 224.303 484.042 224.442 484.028 224.574H474.238V222.748H482.576L481.498 223.32C481.512 222.646 481.373 222.052 481.08 221.538C480.786 221.025 480.383 220.622 479.87 220.328C479.371 220.035 478.792 219.888 478.132 219.888C477.457 219.888 476.863 220.035 476.35 220.328C475.851 220.622 475.455 221.032 475.162 221.56C474.883 222.074 474.744 222.682 474.744 223.386V223.826C474.744 224.53 474.905 225.154 475.228 225.696C475.55 226.239 476.005 226.657 476.592 226.95C477.178 227.244 477.853 227.39 478.616 227.39C479.276 227.39 479.87 227.288 480.398 227.082C480.926 226.877 481.395 226.554 481.806 226.114L483.28 227.808C482.752 228.424 482.084 228.901 481.278 229.238C480.486 229.561 479.576 229.722 478.55 229.722ZM493.629 229.568V227.192L493.475 226.686V222.528C493.475 221.722 493.233 221.098 492.749 220.658C492.265 220.204 491.532 219.976 490.549 219.976C489.889 219.976 489.236 220.079 488.591 220.284C487.96 220.49 487.425 220.776 486.985 221.142L485.907 219.14C486.538 218.656 487.286 218.297 488.151 218.062C489.031 217.813 489.94 217.688 490.879 217.688C492.58 217.688 493.893 218.099 494.817 218.92C495.756 219.727 496.225 220.981 496.225 222.682V229.568H493.629ZM489.933 229.722C489.053 229.722 488.283 229.576 487.623 229.282C486.963 228.974 486.45 228.556 486.083 228.028C485.731 227.486 485.555 226.877 485.555 226.202C485.555 225.542 485.709 224.948 486.017 224.42C486.34 223.892 486.86 223.474 487.579 223.166C488.298 222.858 489.251 222.704 490.439 222.704H493.849V224.53H490.637C489.698 224.53 489.068 224.684 488.745 224.992C488.422 225.286 488.261 225.652 488.261 226.092C488.261 226.591 488.459 226.987 488.855 227.28C489.251 227.574 489.801 227.72 490.505 227.72C491.18 227.72 491.781 227.566 492.309 227.258C492.852 226.95 493.24 226.496 493.475 225.894L493.937 227.544C493.673 228.234 493.196 228.769 492.507 229.15C491.832 229.532 490.974 229.722 489.933 229.722ZM499.754 229.568V217.82H502.372V221.054L502.064 220.108C502.416 219.316 502.966 218.715 503.714 218.304C504.477 217.894 505.423 217.688 506.552 217.688V220.306C506.435 220.277 506.325 220.262 506.222 220.262C506.12 220.248 506.017 220.24 505.914 220.24C504.873 220.24 504.044 220.548 503.428 221.164C502.812 221.766 502.504 222.668 502.504 223.87V229.568H499.754ZM515.551 217.688C516.49 217.688 517.326 217.872 518.059 218.238C518.807 218.605 519.394 219.17 519.819 219.932C520.244 220.68 520.457 221.648 520.457 222.836V229.568H517.707V223.188C517.707 222.147 517.458 221.37 516.959 220.856C516.475 220.343 515.793 220.086 514.913 220.086C514.268 220.086 513.696 220.218 513.197 220.482C512.698 220.746 512.31 221.142 512.031 221.67C511.767 222.184 511.635 222.836 511.635 223.628V229.568H508.885V217.82H511.503V220.988L511.041 220.02C511.452 219.272 512.046 218.7 512.823 218.304C513.615 217.894 514.524 217.688 515.551 217.688ZM523.946 229.568V217.82H526.696V229.568H523.946ZM525.332 215.884C524.818 215.884 524.393 215.723 524.056 215.4C523.733 215.078 523.572 214.689 523.572 214.234C523.572 213.765 523.733 213.376 524.056 213.068C524.393 212.746 524.818 212.584 525.332 212.584C525.845 212.584 526.263 212.738 526.586 213.046C526.923 213.34 527.092 213.714 527.092 214.168C527.092 214.652 526.93 215.063 526.608 215.4C526.285 215.723 525.86 215.884 525.332 215.884ZM536.971 217.688C537.91 217.688 538.746 217.872 539.479 218.238C540.227 218.605 540.814 219.17 541.239 219.932C541.664 220.68 541.877 221.648 541.877 222.836V229.568H539.127V223.188C539.127 222.147 538.878 221.37 538.379 220.856C537.895 220.343 537.213 220.086 536.333 220.086C535.688 220.086 535.116 220.218 534.617 220.482C534.118 220.746 533.73 221.142 533.451 221.67C533.187 222.184 533.055 222.836 533.055 223.628V229.568H530.305V217.82H532.923V220.988L532.461 220.02C532.872 219.272 533.466 218.7 534.243 218.304C535.035 217.894 535.944 217.688 536.971 217.688ZM550.711 233.99C549.626 233.99 548.562 233.844 547.521 233.55C546.494 233.272 545.651 232.861 544.991 232.318L546.223 230.25C546.736 230.676 547.382 231.013 548.159 231.262C548.951 231.526 549.75 231.658 550.557 231.658C551.848 231.658 552.794 231.358 553.395 230.756C553.996 230.17 554.297 229.282 554.297 228.094V226.004L554.517 223.342L554.429 220.68V217.82H557.047V227.786C557.047 229.913 556.504 231.475 555.419 232.472C554.334 233.484 552.764 233.99 550.711 233.99ZM550.359 229.04C549.244 229.04 548.232 228.806 547.323 228.336C546.428 227.852 545.717 227.185 545.189 226.334C544.676 225.484 544.419 224.486 544.419 223.342C544.419 222.213 544.676 221.223 545.189 220.372C545.717 219.522 546.428 218.862 547.323 218.392C548.232 217.923 549.244 217.688 550.359 217.688C551.356 217.688 552.251 217.886 553.043 218.282C553.835 218.678 554.466 219.294 554.935 220.13C555.419 220.966 555.661 222.037 555.661 223.342C555.661 224.648 555.419 225.726 554.935 226.576C554.466 227.412 553.835 228.036 553.043 228.446C552.251 228.842 551.356 229.04 550.359 229.04ZM550.777 226.708C551.466 226.708 552.082 226.569 552.625 226.29C553.168 225.997 553.586 225.601 553.879 225.102C554.187 224.589 554.341 224.002 554.341 223.342C554.341 222.682 554.187 222.103 553.879 221.604C553.586 221.091 553.168 220.702 552.625 220.438C552.082 220.16 551.466 220.02 550.777 220.02C550.088 220.02 549.464 220.16 548.907 220.438C548.364 220.702 547.939 221.091 547.631 221.604C547.338 222.103 547.191 222.682 547.191 223.342C547.191 224.002 547.338 224.589 547.631 225.102C547.939 225.601 548.364 225.997 548.907 226.29C549.464 226.569 550.088 226.708 550.777 226.708Z" fill="#FBFFFF"/>
</g>
<g opacity="0.4">
<path d="M623.345 523.674H345.491C343.976 523.674 342.749 524.902 342.749 526.416V612.009C342.749 613.523 343.976 614.751 345.491 614.751H444.226C446.095 614.751 447.776 615.889 448.47 617.625L459.559 645.377C460.485 647.693 463.77 647.671 464.665 645.344L475.304 617.68C475.983 615.916 477.679 614.751 479.57 614.751H623.345C624.859 614.751 626.087 613.523 626.087 612.009V526.416C626.087 524.902 624.859 523.674 623.345 523.674Z" stroke="#FAFAFA" stroke-width="1.82799"/>
<path d="M365.466 565.05V549.65H368.326V565.05H365.466ZM378.894 553.17C379.832 553.17 380.668 553.353 381.402 553.72C382.15 554.087 382.736 554.651 383.162 555.414C383.587 556.162 383.8 557.13 383.8 558.318V565.05H381.05V558.67C381.05 557.629 380.8 556.851 380.302 556.338C379.818 555.825 379.136 555.568 378.256 555.568C377.61 555.568 377.038 555.7 376.54 555.964C376.041 556.228 375.652 556.624 375.374 557.152C375.11 557.665 374.978 558.318 374.978 559.11V565.05H372.228V553.302H374.846V556.47L374.384 555.502C374.794 554.754 375.388 554.182 376.166 553.786C376.958 553.375 377.867 553.17 378.894 553.17ZM390.197 565.05L385.159 553.302H388.019L392.353 563.664H390.945L395.433 553.302H398.073L393.035 565.05H390.197ZM404.992 565.204C403.687 565.204 402.543 564.947 401.56 564.434C400.592 563.906 399.837 563.187 399.294 562.278C398.766 561.369 398.502 560.335 398.502 559.176C398.502 558.003 398.759 556.969 399.272 556.074C399.8 555.165 400.519 554.453 401.428 553.94C402.352 553.427 403.401 553.17 404.574 553.17C405.718 553.17 406.737 553.419 407.632 553.918C408.527 554.417 409.231 555.121 409.744 556.03C410.257 556.939 410.514 558.01 410.514 559.242C410.514 559.359 410.507 559.491 410.492 559.638C410.492 559.785 410.485 559.924 410.47 560.056H400.68V558.23H409.018L407.94 558.802C407.955 558.127 407.815 557.533 407.522 557.02C407.229 556.507 406.825 556.103 406.312 555.81C405.813 555.517 405.234 555.37 404.574 555.37C403.899 555.37 403.305 555.517 402.792 555.81C402.293 556.103 401.897 556.514 401.604 557.042C401.325 557.555 401.186 558.164 401.186 558.868V559.308C401.186 560.012 401.347 560.635 401.67 561.178C401.993 561.721 402.447 562.139 403.034 562.432C403.621 562.725 404.295 562.872 405.058 562.872C405.718 562.872 406.312 562.769 406.84 562.564C407.368 562.359 407.837 562.036 408.248 561.596L409.722 563.29C409.194 563.906 408.527 564.383 407.72 564.72C406.928 565.043 406.019 565.204 404.992 565.204ZM416.785 565.204C415.803 565.204 414.857 565.079 413.947 564.83C413.053 564.566 412.341 564.251 411.813 563.884L412.869 561.794C413.397 562.131 414.028 562.41 414.761 562.63C415.495 562.85 416.228 562.96 416.961 562.96C417.827 562.96 418.45 562.843 418.831 562.608C419.227 562.373 419.425 562.058 419.425 561.662C419.425 561.339 419.293 561.097 419.029 560.936C418.765 560.76 418.421 560.628 417.995 560.54C417.57 560.452 417.093 560.371 416.565 560.298C416.052 560.225 415.531 560.129 415.003 560.012C414.49 559.88 414.021 559.697 413.595 559.462C413.17 559.213 412.825 558.883 412.561 558.472C412.297 558.061 412.165 557.519 412.165 556.844C412.165 556.096 412.378 555.451 412.803 554.908C413.229 554.351 413.823 553.925 414.585 553.632C415.363 553.324 416.279 553.17 417.335 553.17C418.127 553.17 418.927 553.258 419.733 553.434C420.54 553.61 421.207 553.859 421.735 554.182L420.679 556.272C420.122 555.935 419.557 555.707 418.985 555.59C418.428 555.458 417.871 555.392 417.313 555.392C416.477 555.392 415.854 555.517 415.443 555.766C415.047 556.015 414.849 556.331 414.849 556.712C414.849 557.064 414.981 557.328 415.245 557.504C415.509 557.68 415.854 557.819 416.279 557.922C416.705 558.025 417.174 558.113 417.687 558.186C418.215 558.245 418.736 558.34 419.249 558.472C419.763 558.604 420.232 558.787 420.657 559.022C421.097 559.242 421.449 559.557 421.713 559.968C421.977 560.379 422.109 560.914 422.109 561.574C422.109 562.307 421.889 562.945 421.449 563.488C421.024 564.031 420.415 564.456 419.623 564.764C418.831 565.057 417.885 565.204 416.785 565.204ZM428.9 565.204C427.609 565.204 426.612 564.874 425.908 564.214C425.204 563.539 424.852 562.549 424.852 561.244V550.706H427.602V561.178C427.602 561.735 427.741 562.168 428.02 562.476C428.313 562.784 428.716 562.938 429.23 562.938C429.846 562.938 430.359 562.777 430.77 562.454L431.54 564.412C431.217 564.676 430.821 564.874 430.352 565.006C429.882 565.138 429.398 565.204 428.9 565.204ZM422.916 555.59V553.39H430.748V555.59H422.916ZM439.882 565.05V553.302H442.632V565.05H439.882ZM441.268 551.366C440.755 551.366 440.329 551.205 439.992 550.882C439.669 550.559 439.508 550.171 439.508 549.716C439.508 549.247 439.669 548.858 439.992 548.55C440.329 548.227 440.755 548.066 441.268 548.066C441.781 548.066 442.199 548.22 442.522 548.528C442.859 548.821 443.028 549.195 443.028 549.65C443.028 550.134 442.867 550.545 442.544 550.882C442.221 551.205 441.796 551.366 441.268 551.366ZM452.907 553.17C453.846 553.17 454.682 553.353 455.415 553.72C456.163 554.087 456.75 554.651 457.175 555.414C457.601 556.162 457.813 557.13 457.813 558.318V565.05H455.063V558.67C455.063 557.629 454.814 556.851 454.315 556.338C453.831 555.825 453.149 555.568 452.269 555.568C451.624 555.568 451.052 555.7 450.553 555.964C450.055 556.228 449.666 556.624 449.387 557.152C449.123 557.665 448.991 558.318 448.991 559.11V565.05H446.241V553.302H448.859V556.47L448.397 555.502C448.808 554.754 449.402 554.182 450.179 553.786C450.971 553.375 451.881 553.17 452.907 553.17ZM467.382 565.05V553.302H470V556.536L469.692 555.59C470.044 554.798 470.594 554.197 471.342 553.786C472.105 553.375 473.051 553.17 474.18 553.17V555.788C474.063 555.759 473.953 555.744 473.85 555.744C473.747 555.729 473.645 555.722 473.542 555.722C472.501 555.722 471.672 556.03 471.056 556.646C470.44 557.247 470.132 558.149 470.132 559.352V565.05H467.382ZM481.927 565.204C480.622 565.204 479.478 564.947 478.495 564.434C477.527 563.906 476.772 563.187 476.229 562.278C475.701 561.369 475.437 560.335 475.437 559.176C475.437 558.003 475.694 556.969 476.207 556.074C476.735 555.165 477.454 554.453 478.363 553.94C479.287 553.427 480.336 553.17 481.509 553.17C482.653 553.17 483.673 553.419 484.567 553.918C485.462 554.417 486.166 555.121 486.679 556.03C487.193 556.939 487.449 558.01 487.449 559.242C487.449 559.359 487.442 559.491 487.427 559.638C487.427 559.785 487.42 559.924 487.405 560.056H477.615V558.23H485.953L484.875 558.802C484.89 558.127 484.751 557.533 484.457 557.02C484.164 556.507 483.761 556.103 483.247 555.81C482.749 555.517 482.169 555.37 481.509 555.37C480.835 555.37 480.241 555.517 479.727 555.81C479.229 556.103 478.833 556.514 478.539 557.042C478.261 557.555 478.121 558.164 478.121 558.868V559.308C478.121 560.012 478.283 560.635 478.605 561.178C478.928 561.721 479.383 562.139 479.969 562.432C480.556 562.725 481.231 562.872 481.993 562.872C482.653 562.872 483.247 562.769 483.775 562.564C484.303 562.359 484.773 562.036 485.183 561.596L486.657 563.29C486.129 563.906 485.462 564.383 484.655 564.72C483.863 565.043 482.954 565.204 481.927 565.204ZM497.007 565.05V562.674L496.853 562.168V558.01C496.853 557.203 496.611 556.58 496.127 556.14C495.643 555.685 494.909 555.458 493.927 555.458C493.267 555.458 492.614 555.561 491.969 555.766C491.338 555.971 490.803 556.257 490.363 556.624L489.285 554.622C489.915 554.138 490.663 553.779 491.529 553.544C492.409 553.295 493.318 553.17 494.257 553.17C495.958 553.17 497.271 553.581 498.195 554.402C499.133 555.209 499.603 556.463 499.603 558.164V565.05H497.007ZM493.311 565.204C492.431 565.204 491.661 565.057 491.001 564.764C490.341 564.456 489.827 564.038 489.461 563.51C489.109 562.967 488.933 562.359 488.933 561.684C488.933 561.024 489.087 560.43 489.395 559.902C489.717 559.374 490.238 558.956 490.957 558.648C491.675 558.34 492.629 558.186 493.817 558.186H497.227V560.012H494.015C493.076 560.012 492.445 560.166 492.123 560.474C491.8 560.767 491.639 561.134 491.639 561.574C491.639 562.073 491.837 562.469 492.233 562.762C492.629 563.055 493.179 563.202 493.883 563.202C494.557 563.202 495.159 563.048 495.687 562.74C496.229 562.432 496.618 561.977 496.853 561.376L497.315 563.026C497.051 563.715 496.574 564.251 495.885 564.632C495.21 565.013 494.352 565.204 493.311 565.204ZM503.132 565.05V548.726H505.882V565.05H503.132ZM530.399 553.17C531.338 553.17 532.167 553.353 532.885 553.72C533.619 554.087 534.191 554.651 534.601 555.414C535.012 556.162 535.217 557.13 535.217 558.318V565.05H532.467V558.67C532.467 557.629 532.24 556.851 531.785 556.338C531.331 555.825 530.678 555.568 529.827 555.568C529.226 555.568 528.691 555.7 528.221 555.964C527.767 556.228 527.407 556.617 527.143 557.13C526.894 557.643 526.769 558.296 526.769 559.088V565.05H524.019V558.67C524.019 557.629 523.792 556.851 523.337 556.338C522.883 555.825 522.23 555.568 521.379 555.568C520.778 555.568 520.243 555.7 519.773 555.964C519.319 556.228 518.959 556.617 518.695 557.13C518.446 557.643 518.321 558.296 518.321 559.088V565.05H515.571V553.302H518.189V556.426L517.727 555.502C518.123 554.739 518.695 554.16 519.443 553.764C520.206 553.368 521.071 553.17 522.039 553.17C523.139 553.17 524.093 553.441 524.899 553.984C525.721 554.527 526.263 555.348 526.527 556.448L525.449 556.074C525.831 555.194 526.461 554.49 527.341 553.962C528.221 553.434 529.241 553.17 530.399 553.17ZM545.97 565.05V562.674L545.816 562.168V558.01C545.816 557.203 545.574 556.58 545.09 556.14C544.606 555.685 543.872 555.458 542.89 555.458C542.23 555.458 541.577 555.561 540.932 555.766C540.301 555.971 539.766 556.257 539.326 556.624L538.248 554.622C538.878 554.138 539.626 553.779 540.492 553.544C541.372 553.295 542.281 553.17 543.22 553.17C544.921 553.17 546.234 553.581 547.158 554.402C548.096 555.209 548.566 556.463 548.566 558.164V565.05H545.97ZM542.274 565.204C541.394 565.204 540.624 565.057 539.964 564.764C539.304 564.456 538.79 564.038 538.424 563.51C538.072 562.967 537.896 562.359 537.896 561.684C537.896 561.024 538.05 560.43 538.358 559.902C538.68 559.374 539.201 558.956 539.92 558.648C540.638 558.34 541.592 558.186 542.78 558.186H546.19V560.012H542.978C542.039 560.012 541.408 560.166 541.086 560.474C540.763 560.767 540.602 561.134 540.602 561.574C540.602 562.073 540.8 562.469 541.196 562.762C541.592 563.055 542.142 563.202 542.846 563.202C543.52 563.202 544.122 563.048 544.65 562.74C545.192 562.432 545.581 561.977 545.816 561.376L546.278 563.026C546.014 563.715 545.537 564.251 544.848 564.632C544.173 565.013 543.315 565.204 542.274 565.204ZM552.095 565.05V553.302H554.713V556.536L554.405 555.59C554.757 554.798 555.307 554.197 556.055 553.786C556.818 553.375 557.764 553.17 558.893 553.17V555.788C558.776 555.759 558.666 555.744 558.563 555.744C558.46 555.729 558.358 555.722 558.255 555.722C557.214 555.722 556.385 556.03 555.769 556.646C555.153 557.247 554.845 558.149 554.845 559.352V565.05H552.095ZM563.47 562.432L563.536 558.978L569.674 553.302H572.974L567.76 558.538L566.308 559.748L563.47 562.432ZM561.226 565.05V548.726H563.976V565.05H561.226ZM570.092 565.05L565.802 559.748L567.54 557.548L573.436 565.05H570.092ZM580.261 565.204C578.956 565.204 577.812 564.947 576.829 564.434C575.861 563.906 575.106 563.187 574.563 562.278C574.035 561.369 573.771 560.335 573.771 559.176C573.771 558.003 574.028 556.969 574.541 556.074C575.069 555.165 575.788 554.453 576.697 553.94C577.621 553.427 578.67 553.17 579.843 553.17C580.987 553.17 582.007 553.419 582.901 553.918C583.796 554.417 584.5 555.121 585.013 556.03C585.527 556.939 585.783 558.01 585.783 559.242C585.783 559.359 585.776 559.491 585.761 559.638C585.761 559.785 585.754 559.924 585.739 560.056H575.949V558.23H584.287L583.209 558.802C583.224 558.127 583.085 557.533 582.791 557.02C582.498 556.507 582.095 556.103 581.581 555.81C581.083 555.517 580.503 555.37 579.843 555.37C579.169 555.37 578.575 555.517 578.061 555.81C577.563 556.103 577.167 556.514 576.873 557.042C576.595 557.555 576.455 558.164 576.455 558.868V559.308C576.455 560.012 576.617 560.635 576.939 561.178C577.262 561.721 577.717 562.139 578.303 562.432C578.89 562.725 579.565 562.872 580.327 562.872C580.987 562.872 581.581 562.769 582.109 562.564C582.637 562.359 583.107 562.036 583.517 561.596L584.991 563.29C584.463 563.906 583.796 564.383 582.989 564.72C582.197 565.043 581.288 565.204 580.261 565.204ZM592.847 565.204C591.556 565.204 590.559 564.874 589.855 564.214C589.151 563.539 588.799 562.549 588.799 561.244V550.706H591.549V561.178C591.549 561.735 591.688 562.168 591.967 562.476C592.26 562.784 592.664 562.938 593.177 562.938C593.793 562.938 594.306 562.777 594.717 562.454L595.487 564.412C595.164 564.676 594.768 564.874 594.299 565.006C593.83 565.138 593.346 565.204 592.847 565.204ZM586.863 555.59V553.39H594.695V555.59H586.863ZM601.379 565.204C600.396 565.204 599.45 565.079 598.541 564.83C597.646 564.566 596.935 564.251 596.407 563.884L597.463 561.794C597.991 562.131 598.622 562.41 599.355 562.63C600.088 562.85 600.822 562.96 601.555 562.96C602.42 562.96 603.044 562.843 603.425 562.608C603.821 562.373 604.019 562.058 604.019 561.662C604.019 561.339 603.887 561.097 603.623 560.936C603.359 560.76 603.014 560.628 602.589 560.54C602.164 560.452 601.687 560.371 601.159 560.298C600.646 560.225 600.125 560.129 599.597 560.012C599.084 559.88 598.614 559.697 598.189 559.462C597.764 559.213 597.419 558.883 597.155 558.472C596.891 558.061 596.759 557.519 596.759 556.844C596.759 556.096 596.972 555.451 597.397 554.908C597.822 554.351 598.416 553.925 599.179 553.632C599.956 553.324 600.873 553.17 601.929 553.17C602.721 553.17 603.52 553.258 604.327 553.434C605.134 553.61 605.801 553.859 606.329 554.182L605.273 556.272C604.716 555.935 604.151 555.707 603.579 555.59C603.022 555.458 602.464 555.392 601.907 555.392C601.071 555.392 600.448 555.517 600.037 555.766C599.641 556.015 599.443 556.331 599.443 556.712C599.443 557.064 599.575 557.328 599.839 557.504C600.103 557.68 600.448 557.819 600.873 557.922C601.298 558.025 601.768 558.113 602.281 558.186C602.809 558.245 603.33 558.34 603.843 558.472C604.356 558.604 604.826 558.787 605.251 559.022C605.691 559.242 606.043 559.557 606.307 559.968C606.571 560.379 606.703 560.914 606.703 561.574C606.703 562.307 606.483 562.945 606.043 563.488C605.618 564.031 605.009 564.456 604.217 564.764C603.425 565.057 602.479 565.204 601.379 565.204ZM397.919 593.05L393.607 581.302H396.203L399.899 591.664H398.667L402.539 581.302H404.849L408.611 591.664H407.401L411.207 581.302H413.649L409.315 593.05H406.675L403.243 583.876H404.057L400.559 593.05H397.919ZM415.54 593.05V581.302H418.29V593.05H415.54ZM416.926 579.366C416.413 579.366 415.987 579.205 415.65 578.882C415.327 578.559 415.166 578.171 415.166 577.716C415.166 577.247 415.327 576.858 415.65 576.55C415.987 576.227 416.413 576.066 416.926 576.066C417.439 576.066 417.857 576.22 418.18 576.528C418.517 576.821 418.686 577.195 418.686 577.65C418.686 578.134 418.525 578.545 418.202 578.882C417.879 579.205 417.454 579.366 416.926 579.366ZM426.322 593.204C425.031 593.204 424.034 592.874 423.33 592.214C422.626 591.539 422.274 590.549 422.274 589.244V578.706H425.024V589.178C425.024 589.735 425.163 590.168 425.442 590.476C425.735 590.784 426.138 590.938 426.652 590.938C427.268 590.938 427.781 590.777 428.192 590.454L428.962 592.412C428.639 592.676 428.243 592.874 427.774 593.006C427.304 593.138 426.82 593.204 426.322 593.204ZM420.338 583.59V581.39H428.17V583.59H420.338ZM437.89 581.17C438.828 581.17 439.664 581.353 440.398 581.72C441.146 582.087 441.732 582.651 442.158 583.414C442.583 584.162 442.796 585.13 442.796 586.318V593.05H440.046V586.67C440.046 585.629 439.796 584.851 439.298 584.338C438.814 583.825 438.132 583.568 437.252 583.568C436.606 583.568 436.034 583.7 435.536 583.964C435.037 584.228 434.648 584.624 434.37 585.152C434.106 585.665 433.974 586.318 433.974 587.11V593.05H431.224V576.726H433.974V584.47L433.38 583.502C433.79 582.754 434.384 582.182 435.162 581.786C435.954 581.375 436.863 581.17 437.89 581.17ZM457.754 593.204C456.522 593.204 455.422 592.947 454.454 592.434C453.501 591.906 452.753 591.187 452.21 590.278C451.668 589.369 451.396 588.335 451.396 587.176C451.396 586.003 451.668 584.969 452.21 584.074C452.753 583.165 453.501 582.453 454.454 581.94C455.422 581.427 456.522 581.17 457.754 581.17C458.898 581.17 459.903 581.405 460.768 581.874C461.648 582.329 462.316 583.003 462.77 583.898L460.658 585.13C460.306 584.573 459.874 584.162 459.36 583.898C458.862 583.634 458.319 583.502 457.732 583.502C457.058 583.502 456.449 583.649 455.906 583.942C455.364 584.235 454.938 584.661 454.63 585.218C454.322 585.761 454.168 586.413 454.168 587.176C454.168 587.939 454.322 588.599 454.63 589.156C454.938 589.699 455.364 590.117 455.906 590.41C456.449 590.703 457.058 590.85 457.732 590.85C458.319 590.85 458.862 590.718 459.36 590.454C459.874 590.19 460.306 589.779 460.658 589.222L462.77 590.454C462.316 591.334 461.648 592.016 460.768 592.5C459.903 592.969 458.898 593.204 457.754 593.204ZM470.256 593.204C469.053 593.204 467.982 592.947 467.044 592.434C466.105 591.906 465.364 591.187 464.822 590.278C464.279 589.369 464.008 588.335 464.008 587.176C464.008 586.003 464.279 584.969 464.822 584.074C465.364 583.165 466.105 582.453 467.044 581.94C467.982 581.427 469.053 581.17 470.256 581.17C471.473 581.17 472.551 581.427 473.49 581.94C474.443 582.453 475.184 583.157 475.712 584.052C476.254 584.947 476.526 585.988 476.526 587.176C476.526 588.335 476.254 589.369 475.712 590.278C475.184 591.187 474.443 591.906 473.49 592.434C472.551 592.947 471.473 593.204 470.256 593.204ZM470.256 590.85C470.93 590.85 471.532 590.703 472.06 590.41C472.588 590.117 472.998 589.691 473.292 589.134C473.6 588.577 473.754 587.924 473.754 587.176C473.754 586.413 473.6 585.761 473.292 585.218C472.998 584.661 472.588 584.235 472.06 583.942C471.532 583.649 470.938 583.502 470.278 583.502C469.603 583.502 469.002 583.649 468.474 583.942C467.96 584.235 467.55 584.661 467.242 585.218C466.934 585.761 466.78 586.413 466.78 587.176C466.78 587.924 466.934 588.577 467.242 589.134C467.55 589.691 467.96 590.117 468.474 590.41C469.002 590.703 469.596 590.85 470.256 590.85ZM485.821 581.17C486.76 581.17 487.596 581.353 488.329 581.72C489.077 582.087 489.664 582.651 490.089 583.414C490.515 584.162 490.727 585.13 490.727 586.318V593.05H487.977V586.67C487.977 585.629 487.728 584.851 487.229 584.338C486.745 583.825 486.063 583.568 485.183 583.568C484.538 583.568 483.966 583.7 483.467 583.964C482.969 584.228 482.58 584.624 482.301 585.152C482.037 585.665 481.905 586.318 481.905 587.11V593.05H479.155V581.302H481.773V584.47L481.311 583.502C481.722 582.754 482.316 582.182 483.093 581.786C483.885 581.375 484.795 581.17 485.821 581.17ZM494.59 593.05V580.642C494.59 579.41 494.949 578.427 495.668 577.694C496.401 576.946 497.443 576.572 498.792 576.572C499.276 576.572 499.731 576.623 500.156 576.726C500.596 576.829 500.963 576.99 501.256 577.21L500.508 579.278C500.303 579.117 500.068 578.999 499.804 578.926C499.54 578.838 499.269 578.794 498.99 578.794C498.418 578.794 497.985 578.955 497.692 579.278C497.399 579.586 497.252 580.055 497.252 580.686V582.006L497.34 583.238V593.05H494.59ZM492.654 583.59V581.39H500.486V583.59H492.654ZM502.422 593.05V581.302H505.172V593.05H502.422ZM503.808 579.366C503.295 579.366 502.869 579.205 502.532 578.882C502.209 578.559 502.048 578.171 502.048 577.716C502.048 577.247 502.209 576.858 502.532 576.55C502.869 576.227 503.295 576.066 503.808 576.066C504.321 576.066 504.739 576.22 505.062 576.528C505.399 576.821 505.568 577.195 505.568 577.65C505.568 578.134 505.407 578.545 505.084 578.882C504.761 579.205 504.336 579.366 503.808 579.366ZM513.754 593.204C512.625 593.204 511.606 592.955 510.696 592.456C509.802 591.943 509.098 591.239 508.584 590.344C508.071 589.449 507.814 588.393 507.814 587.176C507.814 585.959 508.071 584.903 508.584 584.008C509.098 583.113 509.802 582.417 510.696 581.918C511.606 581.419 512.625 581.17 513.754 581.17C514.737 581.17 515.617 581.39 516.394 581.83C517.172 582.255 517.788 582.908 518.242 583.788C518.697 584.668 518.924 585.797 518.924 587.176C518.924 588.54 518.704 589.669 518.264 590.564C517.824 591.444 517.216 592.104 516.438 592.544C515.661 592.984 514.766 593.204 513.754 593.204ZM514.084 590.85C514.744 590.85 515.331 590.703 515.844 590.41C516.372 590.117 516.79 589.691 517.098 589.134C517.421 588.577 517.582 587.924 517.582 587.176C517.582 586.413 517.421 585.761 517.098 585.218C516.79 584.661 516.372 584.235 515.844 583.942C515.331 583.649 514.744 583.502 514.084 583.502C513.424 583.502 512.83 583.649 512.302 583.942C511.789 584.235 511.371 584.661 511.048 585.218C510.74 585.761 510.586 586.413 510.586 587.176C510.586 587.924 510.74 588.577 511.048 589.134C511.371 589.691 511.789 590.117 512.302 590.41C512.83 590.703 513.424 590.85 514.084 590.85ZM517.648 593.05V590.278L517.758 587.154L517.538 584.03V576.726H520.266V593.05H517.648ZM529.408 593.204C528.103 593.204 526.959 592.947 525.976 592.434C525.008 591.906 524.253 591.187 523.71 590.278C523.182 589.369 522.918 588.335 522.918 587.176C522.918 586.003 523.175 584.969 523.688 584.074C524.216 583.165 524.935 582.453 525.844 581.94C526.768 581.427 527.817 581.17 528.99 581.17C530.134 581.17 531.153 581.419 532.048 581.918C532.943 582.417 533.647 583.121 534.16 584.03C534.673 584.939 534.93 586.01 534.93 587.242C534.93 587.359 534.923 587.491 534.908 587.638C534.908 587.785 534.901 587.924 534.886 588.056H525.096V586.23H533.434L532.356 586.802C532.371 586.127 532.231 585.533 531.938 585.02C531.645 584.507 531.241 584.103 530.728 583.81C530.229 583.517 529.65 583.37 528.99 583.37C528.315 583.37 527.721 583.517 527.208 583.81C526.709 584.103 526.313 584.514 526.02 585.042C525.741 585.555 525.602 586.164 525.602 586.868V587.308C525.602 588.012 525.763 588.635 526.086 589.178C526.409 589.721 526.863 590.139 527.45 590.432C528.037 590.725 528.711 590.872 529.474 590.872C530.134 590.872 530.728 590.769 531.256 590.564C531.784 590.359 532.253 590.036 532.664 589.596L534.138 591.29C533.61 591.906 532.943 592.383 532.136 592.72C531.344 593.043 530.435 593.204 529.408 593.204ZM544.237 581.17C545.176 581.17 546.012 581.353 546.745 581.72C547.493 582.087 548.08 582.651 548.505 583.414C548.931 584.162 549.143 585.13 549.143 586.318V593.05H546.393V586.67C546.393 585.629 546.144 584.851 545.645 584.338C545.161 583.825 544.479 583.568 543.599 583.568C542.954 583.568 542.382 583.7 541.883 583.964C541.385 584.228 540.996 584.624 540.717 585.152C540.453 585.665 540.321 586.318 540.321 587.11V593.05H537.571V581.302H540.189V584.47L539.727 583.502C540.138 582.754 540.732 582.182 541.509 581.786C542.301 581.375 543.211 581.17 544.237 581.17ZM558.043 593.204C556.811 593.204 555.711 592.947 554.743 592.434C553.79 591.906 553.042 591.187 552.499 590.278C551.957 589.369 551.685 588.335 551.685 587.176C551.685 586.003 551.957 584.969 552.499 584.074C553.042 583.165 553.79 582.453 554.743 581.94C555.711 581.427 556.811 581.17 558.043 581.17C559.187 581.17 560.192 581.405 561.057 581.874C561.937 582.329 562.605 583.003 563.059 583.898L560.947 585.13C560.595 584.573 560.163 584.162 559.649 583.898C559.151 583.634 558.608 583.502 558.021 583.502C557.347 583.502 556.738 583.649 556.195 583.942C555.653 584.235 555.227 584.661 554.919 585.218C554.611 585.761 554.457 586.413 554.457 587.176C554.457 587.939 554.611 588.599 554.919 589.156C555.227 589.699 555.653 590.117 556.195 590.41C556.738 590.703 557.347 590.85 558.021 590.85C558.608 590.85 559.151 590.718 559.649 590.454C560.163 590.19 560.595 589.779 560.947 589.222L563.059 590.454C562.605 591.334 561.937 592.016 561.057 592.5C560.192 592.969 559.187 593.204 558.043 593.204ZM570.787 593.204C569.481 593.204 568.337 592.947 567.355 592.434C566.387 591.906 565.631 591.187 565.089 590.278C564.561 589.369 564.297 588.335 564.297 587.176C564.297 586.003 564.553 584.969 565.067 584.074C565.595 583.165 566.313 582.453 567.223 581.94C568.147 581.427 569.195 581.17 570.369 581.17C571.513 581.17 572.532 581.419 573.427 581.918C574.321 582.417 575.025 583.121 575.539 584.03C576.052 584.939 576.309 586.01 576.309 587.242C576.309 587.359 576.301 587.491 576.287 587.638C576.287 587.785 576.279 587.924 576.265 588.056H566.475V586.23H574.813L573.735 586.802C573.749 586.127 573.61 585.533 573.317 585.02C573.023 584.507 572.62 584.103 572.107 583.81C571.608 583.517 571.029 583.37 570.369 583.37C569.694 583.37 569.1 583.517 568.587 583.81C568.088 584.103 567.692 584.514 567.399 585.042C567.12 585.555 566.981 586.164 566.981 586.868V587.308C566.981 588.012 567.142 588.635 567.465 589.178C567.787 589.721 568.242 590.139 568.829 590.432C569.415 590.725 570.09 590.872 570.853 590.872C571.513 590.872 572.107 590.769 572.635 590.564C573.163 590.359 573.632 590.036 574.043 589.596L575.517 591.29C574.989 591.906 574.321 592.383 573.515 592.72C572.723 593.043 571.813 593.204 570.787 593.204Z" fill="#FBFFFF"/>
</g>
<g opacity="0.4">
<path d="M288.823 366.467H3.65613C2.14178 366.467 0.914154 367.695 0.914154 369.209V454.802C0.914154 456.316 2.14178 457.544 3.65613 457.544H105.104C106.959 457.544 108.629 458.665 109.333 460.381L120.82 488.409C121.757 490.695 125.001 490.674 125.908 488.376L136.928 460.437C137.617 458.691 139.303 457.544 141.18 457.544H288.823C290.337 457.544 291.565 456.316 291.565 454.802V369.209C291.565 367.695 290.337 366.467 288.823 366.467Z" stroke="#FBFFFF" stroke-width="1.82799"/>
<path d="M27.2837 407.798V392.398H30.1437V407.798H27.2837ZM40.711 395.918C41.6497 395.918 42.4857 396.101 43.219 396.468C43.967 396.835 44.5537 397.399 44.979 398.162C45.4044 398.91 45.617 399.878 45.617 401.066V407.798H42.867V401.418C42.867 400.377 42.6177 399.599 42.119 399.086C41.635 398.573 40.953 398.316 40.073 398.316C39.4277 398.316 38.8557 398.448 38.357 398.712C37.8584 398.976 37.4697 399.372 37.191 399.9C36.927 400.413 36.795 401.066 36.795 401.858V407.798H34.045V396.05H36.663V399.218L36.201 398.25C36.6117 397.502 37.2057 396.93 37.983 396.534C38.775 396.123 39.6844 395.918 40.711 395.918ZM52.0147 407.798L46.9767 396.05H49.8367L54.1707 406.412H52.7627L57.2507 396.05H59.8907L54.8527 407.798H52.0147ZM66.8092 407.952C65.5039 407.952 64.3599 407.695 63.3772 407.182C62.4092 406.654 61.6539 405.935 61.1112 405.026C60.5832 404.117 60.3192 403.083 60.3192 401.924C60.3192 400.751 60.5759 399.717 61.0892 398.822C61.6172 397.913 62.3359 397.201 63.2452 396.688C64.1692 396.175 65.2179 395.918 66.3912 395.918C67.5352 395.918 68.5546 396.167 69.4492 396.666C70.3439 397.165 71.0479 397.869 71.5612 398.778C72.0746 399.687 72.3312 400.758 72.3312 401.99C72.3312 402.107 72.3239 402.239 72.3092 402.386C72.3092 402.533 72.3019 402.672 72.2872 402.804H62.4972V400.978H70.8352L69.7572 401.55C69.7719 400.875 69.6326 400.281 69.3392 399.768C69.0459 399.255 68.6426 398.851 68.1292 398.558C67.6306 398.265 67.0512 398.118 66.3912 398.118C65.7166 398.118 65.1226 398.265 64.6092 398.558C64.1106 398.851 63.7146 399.262 63.4212 399.79C63.1426 400.303 63.0032 400.912 63.0032 401.616V402.056C63.0032 402.76 63.1646 403.383 63.4872 403.926C63.8099 404.469 64.2646 404.887 64.8512 405.18C65.4379 405.473 66.1126 405.62 66.8752 405.62C67.5352 405.62 68.1292 405.517 68.6572 405.312C69.1852 405.107 69.6546 404.784 70.0652 404.344L71.5392 406.038C71.0112 406.654 70.3439 407.131 69.5372 407.468C68.7452 407.791 67.8359 407.952 66.8092 407.952ZM78.6028 407.952C77.6201 407.952 76.6741 407.827 75.7648 407.578C74.8701 407.314 74.1588 406.999 73.6308 406.632L74.6868 404.542C75.2148 404.879 75.8454 405.158 76.5788 405.378C77.3121 405.598 78.0454 405.708 78.7788 405.708C79.6441 405.708 80.2674 405.591 80.6488 405.356C81.0448 405.121 81.2428 404.806 81.2428 404.41C81.2428 404.087 81.1108 403.845 80.8468 403.684C80.5828 403.508 80.2381 403.376 79.8128 403.288C79.3874 403.2 78.9108 403.119 78.3828 403.046C77.8694 402.973 77.3488 402.877 76.8208 402.76C76.3074 402.628 75.8381 402.445 75.4128 402.21C74.9874 401.961 74.6428 401.631 74.3788 401.22C74.1148 400.809 73.9828 400.267 73.9828 399.592C73.9828 398.844 74.1954 398.199 74.6208 397.656C75.0461 397.099 75.6401 396.673 76.4028 396.38C77.1801 396.072 78.0968 395.918 79.1528 395.918C79.9448 395.918 80.7441 396.006 81.5508 396.182C82.3574 396.358 83.0248 396.607 83.5528 396.93L82.4968 399.02C81.9394 398.683 81.3748 398.455 80.8028 398.338C80.2454 398.206 79.6881 398.14 79.1308 398.14C78.2948 398.14 77.6714 398.265 77.2608 398.514C76.8648 398.763 76.6668 399.079 76.6668 399.46C76.6668 399.812 76.7988 400.076 77.0628 400.252C77.3268 400.428 77.6714 400.567 78.0968 400.67C78.5221 400.773 78.9914 400.861 79.5048 400.934C80.0328 400.993 80.5534 401.088 81.0668 401.22C81.5801 401.352 82.0494 401.535 82.4748 401.77C82.9148 401.99 83.2668 402.305 83.5308 402.716C83.7948 403.127 83.9268 403.662 83.9268 404.322C83.9268 405.055 83.7068 405.693 83.2668 406.236C82.8414 406.779 82.2328 407.204 81.4408 407.512C80.6488 407.805 79.7028 407.952 78.6028 407.952ZM90.717 407.952C89.4264 407.952 88.429 407.622 87.725 406.962C87.021 406.287 86.669 405.297 86.669 403.992V393.454H89.419V403.926C89.419 404.483 89.5584 404.916 89.837 405.224C90.1304 405.532 90.5337 405.686 91.047 405.686C91.663 405.686 92.1764 405.525 92.587 405.202L93.357 407.16C93.0344 407.424 92.6384 407.622 92.169 407.754C91.6997 407.886 91.2157 407.952 90.717 407.952ZM84.733 398.338V396.138H92.565V398.338H84.733ZM101.699 407.798V396.05H104.449V407.798H101.699ZM103.085 394.114C102.572 394.114 102.147 393.953 101.809 393.63C101.487 393.307 101.325 392.919 101.325 392.464C101.325 391.995 101.487 391.606 101.809 391.298C102.147 390.975 102.572 390.814 103.085 390.814C103.599 390.814 104.017 390.968 104.339 391.276C104.677 391.569 104.845 391.943 104.845 392.398C104.845 392.882 104.684 393.293 104.361 393.63C104.039 393.953 103.613 394.114 103.085 394.114ZM114.725 395.918C115.663 395.918 116.499 396.101 117.233 396.468C117.981 396.835 118.567 397.399 118.993 398.162C119.418 398.91 119.631 399.878 119.631 401.066V407.798H116.881V401.418C116.881 400.377 116.631 399.599 116.133 399.086C115.649 398.573 114.967 398.316 114.087 398.316C113.441 398.316 112.869 398.448 112.371 398.712C111.872 398.976 111.483 399.372 111.205 399.9C110.941 400.413 110.809 401.066 110.809 401.858V407.798H108.059V396.05H110.677V399.218L110.215 398.25C110.625 397.502 111.219 396.93 111.997 396.534C112.789 396.123 113.698 395.918 114.725 395.918ZM129.199 407.798V396.05H131.817V399.284L131.509 398.338C131.861 397.546 132.411 396.945 133.159 396.534C133.922 396.123 134.868 395.918 135.997 395.918V398.536C135.88 398.507 135.77 398.492 135.667 398.492C135.565 398.477 135.462 398.47 135.359 398.47C134.318 398.47 133.489 398.778 132.873 399.394C132.257 399.995 131.949 400.897 131.949 402.1V407.798H129.199ZM143.745 407.952C142.439 407.952 141.295 407.695 140.313 407.182C139.345 406.654 138.589 405.935 138.047 405.026C137.519 404.117 137.255 403.083 137.255 401.924C137.255 400.751 137.511 399.717 138.025 398.822C138.553 397.913 139.271 397.201 140.181 396.688C141.105 396.175 142.153 395.918 143.327 395.918C144.471 395.918 145.49 396.167 146.385 396.666C147.279 397.165 147.983 397.869 148.497 398.778C149.01 399.687 149.267 400.758 149.267 401.99C149.267 402.107 149.259 402.239 149.245 402.386C149.245 402.533 149.237 402.672 149.223 402.804H139.433V400.978H147.771L146.693 401.55C146.707 400.875 146.568 400.281 146.275 399.768C145.981 399.255 145.578 398.851 145.065 398.558C144.566 398.265 143.987 398.118 143.327 398.118C142.652 398.118 142.058 398.265 141.545 398.558C141.046 398.851 140.65 399.262 140.357 399.79C140.078 400.303 139.939 400.912 139.939 401.616V402.056C139.939 402.76 140.1 403.383 140.423 403.926C140.745 404.469 141.2 404.887 141.787 405.18C142.373 405.473 143.048 405.62 143.811 405.62C144.471 405.62 145.065 405.517 145.593 405.312C146.121 405.107 146.59 404.784 147.001 404.344L148.475 406.038C147.947 406.654 147.279 407.131 146.473 407.468C145.681 407.791 144.771 407.952 143.745 407.952ZM158.824 407.798V405.422L158.67 404.916V400.758C158.67 399.951 158.428 399.328 157.944 398.888C157.46 398.433 156.727 398.206 155.744 398.206C155.084 398.206 154.431 398.309 153.786 398.514C153.155 398.719 152.62 399.005 152.18 399.372L151.102 397.37C151.733 396.886 152.481 396.527 153.346 396.292C154.226 396.043 155.135 395.918 156.074 395.918C157.775 395.918 159.088 396.329 160.012 397.15C160.951 397.957 161.42 399.211 161.42 400.912V407.798H158.824ZM155.128 407.952C154.248 407.952 153.478 407.805 152.818 407.512C152.158 407.204 151.645 406.786 151.278 406.258C150.926 405.715 150.75 405.107 150.75 404.432C150.75 403.772 150.904 403.178 151.212 402.65C151.535 402.122 152.055 401.704 152.774 401.396C153.493 401.088 154.446 400.934 155.634 400.934H159.044V402.76H155.832C154.893 402.76 154.263 402.914 153.94 403.222C153.617 403.515 153.456 403.882 153.456 404.322C153.456 404.821 153.654 405.217 154.05 405.51C154.446 405.803 154.996 405.95 155.7 405.95C156.375 405.95 156.976 405.796 157.504 405.488C158.047 405.18 158.435 404.725 158.67 404.124L159.132 405.774C158.868 406.463 158.391 406.999 157.702 407.38C157.027 407.761 156.169 407.952 155.128 407.952ZM164.949 407.798V391.474H167.699V407.798H164.949ZM192.217 395.918C193.155 395.918 193.984 396.101 194.703 396.468C195.436 396.835 196.008 397.399 196.419 398.162C196.829 398.91 197.035 399.878 197.035 401.066V407.798H194.285V401.418C194.285 400.377 194.057 399.599 193.603 399.086C193.148 398.573 192.495 398.316 191.645 398.316C191.043 398.316 190.508 398.448 190.039 398.712C189.584 398.976 189.225 399.365 188.961 399.878C188.711 400.391 188.587 401.044 188.587 401.836V407.798H185.837V401.418C185.837 400.377 185.609 399.599 185.155 399.086C184.7 398.573 184.047 398.316 183.197 398.316C182.595 398.316 182.06 398.448 181.591 398.712C181.136 398.976 180.777 399.365 180.513 399.878C180.263 400.391 180.139 401.044 180.139 401.836V407.798H177.389V396.05H180.007V399.174L179.545 398.25C179.941 397.487 180.513 396.908 181.261 396.512C182.023 396.116 182.889 395.918 183.857 395.918C184.957 395.918 185.91 396.189 186.717 396.732C187.538 397.275 188.081 398.096 188.345 399.196L187.267 398.822C187.648 397.942 188.279 397.238 189.159 396.71C190.039 396.182 191.058 395.918 192.217 395.918ZM207.787 407.798V405.422L207.633 404.916V400.758C207.633 399.951 207.391 399.328 206.907 398.888C206.423 398.433 205.69 398.206 204.707 398.206C204.047 398.206 203.394 398.309 202.749 398.514C202.118 398.719 201.583 399.005 201.143 399.372L200.065 397.37C200.696 396.886 201.444 396.527 202.309 396.292C203.189 396.043 204.098 395.918 205.037 395.918C206.738 395.918 208.051 396.329 208.975 397.15C209.914 397.957 210.383 399.211 210.383 400.912V407.798H207.787ZM204.091 407.952C203.211 407.952 202.441 407.805 201.781 407.512C201.121 407.204 200.608 406.786 200.241 406.258C199.889 405.715 199.713 405.107 199.713 404.432C199.713 403.772 199.867 403.178 200.175 402.65C200.498 402.122 201.018 401.704 201.737 401.396C202.456 401.088 203.409 400.934 204.597 400.934H208.007V402.76H204.795C203.856 402.76 203.226 402.914 202.903 403.222C202.58 403.515 202.419 403.882 202.419 404.322C202.419 404.821 202.617 405.217 203.013 405.51C203.409 405.803 203.959 405.95 204.663 405.95C205.338 405.95 205.939 405.796 206.467 405.488C207.01 405.18 207.398 404.725 207.633 404.124L208.095 405.774C207.831 406.463 207.354 406.999 206.665 407.38C205.99 407.761 205.132 407.952 204.091 407.952ZM213.912 407.798V396.05H216.53V399.284L216.222 398.338C216.574 397.546 217.124 396.945 217.872 396.534C218.635 396.123 219.581 395.918 220.71 395.918V398.536C220.593 398.507 220.483 398.492 220.38 398.492C220.278 398.477 220.175 398.47 220.072 398.47C219.031 398.47 218.202 398.778 217.586 399.394C216.97 399.995 216.662 400.897 216.662 402.1V407.798H213.912ZM225.287 405.18L225.353 401.726L231.491 396.05H234.791L229.577 401.286L228.125 402.496L225.287 405.18ZM223.043 407.798V391.474H225.793V407.798H223.043ZM231.909 407.798L227.619 402.496L229.357 400.296L235.253 407.798H231.909ZM242.079 407.952C240.773 407.952 239.629 407.695 238.647 407.182C237.679 406.654 236.923 405.935 236.381 405.026C235.853 404.117 235.589 403.083 235.589 401.924C235.589 400.751 235.845 399.717 236.359 398.822C236.887 397.913 237.605 397.201 238.515 396.688C239.439 396.175 240.487 395.918 241.661 395.918C242.805 395.918 243.824 396.167 244.719 396.666C245.613 397.165 246.317 397.869 246.831 398.778C247.344 399.687 247.601 400.758 247.601 401.99C247.601 402.107 247.593 402.239 247.579 402.386C247.579 402.533 247.571 402.672 247.557 402.804H237.767V400.978H246.105L245.027 401.55C245.041 400.875 244.902 400.281 244.609 399.768C244.315 399.255 243.912 398.851 243.399 398.558C242.9 398.265 242.321 398.118 241.661 398.118C240.986 398.118 240.392 398.265 239.879 398.558C239.38 398.851 238.984 399.262 238.691 399.79C238.412 400.303 238.273 400.912 238.273 401.616V402.056C238.273 402.76 238.434 403.383 238.757 403.926C239.079 404.469 239.534 404.887 240.121 405.18C240.707 405.473 241.382 405.62 242.145 405.62C242.805 405.62 243.399 405.517 243.927 405.312C244.455 405.107 244.924 404.784 245.335 404.344L246.809 406.038C246.281 406.654 245.613 407.131 244.807 407.468C244.015 407.791 243.105 407.952 242.079 407.952ZM254.664 407.952C253.374 407.952 252.376 407.622 251.672 406.962C250.968 406.287 250.616 405.297 250.616 403.992V393.454H253.366V403.926C253.366 404.483 253.506 404.916 253.784 405.224C254.078 405.532 254.481 405.686 254.994 405.686C255.61 405.686 256.124 405.525 256.534 405.202L257.304 407.16C256.982 407.424 256.586 407.622 256.116 407.754C255.647 407.886 255.163 407.952 254.664 407.952ZM248.68 398.338V396.138H256.512V398.338H248.68ZM263.197 407.952C262.214 407.952 261.268 407.827 260.359 407.578C259.464 407.314 258.753 406.999 258.225 406.632L259.281 404.542C259.809 404.879 260.439 405.158 261.173 405.378C261.906 405.598 262.639 405.708 263.373 405.708C264.238 405.708 264.861 405.591 265.243 405.356C265.639 405.121 265.837 404.806 265.837 404.41C265.837 404.087 265.705 403.845 265.441 403.684C265.177 403.508 264.832 403.376 264.407 403.288C263.981 403.2 263.505 403.119 262.977 403.046C262.463 402.973 261.943 402.877 261.415 402.76C260.901 402.628 260.432 402.445 260.007 402.21C259.581 401.961 259.237 401.631 258.973 401.22C258.709 400.809 258.577 400.267 258.577 399.592C258.577 398.844 258.789 398.199 259.215 397.656C259.64 397.099 260.234 396.673 260.997 396.38C261.774 396.072 262.691 395.918 263.747 395.918C264.539 395.918 265.338 396.006 266.145 396.182C266.951 396.358 267.619 396.607 268.147 396.93L267.091 399.02C266.533 398.683 265.969 398.455 265.397 398.338C264.839 398.206 264.282 398.14 263.725 398.14C262.889 398.14 262.265 398.265 261.855 398.514C261.459 398.763 261.261 399.079 261.261 399.46C261.261 399.812 261.393 400.076 261.657 400.252C261.921 400.428 262.265 400.567 262.691 400.67C263.116 400.773 263.585 400.861 264.099 400.934C264.627 400.993 265.147 401.088 265.661 401.22C266.174 401.352 266.643 401.535 267.069 401.77C267.509 401.99 267.861 402.305 268.125 402.716C268.389 403.127 268.521 403.662 268.521 404.322C268.521 405.055 268.301 405.693 267.861 406.236C267.435 406.779 266.827 407.204 266.035 407.512C265.243 407.805 264.297 407.952 263.197 407.952ZM59.7367 435.798L55.4247 424.05H58.0207L61.7167 434.412H60.4847L64.3567 424.05H66.6667L70.4287 434.412H69.2187L73.0247 424.05H75.4667L71.1327 435.798H68.4927L65.0607 426.624H65.8747L62.3767 435.798H59.7367ZM77.3575 435.798V424.05H80.1075V435.798H77.3575ZM78.7435 422.114C78.2302 422.114 77.8049 421.953 77.4675 421.63C77.1449 421.307 76.9835 420.919 76.9835 420.464C76.9835 419.995 77.1449 419.606 77.4675 419.298C77.8049 418.975 78.2302 418.814 78.7435 418.814C79.2569 418.814 79.6749 418.968 79.9975 419.276C80.3349 419.569 80.5035 419.943 80.5035 420.398C80.5035 420.882 80.3422 421.293 80.0195 421.63C79.6969 421.953 79.2715 422.114 78.7435 422.114ZM88.1389 435.952C86.8483 435.952 85.8509 435.622 85.1469 434.962C84.4429 434.287 84.0909 433.297 84.0909 431.992V421.454H86.8409V431.926C86.8409 432.483 86.9803 432.916 87.2589 433.224C87.5523 433.532 87.9556 433.686 88.4689 433.686C89.0849 433.686 89.5983 433.525 90.0089 433.202L90.7789 435.16C90.4563 435.424 90.0603 435.622 89.5909 435.754C89.1216 435.886 88.6376 435.952 88.1389 435.952ZM82.1549 426.338V424.138H89.9869V426.338H82.1549ZM99.7071 423.918C100.646 423.918 101.482 424.101 102.215 424.468C102.963 424.835 103.55 425.399 103.975 426.162C104.4 426.91 104.613 427.878 104.613 429.066V435.798H101.863V429.418C101.863 428.377 101.614 427.599 101.115 427.086C100.631 426.573 99.9491 426.316 99.0691 426.316C98.4238 426.316 97.8518 426.448 97.3531 426.712C96.8545 426.976 96.4658 427.372 96.1871 427.9C95.9231 428.413 95.7911 429.066 95.7911 429.858V435.798H93.0411V419.474H95.7911V427.218L95.1971 426.25C95.6078 425.502 96.2018 424.93 96.9791 424.534C97.7711 424.123 98.6805 423.918 99.7071 423.918ZM119.572 435.952C118.34 435.952 117.24 435.695 116.272 435.182C115.318 434.654 114.57 433.935 114.028 433.026C113.485 432.117 113.214 431.083 113.214 429.924C113.214 428.751 113.485 427.717 114.028 426.822C114.57 425.913 115.318 425.201 116.272 424.688C117.24 424.175 118.34 423.918 119.572 423.918C120.716 423.918 121.72 424.153 122.586 424.622C123.466 425.077 124.133 425.751 124.588 426.646L122.476 427.878C122.124 427.321 121.691 426.91 121.178 426.646C120.679 426.382 120.136 426.25 119.55 426.25C118.875 426.25 118.266 426.397 117.724 426.69C117.181 426.983 116.756 427.409 116.448 427.966C116.14 428.509 115.986 429.161 115.986 429.924C115.986 430.687 116.14 431.347 116.448 431.904C116.756 432.447 117.181 432.865 117.724 433.158C118.266 433.451 118.875 433.598 119.55 433.598C120.136 433.598 120.679 433.466 121.178 433.202C121.691 432.938 122.124 432.527 122.476 431.97L124.588 433.202C124.133 434.082 123.466 434.764 122.586 435.248C121.72 435.717 120.716 435.952 119.572 435.952ZM132.073 435.952C130.87 435.952 129.8 435.695 128.861 435.182C127.922 434.654 127.182 433.935 126.639 433.026C126.096 432.117 125.825 431.083 125.825 429.924C125.825 428.751 126.096 427.717 126.639 426.822C127.182 425.913 127.922 425.201 128.861 424.688C129.8 424.175 130.87 423.918 132.073 423.918C133.29 423.918 134.368 424.175 135.307 424.688C136.26 425.201 137.001 425.905 137.529 426.8C138.072 427.695 138.343 428.736 138.343 429.924C138.343 431.083 138.072 432.117 137.529 433.026C137.001 433.935 136.26 434.654 135.307 435.182C134.368 435.695 133.29 435.952 132.073 435.952ZM132.073 433.598C132.748 433.598 133.349 433.451 133.877 433.158C134.405 432.865 134.816 432.439 135.109 431.882C135.417 431.325 135.571 430.672 135.571 429.924C135.571 429.161 135.417 428.509 135.109 427.966C134.816 427.409 134.405 426.983 133.877 426.69C133.349 426.397 132.755 426.25 132.095 426.25C131.42 426.25 130.819 426.397 130.291 426.69C129.778 426.983 129.367 427.409 129.059 427.966C128.751 428.509 128.597 429.161 128.597 429.924C128.597 430.672 128.751 431.325 129.059 431.882C129.367 432.439 129.778 432.865 130.291 433.158C130.819 433.451 131.413 433.598 132.073 433.598ZM147.639 423.918C148.577 423.918 149.413 424.101 150.147 424.468C150.895 424.835 151.481 425.399 151.907 426.162C152.332 426.91 152.545 427.878 152.545 429.066V435.798H149.795V429.418C149.795 428.377 149.545 427.599 149.047 427.086C148.563 426.573 147.881 426.316 147.001 426.316C146.355 426.316 145.783 426.448 145.285 426.712C144.786 426.976 144.397 427.372 144.119 427.9C143.855 428.413 143.723 429.066 143.723 429.858V435.798H140.973V424.05H143.591V427.218L143.129 426.25C143.539 425.502 144.133 424.93 144.911 424.534C145.703 424.123 146.612 423.918 147.639 423.918ZM156.407 435.798V423.39C156.407 422.158 156.767 421.175 157.485 420.442C158.219 419.694 159.26 419.32 160.609 419.32C161.093 419.32 161.548 419.371 161.973 419.474C162.413 419.577 162.78 419.738 163.073 419.958L162.325 422.026C162.12 421.865 161.885 421.747 161.621 421.674C161.357 421.586 161.086 421.542 160.807 421.542C160.235 421.542 159.803 421.703 159.509 422.026C159.216 422.334 159.069 422.803 159.069 423.434V424.754L159.157 425.986V435.798H156.407ZM154.471 426.338V424.138H162.303V426.338H154.471ZM164.239 435.798V424.05H166.989V435.798H164.239ZM165.625 422.114C165.112 422.114 164.687 421.953 164.349 421.63C164.027 421.307 163.865 420.919 163.865 420.464C163.865 419.995 164.027 419.606 164.349 419.298C164.687 418.975 165.112 418.814 165.625 418.814C166.139 418.814 166.557 418.968 166.879 419.276C167.217 419.569 167.385 419.943 167.385 420.398C167.385 420.882 167.224 421.293 166.901 421.63C166.579 421.953 166.153 422.114 165.625 422.114ZM175.572 435.952C174.442 435.952 173.423 435.703 172.514 435.204C171.619 434.691 170.915 433.987 170.402 433.092C169.888 432.197 169.632 431.141 169.632 429.924C169.632 428.707 169.888 427.651 170.402 426.756C170.915 425.861 171.619 425.165 172.514 424.666C173.423 424.167 174.442 423.918 175.572 423.918C176.554 423.918 177.434 424.138 178.212 424.578C178.989 425.003 179.605 425.656 180.06 426.536C180.514 427.416 180.742 428.545 180.742 429.924C180.742 431.288 180.522 432.417 180.082 433.312C179.642 434.192 179.033 434.852 178.256 435.292C177.478 435.732 176.584 435.952 175.572 435.952ZM175.902 433.598C176.562 433.598 177.148 433.451 177.662 433.158C178.19 432.865 178.608 432.439 178.916 431.882C179.238 431.325 179.4 430.672 179.4 429.924C179.4 429.161 179.238 428.509 178.916 427.966C178.608 427.409 178.19 426.983 177.662 426.69C177.148 426.397 176.562 426.25 175.902 426.25C175.242 426.25 174.648 426.397 174.12 426.69C173.606 426.983 173.188 427.409 172.866 427.966C172.558 428.509 172.404 429.161 172.404 429.924C172.404 430.672 172.558 431.325 172.866 431.882C173.188 432.439 173.606 432.865 174.12 433.158C174.648 433.451 175.242 433.598 175.902 433.598ZM179.466 435.798V433.026L179.576 429.902L179.356 426.778V419.474H182.084V435.798H179.466ZM191.225 435.952C189.92 435.952 188.776 435.695 187.793 435.182C186.825 434.654 186.07 433.935 185.527 433.026C184.999 432.117 184.735 431.083 184.735 429.924C184.735 428.751 184.992 427.717 185.505 426.822C186.033 425.913 186.752 425.201 187.661 424.688C188.585 424.175 189.634 423.918 190.807 423.918C191.951 423.918 192.971 424.167 193.865 424.666C194.76 425.165 195.464 425.869 195.977 426.778C196.491 427.687 196.747 428.758 196.747 429.99C196.747 430.107 196.74 430.239 196.725 430.386C196.725 430.533 196.718 430.672 196.703 430.804H186.913V428.978H195.251L194.173 429.55C194.188 428.875 194.049 428.281 193.755 427.768C193.462 427.255 193.059 426.851 192.545 426.558C192.047 426.265 191.467 426.118 190.807 426.118C190.133 426.118 189.539 426.265 189.025 426.558C188.527 426.851 188.131 427.262 187.837 427.79C187.559 428.303 187.419 428.912 187.419 429.616V430.056C187.419 430.76 187.581 431.383 187.903 431.926C188.226 432.469 188.681 432.887 189.267 433.18C189.854 433.473 190.529 433.62 191.291 433.62C191.951 433.62 192.545 433.517 193.073 433.312C193.601 433.107 194.071 432.784 194.481 432.344L195.955 434.038C195.427 434.654 194.76 435.131 193.953 435.468C193.161 435.791 192.252 435.952 191.225 435.952ZM206.055 423.918C206.993 423.918 207.829 424.101 208.563 424.468C209.311 424.835 209.897 425.399 210.323 426.162C210.748 426.91 210.961 427.878 210.961 429.066V435.798H208.211V429.418C208.211 428.377 207.961 427.599 207.463 427.086C206.979 426.573 206.297 426.316 205.417 426.316C204.771 426.316 204.199 426.448 203.701 426.712C203.202 426.976 202.813 427.372 202.535 427.9C202.271 428.413 202.139 429.066 202.139 429.858V435.798H199.389V424.05H202.007V427.218L201.545 426.25C201.955 425.502 202.549 424.93 203.327 424.534C204.119 424.123 205.028 423.918 206.055 423.918ZM219.861 435.952C218.629 435.952 217.529 435.695 216.561 435.182C215.607 434.654 214.859 433.935 214.317 433.026C213.774 432.117 213.503 431.083 213.503 429.924C213.503 428.751 213.774 427.717 214.317 426.822C214.859 425.913 215.607 425.201 216.561 424.688C217.529 424.175 218.629 423.918 219.861 423.918C221.005 423.918 222.009 424.153 222.875 424.622C223.755 425.077 224.422 425.751 224.877 426.646L222.765 427.878C222.413 427.321 221.98 426.91 221.467 426.646C220.968 426.382 220.425 426.25 219.839 426.25C219.164 426.25 218.555 426.397 218.013 426.69C217.47 426.983 217.045 427.409 216.737 427.966C216.429 428.509 216.275 429.161 216.275 429.924C216.275 430.687 216.429 431.347 216.737 431.904C217.045 432.447 217.47 432.865 218.013 433.158C218.555 433.451 219.164 433.598 219.839 433.598C220.425 433.598 220.968 433.466 221.467 433.202C221.98 432.938 222.413 432.527 222.765 431.97L224.877 433.202C224.422 434.082 223.755 434.764 222.875 435.248C222.009 435.717 221.005 435.952 219.861 435.952ZM232.604 435.952C231.299 435.952 230.155 435.695 229.172 435.182C228.204 434.654 227.449 433.935 226.906 433.026C226.378 432.117 226.114 431.083 226.114 429.924C226.114 428.751 226.371 427.717 226.884 426.822C227.412 425.913 228.131 425.201 229.04 424.688C229.964 424.175 231.013 423.918 232.186 423.918C233.33 423.918 234.349 424.167 235.244 424.666C236.139 425.165 236.843 425.869 237.356 426.778C237.869 427.687 238.126 428.758 238.126 429.99C238.126 430.107 238.119 430.239 238.104 430.386C238.104 430.533 238.097 430.672 238.082 430.804H228.292V428.978H236.63L235.552 429.55C235.567 428.875 235.427 428.281 235.134 427.768C234.841 427.255 234.437 426.851 233.924 426.558C233.425 426.265 232.846 426.118 232.186 426.118C231.511 426.118 230.917 426.265 230.404 426.558C229.905 426.851 229.509 427.262 229.216 427.79C228.937 428.303 228.798 428.912 228.798 429.616V430.056C228.798 430.76 228.959 431.383 229.282 431.926C229.605 432.469 230.059 432.887 230.646 433.18C231.233 433.473 231.907 433.62 232.67 433.62C233.33 433.62 233.924 433.517 234.452 433.312C234.98 433.107 235.449 432.784 235.86 432.344L237.334 434.038C236.806 434.654 236.139 435.131 235.332 435.468C234.54 435.791 233.631 435.952 232.604 435.952Z" fill="#FBFFFF"/>
</g>
<path d="M297.962 28.334H54.8395C53.3252 28.334 52.0975 29.5617 52.0975 31.076V77.9586C52.0975 79.4729 53.3252 80.7006 54.8395 80.7006H141.212C142.815 80.7006 144.301 81.5408 145.128 82.9147L154.454 98.4169C155.53 100.206 158.13 100.184 159.176 98.3773L168.091 82.9806C168.908 81.5695 170.415 80.7006 172.046 80.7006H297.962C299.477 80.7006 300.704 79.4729 300.704 77.9586V31.076C300.704 29.5617 299.477 28.334 297.962 28.334Z" stroke="#FFF616" stroke-width="1.82799"/>
<path d="M120.77 63.4408C119.567 63.4408 118.46 63.2502 117.448 62.8688C116.45 62.4728 115.578 61.9228 114.83 61.2188C114.082 60.5002 113.502 59.6568 113.092 58.6888C112.681 57.7208 112.476 56.6648 112.476 55.5208C112.476 54.3768 112.681 53.3208 113.092 52.3528C113.502 51.3848 114.082 50.5488 114.83 49.8448C115.592 49.1262 116.48 48.5762 117.492 48.1948C118.504 47.7988 119.611 47.6008 120.814 47.6008C122.119 47.6008 123.292 47.8135 124.334 48.2388C125.39 48.6642 126.277 49.2875 126.996 50.1088L125.192 51.8688C124.59 51.2675 123.938 50.8275 123.234 50.5488C122.544 50.2555 121.782 50.1088 120.946 50.1088C120.139 50.1088 119.391 50.2408 118.702 50.5048C118.012 50.7688 117.418 51.1428 116.92 51.6268C116.421 52.1108 116.032 52.6828 115.754 53.3428C115.49 54.0028 115.358 54.7288 115.358 55.5208C115.358 56.2982 115.49 57.0168 115.754 57.6768C116.032 58.3368 116.421 58.9162 116.92 59.4148C117.418 59.8988 118.005 60.2728 118.68 60.5368C119.354 60.8008 120.102 60.9328 120.924 60.9328C121.686 60.9328 122.42 60.8155 123.124 60.5808C123.842 60.3315 124.524 59.9208 125.17 59.3488L126.798 61.4828C125.991 62.1282 125.052 62.6195 123.982 62.9568C122.926 63.2795 121.855 63.4408 120.77 63.4408ZM124.092 61.1088V55.3448H126.798V61.4828L124.092 61.1088ZM135.828 63.3748C134.523 63.3748 133.379 63.1182 132.396 62.6048C131.428 62.0768 130.673 61.3582 130.13 60.4488C129.602 59.5395 129.338 58.5055 129.338 57.3468C129.338 56.1735 129.595 55.1395 130.108 54.2448C130.636 53.3355 131.355 52.6242 132.264 52.1108C133.188 51.5975 134.237 51.3408 135.41 51.3408C136.554 51.3408 137.573 51.5902 138.468 52.0888C139.363 52.5875 140.067 53.2915 140.58 54.2008C141.093 55.1102 141.35 56.1808 141.35 57.4128C141.35 57.5302 141.343 57.6622 141.328 57.8088C141.328 57.9555 141.321 58.0948 141.306 58.2268H131.516V56.4008H139.854L138.776 56.9728C138.791 56.2982 138.651 55.7042 138.358 55.1908C138.065 54.6775 137.661 54.2742 137.148 53.9808C136.649 53.6875 136.07 53.5408 135.41 53.5408C134.735 53.5408 134.141 53.6875 133.628 53.9808C133.129 54.2742 132.733 54.6848 132.44 55.2128C132.161 55.7262 132.022 56.3348 132.022 57.0388V57.4788C132.022 58.1828 132.183 58.8062 132.506 59.3488C132.829 59.8915 133.283 60.3095 133.87 60.6028C134.457 60.8962 135.131 61.0428 135.894 61.0428C136.554 61.0428 137.148 60.9402 137.676 60.7348C138.204 60.5295 138.673 60.2068 139.084 59.7668L140.558 61.4608C140.03 62.0768 139.363 62.5535 138.556 62.8908C137.764 63.2135 136.855 63.3748 135.828 63.3748ZM148.414 63.3748C147.123 63.3748 146.126 63.0448 145.421 62.3848C144.718 61.7102 144.366 60.7202 144.366 59.4148V48.8768H147.116V59.3488C147.116 59.9062 147.255 60.3388 147.534 60.6468C147.827 60.9548 148.23 61.1088 148.744 61.1088C149.36 61.1088 149.873 60.9475 150.284 60.6248L151.054 62.5828C150.731 62.8468 150.335 63.0448 149.866 63.1768C149.396 63.3088 148.912 63.3748 148.414 63.3748ZM142.43 53.7608V51.5608H150.262V53.7608H142.43ZM164.434 63.4408C163.231 63.4408 162.08 63.2722 160.98 62.9348C159.88 62.5828 159.007 62.1355 158.362 61.5928L159.352 59.3708C159.968 59.8548 160.73 60.2582 161.64 60.5808C162.549 60.9035 163.48 61.0648 164.434 61.0648C165.24 61.0648 165.893 60.9768 166.392 60.8008C166.89 60.6248 167.257 60.3902 167.492 60.0968C167.726 59.7888 167.844 59.4442 167.844 59.0628C167.844 58.5935 167.675 58.2195 167.338 57.9408C167 57.6475 166.56 57.4202 166.018 57.2588C165.49 57.0828 164.896 56.9215 164.236 56.7748C163.59 56.6282 162.938 56.4595 162.278 56.2688C161.632 56.0635 161.038 55.8068 160.496 55.4988C159.968 55.1762 159.535 54.7508 159.198 54.2228C158.86 53.6948 158.692 53.0202 158.692 52.1988C158.692 51.3628 158.912 50.6002 159.352 49.9108C159.806 49.2068 160.488 48.6495 161.398 48.2388C162.322 47.8135 163.488 47.6008 164.896 47.6008C165.82 47.6008 166.736 47.7182 167.646 47.9528C168.555 48.1875 169.347 48.5248 170.022 48.9648L169.12 51.1868C168.43 50.7762 167.719 50.4755 166.986 50.2848C166.252 50.0795 165.548 49.9768 164.874 49.9768C164.082 49.9768 163.436 50.0722 162.938 50.2628C162.454 50.4535 162.094 50.7028 161.86 51.0108C161.64 51.3188 161.53 51.6708 161.53 52.0668C161.53 52.5362 161.691 52.9175 162.014 53.2108C162.351 53.4895 162.784 53.7095 163.312 53.8708C163.854 54.0322 164.456 54.1935 165.116 54.3548C165.776 54.5015 166.428 54.6702 167.074 54.8608C167.734 55.0515 168.328 55.3008 168.856 55.6088C169.398 55.9168 169.831 56.3348 170.154 56.8628C170.491 57.3908 170.66 58.0582 170.66 58.8648C170.66 59.6862 170.432 60.4488 169.978 61.1528C169.538 61.8422 168.856 62.3995 167.932 62.8248C167.008 63.2355 165.842 63.4408 164.434 63.4408ZM177.654 63.3748C176.363 63.3748 175.366 63.0448 174.662 62.3848C173.958 61.7102 173.606 60.7202 173.606 59.4148V48.8768H176.356V59.3488C176.356 59.9062 176.495 60.3388 176.774 60.6468C177.067 60.9548 177.47 61.1088 177.984 61.1088C178.6 61.1088 179.113 60.9475 179.524 60.6248L180.294 62.5828C179.971 62.8468 179.575 63.0448 179.106 63.1768C178.636 63.3088 178.152 63.3748 177.654 63.3748ZM171.67 53.7608V51.5608H179.502V53.7608H171.67ZM189.794 63.2208V60.8448L189.64 60.3388V56.1808C189.64 55.3742 189.398 54.7508 188.914 54.3108C188.43 53.8562 187.697 53.6288 186.714 53.6288C186.054 53.6288 185.401 53.7315 184.756 53.9368C184.125 54.1422 183.59 54.4282 183.15 54.7948L182.072 52.7928C182.703 52.3088 183.451 51.9495 184.316 51.7148C185.196 51.4655 186.105 51.3408 187.044 51.3408C188.745 51.3408 190.058 51.7515 190.982 52.5728C191.921 53.3795 192.39 54.6335 192.39 56.3348V63.2208H189.794ZM186.098 63.3748C185.218 63.3748 184.448 63.2282 183.788 62.9348C183.128 62.6268 182.615 62.2088 182.248 61.6808C181.896 61.1382 181.72 60.5295 181.72 59.8548C181.72 59.1948 181.874 58.6008 182.182 58.0728C182.505 57.5448 183.025 57.1268 183.744 56.8188C184.463 56.5108 185.416 56.3568 186.604 56.3568H190.014V58.1828H186.802C185.863 58.1828 185.233 58.3368 184.91 58.6448C184.587 58.9382 184.426 59.3048 184.426 59.7448C184.426 60.2435 184.624 60.6395 185.02 60.9328C185.416 61.2262 185.966 61.3728 186.67 61.3728C187.345 61.3728 187.946 61.2188 188.474 60.9108C189.017 60.6028 189.405 60.1482 189.64 59.5468L190.102 61.1968C189.838 61.8862 189.361 62.4215 188.672 62.8028C187.997 63.1842 187.139 63.3748 186.098 63.3748ZM195.919 63.2208V51.4728H198.537V54.7068L198.229 53.7608C198.581 52.9688 199.131 52.3675 199.879 51.9568C200.642 51.5462 201.588 51.3408 202.717 51.3408V53.9588C202.6 53.9295 202.49 53.9148 202.387 53.9148C202.285 53.9002 202.182 53.8928 202.079 53.8928C201.038 53.8928 200.209 54.2008 199.593 54.8168C198.977 55.4182 198.669 56.3202 198.669 57.5228V63.2208H195.919ZM209.902 63.3748C208.611 63.3748 207.614 63.0448 206.91 62.3848C206.206 61.7102 205.854 60.7202 205.854 59.4148V48.8768H208.604V59.3488C208.604 59.9062 208.743 60.3388 209.022 60.6468C209.315 60.9548 209.718 61.1088 210.232 61.1088C210.848 61.1088 211.361 60.9475 211.772 60.6248L212.542 62.5828C212.219 62.8468 211.823 63.0448 211.354 63.1768C210.884 63.3088 210.4 63.3748 209.902 63.3748ZM203.918 53.7608V51.5608H211.75V53.7608H203.918ZM219.939 63.3748C218.634 63.3748 217.49 63.1182 216.507 62.6048C215.539 62.0768 214.784 61.3582 214.241 60.4488C213.713 59.5395 213.449 58.5055 213.449 57.3468C213.449 56.1735 213.706 55.1395 214.219 54.2448C214.747 53.3355 215.466 52.6242 216.375 52.1108C217.299 51.5975 218.348 51.3408 219.521 51.3408C220.665 51.3408 221.685 51.5902 222.579 52.0888C223.474 52.5875 224.178 53.2915 224.691 54.2008C225.205 55.1102 225.461 56.1808 225.461 57.4128C225.461 57.5302 225.454 57.6622 225.439 57.8088C225.439 57.9555 225.432 58.0948 225.417 58.2268H215.627V56.4008H223.965L222.887 56.9728C222.902 56.2982 222.763 55.7042 222.469 55.1908C222.176 54.6775 221.773 54.2742 221.259 53.9808C220.761 53.6875 220.181 53.5408 219.521 53.5408C218.847 53.5408 218.253 53.6875 217.739 53.9808C217.241 54.2742 216.845 54.6848 216.551 55.2128C216.273 55.7262 216.133 56.3348 216.133 57.0388V57.4788C216.133 58.1828 216.295 58.8062 216.617 59.3488C216.94 59.8915 217.395 60.3095 217.981 60.6028C218.568 60.8962 219.243 61.0428 220.005 61.0428C220.665 61.0428 221.259 60.9402 221.787 60.7348C222.315 60.5295 222.785 60.2068 223.195 59.7668L224.669 61.4608C224.141 62.0768 223.474 62.5535 222.667 62.8908C221.875 63.2135 220.966 63.3748 219.939 63.3748ZM233.075 63.3748C231.945 63.3748 230.926 63.1255 230.017 62.6268C229.122 62.1135 228.418 61.4095 227.905 60.5148C227.391 59.6202 227.135 58.5642 227.135 57.3468C227.135 56.1295 227.391 55.0735 227.905 54.1788C228.418 53.2842 229.122 52.5875 230.017 52.0888C230.926 51.5902 231.945 51.3408 233.075 51.3408C234.057 51.3408 234.937 51.5608 235.715 52.0008C236.492 52.4262 237.108 53.0788 237.563 53.9588C238.017 54.8388 238.245 55.9682 238.245 57.3468C238.245 58.7108 238.025 59.8402 237.585 60.7348C237.145 61.6148 236.536 62.2748 235.759 62.7148C234.981 63.1548 234.087 63.3748 233.075 63.3748ZM233.405 61.0208C234.065 61.0208 234.651 60.8742 235.165 60.5808C235.693 60.2875 236.111 59.8622 236.419 59.3048C236.741 58.7475 236.903 58.0948 236.903 57.3468C236.903 56.5842 236.741 55.9315 236.419 55.3888C236.111 54.8315 235.693 54.4062 235.165 54.1128C234.651 53.8195 234.065 53.6728 233.405 53.6728C232.745 53.6728 232.151 53.8195 231.623 54.1128C231.109 54.4062 230.691 54.8315 230.369 55.3888C230.061 55.9315 229.907 56.5842 229.907 57.3468C229.907 58.0948 230.061 58.7475 230.369 59.3048C230.691 59.8622 231.109 60.2875 231.623 60.5808C232.151 60.8742 232.745 61.0208 233.405 61.0208ZM236.969 63.2208V60.4488L237.079 57.3248L236.859 54.2008V46.8968H239.587V63.2208H236.969Z" fill="#FFF616"/>
<circle cx="314.414" cy="151.723" r="12.7959" fill="#FFF616"/>
<circle cx="314.414" cy="352.802" r="12.7959" fill="#333202"/>
<circle cx="314.414" cy="539.257" r="12.7959" fill="#333202"/>
<circle cx="314.414" cy="705.604" r="12.7959" fill="#333202"/>
<path d="M314.413 151.723L314.413 210.219" stroke="#FFF616" stroke-width="1.82799"/>
</svg>
