<svg width="627" height="752" viewBox="0 0 627 752" fill="none" xmlns="http://www.w3.org/2000/svg">
<path d="M314.413 151.723L314.413 705.604" stroke="#545326" stroke-width="1.82799"/>
<ellipse cx="164.52" cy="164.519" rx="49.3557" ry="40.2158" fill="#E3A101"/>
<ellipse cx="164.52" cy="155.379" rx="49.3557" ry="38.3878" fill="#FFE600"/>
<path opacity="0.8" d="M131.355 176.703C122.773 161.854 116.209 130.486 158.604 123.803L131.355 176.703Z" fill="#F5EC9A"/>
<rect opacity="0.8" x="180.765" y="130.151" width="18.6536" height="59.0495" transform="rotate(27.8158 180.765 130.151)" fill="#F5EC9A"/>
<path d="M162.948 168.615V144.851L165.032 147.009H157.537V143.024H167.701V168.615H162.948Z" fill="#121212"/>
<circle opacity="0.8" cx="455.17" cy="352.802" r="68.5496" stroke="#2C2C2C" stroke-width="12.7959"/>
<ellipse cx="455.171" cy="356.458" rx="49.3557" ry="40.2158" fill="#2C2C2C"/>
<ellipse cx="455.171" cy="347.318" rx="49.3557" ry="38.3878" fill="#343434"/>
<path opacity="0.8" d="M422.006 368.642C413.425 353.793 406.86 322.425 449.256 315.742L422.006 368.642Z" fill="#2C2C2C"/>
<rect opacity="0.8" x="471.416" y="322.09" width="18.6536" height="59.0495" transform="rotate(27.8158 471.416 322.09)" fill="#2C2C2C"/>
<path opacity="0.4" d="M445.842 360.554V357.374L456.006 347.722C456.859 346.918 457.493 346.211 457.907 345.601C458.321 344.992 458.589 344.431 458.711 343.92C458.858 343.383 458.931 342.884 458.931 342.421C458.931 341.251 458.529 340.349 457.724 339.715C456.92 339.057 455.738 338.728 454.178 338.728C452.935 338.728 451.802 338.947 450.778 339.386C449.779 339.825 448.913 340.495 448.182 341.397L444.855 338.838C445.854 337.497 447.195 336.461 448.877 335.73C450.583 334.975 452.484 334.597 454.58 334.597C456.432 334.597 458.041 334.902 459.406 335.511C460.795 336.096 461.855 336.937 462.587 338.033C463.342 339.13 463.72 340.434 463.72 341.945C463.72 342.774 463.61 343.603 463.391 344.431C463.172 345.236 462.757 346.089 462.148 346.991C461.539 347.892 460.649 348.904 459.479 350.025L450.741 358.324L449.754 356.533H464.707V360.554H445.842Z" fill="#FFF616"/>
<ellipse cx="164.52" cy="548.397" rx="49.3557" ry="40.2158" fill="#2C2C2C"/>
<ellipse cx="164.52" cy="539.257" rx="49.3557" ry="38.3878" fill="#343434"/>
<path opacity="0.8" d="M131.355 560.581C122.773 545.732 116.209 514.363 158.604 507.681L131.355 560.581Z" fill="#2C2C2C"/>
<rect opacity="0.8" x="180.765" y="514.029" width="18.6536" height="59.0495" transform="rotate(27.8158 180.765 514.029)" fill="#2C2C2C"/>
<path opacity="0.3" d="M163.563 552.859C161.759 552.859 159.992 552.603 158.262 552.091C156.556 551.555 155.118 550.824 153.948 549.897L155.995 546.205C156.921 546.96 158.043 547.57 159.359 548.033C160.675 548.496 162.052 548.728 163.49 548.728C165.196 548.728 166.524 548.386 167.475 547.704C168.426 546.997 168.901 546.046 168.901 544.852C168.901 543.682 168.462 542.756 167.585 542.074C166.707 541.391 165.294 541.05 163.344 541.05H161.004V537.796L168.316 529.095L168.937 530.886H155.191V526.901H172.63V530.082L165.318 538.783L162.832 537.321H164.258C167.402 537.321 169.754 538.028 171.314 539.441C172.898 540.831 173.69 542.622 173.69 544.816C173.69 546.254 173.325 547.582 172.593 548.801C171.862 550.019 170.741 551.006 169.23 551.762C167.743 552.493 165.854 552.859 163.563 552.859Z" fill="#FFF616"/>
<ellipse cx="438.717" cy="709.26" rx="49.3557" ry="40.2158" fill="#2C2C2C"/>
<ellipse cx="438.717" cy="700.12" rx="49.3557" ry="38.3878" fill="#343434"/>
<path opacity="0.8" d="M405.552 721.444C396.97 706.595 390.406 675.227 432.801 668.544L405.552 721.444Z" fill="#2C2C2C"/>
<rect opacity="0.8" x="454.962" y="674.892" width="18.6536" height="59.0495" transform="rotate(27.8158 454.962 674.892)" fill="#2C2C2C"/>
<path opacity="0.4" d="M427.257 707.543V704.253L439.87 687.765H444.952L432.522 704.253L430.145 703.522H450.436V707.543H427.257ZM441.296 713.356V707.543L441.442 703.522V698.367H445.903V713.356H441.296Z" fill="#FFF616"/>
<g opacity="0.4">
<path d="M597.752 194.681H354.63C353.115 194.681 351.888 195.909 351.888 197.423V244.306C351.888 245.82 353.115 247.047 354.63 247.047H441.002C442.605 247.047 444.091 247.888 444.918 249.262L454.244 264.764C455.32 266.552 457.92 266.531 458.966 264.724L467.881 249.328C468.698 247.916 470.205 247.047 471.836 247.047H597.752C599.267 247.047 600.494 245.82 600.494 244.306V197.423C600.494 195.909 599.267 194.681 597.752 194.681Z" stroke="#FBFFFF" stroke-width="1.82799"/>
<path d="M403.515 229.788C402.312 229.788 401.161 229.62 400.061 229.282C398.961 228.93 398.088 228.483 397.443 227.94L398.433 225.718C399.049 226.202 399.812 226.606 400.721 226.928C401.63 227.251 402.562 227.412 403.515 227.412C404.322 227.412 404.974 227.324 405.473 227.148C405.972 226.972 406.338 226.738 406.573 226.444C406.808 226.136 406.925 225.792 406.925 225.41C406.925 224.941 406.756 224.567 406.419 224.288C406.082 223.995 405.642 223.768 405.099 223.606C404.571 223.43 403.977 223.269 403.317 223.122C402.672 222.976 402.019 222.807 401.359 222.616C400.714 222.411 400.12 222.154 399.577 221.846C399.049 221.524 398.616 221.098 398.279 220.57C397.942 220.042 397.773 219.368 397.773 218.546C397.773 217.71 397.993 216.948 398.433 216.258C398.888 215.554 399.57 214.997 400.479 214.586C401.403 214.161 402.569 213.948 403.977 213.948C404.901 213.948 405.818 214.066 406.727 214.3C407.636 214.535 408.428 214.872 409.103 215.312L408.201 217.534C407.512 217.124 406.8 216.823 406.067 216.632C405.334 216.427 404.63 216.324 403.955 216.324C403.163 216.324 402.518 216.42 402.019 216.61C401.535 216.801 401.176 217.05 400.941 217.358C400.721 217.666 400.611 218.018 400.611 218.414C400.611 218.884 400.772 219.265 401.095 219.558C401.432 219.837 401.865 220.057 402.393 220.218C402.936 220.38 403.537 220.541 404.197 220.702C404.857 220.849 405.51 221.018 406.155 221.208C406.815 221.399 407.409 221.648 407.937 221.956C408.48 222.264 408.912 222.682 409.235 223.21C409.572 223.738 409.741 224.406 409.741 225.212C409.741 226.034 409.514 226.796 409.059 227.5C408.619 228.19 407.937 228.747 407.013 229.172C406.089 229.583 404.923 229.788 403.515 229.788ZM416.735 229.722C415.444 229.722 414.447 229.392 413.743 228.732C413.039 228.058 412.687 227.068 412.687 225.762V215.224H415.437V225.696C415.437 226.254 415.576 226.686 415.855 226.994C416.148 227.302 416.551 227.456 417.065 227.456C417.681 227.456 418.194 227.295 418.605 226.972L419.375 228.93C419.052 229.194 418.656 229.392 418.187 229.524C417.717 229.656 417.233 229.722 416.735 229.722ZM410.751 220.108V217.908H418.583V220.108H410.751ZM428.875 229.568V227.192L428.721 226.686V222.528C428.721 221.722 428.479 221.098 427.995 220.658C427.511 220.204 426.778 219.976 425.795 219.976C425.135 219.976 424.482 220.079 423.837 220.284C423.206 220.49 422.671 220.776 422.231 221.142L421.153 219.14C421.784 218.656 422.532 218.297 423.397 218.062C424.277 217.813 425.186 217.688 426.125 217.688C427.826 217.688 429.139 218.099 430.063 218.92C431.002 219.727 431.471 220.981 431.471 222.682V229.568H428.875ZM425.179 229.722C424.299 229.722 423.529 229.576 422.869 229.282C422.209 228.974 421.696 228.556 421.329 228.028C420.977 227.486 420.801 226.877 420.801 226.202C420.801 225.542 420.955 224.948 421.263 224.42C421.586 223.892 422.106 223.474 422.825 223.166C423.544 222.858 424.497 222.704 425.685 222.704H429.095V224.53H425.883C424.944 224.53 424.314 224.684 423.991 224.992C423.668 225.286 423.507 225.652 423.507 226.092C423.507 226.591 423.705 226.987 424.101 227.28C424.497 227.574 425.047 227.72 425.751 227.72C426.426 227.72 427.027 227.566 427.555 227.258C428.098 226.95 428.486 226.496 428.721 225.894L429.183 227.544C428.919 228.234 428.442 228.769 427.753 229.15C427.078 229.532 426.22 229.722 425.179 229.722ZM435 229.568V217.82H437.618V221.054L437.31 220.108C437.662 219.316 438.212 218.715 438.96 218.304C439.723 217.894 440.669 217.688 441.798 217.688V220.306C441.681 220.277 441.571 220.262 441.468 220.262C441.366 220.248 441.263 220.24 441.16 220.24C440.119 220.24 439.29 220.548 438.674 221.164C438.058 221.766 437.75 222.668 437.75 223.87V229.568H435ZM448.983 229.722C447.692 229.722 446.695 229.392 445.991 228.732C445.287 228.058 444.935 227.068 444.935 225.762V215.224H447.685V225.696C447.685 226.254 447.824 226.686 448.103 226.994C448.396 227.302 448.8 227.456 449.313 227.456C449.929 227.456 450.442 227.295 450.853 226.972L451.623 228.93C451.3 229.194 450.904 229.392 450.435 229.524C449.966 229.656 449.482 229.722 448.983 229.722ZM442.999 220.108V217.908H450.831V220.108H442.999ZM460.229 229.568V214.168H463.089V227.148H471.141V229.568H460.229ZM478.55 229.722C477.244 229.722 476.1 229.466 475.118 228.952C474.15 228.424 473.394 227.706 472.852 226.796C472.324 225.887 472.06 224.853 472.06 223.694C472.06 222.521 472.316 221.487 472.83 220.592C473.358 219.683 474.076 218.972 474.986 218.458C475.91 217.945 476.958 217.688 478.132 217.688C479.276 217.688 480.295 217.938 481.19 218.436C482.084 218.935 482.788 219.639 483.302 220.548C483.815 221.458 484.072 222.528 484.072 223.76C484.072 223.878 484.064 224.01 484.05 224.156C484.05 224.303 484.042 224.442 484.028 224.574H474.238V222.748H482.576L481.498 223.32C481.512 222.646 481.373 222.052 481.08 221.538C480.786 221.025 480.383 220.622 479.87 220.328C479.371 220.035 478.792 219.888 478.132 219.888C477.457 219.888 476.863 220.035 476.35 220.328C475.851 220.622 475.455 221.032 475.162 221.56C474.883 222.074 474.744 222.682 474.744 223.386V223.826C474.744 224.53 474.905 225.154 475.228 225.696C475.55 226.239 476.005 226.657 476.592 226.95C477.178 227.244 477.853 227.39 478.616 227.39C479.276 227.39 479.87 227.288 480.398 227.082C480.926 226.877 481.395 226.554 481.806 226.114L483.28 227.808C482.752 228.424 482.084 228.901 481.278 229.238C480.486 229.561 479.576 229.722 478.55 229.722ZM493.629 229.568V227.192L493.475 226.686V222.528C493.475 221.722 493.233 221.098 492.749 220.658C492.265 220.204 491.532 219.976 490.549 219.976C489.889 219.976 489.236 220.079 488.591 220.284C487.96 220.49 487.425 220.776 486.985 221.142L485.907 219.14C486.538 218.656 487.286 218.297 488.151 218.062C489.031 217.813 489.94 217.688 490.879 217.688C492.58 217.688 493.893 218.099 494.817 218.92C495.756 219.727 496.225 220.981 496.225 222.682V229.568H493.629ZM489.933 229.722C489.053 229.722 488.283 229.576 487.623 229.282C486.963 228.974 486.45 228.556 486.083 228.028C485.731 227.486 485.555 226.877 485.555 226.202C485.555 225.542 485.709 224.948 486.017 224.42C486.34 223.892 486.86 223.474 487.579 223.166C488.298 222.858 489.251 222.704 490.439 222.704H493.849V224.53H490.637C489.698 224.53 489.068 224.684 488.745 224.992C488.422 225.286 488.261 225.652 488.261 226.092C488.261 226.591 488.459 226.987 488.855 227.28C489.251 227.574 489.801 227.72 490.505 227.72C491.18 227.72 491.781 227.566 492.309 227.258C492.852 226.95 493.24 226.496 493.475 225.894L493.937 227.544C493.673 228.234 493.196 228.769 492.507 229.15C491.832 229.532 490.974 229.722 489.933 229.722ZM499.754 229.568V217.82H502.372V221.054L502.064 220.108C502.416 219.316 502.966 218.715 503.714 218.304C504.477 217.894 505.423 217.688 506.552 217.688V220.306C506.435 220.277 506.325 220.262 506.222 220.262C506.12 220.248 506.017 220.24 505.914 220.24C504.873 220.24 504.044 220.548 503.428 221.164C502.812 221.766 502.504 222.668 502.504 223.87V229.568H499.754ZM515.551 217.688C516.49 217.688 517.326 217.872 518.059 218.238C518.807 218.605 519.394 219.17 519.819 219.932C520.244 220.68 520.457 221.648 520.457 222.836V229.568H517.707V223.188C517.707 222.147 517.458 221.37 516.959 220.856C516.475 220.343 515.793 220.086 514.913 220.086C514.268 220.086 513.696 220.218 513.197 220.482C512.698 220.746 512.31 221.142 512.031 221.67C511.767 222.184 511.635 222.836 511.635 223.628V229.568H508.885V217.82H511.503V220.988L511.041 220.02C511.452 219.272 512.046 218.7 512.823 218.304C513.615 217.894 514.524 217.688 515.551 217.688ZM523.946 229.568V217.82H526.696V229.568H523.946ZM525.332 215.884C524.818 215.884 524.393 215.723 524.056 215.4C523.733 215.078 523.572 214.689 523.572 214.234C523.572 213.765 523.733 213.376 524.056 213.068C524.393 212.746 524.818 212.584 525.332 212.584C525.845 212.584 526.263 212.738 526.586 213.046C526.923 213.34 527.092 213.714 527.092 214.168C527.092 214.652 526.93 215.063 526.608 215.4C526.285 215.723 525.86 215.884 525.332 215.884ZM536.971 217.688C537.91 217.688 538.746 217.872 539.479 218.238C540.227 218.605 540.814 219.17 541.239 219.932C541.664 220.68 541.877 221.648 541.877 222.836V229.568H539.127V223.188C539.127 222.147 538.878 221.37 538.379 220.856C537.895 220.343 537.213 220.086 536.333 220.086C535.688 220.086 535.116 220.218 534.617 220.482C534.118 220.746 533.73 221.142 533.451 221.67C533.187 222.184 533.055 222.836 533.055 223.628V229.568H530.305V217.82H532.923V220.988L532.461 220.02C532.872 219.272 533.466 218.7 534.243 218.304C535.035 217.894 535.944 217.688 536.971 217.688ZM550.711 233.99C549.626 233.99 548.562 233.844 547.521 233.55C546.494 233.272 545.651 232.861 544.991 232.318L546.223 230.25C546.736 230.676 547.382 231.013 548.159 231.262C548.951 231.526 549.75 231.658 550.557 231.658C551.848 231.658 552.794 231.358 553.395 230.756C553.996 230.17 554.297 229.282 554.297 228.094V226.004L554.517 223.342L554.429 220.68V217.82H557.047V227.786C557.047 229.913 556.504 231.475 555.419 232.472C554.334 233.484 552.764 233.99 550.711 233.99ZM550.359 229.04C549.244 229.04 548.232 228.806 547.323 228.336C546.428 227.852 545.717 227.185 545.189 226.334C544.676 225.484 544.419 224.486 544.419 223.342C544.419 222.213 544.676 221.223 545.189 220.372C545.717 219.522 546.428 218.862 547.323 218.392C548.232 217.923 549.244 217.688 550.359 217.688C551.356 217.688 552.251 217.886 553.043 218.282C553.835 218.678 554.466 219.294 554.935 220.13C555.419 220.966 555.661 222.037 555.661 223.342C555.661 224.648 555.419 225.726 554.935 226.576C554.466 227.412 553.835 228.036 553.043 228.446C552.251 228.842 551.356 229.04 550.359 229.04ZM550.777 226.708C551.466 226.708 552.082 226.569 552.625 226.29C553.168 225.997 553.586 225.601 553.879 225.102C554.187 224.589 554.341 224.002 554.341 223.342C554.341 222.682 554.187 222.103 553.879 221.604C553.586 221.091 553.168 220.702 552.625 220.438C552.082 220.16 551.466 220.02 550.777 220.02C550.088 220.02 549.464 220.16 548.907 220.438C548.364 220.702 547.939 221.091 547.631 221.604C547.338 222.103 547.191 222.682 547.191 223.342C547.191 224.002 547.338 224.589 547.631 225.102C547.939 225.601 548.364 225.997 548.907 226.29C549.464 226.569 550.088 226.708 550.777 226.708Z" fill="#FBFFFF"/>
</g>
<g opacity="0.4">
<path d="M623.345 523.674H345.491C343.976 523.674 342.749 524.902 342.749 526.416V612.009C342.749 613.523 343.976 614.751 345.491 614.751H444.226C446.095 614.751 447.776 615.889 448.47 617.625L459.559 645.377C460.485 647.693 463.77 647.671 464.665 645.344L475.304 617.68C475.983 615.916 477.679 614.751 479.57 614.751H623.345C624.859 614.751 626.087 613.523 626.087 612.009V526.416C626.087 524.902 624.859 523.674 623.345 523.674Z" stroke="#FAFAFA" stroke-width="1.82799"/>
<path d="M365.466 565.05V549.65H368.326V565.05H365.466ZM378.894 553.17C379.832 553.17 380.668 553.353 381.402 553.72C382.15 554.087 382.736 554.651 383.162 555.414C383.587 556.162 383.8 557.13 383.8 558.318V565.05H381.05V558.67C381.05 557.629 380.8 556.851 380.302 556.338C379.818 555.825 379.136 555.568 378.256 555.568C377.61 555.568 377.038 555.7 376.54 555.964C376.041 556.228 375.652 556.624 375.374 557.152C375.11 557.665 374.978 558.318 374.978 559.11V565.05H372.228V553.302H374.846V556.47L374.384 555.502C374.794 554.754 375.388 554.182 376.166 553.786C376.958 553.375 377.867 553.17 378.894 553.17ZM390.197 565.05L385.159 553.302H388.019L392.353 563.664H390.945L395.433 553.302H398.073L393.035 565.05H390.197ZM404.992 565.204C403.687 565.204 402.543 564.947 401.56 564.434C400.592 563.906 399.837 563.187 399.294 562.278C398.766 561.369 398.502 560.335 398.502 559.176C398.502 558.003 398.759 556.969 399.272 556.074C399.8 555.165 400.519 554.453 401.428 553.94C402.352 553.427 403.401 553.17 404.574 553.17C405.718 553.17 406.737 553.419 407.632 553.918C408.527 554.417 409.231 555.121 409.744 556.03C410.257 556.939 410.514 558.01 410.514 559.242C410.514 559.359 410.507 559.491 410.492 559.638C410.492 559.785 410.485 559.924 410.47 560.056H400.68V558.23H409.018L407.94 558.802C407.955 558.127 407.815 557.533 407.522 557.02C407.229 556.507 406.825 556.103 406.312 555.81C405.813 555.517 405.234 555.37 404.574 555.37C403.899 555.37 403.305 555.517 402.792 555.81C402.293 556.103 401.897 556.514 401.604 557.042C401.325 557.555 401.186 558.164 401.186 558.868V559.308C401.186 560.012 401.347 560.635 401.67 561.178C401.993 561.721 402.447 562.139 403.034 562.432C403.621 562.725 404.295 562.872 405.058 562.872C405.718 562.872 406.312 562.769 406.84 562.564C407.368 562.359 407.837 562.036 408.248 561.596L409.722 563.29C409.194 563.906 408.527 564.383 407.72 564.72C406.928 565.043 406.019 565.204 404.992 565.204ZM416.785 565.204C415.803 565.204 414.857 565.079 413.947 564.83C413.053 564.566 412.341 564.251 411.813 563.884L412.869 561.794C413.397 562.131 414.028 562.41 414.761 562.63C415.495 562.85 416.228 562.96 416.961 562.96C417.827 562.96 418.45 562.843 418.831 562.608C419.227 562.373 419.425 562.058 419.425 561.662C419.425 561.339 419.293 561.097 419.029 560.936C418.765 560.76 418.421 560.628 417.995 560.54C417.57 560.452 417.093 560.371 416.565 560.298C416.052 560.225 415.531 560.129 415.003 560.012C414.49 559.88 414.021 559.697 413.595 559.462C413.17 559.213 412.825 558.883 412.561 558.472C412.297 558.061 412.165 557.519 412.165 556.844C412.165 556.096 412.378 555.451 412.803 554.908C413.229 554.351 413.823 553.925 414.585 553.632C415.363 553.324 416.279 553.17 417.335 553.17C418.127 553.17 418.927 553.258 419.733 553.434C420.54 553.61 421.207 553.859 421.735 554.182L420.679 556.272C420.122 555.935 419.557 555.707 418.985 555.59C418.428 555.458 417.871 555.392 417.313 555.392C416.477 555.392 415.854 555.517 415.443 555.766C415.047 556.015 414.849 556.331 414.849 556.712C414.849 557.064 414.981 557.328 415.245 557.504C415.509 557.68 415.854 557.819 416.279 557.922C416.705 558.025 417.174 558.113 417.687 558.186C418.215 558.245 418.736 558.34 419.249 558.472C419.763 558.604 420.232 558.787 420.657 559.022C421.097 559.242 421.449 559.557 421.713 559.968C421.977 560.379 422.109 560.914 422.109 561.574C422.109 562.307 421.889 562.945 421.449 563.488C421.024 564.031 420.415 564.456 419.623 564.764C418.831 565.057 417.885 565.204 416.785 565.204ZM428.9 565.204C427.609 565.204 426.612 564.874 425.908 564.214C425.204 563.539 424.852 562.549 424.852 561.244V550.706H427.602V561.178C427.602 561.735 427.741 562.168 428.02 562.476C428.313 562.784 428.716 562.938 429.23 562.938C429.846 562.938 430.359 562.777 430.77 562.454L431.54 564.412C431.217 564.676 430.821 564.874 430.352 565.006C429.882 565.138 429.398 565.204 428.9 565.204ZM422.916 555.59V553.39H430.748V555.59H422.916ZM439.882 565.05V553.302H442.632V565.05H439.882ZM441.268 551.366C440.755 551.366 440.329 551.205 439.992 550.882C439.669 550.559 439.508 550.171 439.508 549.716C439.508 549.247 439.669 548.858 439.992 548.55C440.329 548.227 440.755 548.066 441.268 548.066C441.781 548.066 442.199 548.22 442.522 548.528C442.859 548.821 443.028 549.195 443.028 549.65C443.028 550.134 442.867 550.545 442.544 550.882C442.221 551.205 441.796 551.366 441.268 551.366ZM452.907 553.17C453.846 553.17 454.682 553.353 455.415 553.72C456.163 554.087 456.75 554.651 457.175 555.414C457.601 556.162 457.813 557.13 457.813 558.318V565.05H455.063V558.67C455.063 557.629 454.814 556.851 454.315 556.338C453.831 555.825 453.149 555.568 452.269 555.568C451.624 555.568 451.052 555.7 450.553 555.964C450.055 556.228 449.666 556.624 449.387 557.152C449.123 557.665 448.991 558.318 448.991 559.11V565.05H446.241V553.302H448.859V556.47L448.397 555.502C448.808 554.754 449.402 554.182 450.179 553.786C450.971 553.375 451.881 553.17 452.907 553.17ZM467.382 565.05V553.302H470V556.536L469.692 555.59C470.044 554.798 470.594 554.197 471.342 553.786C472.105 553.375 473.051 553.17 474.18 553.17V555.788C474.063 555.759 473.953 555.744 473.85 555.744C473.747 555.729 473.645 555.722 473.542 555.722C472.501 555.722 471.672 556.03 471.056 556.646C470.44 557.247 470.132 558.149 470.132 559.352V565.05H467.382ZM481.927 565.204C480.622 565.204 479.478 564.947 478.495 564.434C477.527 563.906 476.772 563.187 476.229 562.278C475.701 561.369 475.437 560.335 475.437 559.176C475.437 558.003 475.694 556.969 476.207 556.074C476.735 555.165 477.454 554.453 478.363 553.94C479.287 553.427 480.336 553.17 481.509 553.17C482.653 553.17 483.673 553.419 484.567 553.918C485.462 554.417 486.166 555.121 486.679 556.03C487.193 556.939 487.449 558.01 487.449 559.242C487.449 559.359 487.442 559.491 487.427 559.638C487.427 559.785 487.42 559.924 487.405 560.056H477.615V558.23H485.953L484.875 558.802C484.89 558.127 484.751 557.533 484.457 557.02C484.164 556.507 483.761 556.103 483.247 555.81C482.749 555.517 482.169 555.37 481.509 555.37C480.835 555.37 480.241 555.517 479.727 555.81C479.229 556.103 478.833 556.514 478.539 557.042C478.261 557.555 478.121 558.164 478.121 558.868V559.308C478.121 560.012 478.283 560.635 478.605 561.178C478.928 561.721 479.383 562.139 479.969 562.432C480.556 562.725 481.231 562.872 481.993 562.872C482.653 562.872 483.247 562.769 483.775 562.564C484.303 562.359 484.773 562.036 485.183 561.596L486.657 563.29C486.129 563.906 485.462 564.383 484.655 564.72C483.863 565.043 482.954 565.204 481.927 565.204ZM497.007 565.05V562.674L496.853 562.168V558.01C496.853 557.203 496.611 556.58 496.127 556.14C495.643 555.685 494.909 555.458 493.927 555.458C493.267 555.458 492.614 555.561 491.969 555.766C491.338 555.971 490.803 556.257 490.363 556.624L489.285 554.622C489.915 554.138 490.663 553.779 491.529 553.544C492.409 553.295 493.318 553.17 494.257 553.17C495.958 553.17 497.271 553.581 498.195 554.402C499.133 555.209 499.603 556.463 499.603 558.164V565.05H497.007ZM493.311 565.204C492.431 565.204 491.661 565.057 491.001 564.764C490.341 564.456 489.827 564.038 489.461 563.51C489.109 562.967 488.933 562.359 488.933 561.684C488.933 561.024 489.087 560.43 489.395 559.902C489.717 559.374 490.238 558.956 490.957 558.648C491.675 558.34 492.629 558.186 493.817 558.186H497.227V560.012H494.015C493.076 560.012 492.445 560.166 492.123 560.474C491.8 560.767 491.639 561.134 491.639 561.574C491.639 562.073 491.837 562.469 492.233 562.762C492.629 563.055 493.179 563.202 493.883 563.202C494.557 563.202 495.159 563.048 495.687 562.74C496.229 562.432 496.618 561.977 496.853 561.376L497.315 563.026C497.051 563.715 496.574 564.251 495.885 564.632C495.21 565.013 494.352 565.204 493.311 565.204ZM503.132 565.05V548.726H505.882V565.05H503.132ZM530.399 553.17C531.338 553.17 532.167 553.353 532.885 553.72C533.619 554.087 534.191 554.651 534.601 555.414C535.012 556.162 535.217 557.13 535.217 558.318V565.05H532.467V558.67C532.467 557.629 532.24 556.851 531.785 556.338C531.331 555.825 530.678 555.568 529.827 555.568C529.226 555.568 528.691 555.7 528.221 555.964C527.767 556.228 527.407 556.617 527.143 557.13C526.894 557.643 526.769 558.296 526.769 559.088V565.05H524.019V558.67C524.019 557.629 523.792 556.851 523.337 556.338C522.883 555.825 522.23 555.568 521.379 555.568C520.778 555.568 520.243 555.7 519.773 555.964C519.319 556.228 518.959 556.617 518.695 557.13C518.446 557.643 518.321 558.296 518.321 559.088V565.05H515.571V553.302H518.189V556.426L517.727 555.502C518.123 554.739 518.695 554.16 519.443 553.764C520.206 553.368 521.071 553.17 522.039 553.17C523.139 553.17 524.093 553.441 524.899 553.984C525.721 554.527 526.263 555.348 526.527 556.448L525.449 556.074C525.831 555.194 526.461 554.49 527.341 553.962C528.221 553.434 529.241 553.17 530.399 553.17ZM545.97 565.05V562.674L545.816 562.168V558.01C545.816 557.203 545.574 556.58 545.09 556.14C544.606 555.685 543.872 555.458 542.89 555.458C542.23 555.458 541.577 555.561 540.932 555.766C540.301 555.971 539.766 556.257 539.326 556.624L538.248 554.622C538.878 554.138 539.626 553.779 540.492 553.544C541.372 553.295 542.281 553.17 543.22 553.17C544.921 553.17 546.234 553.581 547.158 554.402C548.096 555.209 548.566 556.463 548.566 558.164V565.05H545.97ZM542.274 565.204C541.394 565.204 540.624 565.057 539.964 564.764C539.304 564.456 538.79 564.038 538.424 563.51C538.072 562.967 537.896 562.359 537.896 561.684C537.896 561.024 538.05 560.43 538.358 559.902C538.68 559.374 539.201 558.956 539.92 558.648C540.638 558.34 541.592 558.186 542.78 558.186H546.19V560.012H542.978C542.039 560.012 541.408 560.166 541.086 560.474C540.763 560.767 540.602 561.134 540.602 561.574C540.602 562.073 540.8 562.469 541.196 562.762C541.592 563.055 542.142 563.202 542.846 563.202C543.52 563.202 544.122 563.048 544.65 562.74C545.192 562.432 545.581 561.977 545.816 561.376L546.278 563.026C546.014 563.715 545.537 564.251 544.848 564.632C544.173 565.013 543.315 565.204 542.274 565.204ZM552.095 565.05V553.302H554.713V556.536L554.405 555.59C554.757 554.798 555.307 554.197 556.055 553.786C556.818 553.375 557.764 553.17 558.893 553.17V555.788C558.776 555.759 558.666 555.744 558.563 555.744C558.46 555.729 558.358 555.722 558.255 555.722C557.214 555.722 556.385 556.03 555.769 556.646C555.153 557.247 554.845 558.149 554.845 559.352V565.05H552.095ZM563.47 562.432L563.536 558.978L569.674 553.302H572.974L567.76 558.538L566.308 559.748L563.47 562.432ZM561.226 565.05V548.726H563.976V565.05H561.226ZM570.092 565.05L565.802 559.748L567.54 557.548L573.436 565.05H570.092ZM580.261 565.204C578.956 565.204 577.812 564.947 576.829 564.434C575.861 563.906 575.106 563.187 574.563 562.278C574.035 561.369 573.771 560.335 573.771 559.176C573.771 558.003 574.028 556.969 574.541 556.074C575.069 555.165 575.788 554.453 576.697 553.94C577.621 553.427 578.67 553.17 579.843 553.17C580.987 553.17 582.007 553.419 582.901 553.918C583.796 554.417 584.5 555.121 585.013 556.03C585.527 556.939 585.783 558.01 585.783 559.242C585.783 559.359 585.776 559.491 585.761 559.638C585.761 559.785 585.754 559.924 585.739 560.056H575.949V558.23H584.287L583.209 558.802C583.224 558.127 583.085 557.533 582.791 557.02C582.498 556.507 582.095 556.103 581.581 555.81C581.083 555.517 580.503 555.37 579.843 555.37C579.169 555.37 578.575 555.517 578.061 555.81C577.563 556.103 577.167 556.514 576.873 557.042C576.595 557.555 576.455 558.164 576.455 558.868V559.308C576.455 560.012 576.617 560.635 576.939 561.178C577.262 561.721 577.717 562.139 578.303 562.432C578.89 562.725 579.565 562.872 580.327 562.872C580.987 562.872 581.581 562.769 582.109 562.564C582.637 562.359 583.107 562.036 583.517 561.596L584.991 563.29C584.463 563.906 583.796 564.383 582.989 564.72C582.197 565.043 581.288 565.204 580.261 565.204ZM592.847 565.204C591.556 565.204 590.559 564.874 589.855 564.214C589.151 563.539 588.799 562.549 588.799 561.244V550.706H591.549V561.178C591.549 561.735 591.688 562.168 591.967 562.476C592.26 562.784 592.664 562.938 593.177 562.938C593.793 562.938 594.306 562.777 594.717 562.454L595.487 564.412C595.164 564.676 594.768 564.874 594.299 565.006C593.83 565.138 593.346 565.204 592.847 565.204ZM586.863 555.59V553.39H594.695V555.59H586.863ZM601.379 565.204C600.396 565.204 599.45 565.079 598.541 564.83C597.646 564.566 596.935 564.251 596.407 563.884L597.463 561.794C597.991 562.131 598.622 562.41 599.355 562.63C600.088 562.85 600.822 562.96 601.555 562.96C602.42 562.96 603.044 562.843 603.425 562.608C603.821 562.373 604.019 562.058 604.019 561.662C604.019 561.339 603.887 561.097 603.623 560.936C603.359 560.76 603.014 560.628 602.589 560.54C602.164 560.452 601.687 560.371 601.159 560.298C600.646 560.225 600.125 560.129 599.597 560.012C599.084 559.88 598.614 559.697 598.189 559.462C597.764 559.213 597.419 558.883 597.155 558.472C596.891 558.061 596.759 557.519 596.759 556.844C596.759 556.096 596.972 555.451 597.397 554.908C597.822 554.351 598.416 553.925 599.179 553.632C599.956 553.324 600.873 553.17 601.929 553.17C602.721 553.17 603.52 553.258 604.327 553.434C605.134 553.61 605.801 553.859 606.329 554.182L605.273 556.272C604.716 555.935 604.151 555.707 603.579 555.59C603.022 555.458 602.464 555.392 601.907 555.392C601.071 555.392 600.448 555.517 600.037 555.766C599.641 556.015 599.443 556.331 599.443 556.712C599.443 557.064 599.575 557.328 599.839 557.504C600.103 557.68 600.448 557.819 600.873 557.922C601.298 558.025 601.768 558.113 602.281 558.186C602.809 558.245 603.33 558.34 603.843 558.472C604.356 558.604 604.826 558.787 605.251 559.022C605.691 559.242 606.043 559.557 606.307 559.968C606.571 560.379 606.703 560.914 606.703 561.574C606.703 562.307 606.483 562.945 606.043 563.488C605.618 564.031 605.009 564.456 604.217 564.764C603.425 565.057 602.479 565.204 601.379 565.204ZM397.919 593.05L393.607 581.302H396.203L399.899 591.664H398.667L402.539 581.302H404.849L408.611 591.664H407.401L411.207 581.302H413.649L409.315 593.05H406.675L403.243 583.876H404.057L400.559 593.05H397.919ZM415.54 593.05V581.302H418.29V593.05H415.54ZM416.926 579.366C416.413 579.366 415.987 579.205 415.65 578.882C415.327 578.559 415.166 578.171 415.166 577.716C415.166 577.247 415.327 576.858 415.65 576.55C415.987 576.227 416.413 576.066 416.926 576.066C417.439 576.066 417.857 576.22 418.18 576.528C418.517 576.821 418.686 577.195 418.686 577.65C418.686 578.134 418.525 578.545 418.202 578.882C417.879 579.205 417.454 579.366 416.926 579.366ZM426.322 593.204C425.031 593.204 424.034 592.874 423.33 592.214C422.626 591.539 422.274 590.549 422.274 589.244V578.706H425.024V589.178C425.024 589.735 425.163 590.168 425.442 590.476C425.735 590.784 426.138 590.938 426.652 590.938C427.268 590.938 427.781 590.777 428.192 590.454L428.962 592.412C428.639 592.676 428.243 592.874 427.774 593.006C427.304 593.138 426.82 593.204 426.322 593.204ZM420.338 583.59V581.39H428.17V583.59H420.338ZM437.89 581.17C438.828 581.17 439.664 581.353 440.398 581.72C441.146 582.087 441.732 582.651 442.158 583.414C442.583 584.162 442.796 585.13 442.796 586.318V593.05H440.046V586.67C440.046 585.629 439.796 584.851 439.298 584.338C438.814 583.825 438.132 583.568 437.252 583.568C436.606 583.568 436.034 583.7 435.536 583.964C435.037 584.228 434.648 584.624 434.37 585.152C434.106 585.665 433.974 586.318 433.974 587.11V593.05H431.224V576.726H433.974V584.47L433.38 583.502C433.79 582.754 434.384 582.182 435.162 581.786C435.954 581.375 436.863 581.17 437.89 581.17ZM457.754 593.204C456.522 593.204 455.422 592.947 454.454 592.434C453.501 591.906 452.753 591.187 452.21 590.278C451.668 589.369 451.396 588.335 451.396 587.176C451.396 586.003 451.668 584.969 452.21 584.074C452.753 583.165 453.501 582.453 454.454 581.94C455.422 581.427 456.522 581.17 457.754 581.17C458.898 581.17 459.903 581.405 460.768 581.874C461.648 582.329 462.316 583.003 462.77 583.898L460.658 585.13C460.306 584.573 459.874 584.162 459.36 583.898C458.862 583.634 458.319 583.502 457.732 583.502C457.058 583.502 456.449 583.649 455.906 583.942C455.364 584.235 454.938 584.661 454.63 585.218C454.322 585.761 454.168 586.413 454.168 587.176C454.168 587.939 454.322 588.599 454.63 589.156C454.938 589.699 455.364 590.117 455.906 590.41C456.449 590.703 457.058 590.85 457.732 590.85C458.319 590.85 458.862 590.718 459.36 590.454C459.874 590.19 460.306 589.779 460.658 589.222L462.77 590.454C462.316 591.334 461.648 592.016 460.768 592.5C459.903 592.969 458.898 593.204 457.754 593.204ZM470.256 593.204C469.053 593.204 467.982 592.947 467.044 592.434C466.105 591.906 465.364 591.187 464.822 590.278C464.279 589.369 464.008 588.335 464.008 587.176C464.008 586.003 464.279 584.969 464.822 584.074C465.364 583.165 466.105 582.453 467.044 581.94C467.982 581.427 469.053 581.17 470.256 581.17C471.473 581.17 472.551 581.427 473.49 581.94C474.443 582.453 475.184 583.157 475.712 584.052C476.254 584.947 476.526 585.988 476.526 587.176C476.526 588.335 476.254 589.369 475.712 590.278C475.184 591.187 474.443 591.906 473.49 592.434C472.551 592.947 471.473 593.204 470.256 593.204ZM470.256 590.85C470.93 590.85 471.532 590.703 472.06 590.41C472.588 590.117 472.998 589.691 473.292 589.134C473.6 588.577 473.754 587.924 473.754 587.176C473.754 586.413 473.6 585.761 473.292 585.218C472.998 584.661 472.588 584.235 472.06 583.942C471.532 583.649 470.938 583.502 470.278 583.502C469.603 583.502 469.002 583.649 468.474 583.942C467.96 584.235 467.55 584.661 467.242 585.218C466.934 585.761 466.78 586.413 466.78 587.176C466.78 587.924 466.934 588.577 467.242 589.134C467.55 589.691 467.96 590.117 468.474 590.41C469.002 590.703 469.596 590.85 470.256 590.85ZM485.821 581.17C486.76 581.17 487.596 581.353 488.329 581.72C489.077 582.087 489.664 582.651 490.089 583.414C490.515 584.162 490.727 585.13 490.727 586.318V593.05H487.977V586.67C487.977 585.629 487.728 584.851 487.229 584.338C486.745 583.825 486.063 583.568 485.183 583.568C484.538 583.568 483.966 583.7 483.467 583.964C482.969 584.228 482.58 584.624 482.301 585.152C482.037 585.665 481.905 586.318 481.905 587.11V593.05H479.155V581.302H481.773V584.47L481.311 583.502C481.722 582.754 482.316 582.182 483.093 581.786C483.885 581.375 484.795 581.17 485.821 581.17ZM494.59 593.05V580.642C494.59 579.41 494.949 578.427 495.668 577.694C496.401 576.946 497.443 576.572 498.792 576.572C499.276 576.572 499.731 576.623 500.156 576.726C500.596 576.829 500.963 576.99 501.256 577.21L500.508 579.278C500.303 579.117 500.068 578.999 499.804 578.926C499.54 578.838 499.269 578.794 498.99 578.794C498.418 578.794 497.985 578.955 497.692 579.278C497.399 579.586 497.252 580.055 497.252 580.686V582.006L497.34 583.238V593.05H494.59ZM492.654 583.59V581.39H500.486V583.59H492.654ZM502.422 593.05V581.302H505.172V593.05H502.422ZM503.808 579.366C503.295 579.366 502.869 579.205 502.532 578.882C502.209 578.559 502.048 578.171 502.048 577.716C502.048 577.247 502.209 576.858 502.532 576.55C502.869 576.227 503.295 576.066 503.808 576.066C504.321 576.066 504.739 576.22 505.062 576.528C505.399 576.821 505.568 577.195 505.568 577.65C505.568 578.134 505.407 578.545 505.084 578.882C504.761 579.205 504.336 579.366 503.808 579.366ZM513.754 593.204C512.625 593.204 511.606 592.955 510.696 592.456C509.802 591.943 509.098 591.239 508.584 590.344C508.071 589.449 507.814 588.393 507.814 587.176C507.814 585.959 508.071 584.903 508.584 584.008C509.098 583.113 509.802 582.417 510.696 581.918C511.606 581.419 512.625 581.17 513.754 581.17C514.737 581.17 515.617 581.39 516.394 581.83C517.172 582.255 517.788 582.908 518.242 583.788C518.697 584.668 518.924 585.797 518.924 587.176C518.924 588.54 518.704 589.669 518.264 590.564C517.824 591.444 517.216 592.104 516.438 592.544C515.661 592.984 514.766 593.204 513.754 593.204ZM514.084 590.85C514.744 590.85 515.331 590.703 515.844 590.41C516.372 590.117 516.79 589.691 517.098 589.134C517.421 588.577 517.582 587.924 517.582 587.176C517.582 586.413 517.421 585.761 517.098 585.218C516.79 584.661 516.372 584.235 515.844 583.942C515.331 583.649 514.744 583.502 514.084 583.502C513.424 583.502 512.83 583.649 512.302 583.942C511.789 584.235 511.371 584.661 511.048 585.218C510.74 585.761 510.586 586.413 510.586 587.176C510.586 587.924 510.74 588.577 511.048 589.134C511.371 589.691 511.789 590.117 512.302 590.41C512.83 590.703 513.424 590.85 514.084 590.85ZM517.648 593.05V590.278L517.758 587.154L517.538 584.03V576.726H520.266V593.05H517.648ZM529.408 593.204C528.103 593.204 526.959 592.947 525.976 592.434C525.008 591.906 524.253 591.187 523.71 590.278C523.182 589.369 522.918 588.335 522.918 587.176C522.918 586.003 523.175 584.969 523.688 584.074C524.216 583.165 524.935 582.453 525.844 581.94C526.768 581.427 527.817 581.17 528.99 581.17C530.134 581.17 531.153 581.419 532.048 581.918C532.943 582.417 533.647 583.121 534.16 584.03C534.673 584.939 534.93 586.01 534.93 587.242C534.93 587.359 534.923 587.491 534.908 587.638C534.908 587.785 534.901 587.924 534.886 588.056H525.096V586.23H533.434L532.356 586.802C532.371 586.127 532.231 585.533 531.938 585.02C531.645 584.507 531.241 584.103 530.728 583.81C530.229 583.517 529.65 583.37 528.99 583.37C528.315 583.37 527.721 583.517 527.208 583.81C526.709 584.103 526.313 584.514 526.02 585.042C525.741 585.555 525.602 586.164 525.602 586.868V587.308C525.602 588.012 525.763 588.635 526.086 589.178C526.409 589.721 526.863 590.139 527.45 590.432C528.037 590.725 528.711 590.872 529.474 590.872C530.134 590.872 530.728 590.769 531.256 590.564C531.784 590.359 532.253 590.036 532.664 589.596L534.138 591.29C533.61 591.906 532.943 592.383 532.136 592.72C531.344 593.043 530.435 593.204 529.408 593.204ZM544.237 581.17C545.176 581.17 546.012 581.353 546.745 581.72C547.493 582.087 548.08 582.651 548.505 583.414C548.931 584.162 549.143 585.13 549.143 586.318V593.05H546.393V586.67C546.393 585.629 546.144 584.851 545.645 584.338C545.161 583.825 544.479 583.568 543.599 583.568C542.954 583.568 542.382 583.7 541.883 583.964C541.385 584.228 540.996 584.624 540.717 585.152C540.453 585.665 540.321 586.318 540.321 587.11V593.05H537.571V581.302H540.189V584.47L539.727 583.502C540.138 582.754 540.732 582.182 541.509 581.786C542.301 581.375 543.211 581.17 544.237 581.17ZM558.043 593.204C556.811 593.204 555.711 592.947 554.743 592.434C553.79 591.906 553.042 591.187 552.499 590.278C551.957 589.369 551.685 588.335 551.685 587.176C551.685 586.003 551.957 584.969 552.499 584.074C553.042 583.165 553.79 582.453 554.743 581.94C555.711 581.427 556.811 581.17 558.043 581.17C559.187 581.17 560.192 581.405 561.057 581.874C561.937 582.329 562.605 583.003 563.059 583.898L560.947 585.13C560.595 584.573 560.163 584.162 559.649 583.898C559.151 583.634 558.608 583.502 558.021 583.502C557.347 583.502 556.738 583.649 556.195 583.942C555.653 584.235 555.227 584.661 554.919 585.218C554.611 585.761 554.457 586.413 554.457 587.176C554.457 587.939 554.611 588.599 554.919 589.156C555.227 589.699 555.653 590.117 556.195 590.41C556.738 590.703 557.347 590.85 558.021 590.85C558.608 590.85 559.151 590.718 559.649 590.454C560.163 590.19 560.595 589.779 560.947 589.222L563.059 590.454C562.605 591.334 561.937 592.016 561.057 592.5C560.192 592.969 559.187 593.204 558.043 593.204ZM570.787 593.204C569.481 593.204 568.337 592.947 567.355 592.434C566.387 591.906 565.631 591.187 565.089 590.278C564.561 589.369 564.297 588.335 564.297 587.176C564.297 586.003 564.553 584.969 565.067 584.074C565.595 583.165 566.313 582.453 567.223 581.94C568.147 581.427 569.195 581.17 570.369 581.17C571.513 581.17 572.532 581.419 573.427 581.918C574.321 582.417 575.025 583.121 575.539 584.03C576.052 584.939 576.309 586.01 576.309 587.242C576.309 587.359 576.301 587.491 576.287 587.638C576.287 587.785 576.279 587.924 576.265 588.056H566.475V586.23H574.813L573.735 586.802C573.749 586.127 573.61 585.533 573.317 585.02C573.023 584.507 572.62 584.103 572.107 583.81C571.608 583.517 571.029 583.37 570.369 583.37C569.694 583.37 569.1 583.517 568.587 583.81C568.088 584.103 567.692 584.514 567.399 585.042C567.12 585.555 566.981 586.164 566.981 586.868V587.308C566.981 588.012 567.142 588.635 567.465 589.178C567.787 589.721 568.242 590.139 568.829 590.432C569.415 590.725 570.09 590.872 570.853 590.872C571.513 590.872 572.107 590.769 572.635 590.564C573.163 590.359 573.632 590.036 574.043 589.596L575.517 591.29C574.989 591.906 574.321 592.383 573.515 592.72C572.723 593.043 571.813 593.204 570.787 593.204Z" fill="#FBFFFF"/>
</g>
<g opacity="0.4">
<path d="M288.823 366.467H3.65613C2.14178 366.467 0.914154 367.695 0.914154 369.209V454.802C0.914154 456.316 2.14178 457.544 3.65613 457.544H105.104C106.959 457.544 108.629 458.665 109.333 460.381L120.82 488.409C121.757 490.695 125.001 490.674 125.908 488.376L136.928 460.437C137.617 458.691 139.303 457.544 141.18 457.544H288.823C290.337 457.544 291.565 456.316 291.565 454.802V369.209C291.565 367.695 290.337 366.467 288.823 366.467Z" stroke="#FBFFFF" stroke-width="1.82799"/>
<path d="M24.6303 407.798V392.398H30.9663C32.3303 392.398 33.4963 392.618 34.4643 393.058C35.447 393.498 36.2023 394.129 36.7303 394.95C37.2583 395.771 37.5223 396.747 37.5223 397.876C37.5223 399.005 37.2583 399.981 36.7303 400.802C36.2023 401.623 35.447 402.254 34.4643 402.694C33.4963 403.134 32.3303 403.354 30.9663 403.354H26.2143L27.4903 402.012V407.798H24.6303ZM27.4903 402.32L26.2143 400.934H30.8343C32.0957 400.934 33.0417 400.67 33.6723 400.142C34.3177 399.599 34.6403 398.844 34.6403 397.876C34.6403 396.893 34.3177 396.138 33.6723 395.61C33.0417 395.082 32.0957 394.818 30.8343 394.818H26.2143L27.4903 393.41V402.32ZM40.007 407.798V396.05H42.625V399.284L42.317 398.338C42.669 397.546 43.219 396.945 43.967 396.534C44.7296 396.123 45.6756 395.918 46.805 395.918V398.536C46.6876 398.507 46.5776 398.492 46.475 398.492C46.3723 398.477 46.2696 398.47 46.167 398.47C45.1256 398.47 44.297 398.778 43.681 399.394C43.065 399.995 42.757 400.897 42.757 402.1V407.798H40.007ZM55.5379 407.798V405.422L55.3839 404.916V400.758C55.3839 399.951 55.1419 399.328 54.6579 398.888C54.1739 398.433 53.4406 398.206 52.4579 398.206C51.7979 398.206 51.1453 398.309 50.4999 398.514C49.8693 398.719 49.3339 399.005 48.8939 399.372L47.8159 397.37C48.4466 396.886 49.1946 396.527 50.0599 396.292C50.9399 396.043 51.8493 395.918 52.7879 395.918C54.4893 395.918 55.8019 396.329 56.7259 397.15C57.6646 397.957 58.1339 399.211 58.1339 400.912V407.798H55.5379ZM51.8419 407.952C50.9619 407.952 50.1919 407.805 49.5319 407.512C48.8719 407.204 48.3586 406.786 47.9919 406.258C47.6399 405.715 47.4639 405.107 47.4639 404.432C47.4639 403.772 47.6179 403.178 47.9259 402.65C48.2486 402.122 48.7693 401.704 49.4879 401.396C50.2066 401.088 51.1599 400.934 52.3479 400.934H55.7579V402.76H52.5459C51.6073 402.76 50.9766 402.914 50.6539 403.222C50.3313 403.515 50.1699 403.882 50.1699 404.322C50.1699 404.821 50.3679 405.217 50.7639 405.51C51.1599 405.803 51.7099 405.95 52.4139 405.95C53.0886 405.95 53.6899 405.796 54.2179 405.488C54.7606 405.18 55.1493 404.725 55.3839 404.124L55.8459 405.774C55.5819 406.463 55.1053 406.999 54.4159 407.38C53.7413 407.761 52.8833 407.952 51.8419 407.952ZM67.0747 407.952C65.8427 407.952 64.7427 407.695 63.7747 407.182C62.8214 406.654 62.0734 405.935 61.5307 405.026C60.988 404.117 60.7167 403.083 60.7167 401.924C60.7167 400.751 60.988 399.717 61.5307 398.822C62.0734 397.913 62.8214 397.201 63.7747 396.688C64.7427 396.175 65.8427 395.918 67.0747 395.918C68.2187 395.918 69.2234 396.153 70.0887 396.622C70.9687 397.077 71.636 397.751 72.0907 398.646L69.9787 399.878C69.6267 399.321 69.194 398.91 68.6807 398.646C68.182 398.382 67.6394 398.25 67.0527 398.25C66.378 398.25 65.7694 398.397 65.2267 398.69C64.684 398.983 64.2587 399.409 63.9507 399.966C63.6427 400.509 63.4887 401.161 63.4887 401.924C63.4887 402.687 63.6427 403.347 63.9507 403.904C64.2587 404.447 64.684 404.865 65.2267 405.158C65.7694 405.451 66.378 405.598 67.0527 405.598C67.6394 405.598 68.182 405.466 68.6807 405.202C69.194 404.938 69.6267 404.527 69.9787 403.97L72.0907 405.202C71.636 406.082 70.9687 406.764 70.0887 407.248C69.2234 407.717 68.2187 407.952 67.0747 407.952ZM79.0403 407.952C77.7496 407.952 76.7523 407.622 76.0483 406.962C75.3443 406.287 74.9923 405.297 74.9923 403.992V393.454H77.7423V403.926C77.7423 404.483 77.8816 404.916 78.1603 405.224C78.4536 405.532 78.857 405.686 79.3703 405.686C79.9863 405.686 80.4996 405.525 80.9103 405.202L81.6803 407.16C81.3576 407.424 80.9616 407.622 80.4923 407.754C80.023 407.886 79.539 407.952 79.0403 407.952ZM73.0563 398.338V396.138H80.8883V398.338H73.0563ZM83.9425 407.798V396.05H86.6925V407.798H83.9425ZM85.3285 394.114C84.8152 394.114 84.3898 393.953 84.0525 393.63C83.7298 393.307 83.5685 392.919 83.5685 392.464C83.5685 391.995 83.7298 391.606 84.0525 391.298C84.3898 390.975 84.8152 390.814 85.3285 390.814C85.8418 390.814 86.2598 390.968 86.5825 391.276C86.9198 391.569 87.0885 391.943 87.0885 392.398C87.0885 392.882 86.9272 393.293 86.6045 393.63C86.2818 393.953 85.8565 394.114 85.3285 394.114ZM95.6919 407.952C94.4599 407.952 93.3599 407.695 92.3919 407.182C91.4385 406.654 90.6905 405.935 90.1479 405.026C89.6052 404.117 89.3339 403.083 89.3339 401.924C89.3339 400.751 89.6052 399.717 90.1479 398.822C90.6905 397.913 91.4385 397.201 92.3919 396.688C93.3599 396.175 94.4599 395.918 95.6919 395.918C96.8359 395.918 97.8405 396.153 98.7059 396.622C99.5859 397.077 100.253 397.751 100.708 398.646L98.5959 399.878C98.2439 399.321 97.8112 398.91 97.2979 398.646C96.7992 398.382 96.2565 398.25 95.6699 398.25C94.9952 398.25 94.3865 398.397 93.8439 398.69C93.3012 398.983 92.8759 399.409 92.5679 399.966C92.2599 400.509 92.1059 401.161 92.1059 401.924C92.1059 402.687 92.2599 403.347 92.5679 403.904C92.8759 404.447 93.3012 404.865 93.8439 405.158C94.3865 405.451 94.9952 405.598 95.6699 405.598C96.2565 405.598 96.7992 405.466 97.2979 405.202C97.8112 404.938 98.2439 404.527 98.5959 403.97L100.708 405.202C100.253 406.082 99.5859 406.764 98.7059 407.248C97.8405 407.717 96.8359 407.952 95.6919 407.952ZM108.435 407.952C107.13 407.952 105.986 407.695 105.003 407.182C104.035 406.654 103.28 405.935 102.737 405.026C102.209 404.117 101.945 403.083 101.945 401.924C101.945 400.751 102.202 399.717 102.715 398.822C103.243 397.913 103.962 397.201 104.871 396.688C105.795 396.175 106.844 395.918 108.017 395.918C109.161 395.918 110.181 396.167 111.075 396.666C111.97 397.165 112.674 397.869 113.187 398.778C113.701 399.687 113.957 400.758 113.957 401.99C113.957 402.107 113.95 402.239 113.935 402.386C113.935 402.533 113.928 402.672 113.913 402.804H104.123V400.978H112.461L111.383 401.55C111.398 400.875 111.259 400.281 110.965 399.768C110.672 399.255 110.269 398.851 109.755 398.558C109.257 398.265 108.677 398.118 108.017 398.118C107.343 398.118 106.749 398.265 106.235 398.558C105.737 398.851 105.341 399.262 105.047 399.79C104.769 400.303 104.629 400.912 104.629 401.616V402.056C104.629 402.76 104.791 403.383 105.113 403.926C105.436 404.469 105.891 404.887 106.477 405.18C107.064 405.473 107.739 405.62 108.501 405.62C109.161 405.62 109.755 405.517 110.283 405.312C110.811 405.107 111.281 404.784 111.691 404.344L113.165 406.038C112.637 406.654 111.97 407.131 111.163 407.468C110.371 407.791 109.462 407.952 108.435 407.952ZM123.647 412.22C123.075 412.22 122.503 412.125 121.931 411.934C121.359 411.743 120.882 411.479 120.501 411.142L121.601 409.118C121.879 409.367 122.195 409.565 122.547 409.712C122.899 409.859 123.258 409.932 123.625 409.932C124.123 409.932 124.527 409.807 124.835 409.558C125.143 409.309 125.429 408.891 125.693 408.304L126.375 406.764L126.595 406.434L131.039 396.05H133.679L128.179 408.744C127.812 409.624 127.401 410.321 126.947 410.834C126.507 411.347 126.008 411.707 125.451 411.912C124.908 412.117 124.307 412.22 123.647 412.22ZM126.067 408.216L120.765 396.05H123.625L127.937 406.192L126.067 408.216ZM140.355 407.952C139.153 407.952 138.082 407.695 137.143 407.182C136.205 406.654 135.464 405.935 134.921 405.026C134.379 404.117 134.107 403.083 134.107 401.924C134.107 400.751 134.379 399.717 134.921 398.822C135.464 397.913 136.205 397.201 137.143 396.688C138.082 396.175 139.153 395.918 140.355 395.918C141.573 395.918 142.651 396.175 143.589 396.688C144.543 397.201 145.283 397.905 145.811 398.8C146.354 399.695 146.625 400.736 146.625 401.924C146.625 403.083 146.354 404.117 145.811 405.026C145.283 405.935 144.543 406.654 143.589 407.182C142.651 407.695 141.573 407.952 140.355 407.952ZM140.355 405.598C141.03 405.598 141.631 405.451 142.159 405.158C142.687 404.865 143.098 404.439 143.391 403.882C143.699 403.325 143.853 402.672 143.853 401.924C143.853 401.161 143.699 400.509 143.391 399.966C143.098 399.409 142.687 398.983 142.159 398.69C141.631 398.397 141.037 398.25 140.377 398.25C139.703 398.25 139.101 398.397 138.573 398.69C138.06 398.983 137.649 399.409 137.341 399.966C137.033 400.509 136.879 401.161 136.879 401.924C136.879 402.672 137.033 403.325 137.341 403.882C137.649 404.439 138.06 404.865 138.573 405.158C139.101 405.451 139.695 405.598 140.355 405.598ZM154.227 407.952C153.23 407.952 152.35 407.769 151.587 407.402C150.824 407.021 150.23 406.449 149.805 405.686C149.38 404.909 149.167 403.933 149.167 402.76V396.05H151.917V402.386C151.917 403.442 152.152 404.234 152.621 404.762C153.105 405.275 153.787 405.532 154.667 405.532C155.312 405.532 155.87 405.4 156.339 405.136C156.823 404.872 157.197 404.476 157.461 403.948C157.74 403.42 157.879 402.767 157.879 401.99V396.05H160.629V407.798H158.011V404.63L158.473 405.598C158.077 406.361 157.498 406.947 156.735 407.358C155.972 407.754 155.136 407.952 154.227 407.952ZM164.23 407.798V396.05H166.848V399.284L166.54 398.338C166.892 397.546 167.442 396.945 168.19 396.534C168.952 396.123 169.898 395.918 171.028 395.918V398.536C170.91 398.507 170.8 398.492 170.698 398.492C170.595 398.477 170.492 398.47 170.39 398.47C169.348 398.47 168.52 398.778 167.904 399.394C167.288 399.995 166.98 400.897 166.98 402.1V407.798H164.23ZM179.548 407.798V391.474H182.298V407.798H179.548ZM191.429 407.952C190.124 407.952 188.98 407.695 187.997 407.182C187.029 406.654 186.274 405.935 185.731 405.026C185.203 404.117 184.939 403.083 184.939 401.924C184.939 400.751 185.196 399.717 185.709 398.822C186.237 397.913 186.956 397.201 187.865 396.688C188.789 396.175 189.838 395.918 191.011 395.918C192.155 395.918 193.175 396.167 194.069 396.666C194.964 397.165 195.668 397.869 196.181 398.778C196.695 399.687 196.951 400.758 196.951 401.99C196.951 402.107 196.944 402.239 196.929 402.386C196.929 402.533 196.922 402.672 196.907 402.804H187.117V400.978H195.455L194.377 401.55C194.392 400.875 194.253 400.281 193.959 399.768C193.666 399.255 193.263 398.851 192.749 398.558C192.251 398.265 191.671 398.118 191.011 398.118C190.337 398.118 189.743 398.265 189.229 398.558C188.731 398.851 188.335 399.262 188.041 399.79C187.763 400.303 187.623 400.912 187.623 401.616V402.056C187.623 402.76 187.785 403.383 188.107 403.926C188.43 404.469 188.885 404.887 189.471 405.18C190.058 405.473 190.733 405.62 191.495 405.62C192.155 405.62 192.749 405.517 193.277 405.312C193.805 405.107 194.275 404.784 194.685 404.344L196.159 406.038C195.631 406.654 194.964 407.131 194.157 407.468C193.365 407.791 192.456 407.952 191.429 407.952ZM206.509 407.798V405.422L206.355 404.916V400.758C206.355 399.951 206.113 399.328 205.629 398.888C205.145 398.433 204.411 398.206 203.429 398.206C202.769 398.206 202.116 398.309 201.471 398.514C200.84 398.719 200.305 399.005 199.865 399.372L198.787 397.37C199.417 396.886 200.165 396.527 201.031 396.292C201.911 396.043 202.82 395.918 203.759 395.918C205.46 395.918 206.773 396.329 207.697 397.15C208.635 397.957 209.105 399.211 209.105 400.912V407.798H206.509ZM202.813 407.952C201.933 407.952 201.163 407.805 200.503 407.512C199.843 407.204 199.329 406.786 198.963 406.258C198.611 405.715 198.435 405.107 198.435 404.432C198.435 403.772 198.589 403.178 198.897 402.65C199.219 402.122 199.74 401.704 200.459 401.396C201.177 401.088 202.131 400.934 203.319 400.934H206.729V402.76H203.517C202.578 402.76 201.947 402.914 201.625 403.222C201.302 403.515 201.141 403.882 201.141 404.322C201.141 404.821 201.339 405.217 201.735 405.51C202.131 405.803 202.681 405.95 203.385 405.95C204.059 405.95 204.661 405.796 205.189 405.488C205.731 405.18 206.12 404.725 206.355 404.124L206.817 405.774C206.553 406.463 206.076 406.999 205.387 407.38C204.712 407.761 203.854 407.952 202.813 407.952ZM212.634 407.798V396.05H215.252V399.284L214.944 398.338C215.296 397.546 215.846 396.945 216.594 396.534C217.357 396.123 218.303 395.918 219.432 395.918V398.536C219.315 398.507 219.205 398.492 219.102 398.492C218.999 398.477 218.897 398.47 218.794 398.47C217.753 398.47 216.924 398.778 216.308 399.394C215.692 399.995 215.384 400.897 215.384 402.1V407.798H212.634ZM228.431 395.918C229.369 395.918 230.205 396.101 230.939 396.468C231.687 396.835 232.273 397.399 232.699 398.162C233.124 398.91 233.337 399.878 233.337 401.066V407.798H230.587V401.418C230.587 400.377 230.337 399.599 229.839 399.086C229.355 398.573 228.673 398.316 227.793 398.316C227.147 398.316 226.575 398.448 226.077 398.712C225.578 398.976 225.189 399.372 224.911 399.9C224.647 400.413 224.515 401.066 224.515 401.858V407.798H221.765V396.05H224.383V399.218L223.921 398.25C224.331 397.502 224.925 396.93 225.703 396.534C226.495 396.123 227.404 395.918 228.431 395.918ZM236.825 407.798V396.05H239.575V407.798H236.825ZM238.211 394.114C237.698 394.114 237.273 393.953 236.935 393.63C236.613 393.307 236.451 392.919 236.451 392.464C236.451 391.995 236.613 391.606 236.935 391.298C237.273 390.975 237.698 390.814 238.211 390.814C238.725 390.814 239.143 390.968 239.465 391.276C239.803 391.569 239.971 391.943 239.971 392.398C239.971 392.882 239.81 393.293 239.487 393.63C239.165 393.953 238.739 394.114 238.211 394.114ZM249.851 395.918C250.789 395.918 251.625 396.101 252.359 396.468C253.107 396.835 253.693 397.399 254.119 398.162C254.544 398.91 254.757 399.878 254.757 401.066V407.798H252.007V401.418C252.007 400.377 251.757 399.599 251.259 399.086C250.775 398.573 250.093 398.316 249.213 398.316C248.567 398.316 247.995 398.448 247.497 398.712C246.998 398.976 246.609 399.372 246.331 399.9C246.067 400.413 245.935 401.066 245.935 401.858V407.798H243.185V396.05H245.803V399.218L245.341 398.25C245.751 397.502 246.345 396.93 247.123 396.534C247.915 396.123 248.824 395.918 249.851 395.918ZM263.591 412.22C262.505 412.22 261.442 412.073 260.401 411.78C259.374 411.501 258.531 411.091 257.871 410.548L259.103 408.48C259.616 408.905 260.261 409.243 261.039 409.492C261.831 409.756 262.63 409.888 263.437 409.888C264.727 409.888 265.673 409.587 266.275 408.986C266.876 408.399 267.177 407.512 267.177 406.324V404.234L267.397 401.572L267.309 398.91V396.05H269.927V406.016C269.927 408.143 269.384 409.705 268.299 410.702C267.213 411.714 265.644 412.22 263.591 412.22ZM263.239 407.27C262.124 407.27 261.112 407.035 260.203 406.566C259.308 406.082 258.597 405.415 258.069 404.564C257.555 403.713 257.299 402.716 257.299 401.572C257.299 400.443 257.555 399.453 258.069 398.602C258.597 397.751 259.308 397.091 260.203 396.622C261.112 396.153 262.124 395.918 263.239 395.918C264.236 395.918 265.131 396.116 265.923 396.512C266.715 396.908 267.345 397.524 267.815 398.36C268.299 399.196 268.541 400.267 268.541 401.572C268.541 402.877 268.299 403.955 267.815 404.806C267.345 405.642 266.715 406.265 265.923 406.676C265.131 407.072 264.236 407.27 263.239 407.27ZM263.657 404.938C264.346 404.938 264.962 404.799 265.505 404.52C266.047 404.227 266.465 403.831 266.759 403.332C267.067 402.819 267.221 402.232 267.221 401.572C267.221 400.912 267.067 400.333 266.759 399.834C266.465 399.321 266.047 398.932 265.505 398.668C264.962 398.389 264.346 398.25 263.657 398.25C262.967 398.25 262.344 398.389 261.787 398.668C261.244 398.932 260.819 399.321 260.511 399.834C260.217 400.333 260.071 400.912 260.071 401.572C260.071 402.232 260.217 402.819 260.511 403.332C260.819 403.831 261.244 404.227 261.787 404.52C262.344 404.799 262.967 404.938 263.657 404.938ZM56.2778 435.798L51.9658 424.05H54.5618L58.2578 434.412H57.0258L60.8978 424.05H63.2078L66.9698 434.412H65.7598L69.5658 424.05H72.0078L67.6738 435.798H65.0338L61.6018 426.624H62.4158L58.9178 435.798H56.2778ZM73.8986 435.798V424.05H76.6486V435.798H73.8986ZM75.2846 422.114C74.7712 422.114 74.3459 421.953 74.0086 421.63C73.6859 421.307 73.5246 420.919 73.5246 420.464C73.5246 419.995 73.6859 419.606 74.0086 419.298C74.3459 418.975 74.7712 418.814 75.2846 418.814C75.7979 418.814 76.2159 418.968 76.5386 419.276C76.8759 419.569 77.0446 419.943 77.0446 420.398C77.0446 420.882 76.8832 421.293 76.5606 421.63C76.2379 421.953 75.8126 422.114 75.2846 422.114ZM84.6799 435.952C83.3893 435.952 82.3919 435.622 81.6879 434.962C80.9839 434.287 80.6319 433.297 80.6319 431.992V421.454H83.3819V431.926C83.3819 432.483 83.5213 432.916 83.7999 433.224C84.0933 433.532 84.4966 433.686 85.0099 433.686C85.6259 433.686 86.1393 433.525 86.5499 433.202L87.3199 435.16C86.9973 435.424 86.6013 435.622 86.1319 435.754C85.6626 435.886 85.1786 435.952 84.6799 435.952ZM78.6959 426.338V424.138H86.5279V426.338H78.6959ZM96.2482 423.918C97.1868 423.918 98.0228 424.101 98.7562 424.468C99.5042 424.835 100.091 425.399 100.516 426.162C100.941 426.91 101.154 427.878 101.154 429.066V435.798H98.4042V429.418C98.4042 428.377 98.1548 427.599 97.6562 427.086C97.1722 426.573 96.4902 426.316 95.6102 426.316C94.9648 426.316 94.3928 426.448 93.8942 426.712C93.3955 426.976 93.0068 427.372 92.7282 427.9C92.4642 428.413 92.3322 429.066 92.3322 429.858V435.798H89.5822V419.474H92.3322V427.218L91.7382 426.25C92.1488 425.502 92.7428 424.93 93.5202 424.534C94.3122 424.123 95.2215 423.918 96.2482 423.918ZM116.003 435.952C114.8 435.952 113.729 435.695 112.791 435.182C111.852 434.654 111.111 433.935 110.569 433.026C110.026 432.117 109.755 431.083 109.755 429.924C109.755 428.751 110.026 427.717 110.569 426.822C111.111 425.913 111.852 425.201 112.791 424.688C113.729 424.175 114.8 423.918 116.003 423.918C117.22 423.918 118.298 424.175 119.237 424.688C120.19 425.201 120.931 425.905 121.459 426.8C122.001 427.695 122.273 428.736 122.273 429.924C122.273 431.083 122.001 432.117 121.459 433.026C120.931 433.935 120.19 434.654 119.237 435.182C118.298 435.695 117.22 435.952 116.003 435.952ZM116.003 433.598C116.677 433.598 117.279 433.451 117.807 433.158C118.335 432.865 118.745 432.439 119.039 431.882C119.347 431.325 119.501 430.672 119.501 429.924C119.501 429.161 119.347 428.509 119.039 427.966C118.745 427.409 118.335 426.983 117.807 426.69C117.279 426.397 116.685 426.25 116.025 426.25C115.35 426.25 114.749 426.397 114.221 426.69C113.707 426.983 113.297 427.409 112.989 427.966C112.681 428.509 112.527 429.161 112.527 429.924C112.527 430.672 112.681 431.325 112.989 431.882C113.297 432.439 113.707 432.865 114.221 433.158C114.749 433.451 115.343 433.598 116.003 433.598ZM129.324 435.952C128.034 435.952 127.036 435.622 126.332 434.962C125.628 434.287 125.276 433.297 125.276 431.992V421.454H128.026V431.926C128.026 432.483 128.166 432.916 128.444 433.224C128.738 433.532 129.141 433.686 129.654 433.686C130.27 433.686 130.784 433.525 131.194 433.202L131.964 435.16C131.642 435.424 131.246 435.622 130.776 435.754C130.307 435.886 129.823 435.952 129.324 435.952ZM123.34 426.338V424.138H131.172V426.338H123.34ZM140.893 423.918C141.831 423.918 142.667 424.101 143.401 424.468C144.149 424.835 144.735 425.399 145.161 426.162C145.586 426.91 145.799 427.878 145.799 429.066V435.798H143.049V429.418C143.049 428.377 142.799 427.599 142.301 427.086C141.817 426.573 141.135 426.316 140.255 426.316C139.609 426.316 139.037 426.448 138.539 426.712C138.04 426.976 137.651 427.372 137.373 427.9C137.109 428.413 136.977 429.066 136.977 429.858V435.798H134.227V419.474H136.977V427.218L136.383 426.25C136.793 425.502 137.387 424.93 138.165 424.534C138.957 424.123 139.866 423.918 140.893 423.918ZM154.831 435.952C153.525 435.952 152.381 435.695 151.399 435.182C150.431 434.654 149.675 433.935 149.133 433.026C148.605 432.117 148.341 431.083 148.341 429.924C148.341 428.751 148.597 427.717 149.111 426.822C149.639 425.913 150.357 425.201 151.267 424.688C152.191 424.175 153.239 423.918 154.413 423.918C155.557 423.918 156.576 424.167 157.471 424.666C158.365 425.165 159.069 425.869 159.583 426.778C160.096 427.687 160.353 428.758 160.353 429.99C160.353 430.107 160.345 430.239 160.331 430.386C160.331 430.533 160.323 430.672 160.309 430.804H150.519V428.978H158.857L157.779 429.55C157.793 428.875 157.654 428.281 157.361 427.768C157.067 427.255 156.664 426.851 156.151 426.558C155.652 426.265 155.073 426.118 154.413 426.118C153.738 426.118 153.144 426.265 152.631 426.558C152.132 426.851 151.736 427.262 151.443 427.79C151.164 428.303 151.025 428.912 151.025 429.616V430.056C151.025 430.76 151.186 431.383 151.509 431.926C151.831 432.469 152.286 432.887 152.873 433.18C153.459 433.473 154.134 433.62 154.897 433.62C155.557 433.62 156.151 433.517 156.679 433.312C157.207 433.107 157.676 432.784 158.087 432.344L159.561 434.038C159.033 434.654 158.365 435.131 157.559 435.468C156.767 435.791 155.857 435.952 154.831 435.952ZM162.994 435.798V424.05H165.612V427.284L165.304 426.338C165.656 425.546 166.206 424.945 166.954 424.534C167.717 424.123 168.663 423.918 169.792 423.918V426.536C169.675 426.507 169.565 426.492 169.462 426.492C169.36 426.477 169.257 426.47 169.154 426.47C168.113 426.47 167.284 426.778 166.668 427.394C166.052 427.995 165.744 428.897 165.744 430.1V435.798H162.994ZM183.285 435.952C182.287 435.952 181.407 435.769 180.645 435.402C179.882 435.021 179.288 434.449 178.863 433.686C178.437 432.909 178.225 431.933 178.225 430.76V424.05H180.975V430.386C180.975 431.442 181.209 432.234 181.679 432.762C182.163 433.275 182.845 433.532 183.725 433.532C184.37 433.532 184.927 433.4 185.397 433.136C185.881 432.872 186.255 432.476 186.519 431.948C186.797 431.42 186.937 430.767 186.937 429.99V424.05H189.687V435.798H187.069V432.63L187.531 433.598C187.135 434.361 186.555 434.947 185.793 435.358C185.03 435.754 184.194 435.952 183.285 435.952ZM196.917 435.952C195.935 435.952 194.989 435.827 194.079 435.578C193.185 435.314 192.473 434.999 191.945 434.632L193.001 432.542C193.529 432.879 194.16 433.158 194.893 433.378C195.627 433.598 196.36 433.708 197.093 433.708C197.959 433.708 198.582 433.591 198.963 433.356C199.359 433.121 199.557 432.806 199.557 432.41C199.557 432.087 199.425 431.845 199.161 431.684C198.897 431.508 198.553 431.376 198.127 431.288C197.702 431.2 197.225 431.119 196.697 431.046C196.184 430.973 195.663 430.877 195.135 430.76C194.622 430.628 194.153 430.445 193.727 430.21C193.302 429.961 192.957 429.631 192.693 429.22C192.429 428.809 192.297 428.267 192.297 427.592C192.297 426.844 192.51 426.199 192.935 425.656C193.361 425.099 193.955 424.673 194.717 424.38C195.495 424.072 196.411 423.918 197.467 423.918C198.259 423.918 199.059 424.006 199.865 424.182C200.672 424.358 201.339 424.607 201.867 424.93L200.811 427.02C200.254 426.683 199.689 426.455 199.117 426.338C198.56 426.206 198.003 426.14 197.445 426.14C196.609 426.14 195.986 426.265 195.575 426.514C195.179 426.763 194.981 427.079 194.981 427.46C194.981 427.812 195.113 428.076 195.377 428.252C195.641 428.428 195.986 428.567 196.411 428.67C196.837 428.773 197.306 428.861 197.819 428.934C198.347 428.993 198.868 429.088 199.381 429.22C199.895 429.352 200.364 429.535 200.789 429.77C201.229 429.99 201.581 430.305 201.845 430.716C202.109 431.127 202.241 431.662 202.241 432.322C202.241 433.055 202.021 433.693 201.581 434.236C201.156 434.779 200.547 435.204 199.755 435.512C198.963 435.805 198.017 435.952 196.917 435.952ZM210.131 435.952C208.826 435.952 207.682 435.695 206.699 435.182C205.731 434.654 204.976 433.935 204.433 433.026C203.905 432.117 203.641 431.083 203.641 429.924C203.641 428.751 203.898 427.717 204.411 426.822C204.939 425.913 205.658 425.201 206.567 424.688C207.491 424.175 208.54 423.918 209.713 423.918C210.857 423.918 211.877 424.167 212.771 424.666C213.666 425.165 214.37 425.869 214.883 426.778C215.397 427.687 215.653 428.758 215.653 429.99C215.653 430.107 215.646 430.239 215.631 430.386C215.631 430.533 215.624 430.672 215.609 430.804H205.819V428.978H214.157L213.079 429.55C213.094 428.875 212.955 428.281 212.661 427.768C212.368 427.255 211.965 426.851 211.451 426.558C210.953 426.265 210.373 426.118 209.713 426.118C209.039 426.118 208.445 426.265 207.931 426.558C207.433 426.851 207.037 427.262 206.743 427.79C206.465 428.303 206.325 428.912 206.325 429.616V430.056C206.325 430.76 206.487 431.383 206.809 431.926C207.132 432.469 207.587 432.887 208.173 433.18C208.76 433.473 209.435 433.62 210.197 433.62C210.857 433.62 211.451 433.517 211.979 433.312C212.507 433.107 212.977 432.784 213.387 432.344L214.861 434.038C214.333 434.654 213.666 435.131 212.859 435.468C212.067 435.791 211.158 435.952 210.131 435.952ZM218.295 435.798V424.05H220.913V427.284L220.605 426.338C220.957 425.546 221.507 424.945 222.255 424.534C223.018 424.123 223.964 423.918 225.093 423.918V426.536C224.976 426.507 224.866 426.492 224.763 426.492C224.66 426.477 224.558 426.47 224.455 426.47C223.414 426.47 222.585 426.778 221.969 427.394C221.353 427.995 221.045 428.897 221.045 430.1V435.798H218.295ZM231.163 435.952C230.181 435.952 229.235 435.827 228.325 435.578C227.431 435.314 226.719 434.999 226.191 434.632L227.247 432.542C227.775 432.879 228.406 433.158 229.139 433.378C229.873 433.598 230.606 433.708 231.339 433.708C232.205 433.708 232.828 433.591 233.209 433.356C233.605 433.121 233.803 432.806 233.803 432.41C233.803 432.087 233.671 431.845 233.407 431.684C233.143 431.508 232.799 431.376 232.373 431.288C231.948 431.2 231.471 431.119 230.943 431.046C230.43 430.973 229.909 430.877 229.381 430.76C228.868 430.628 228.399 430.445 227.973 430.21C227.548 429.961 227.203 429.631 226.939 429.22C226.675 428.809 226.543 428.267 226.543 427.592C226.543 426.844 226.756 426.199 227.181 425.656C227.607 425.099 228.201 424.673 228.963 424.38C229.741 424.072 230.657 423.918 231.713 423.918C232.505 423.918 233.305 424.006 234.111 424.182C234.918 424.358 235.585 424.607 236.113 424.93L235.057 427.02C234.5 426.683 233.935 426.455 233.363 426.338C232.806 426.206 232.249 426.14 231.691 426.14C230.855 426.14 230.232 426.265 229.821 426.514C229.425 426.763 229.227 427.079 229.227 427.46C229.227 427.812 229.359 428.076 229.623 428.252C229.887 428.428 230.232 428.567 230.657 428.67C231.083 428.773 231.552 428.861 232.065 428.934C232.593 428.993 233.114 429.088 233.627 429.22C234.141 429.352 234.61 429.535 235.035 429.77C235.475 429.99 235.827 430.305 236.091 430.716C236.355 431.127 236.487 431.662 236.487 432.322C236.487 433.055 236.267 433.693 235.827 434.236C235.402 434.779 234.793 435.204 234.001 435.512C233.209 435.805 232.263 435.952 231.163 435.952ZM239.736 435.952C239.237 435.952 238.812 435.783 238.46 435.446C238.108 435.094 237.932 434.654 237.932 434.126C237.932 433.569 238.108 433.129 238.46 432.806C238.812 432.469 239.237 432.3 239.736 432.3C240.234 432.3 240.66 432.469 241.012 432.806C241.364 433.129 241.54 433.569 241.54 434.126C241.54 434.654 241.364 435.094 241.012 435.446C240.66 435.783 240.234 435.952 239.736 435.952Z" fill="#FBFFFF"/>
</g>
<path d="M297.962 28.334H54.8395C53.3252 28.334 52.0975 29.5617 52.0975 31.076V77.9586C52.0975 79.4729 53.3252 80.7006 54.8395 80.7006H141.212C142.815 80.7006 144.301 81.5408 145.128 82.9147L154.454 98.4169C155.53 100.206 158.13 100.184 159.176 98.3773L168.091 82.9806C168.908 81.5695 170.415 80.7006 172.046 80.7006H297.962C299.477 80.7006 300.704 79.4729 300.704 77.9586V31.076C300.704 29.5617 299.477 28.334 297.962 28.334Z" stroke="#FFF616" stroke-width="1.82799"/>
<path d="M120.77 63.4408C119.567 63.4408 118.46 63.2502 117.448 62.8688C116.45 62.4728 115.578 61.9228 114.83 61.2188C114.082 60.5002 113.502 59.6568 113.092 58.6888C112.681 57.7208 112.476 56.6648 112.476 55.5208C112.476 54.3768 112.681 53.3208 113.092 52.3528C113.502 51.3848 114.082 50.5488 114.83 49.8448C115.592 49.1262 116.48 48.5762 117.492 48.1948C118.504 47.7988 119.611 47.6008 120.814 47.6008C122.119 47.6008 123.292 47.8135 124.334 48.2388C125.39 48.6642 126.277 49.2875 126.996 50.1088L125.192 51.8688C124.59 51.2675 123.938 50.8275 123.234 50.5488C122.544 50.2555 121.782 50.1088 120.946 50.1088C120.139 50.1088 119.391 50.2408 118.702 50.5048C118.012 50.7688 117.418 51.1428 116.92 51.6268C116.421 52.1108 116.032 52.6828 115.754 53.3428C115.49 54.0028 115.358 54.7288 115.358 55.5208C115.358 56.2982 115.49 57.0168 115.754 57.6768C116.032 58.3368 116.421 58.9162 116.92 59.4148C117.418 59.8988 118.005 60.2728 118.68 60.5368C119.354 60.8008 120.102 60.9328 120.924 60.9328C121.686 60.9328 122.42 60.8155 123.124 60.5808C123.842 60.3315 124.524 59.9208 125.17 59.3488L126.798 61.4828C125.991 62.1282 125.052 62.6195 123.982 62.9568C122.926 63.2795 121.855 63.4408 120.77 63.4408ZM124.092 61.1088V55.3448H126.798V61.4828L124.092 61.1088ZM135.828 63.3748C134.523 63.3748 133.379 63.1182 132.396 62.6048C131.428 62.0768 130.673 61.3582 130.13 60.4488C129.602 59.5395 129.338 58.5055 129.338 57.3468C129.338 56.1735 129.595 55.1395 130.108 54.2448C130.636 53.3355 131.355 52.6242 132.264 52.1108C133.188 51.5975 134.237 51.3408 135.41 51.3408C136.554 51.3408 137.573 51.5902 138.468 52.0888C139.363 52.5875 140.067 53.2915 140.58 54.2008C141.093 55.1102 141.35 56.1808 141.35 57.4128C141.35 57.5302 141.343 57.6622 141.328 57.8088C141.328 57.9555 141.321 58.0948 141.306 58.2268H131.516V56.4008H139.854L138.776 56.9728C138.791 56.2982 138.651 55.7042 138.358 55.1908C138.065 54.6775 137.661 54.2742 137.148 53.9808C136.649 53.6875 136.07 53.5408 135.41 53.5408C134.735 53.5408 134.141 53.6875 133.628 53.9808C133.129 54.2742 132.733 54.6848 132.44 55.2128C132.161 55.7262 132.022 56.3348 132.022 57.0388V57.4788C132.022 58.1828 132.183 58.8062 132.506 59.3488C132.829 59.8915 133.283 60.3095 133.87 60.6028C134.457 60.8962 135.131 61.0428 135.894 61.0428C136.554 61.0428 137.148 60.9402 137.676 60.7348C138.204 60.5295 138.673 60.2068 139.084 59.7668L140.558 61.4608C140.03 62.0768 139.363 62.5535 138.556 62.8908C137.764 63.2135 136.855 63.3748 135.828 63.3748ZM148.414 63.3748C147.123 63.3748 146.126 63.0448 145.421 62.3848C144.718 61.7102 144.366 60.7202 144.366 59.4148V48.8768H147.116V59.3488C147.116 59.9062 147.255 60.3388 147.534 60.6468C147.827 60.9548 148.23 61.1088 148.744 61.1088C149.36 61.1088 149.873 60.9475 150.284 60.6248L151.054 62.5828C150.731 62.8468 150.335 63.0448 149.866 63.1768C149.396 63.3088 148.912 63.3748 148.414 63.3748ZM142.43 53.7608V51.5608H150.262V53.7608H142.43ZM164.434 63.4408C163.231 63.4408 162.08 63.2722 160.98 62.9348C159.88 62.5828 159.007 62.1355 158.362 61.5928L159.352 59.3708C159.968 59.8548 160.73 60.2582 161.64 60.5808C162.549 60.9035 163.48 61.0648 164.434 61.0648C165.24 61.0648 165.893 60.9768 166.392 60.8008C166.89 60.6248 167.257 60.3902 167.492 60.0968C167.726 59.7888 167.844 59.4442 167.844 59.0628C167.844 58.5935 167.675 58.2195 167.338 57.9408C167 57.6475 166.56 57.4202 166.018 57.2588C165.49 57.0828 164.896 56.9215 164.236 56.7748C163.59 56.6282 162.938 56.4595 162.278 56.2688C161.632 56.0635 161.038 55.8068 160.496 55.4988C159.968 55.1762 159.535 54.7508 159.198 54.2228C158.86 53.6948 158.692 53.0202 158.692 52.1988C158.692 51.3628 158.912 50.6002 159.352 49.9108C159.806 49.2068 160.488 48.6495 161.398 48.2388C162.322 47.8135 163.488 47.6008 164.896 47.6008C165.82 47.6008 166.736 47.7182 167.646 47.9528C168.555 48.1875 169.347 48.5248 170.022 48.9648L169.12 51.1868C168.43 50.7762 167.719 50.4755 166.986 50.2848C166.252 50.0795 165.548 49.9768 164.874 49.9768C164.082 49.9768 163.436 50.0722 162.938 50.2628C162.454 50.4535 162.094 50.7028 161.86 51.0108C161.64 51.3188 161.53 51.6708 161.53 52.0668C161.53 52.5362 161.691 52.9175 162.014 53.2108C162.351 53.4895 162.784 53.7095 163.312 53.8708C163.854 54.0322 164.456 54.1935 165.116 54.3548C165.776 54.5015 166.428 54.6702 167.074 54.8608C167.734 55.0515 168.328 55.3008 168.856 55.6088C169.398 55.9168 169.831 56.3348 170.154 56.8628C170.491 57.3908 170.66 58.0582 170.66 58.8648C170.66 59.6862 170.432 60.4488 169.978 61.1528C169.538 61.8422 168.856 62.3995 167.932 62.8248C167.008 63.2355 165.842 63.4408 164.434 63.4408ZM177.654 63.3748C176.363 63.3748 175.366 63.0448 174.662 62.3848C173.958 61.7102 173.606 60.7202 173.606 59.4148V48.8768H176.356V59.3488C176.356 59.9062 176.495 60.3388 176.774 60.6468C177.067 60.9548 177.47 61.1088 177.984 61.1088C178.6 61.1088 179.113 60.9475 179.524 60.6248L180.294 62.5828C179.971 62.8468 179.575 63.0448 179.106 63.1768C178.636 63.3088 178.152 63.3748 177.654 63.3748ZM171.67 53.7608V51.5608H179.502V53.7608H171.67ZM189.794 63.2208V60.8448L189.64 60.3388V56.1808C189.64 55.3742 189.398 54.7508 188.914 54.3108C188.43 53.8562 187.697 53.6288 186.714 53.6288C186.054 53.6288 185.401 53.7315 184.756 53.9368C184.125 54.1422 183.59 54.4282 183.15 54.7948L182.072 52.7928C182.703 52.3088 183.451 51.9495 184.316 51.7148C185.196 51.4655 186.105 51.3408 187.044 51.3408C188.745 51.3408 190.058 51.7515 190.982 52.5728C191.921 53.3795 192.39 54.6335 192.39 56.3348V63.2208H189.794ZM186.098 63.3748C185.218 63.3748 184.448 63.2282 183.788 62.9348C183.128 62.6268 182.615 62.2088 182.248 61.6808C181.896 61.1382 181.72 60.5295 181.72 59.8548C181.72 59.1948 181.874 58.6008 182.182 58.0728C182.505 57.5448 183.025 57.1268 183.744 56.8188C184.463 56.5108 185.416 56.3568 186.604 56.3568H190.014V58.1828H186.802C185.863 58.1828 185.233 58.3368 184.91 58.6448C184.587 58.9382 184.426 59.3048 184.426 59.7448C184.426 60.2435 184.624 60.6395 185.02 60.9328C185.416 61.2262 185.966 61.3728 186.67 61.3728C187.345 61.3728 187.946 61.2188 188.474 60.9108C189.017 60.6028 189.405 60.1482 189.64 59.5468L190.102 61.1968C189.838 61.8862 189.361 62.4215 188.672 62.8028C187.997 63.1842 187.139 63.3748 186.098 63.3748ZM195.919 63.2208V51.4728H198.537V54.7068L198.229 53.7608C198.581 52.9688 199.131 52.3675 199.879 51.9568C200.642 51.5462 201.588 51.3408 202.717 51.3408V53.9588C202.6 53.9295 202.49 53.9148 202.387 53.9148C202.285 53.9002 202.182 53.8928 202.079 53.8928C201.038 53.8928 200.209 54.2008 199.593 54.8168C198.977 55.4182 198.669 56.3202 198.669 57.5228V63.2208H195.919ZM209.902 63.3748C208.611 63.3748 207.614 63.0448 206.91 62.3848C206.206 61.7102 205.854 60.7202 205.854 59.4148V48.8768H208.604V59.3488C208.604 59.9062 208.743 60.3388 209.022 60.6468C209.315 60.9548 209.718 61.1088 210.232 61.1088C210.848 61.1088 211.361 60.9475 211.772 60.6248L212.542 62.5828C212.219 62.8468 211.823 63.0448 211.354 63.1768C210.884 63.3088 210.4 63.3748 209.902 63.3748ZM203.918 53.7608V51.5608H211.75V53.7608H203.918ZM219.939 63.3748C218.634 63.3748 217.49 63.1182 216.507 62.6048C215.539 62.0768 214.784 61.3582 214.241 60.4488C213.713 59.5395 213.449 58.5055 213.449 57.3468C213.449 56.1735 213.706 55.1395 214.219 54.2448C214.747 53.3355 215.466 52.6242 216.375 52.1108C217.299 51.5975 218.348 51.3408 219.521 51.3408C220.665 51.3408 221.685 51.5902 222.579 52.0888C223.474 52.5875 224.178 53.2915 224.691 54.2008C225.205 55.1102 225.461 56.1808 225.461 57.4128C225.461 57.5302 225.454 57.6622 225.439 57.8088C225.439 57.9555 225.432 58.0948 225.417 58.2268H215.627V56.4008H223.965L222.887 56.9728C222.902 56.2982 222.763 55.7042 222.469 55.1908C222.176 54.6775 221.773 54.2742 221.259 53.9808C220.761 53.6875 220.181 53.5408 219.521 53.5408C218.847 53.5408 218.253 53.6875 217.739 53.9808C217.241 54.2742 216.845 54.6848 216.551 55.2128C216.273 55.7262 216.133 56.3348 216.133 57.0388V57.4788C216.133 58.1828 216.295 58.8062 216.617 59.3488C216.94 59.8915 217.395 60.3095 217.981 60.6028C218.568 60.8962 219.243 61.0428 220.005 61.0428C220.665 61.0428 221.259 60.9402 221.787 60.7348C222.315 60.5295 222.785 60.2068 223.195 59.7668L224.669 61.4608C224.141 62.0768 223.474 62.5535 222.667 62.8908C221.875 63.2135 220.966 63.3748 219.939 63.3748ZM233.075 63.3748C231.945 63.3748 230.926 63.1255 230.017 62.6268C229.122 62.1135 228.418 61.4095 227.905 60.5148C227.391 59.6202 227.135 58.5642 227.135 57.3468C227.135 56.1295 227.391 55.0735 227.905 54.1788C228.418 53.2842 229.122 52.5875 230.017 52.0888C230.926 51.5902 231.945 51.3408 233.075 51.3408C234.057 51.3408 234.937 51.5608 235.715 52.0008C236.492 52.4262 237.108 53.0788 237.563 53.9588C238.017 54.8388 238.245 55.9682 238.245 57.3468C238.245 58.7108 238.025 59.8402 237.585 60.7348C237.145 61.6148 236.536 62.2748 235.759 62.7148C234.981 63.1548 234.087 63.3748 233.075 63.3748ZM233.405 61.0208C234.065 61.0208 234.651 60.8742 235.165 60.5808C235.693 60.2875 236.111 59.8622 236.419 59.3048C236.741 58.7475 236.903 58.0948 236.903 57.3468C236.903 56.5842 236.741 55.9315 236.419 55.3888C236.111 54.8315 235.693 54.4062 235.165 54.1128C234.651 53.8195 234.065 53.6728 233.405 53.6728C232.745 53.6728 232.151 53.8195 231.623 54.1128C231.109 54.4062 230.691 54.8315 230.369 55.3888C230.061 55.9315 229.907 56.5842 229.907 57.3468C229.907 58.0948 230.061 58.7475 230.369 59.3048C230.691 59.8622 231.109 60.2875 231.623 60.5808C232.151 60.8742 232.745 61.0208 233.405 61.0208ZM236.969 63.2208V60.4488L237.079 57.3248L236.859 54.2008V46.8968H239.587V63.2208H236.969Z" fill="#FFF616"/>
<circle cx="314.414" cy="151.723" r="12.7959" fill="#FFF616"/>
<circle cx="314.414" cy="352.802" r="12.7959" fill="#333202"/>
<circle cx="314.414" cy="539.257" r="12.7959" fill="#333202"/>
<circle cx="314.414" cy="705.604" r="12.7959" fill="#333202"/>
<path d="M314.413 151.723L314.413 210.219" stroke="#FFF616" stroke-width="1.82799"/>
</svg>
