<svg width="427" height="638" viewBox="0 0 427 638" fill="none" xmlns="http://www.w3.org/2000/svg">
<g clip-path="url(#clip0_380_32855)">
<rect x="0.412598" y="0.661133" width="426.375" height="636.745" rx="22.5396" fill="#121212"/>
<rect x="0.412598" y="0.661133" width="426.375" height="636.745" rx="22.5396" fill="url(#paint0_linear_380_32855)"/>
<g opacity="0.2">
<path d="M264.929 326.885L150.169 393.647L34.8159 326.885L149.576 260.122L264.929 326.885Z" fill="black"/>
</g>
<path d="M264.728 301.217L264.531 313.266L149.771 379.831V367.782L264.728 301.217Z" fill="#333333"/>
<path d="M149.776 367.78V379.829L34.2253 313.264L34.4229 301.215L149.776 367.78Z" fill="#666666"/>
<path d="M264.732 301.207L149.775 367.772L34.4219 301.207L149.182 234.445L264.732 301.207Z" fill="#4D4D4D"/>
<path d="M245.104 502.337L245.48 515.075L276.757 533.603V521.251L245.104 502.337Z" fill="#CCAB00"/>
<path d="M276.758 521.258V533.61L389.054 467.604L388.677 454.866L276.758 521.258Z" fill="#E6C100"/>
<path d="M245.104 502.332L276.757 521.246L388.676 454.854L357.399 436.326L245.104 502.332Z" fill="#FFE766"/>
<g opacity="0.2">
<path d="M158.228 407.134L174.82 416.812L233.484 382.839L216.892 373.16L158.228 407.134Z" fill="black"/>
<path d="M175.418 432.225L192.01 441.904L250.674 407.93L234.082 398.449L175.418 432.225Z" fill="black"/>
</g>
<path d="M150.678 388.133L151.057 400.922L182.482 419.524V407.123L150.678 388.133Z" fill="#666666"/>
<path d="M151.323 400.765L150.964 388.619L182.211 407.276V419.049L151.323 400.765Z" stroke="white" stroke-opacity="0.6" stroke-width="0.541663"/>
<path d="M182.48 407.118V419.519L295.307 353.249L294.929 340.46L182.48 407.118Z" fill="#333333"/>
<path d="M294.672 340.927L295.032 353.097L182.751 419.046V407.272L294.672 340.927Z" stroke="white" stroke-opacity="0.6" stroke-width="0.541663"/>
<path d="M150.678 388.122L182.482 407.111L294.93 340.454L263.505 321.851L150.678 388.122Z" fill="#4D4D4D"/>
<path d="M294.399 340.454L182.482 406.796L151.21 388.124L263.505 322.166L294.399 340.454Z" stroke="white" stroke-opacity="0.6" stroke-width="0.541663"/>
<path d="M181.555 425.964L181.932 438.702L213.209 457.23V444.878L181.555 425.964Z" fill="#CCAB00"/>
<path d="M213.209 444.884V457.236L325.505 391.23L325.128 378.492L213.209 444.884Z" fill="#E6C100"/>
<path d="M181.555 425.959L213.209 444.873L325.128 378.481L293.851 359.953L181.555 425.959Z" fill="#FFE766"/>
<path d="M212.969 464.049L213.346 476.787L244.623 495.315V482.963L212.969 464.049Z" fill="#CCAB00"/>
<path d="M244.624 482.97V495.322L356.92 429.316L356.543 416.578L244.624 482.97Z" fill="#E6C100"/>
<path d="M212.969 464.044L244.623 482.958L356.541 416.566L325.264 398.038L212.969 464.044Z" fill="#FFE766"/>
<g filter="url(#filter0_f_380_32855)">
<path opacity="0.6" d="M234.906 540.193L225.693 545.519L221.375 542.928L230.444 537.602L234.906 540.193Z" fill="#08C9AA"/>
<path opacity="0.8" d="M228.141 536.308L218.928 541.49L214.034 538.755L223.102 533.429L228.141 536.308Z" fill="#08C9AA"/>
<path opacity="0.3" d="M248.576 548.114L239.364 553.44L235.909 551.425L245.122 546.099L248.576 548.114Z" fill="#08C9AA"/>
<path opacity="0.15" d="M253.187 550.848L243.974 556.03L242.247 555.166L251.459 549.984L253.187 550.848Z" fill="#08C9AA"/>
<path opacity="0.5" d="M241.673 544.225L232.604 549.407L228.574 547.104L237.786 541.922L241.673 544.225Z" fill="#08C9AA"/>
<path d="M228.715 527.383L203.956 541.778L199.205 524.792L228.715 527.383Z" fill="#08C9AA"/>
</g>
<path opacity="0.6" d="M234.906 540.193L225.693 545.519L221.375 542.928L230.444 537.602L234.906 540.193Z" fill="#08C9AA"/>
<path opacity="0.8" d="M228.141 536.308L218.928 541.49L214.034 538.755L223.102 533.429L228.141 536.308Z" fill="#08C9AA"/>
<path opacity="0.3" d="M248.576 548.114L239.364 553.44L235.909 551.425L245.122 546.099L248.576 548.114Z" fill="#08C9AA"/>
<path opacity="0.15" d="M253.187 550.848L243.974 556.03L242.247 555.166L251.459 549.984L253.187 550.848Z" fill="#08C9AA"/>
<path opacity="0.5" d="M241.673 544.225L232.604 549.407L228.574 547.104L237.786 541.922L241.673 544.225Z" fill="#08C9AA"/>
<path d="M228.715 527.383L203.956 541.778L199.205 524.792L228.715 527.383Z" fill="#08C9AA"/>
<g filter="url(#filter1_f_380_32855)">
<path opacity="0.6" d="M57.3928 243.22L66.6055 248.547L70.924 245.955L61.8552 240.629L57.3928 243.22Z" fill="#4D4D4D"/>
<path opacity="0.8" d="M64.1582 239.336L73.3709 244.518L78.2651 241.783L69.1964 236.457L64.1582 239.336Z" fill="#4D4D4D"/>
<path opacity="0.3" d="M43.7227 251.142L52.9353 256.468L56.3901 254.453L47.1774 249.126L43.7227 251.142Z" fill="#4D4D4D"/>
<path opacity="0.15" d="M39.1123 253.876L48.325 259.058L50.0524 258.195L40.8397 253.013L39.1123 253.876Z" fill="#4D4D4D"/>
<path opacity="0.5" d="M50.6257 247.252L59.6945 252.435L63.725 250.131L54.5123 244.949L50.6257 247.252Z" fill="#4D4D4D"/>
<path d="M63.584 230.412L88.3431 244.807L93.0934 227.821L63.584 230.412Z" fill="#4D4D4D"/>
</g>
<path opacity="0.6" d="M57.3928 243.22L66.6055 248.547L70.924 245.955L61.8552 240.629L57.3928 243.22Z" fill="#4D4D4D"/>
<path opacity="0.8" d="M64.1582 239.336L73.3709 244.518L78.2651 241.783L69.1964 236.457L64.1582 239.336Z" fill="#4D4D4D"/>
<path opacity="0.3" d="M43.7227 251.142L52.9353 256.468L56.3901 254.453L47.1774 249.126L43.7227 251.142Z" fill="#4D4D4D"/>
<path opacity="0.15" d="M39.1123 253.876L48.325 259.058L50.0524 258.195L40.8397 253.013L39.1123 253.876Z" fill="#4D4D4D"/>
<path opacity="0.5" d="M50.6257 247.252L59.6945 252.435L63.725 250.131L54.5123 244.949L50.6257 247.252Z" fill="#4D4D4D"/>
<path d="M63.584 230.412L88.3431 244.807L93.0934 227.821L63.584 230.412Z" fill="#4D4D4D"/>
<path d="M294.086 263.066L293.709 275.804L262.432 294.332V281.98L294.086 263.066Z" fill="#333333"/>
<path d="M262.433 281.982V294.334L150.137 228.328L150.514 215.59L262.433 281.982Z" fill="#666666"/>
<path d="M294.086 263.062L262.432 281.976L150.514 215.584L181.791 197.056L294.086 263.062Z" fill="#4D4D4D"/>
<path d="M326.591 225.15L326.214 237.888L294.937 256.416V244.064L326.591 225.15Z" fill="#333333"/>
<path d="M294.936 244.066V256.418L182.64 190.412L183.017 177.674L294.936 244.066Z" fill="#666666"/>
<path d="M326.59 225.146L294.937 244.06L183.018 177.668L214.295 159.14L326.59 225.146Z" fill="#4D4D4D"/>
<path d="M359.082 187.234L358.705 199.972L327.428 218.5V206.148L359.082 187.234Z" fill="#333333"/>
<path d="M327.434 206.149V218.501L215.138 152.495L215.515 139.757L327.434 206.149Z" fill="#666666"/>
<path d="M359.082 187.229L327.428 206.143L215.51 139.751L246.787 121.223L359.082 187.229Z" fill="#4D4D4D"/>
<path d="M391.592 149.318L391.215 162.056L359.938 180.584V168.232L391.592 149.318Z" fill="#333333"/>
<path d="M359.936 168.233V180.585L247.64 114.579L248.017 101.841L359.936 168.233Z" fill="#666666"/>
<path d="M391.592 149.313L359.938 168.227L248.019 101.835L279.296 83.3066L391.592 149.313Z" fill="#4D4D4D"/>
<path opacity="0.1" d="M321.486 0.661133L279.299 83.2991L391.571 149.311L426.789 100.591V0.661133H321.486Z" fill="url(#paint1_linear_380_32855)"/>
</g>
<rect x="1.35175" y="1.60028" width="424.497" height="634.867" rx="21.6005" stroke="#424242" stroke-width="1.8783"/>
<defs>
<filter id="filter0_f_380_32855" x="194.317" y="519.903" width="63.758" height="41.0149" filterUnits="userSpaceOnUse" color-interpolation-filters="sRGB">
<feFlood flood-opacity="0" result="BackgroundImageFix"/>
<feBlend mode="normal" in="SourceGraphic" in2="BackgroundImageFix" result="shape"/>
<feGaussianBlur stdDeviation="2.44421" result="effect1_foregroundBlur_380_32855"/>
</filter>
<filter id="filter1_f_380_32855" x="34.2239" y="222.932" width="63.7578" height="41.0146" filterUnits="userSpaceOnUse" color-interpolation-filters="sRGB">
<feFlood flood-opacity="0" result="BackgroundImageFix"/>
<feBlend mode="normal" in="SourceGraphic" in2="BackgroundImageFix" result="shape"/>
<feGaussianBlur stdDeviation="2.44421" result="effect1_foregroundBlur_380_32855"/>
</filter>
<linearGradient id="paint0_linear_380_32855" x1="0.412598" y1="0.661133" x2="227.239" y2="654.487" gradientUnits="userSpaceOnUse">
<stop stop-color="#121212" stop-opacity="0.13"/>
<stop offset="1" stop-color="#121212"/>
</linearGradient>
<linearGradient id="paint1_linear_380_32855" x1="338.883" y1="116.617" x2="418.11" y2="-6.69333" gradientUnits="userSpaceOnUse">
<stop stop-color="#4E4E4D"/>
<stop offset="1" stop-color="#4E4E4E"/>
</linearGradient>
<clipPath id="clip0_380_32855">
<rect x="0.412598" y="0.661133" width="426.375" height="636.745" rx="22.5396" fill="white"/>
</clipPath>
</defs>
</svg>
