<svg width="24" height="24" viewBox="0 0 24 24" fill="none" xmlns="http://www.w3.org/2000/svg">
<g clip-path="url(#clip0_510_72203)">
<path fill-rule="evenodd" clip-rule="evenodd" d="M24 3C24 1.34423 22.6558 0 21 0H3C1.34423 0 0 1.34423 0 3V21C0 22.6558 1.34423 24 3 24H21C22.6558 24 24 22.6558 24 21V3Z" fill="#2867B2"/>
<path d="M6.8823 8.375H2.8623V20.467H6.8823V8.375Z" fill="white"/>
<path d="M4.899 2.54443C3.52364 2.54443 2.625 3.44865 2.625 4.63379C2.625 5.79404 3.49631 6.7232 4.8458 6.7232H4.87177C6.27347 6.7232 7.14595 5.79404 7.14595 4.63379C7.11994 3.44865 6.27356 2.54443 4.899 2.54443Z" fill="white"/>
<path d="M16.7477 8.09082C14.6154 8.09082 13.6603 9.26349 13.1254 10.0872V8.37516H9.10645C9.15974 9.5094 9.10645 20.4671 9.10645 20.4671H13.1254V13.7141C13.1254 13.3526 13.1513 12.9913 13.2579 12.7329C13.5479 12.0111 14.2097 11.2633 15.3201 11.2633C16.7737 11.2633 17.3561 12.3726 17.3561 13.9974V20.4671H21.3752V13.5329C21.3752 9.81863 19.3922 8.09082 16.7477 8.09082Z" fill="white"/>
</g>
<defs>
<clipPath id="clip0_510_72203">
<rect width="24" height="24" fill="white"/>
</clipPath>
</defs>
</svg>
