<svg width="184" height="49" viewBox="0 0 184 49" fill="none" xmlns="http://www.w3.org/2000/svg">
<mask id="mask0_408_155" style="mask-type:luminance" maskUnits="userSpaceOnUse" x="-1" y="0" width="185" height="49">
<path d="M184 0.997803H-0.000366211V48.9978H184V0.997803Z" fill="white"/>
</mask>
<g mask="url(#mask0_408_155)">
<path d="M60.9959 13.22C54.7753 13.1408 51.7356 16.3044 51.691 20.1562C51.5885 28.5706 64.3455 25.8295 64.2951 30.0621C64.2779 31.4519 63.0449 32.4731 60.0457 32.4343C57.4185 32.4014 54.6802 31.3892 52.8532 29.9799L51.0868 33.9063C53.0061 35.4814 56.4942 36.5938 59.9634 36.64C66.2143 36.722 69.2858 33.5256 69.3363 29.7366C69.4342 21.4207 56.6801 24.1365 56.7292 19.9622C56.7465 18.5379 57.9174 17.3883 60.9181 17.4241C62.8547 17.4495 64.9425 18.0586 66.9599 19.2828L68.5677 15.3295C66.5533 13.9724 63.7472 13.2558 60.9959 13.22Z" fill="#FBFFFF"/>
<path d="M78.0483 19.4607L78.0988 15.2207L73.2234 15.158L73.1714 19.398L70.576 19.3651L70.5299 23.2468L73.1253 23.2796L73.0389 30.4308C72.9912 34.5738 75.2768 36.7087 79.248 36.7581C80.7476 36.7789 82.2213 36.44 83.2306 35.713L81.9603 32.1299C81.3835 32.5529 80.69 32.772 79.9834 32.7539C78.6711 32.736 77.8997 31.9179 77.9155 30.4279L78.0022 23.3408L82.1839 23.3947L82.23 19.5129L78.0483 19.4607Z" fill="#FBFFFF"/>
<path d="M93.6541 19.0144C88.3102 18.9457 84.3579 22.6184 84.2959 27.8617C84.2339 33.1049 88.094 36.8746 93.4394 36.9432C98.7846 37.012 102.704 33.3422 102.766 28.0989C102.828 22.8557 98.9995 19.086 93.6541 19.0144ZM97.8358 28.0348C97.8014 31.0431 95.9354 32.8331 93.497 32.8002C91.0587 32.7674 89.2044 30.9341 89.2404 27.9242C89.2763 24.9144 91.1755 23.126 93.6138 23.1588C96.0521 23.1917 97.8646 25.025 97.8287 28.0348H97.8358Z" fill="#FBFFFF"/>
<path d="M114.249 19.28C108.778 19.2113 104.827 22.8795 104.764 28.1214C104.7 33.3631 108.563 37.1372 114.034 37.2074C117.567 37.2523 120.366 35.6712 121.619 32.9033L117.863 30.719C116.937 32.391 115.583 33.0838 114.052 33.0644C111.581 33.0331 109.665 31.2282 109.704 28.1855C109.743 25.1428 111.698 23.3902 114.174 23.4214C115.706 23.4409 117.041 24.2007 117.923 25.864L121.73 23.8095C120.545 20.946 117.78 19.3233 114.249 19.28Z" fill="#FBFFFF"/>
<path d="M132.779 31.9195L136.793 37.2106L142.705 37.2866L136.297 28.6365L132.779 31.9195Z" fill="#FBFFFF"/>
<path d="M154.972 14.8199L145.502 14.699L145.23 37.3501L150.293 37.4158L150.368 31.1707L154.775 31.2259C160.619 31.3021 164.315 28.2103 164.376 23.1641C164.436 18.082 160.818 14.896 154.972 14.8199ZM159.251 23.0939C159.22 25.5528 157.64 26.9889 154.546 26.9487L150.42 26.8964L150.514 19.0315L154.641 19.0853C157.735 19.1286 159.28 20.6051 159.251 23.0939Z" fill="#FBFFFF"/>
<path d="M175.355 20.069C170.229 20.0018 166.338 23.7043 166.27 28.9163C166.207 34.0953 169.943 37.9292 175.759 38.0054C178.787 38.0427 181.146 37.1095 182.732 35.2778L180.173 32.3336C179.002 33.4505 177.721 33.9833 175.932 33.9594C173.369 33.9281 171.606 32.5785 171.16 30.4033L183.881 30.5675C183.917 30.148 183.988 29.5986 183.992 29.209C184.066 23.6118 180.292 20.1317 175.355 20.069ZM179.423 27.5651L171.14 27.4577C171.509 25.2287 173.12 23.8567 175.339 23.8851C177.526 23.9148 179.104 25.36 179.423 27.5651Z" fill="#FBFFFF"/>
<path d="M141.545 18.519L141.248 19.8806L141.217 20.0149L140.975 21.1212L140.896 21.4945V21.496L140.116 25.0626L138.819 23.4353L131.542 30.2431L131.088 30.6671L124.263 37.0496L124.551 13.0369L129.426 13.1011L129.263 26.6929L136.299 20.2688L136.206 20.1523L135.069 18.7206L141.545 18.519Z" fill="#FBFFFF"/>
<path d="M16.2722 25.118L19.8858 27.2857L1.8093 38.0455L-0.000366211 36.9602L0.0414506 12.9594L20.1381 0.997803L31.6073 7.88182L13.5656 18.6206L9.48774 21.0496L16.2722 25.118Z" fill="#FFF616"/>
<path d="M40.1917 13.0353L40.1484 37.0359L20.0519 48.9977L8.61567 42.1315L8.58972 42.1166L26.669 31.3552L30.7469 28.9278L23.9639 24.8579L20.3504 22.6902L38.3892 11.9529L38.6446 12.1067L40.1917 13.0353Z" fill="#FFF616"/>
</g>
</svg>
