<svg width="343" height="787" viewBox="0 0 343 787" fill="none" xmlns="http://www.w3.org/2000/svg">
<path d="M172 83.9126L172 679.913" stroke="#545326"/>
<path opacity="0.8" d="M286.5 279.577C286.5 300.287 269.711 317.077 249 317.077C228.289 317.077 211.5 300.287 211.5 279.577C211.5 258.866 228.289 242.077 249 242.077C269.711 242.077 286.5 258.866 286.5 279.577Z" stroke="#2C2C2C" stroke-width="7"/>
<ellipse cx="249" cy="281.577" rx="27" ry="22" fill="#2C2C2C"/>
<ellipse cx="249" cy="276.577" rx="27" ry="21" fill="#343434"/>
<path opacity="0.8" d="M230.859 288.242C226.164 280.119 222.574 262.959 245.766 259.303L230.859 288.242Z" fill="#2C2C2C"/>
<rect opacity="0.8" x="257.887" y="262.776" width="10.2044" height="32.303" transform="rotate(27.8158 257.887 262.776)" fill="#2C2C2C"/>
<path opacity="0.4" d="M243.88 283.577V281.837L249.44 276.557C249.906 276.117 250.253 275.73 250.48 275.397C250.706 275.063 250.853 274.757 250.92 274.477C251 274.183 251.04 273.91 251.04 273.657C251.04 273.017 250.82 272.523 250.38 272.177C249.94 271.817 249.293 271.637 248.44 271.637C247.76 271.637 247.14 271.757 246.58 271.997C246.033 272.237 245.56 272.603 245.16 273.097L243.34 271.697C243.886 270.963 244.62 270.397 245.54 269.997C246.473 269.583 247.513 269.377 248.66 269.377C249.673 269.377 250.553 269.543 251.3 269.877C252.06 270.197 252.64 270.657 253.04 271.257C253.453 271.857 253.66 272.57 253.66 273.397C253.66 273.85 253.6 274.303 253.48 274.757C253.36 275.197 253.133 275.663 252.8 276.157C252.466 276.65 251.98 277.203 251.34 277.817L246.56 282.357L246.02 281.377H254.2V283.577H243.88Z" fill="#FFF616"/>
<g opacity="0.4">
<path d="M327 193.077H194C193.172 193.077 192.5 193.748 192.5 194.577V220.224C192.5 221.052 193.172 221.724 194 221.724H241.25C242.127 221.724 242.94 222.183 243.392 222.935L248.494 231.415C249.082 232.394 250.505 232.382 251.077 231.394L255.954 222.971C256.401 222.199 257.226 221.724 258.118 221.724H327C327.828 221.724 328.5 221.052 328.5 220.224V194.577C328.5 193.748 327.828 193.077 327 193.077Z" stroke="#FBFFFF"/>
<path d="M220.684 211.271C220.068 211.271 219.524 211.167 219.052 210.959C218.58 210.743 218.208 210.439 217.936 210.047C217.664 209.647 217.524 209.163 217.516 208.595H219.136C219.152 208.987 219.292 209.319 219.556 209.591C219.828 209.855 220.2 209.987 220.672 209.987C221.08 209.987 221.404 209.891 221.644 209.699C221.884 209.499 222.004 209.235 222.004 208.907C222.004 208.563 221.896 208.295 221.68 208.103C221.472 207.911 221.192 207.755 220.84 207.635C220.488 207.515 220.112 207.387 219.712 207.251C219.064 207.027 218.568 206.739 218.224 206.387C217.888 206.035 217.72 205.567 217.72 204.983C217.712 204.487 217.828 204.063 218.068 203.711C218.316 203.351 218.652 203.075 219.076 202.883C219.5 202.683 219.988 202.583 220.54 202.583C221.1 202.583 221.592 202.683 222.016 202.883C222.448 203.083 222.784 203.363 223.024 203.723C223.272 204.083 223.404 204.511 223.42 205.007H221.776C221.768 204.711 221.652 204.451 221.428 204.227C221.212 203.995 220.908 203.879 220.516 203.879C220.18 203.871 219.896 203.955 219.664 204.131C219.44 204.299 219.328 204.547 219.328 204.875C219.328 205.155 219.416 205.379 219.592 205.547C219.768 205.707 220.008 205.843 220.312 205.955C220.616 206.067 220.964 206.187 221.356 206.315C221.772 206.459 222.152 206.627 222.496 206.819C222.84 207.011 223.116 207.267 223.324 207.587C223.532 207.899 223.636 208.303 223.636 208.799C223.636 209.239 223.524 209.647 223.3 210.023C223.076 210.399 222.744 210.703 222.304 210.935C221.864 211.159 221.324 211.271 220.684 211.271ZM227.592 211.127C226.968 211.127 226.468 210.975 226.092 210.671C225.716 210.367 225.528 209.827 225.528 209.051V206.459H224.508V205.175H225.528L225.708 203.579H227.064V205.175H228.672V206.459H227.064V209.063C227.064 209.351 227.124 209.551 227.244 209.663C227.372 209.767 227.588 209.819 227.892 209.819H228.636V211.127H227.592ZM232.043 211.271C231.531 211.271 231.111 211.191 230.783 211.031C230.455 210.863 230.211 210.643 230.051 210.371C229.891 210.099 229.811 209.799 229.811 209.471C229.811 208.919 230.027 208.471 230.459 208.127C230.891 207.783 231.539 207.611 232.403 207.611H233.915V207.467C233.915 207.059 233.799 206.759 233.567 206.567C233.335 206.375 233.047 206.279 232.703 206.279C232.391 206.279 232.119 206.355 231.887 206.507C231.655 206.651 231.511 206.867 231.455 207.155H229.955C229.995 206.723 230.139 206.347 230.387 206.027C230.643 205.707 230.971 205.463 231.371 205.295C231.771 205.119 232.219 205.031 232.715 205.031C233.563 205.031 234.231 205.243 234.719 205.667C235.207 206.091 235.451 206.691 235.451 207.467V211.127H234.143L233.999 210.167C233.823 210.487 233.575 210.751 233.255 210.959C232.943 211.167 232.539 211.271 232.043 211.271ZM232.391 210.071C232.831 210.071 233.171 209.927 233.411 209.639C233.659 209.351 233.815 208.995 233.879 208.571H232.571C232.163 208.571 231.871 208.647 231.695 208.799C231.519 208.943 231.431 209.123 231.431 209.339C231.431 209.571 231.519 209.751 231.695 209.879C231.871 210.007 232.103 210.071 232.391 210.071ZM236.917 211.127V205.175H238.285L238.429 206.291C238.645 205.907 238.937 205.603 239.305 205.379C239.681 205.147 240.121 205.031 240.625 205.031V206.651H240.193C239.857 206.651 239.557 206.703 239.293 206.807C239.029 206.911 238.821 207.091 238.669 207.347C238.525 207.603 238.453 207.959 238.453 208.415V211.127H236.917ZM244.327 211.127C243.703 211.127 243.203 210.975 242.827 210.671C242.451 210.367 242.263 209.827 242.263 209.051V206.459H241.243V205.175H242.263L242.443 203.579H243.799V205.175H245.407V206.459H243.799V209.063C243.799 209.351 243.859 209.551 243.979 209.663C244.107 209.767 244.323 209.819 244.627 209.819H245.371V211.127H244.327ZM249.621 211.127V202.727H251.157V209.927H254.877V211.127H249.621ZM258.817 211.271C258.217 211.271 257.685 211.143 257.221 210.887C256.757 210.631 256.393 210.271 256.129 209.807C255.865 209.343 255.733 208.807 255.733 208.199C255.733 207.583 255.861 207.035 256.117 206.555C256.381 206.075 256.741 205.703 257.197 205.439C257.661 205.167 258.205 205.031 258.829 205.031C259.413 205.031 259.929 205.159 260.377 205.415C260.825 205.671 261.173 206.023 261.421 206.471C261.677 206.911 261.805 207.403 261.805 207.947C261.805 208.035 261.801 208.127 261.793 208.223C261.793 208.319 261.789 208.419 261.781 208.523H257.257C257.289 208.987 257.449 209.351 257.737 209.615C258.033 209.879 258.389 210.011 258.805 210.011C259.117 210.011 259.377 209.943 259.585 209.807C259.801 209.663 259.961 209.479 260.065 209.255H261.625C261.513 209.631 261.325 209.975 261.061 210.287C260.805 210.591 260.485 210.831 260.101 211.007C259.725 211.183 259.297 211.271 258.817 211.271ZM258.829 206.279C258.453 206.279 258.121 206.387 257.833 206.603C257.545 206.811 257.361 207.131 257.281 207.563H260.245C260.221 207.171 260.077 206.859 259.813 206.627C259.549 206.395 259.221 206.279 258.829 206.279ZM265.148 211.271C264.636 211.271 264.216 211.191 263.888 211.031C263.56 210.863 263.316 210.643 263.156 210.371C262.996 210.099 262.916 209.799 262.916 209.471C262.916 208.919 263.132 208.471 263.564 208.127C263.996 207.783 264.644 207.611 265.508 207.611H267.02V207.467C267.02 207.059 266.904 206.759 266.672 206.567C266.44 206.375 266.152 206.279 265.808 206.279C265.496 206.279 265.224 206.355 264.992 206.507C264.76 206.651 264.616 206.867 264.56 207.155H263.06C263.1 206.723 263.244 206.347 263.492 206.027C263.748 205.707 264.076 205.463 264.476 205.295C264.876 205.119 265.324 205.031 265.82 205.031C266.668 205.031 267.336 205.243 267.824 205.667C268.312 206.091 268.556 206.691 268.556 207.467V211.127H267.248L267.104 210.167C266.928 210.487 266.68 210.751 266.36 210.959C266.048 211.167 265.644 211.271 265.148 211.271ZM265.496 210.071C265.936 210.071 266.276 209.927 266.516 209.639C266.764 209.351 266.92 208.995 266.984 208.571H265.676C265.268 208.571 264.976 208.647 264.8 208.799C264.624 208.943 264.536 209.123 264.536 209.339C264.536 209.571 264.624 209.751 264.8 209.879C264.976 210.007 265.208 210.071 265.496 210.071ZM270.022 211.127V205.175H271.39L271.534 206.291C271.75 205.907 272.042 205.603 272.41 205.379C272.786 205.147 273.226 205.031 273.73 205.031V206.651H273.298C272.962 206.651 272.662 206.703 272.398 206.807C272.134 206.911 271.926 207.091 271.774 207.347C271.63 207.603 271.558 207.959 271.558 208.415V211.127H270.022ZM274.78 211.127V205.175H276.136L276.256 206.183C276.44 205.831 276.704 205.551 277.048 205.343C277.4 205.135 277.812 205.031 278.284 205.031C279.02 205.031 279.592 205.263 280 205.727C280.408 206.191 280.612 206.871 280.612 207.767V211.127H279.076V207.911C279.076 207.399 278.972 207.007 278.764 206.735C278.556 206.463 278.232 206.327 277.792 206.327C277.36 206.327 277.004 206.479 276.724 206.783C276.452 207.087 276.316 207.511 276.316 208.055V211.127H274.78ZM282.909 204.251C282.629 204.251 282.397 204.167 282.213 203.999C282.037 203.831 281.949 203.619 281.949 203.363C281.949 203.107 282.037 202.899 282.213 202.739C282.397 202.571 282.629 202.487 282.909 202.487C283.189 202.487 283.417 202.571 283.593 202.739C283.777 202.899 283.869 203.107 283.869 203.363C283.869 203.619 283.777 203.831 283.593 203.999C283.417 204.167 283.189 204.251 282.909 204.251ZM282.141 211.127V205.175H283.677V211.127H282.141ZM285.28 211.127V205.175H286.636L286.756 206.183C286.94 205.831 287.204 205.551 287.548 205.343C287.9 205.135 288.312 205.031 288.784 205.031C289.52 205.031 290.092 205.263 290.5 205.727C290.908 206.191 291.112 206.871 291.112 207.767V211.127H289.576V207.911C289.576 207.399 289.472 207.007 289.264 206.735C289.056 206.463 288.732 206.327 288.292 206.327C287.86 206.327 287.504 206.479 287.224 206.783C286.952 207.087 286.816 207.511 286.816 208.055V211.127H285.28ZM295.101 209.351C294.813 209.351 294.545 209.319 294.297 209.255L293.853 209.699C293.989 209.771 294.173 209.831 294.405 209.879C294.637 209.927 295.013 209.975 295.533 210.023C296.325 210.095 296.901 210.283 297.261 210.587C297.621 210.891 297.801 211.311 297.801 211.847C297.801 212.199 297.705 212.531 297.513 212.843C297.321 213.163 297.025 213.419 296.625 213.611C296.225 213.811 295.713 213.911 295.089 213.911C294.241 213.911 293.557 213.751 293.037 213.431C292.517 213.119 292.257 212.647 292.257 212.015C292.257 211.479 292.517 211.015 293.037 210.623C292.877 210.551 292.737 210.475 292.617 210.395C292.505 210.315 292.405 210.231 292.317 210.143V209.867L293.361 208.763C292.897 208.355 292.665 207.831 292.665 207.191C292.665 206.791 292.761 206.427 292.953 206.099C293.153 205.771 293.433 205.511 293.793 205.319C294.153 205.127 294.589 205.031 295.101 205.031C295.437 205.031 295.749 205.079 296.037 205.175H298.293V206.111L297.273 206.183C297.433 206.487 297.513 206.823 297.513 207.191C297.513 207.591 297.417 207.955 297.225 208.283C297.033 208.611 296.753 208.871 296.385 209.063C296.025 209.255 295.597 209.351 295.101 209.351ZM295.101 208.175C295.413 208.175 295.669 208.091 295.869 207.923C296.077 207.755 296.181 207.515 296.181 207.203C296.181 206.891 296.077 206.651 295.869 206.483C295.669 206.315 295.413 206.231 295.101 206.231C294.773 206.231 294.509 206.315 294.309 206.483C294.109 206.651 294.009 206.891 294.009 207.203C294.009 207.515 294.109 207.755 294.309 207.923C294.509 208.091 294.773 208.175 295.101 208.175ZM293.661 211.859C293.661 212.155 293.797 212.375 294.069 212.519C294.349 212.671 294.689 212.747 295.089 212.747C295.473 212.747 295.785 212.667 296.025 212.507C296.265 212.355 296.385 212.147 296.385 211.883C296.385 211.667 296.305 211.487 296.145 211.343C295.993 211.199 295.685 211.111 295.221 211.079C294.893 211.055 294.589 211.019 294.309 210.971C294.077 211.099 293.909 211.239 293.805 211.391C293.709 211.543 293.661 211.699 293.661 211.859Z" fill="#FBFFFF"/>
</g>
<ellipse cx="240" cy="684.576" rx="27" ry="22" fill="#2C2C2C"/>
<ellipse cx="240" cy="679.576" rx="27" ry="21" fill="#343434"/>
<path opacity="0.8" d="M221.859 691.241C217.164 683.118 213.574 665.958 236.766 662.302L221.859 691.241Z" fill="#2C2C2C"/>
<rect opacity="0.8" x="248.887" y="665.775" width="10.2044" height="32.303" transform="rotate(27.8158 248.887 665.775)" fill="#2C2C2C"/>
<path opacity="0.4" d="M233.893 683.396V681.596L240.793 672.576H243.573L236.773 681.596L235.473 681.196H246.573V683.396H233.893ZM241.573 686.576V683.396L241.653 681.196V678.376H244.093V686.576H241.573Z" fill="#FFF616"/>
<g opacity="0.4">
<path d="M341 583.051H189C188.172 583.051 187.5 583.723 187.5 584.551V631.375C187.5 632.203 188.172 632.875 189 632.875H243.013C244.036 632.875 244.955 633.498 245.335 634.447L251.401 649.629C251.907 650.896 253.705 650.884 254.194 649.611L260.014 634.477C260.386 633.512 261.313 632.875 262.348 632.875H341C341.828 632.875 342.5 632.203 342.5 631.375V584.551C342.5 583.723 341.828 583.051 341 583.051Z" stroke="#FAFAFA"/>
<path d="M204.47 603.651V595.251H206.006V603.651H204.47ZM207.598 603.651V597.699H208.954L209.074 598.707C209.258 598.355 209.522 598.075 209.866 597.867C210.218 597.659 210.63 597.555 211.102 597.555C211.838 597.555 212.41 597.787 212.818 598.251C213.226 598.715 213.43 599.395 213.43 600.291V603.651H211.894V600.435C211.894 599.923 211.79 599.531 211.582 599.259C211.374 598.987 211.05 598.851 210.61 598.851C210.178 598.851 209.822 599.003 209.542 599.307C209.27 599.611 209.134 600.035 209.134 600.579V603.651H207.598ZM216.449 603.651L214.265 597.699H215.873L217.385 602.199L218.897 597.699H220.505L218.309 603.651H216.449ZM224.072 603.795C223.472 603.795 222.94 603.667 222.476 603.411C222.012 603.155 221.648 602.795 221.384 602.331C221.12 601.867 220.988 601.331 220.988 600.723C220.988 600.107 221.116 599.559 221.372 599.079C221.636 598.599 221.996 598.227 222.452 597.963C222.916 597.691 223.46 597.555 224.084 597.555C224.668 597.555 225.184 597.683 225.632 597.939C226.08 598.195 226.428 598.547 226.676 598.995C226.932 599.435 227.06 599.927 227.06 600.471C227.06 600.559 227.056 600.651 227.048 600.747C227.048 600.843 227.044 600.943 227.036 601.047H222.512C222.544 601.511 222.704 601.875 222.992 602.139C223.288 602.403 223.644 602.535 224.06 602.535C224.372 602.535 224.632 602.467 224.84 602.331C225.056 602.187 225.216 602.003 225.32 601.779H226.88C226.768 602.155 226.58 602.499 226.316 602.811C226.06 603.115 225.74 603.355 225.356 603.531C224.98 603.707 224.552 603.795 224.072 603.795ZM224.084 598.803C223.708 598.803 223.376 598.911 223.088 599.127C222.8 599.335 222.616 599.655 222.536 600.087H225.5C225.476 599.695 225.332 599.383 225.068 599.151C224.804 598.919 224.476 598.803 224.084 598.803ZM230.812 603.795C230.284 603.795 229.82 603.711 229.42 603.543C229.02 603.367 228.7 603.127 228.46 602.823C228.22 602.519 228.076 602.167 228.028 601.767H229.576C229.624 601.999 229.752 602.199 229.96 602.367C230.176 602.527 230.452 602.607 230.788 602.607C231.124 602.607 231.368 602.539 231.52 602.403C231.68 602.267 231.76 602.111 231.76 601.935C231.76 601.679 231.648 601.507 231.424 601.419C231.2 601.323 230.888 601.231 230.488 601.143C230.232 601.087 229.972 601.019 229.708 600.939C229.444 600.859 229.2 600.759 228.976 600.639C228.76 600.511 228.584 600.351 228.448 600.159C228.312 599.959 228.244 599.715 228.244 599.427C228.244 598.899 228.452 598.455 228.868 598.095C229.292 597.735 229.884 597.555 230.644 597.555C231.348 597.555 231.908 597.719 232.324 598.047C232.748 598.375 233 598.827 233.08 599.403H231.628C231.54 598.963 231.208 598.743 230.632 598.743C230.344 598.743 230.12 598.799 229.96 598.911C229.808 599.023 229.732 599.163 229.732 599.331C229.732 599.507 229.848 599.647 230.08 599.751C230.312 599.855 230.62 599.951 231.004 600.039C231.42 600.135 231.8 600.243 232.144 600.363C232.496 600.475 232.776 600.647 232.984 600.879C233.192 601.103 233.296 601.427 233.296 601.851C233.304 602.219 233.208 602.551 233.008 602.847C232.808 603.143 232.52 603.375 232.144 603.543C231.768 603.711 231.324 603.795 230.812 603.795ZM237.121 603.651C236.497 603.651 235.997 603.499 235.621 603.195C235.245 602.891 235.057 602.351 235.057 601.575V598.983H234.037V597.699H235.057L235.237 596.103H236.593V597.699H238.201V598.983H236.593V601.587C236.593 601.875 236.653 602.075 236.773 602.187C236.901 602.291 237.117 602.343 237.421 602.343H238.165V603.651H237.121ZM243.208 596.775C242.928 596.775 242.696 596.691 242.512 596.523C242.336 596.355 242.248 596.143 242.248 595.887C242.248 595.631 242.336 595.423 242.512 595.263C242.696 595.095 242.928 595.011 243.208 595.011C243.488 595.011 243.716 595.095 243.892 595.263C244.076 595.423 244.168 595.631 244.168 595.887C244.168 596.143 244.076 596.355 243.892 596.523C243.716 596.691 243.488 596.775 243.208 596.775ZM242.44 603.651V597.699H243.976V603.651H242.44ZM245.579 603.651V597.699H246.935L247.055 598.707C247.239 598.355 247.503 598.075 247.847 597.867C248.199 597.659 248.611 597.555 249.083 597.555C249.819 597.555 250.391 597.787 250.799 598.251C251.207 598.715 251.411 599.395 251.411 600.291V603.651H249.875V600.435C249.875 599.923 249.771 599.531 249.563 599.259C249.355 598.987 249.031 598.851 248.591 598.851C248.159 598.851 247.803 599.003 247.523 599.307C247.251 599.611 247.115 600.035 247.115 600.579V603.651H245.579ZM255.739 603.651V597.699H257.107L257.251 598.815C257.467 598.431 257.759 598.127 258.127 597.903C258.503 597.671 258.943 597.555 259.447 597.555V599.175H259.015C258.679 599.175 258.379 599.227 258.115 599.331C257.851 599.435 257.643 599.615 257.491 599.871C257.347 600.127 257.275 600.483 257.275 600.939V603.651H255.739ZM263.283 603.795C262.683 603.795 262.151 603.667 261.687 603.411C261.223 603.155 260.859 602.795 260.595 602.331C260.331 601.867 260.199 601.331 260.199 600.723C260.199 600.107 260.327 599.559 260.583 599.079C260.847 598.599 261.207 598.227 261.663 597.963C262.127 597.691 262.671 597.555 263.295 597.555C263.879 597.555 264.395 597.683 264.843 597.939C265.291 598.195 265.639 598.547 265.887 598.995C266.143 599.435 266.271 599.927 266.271 600.471C266.271 600.559 266.267 600.651 266.259 600.747C266.259 600.843 266.255 600.943 266.247 601.047H261.723C261.755 601.511 261.915 601.875 262.203 602.139C262.499 602.403 262.855 602.535 263.271 602.535C263.583 602.535 263.843 602.467 264.051 602.331C264.267 602.187 264.427 602.003 264.531 601.779H266.091C265.979 602.155 265.791 602.499 265.527 602.811C265.271 603.115 264.951 603.355 264.567 603.531C264.191 603.707 263.763 603.795 263.283 603.795ZM263.295 598.803C262.919 598.803 262.587 598.911 262.299 599.127C262.011 599.335 261.827 599.655 261.747 600.087H264.711C264.687 599.695 264.543 599.383 264.279 599.151C264.015 598.919 263.687 598.803 263.295 598.803ZM269.615 603.795C269.103 603.795 268.683 603.715 268.355 603.555C268.027 603.387 267.783 603.167 267.623 602.895C267.463 602.623 267.383 602.323 267.383 601.995C267.383 601.443 267.599 600.995 268.031 600.651C268.463 600.307 269.111 600.135 269.975 600.135H271.487V599.991C271.487 599.583 271.371 599.283 271.139 599.091C270.907 598.899 270.619 598.803 270.275 598.803C269.963 598.803 269.691 598.879 269.459 599.031C269.227 599.175 269.083 599.391 269.027 599.679H267.527C267.567 599.247 267.711 598.871 267.959 598.551C268.215 598.231 268.543 597.987 268.943 597.819C269.343 597.643 269.791 597.555 270.287 597.555C271.135 597.555 271.803 597.767 272.291 598.191C272.779 598.615 273.023 599.215 273.023 599.991V603.651H271.715L271.571 602.691C271.395 603.011 271.147 603.275 270.827 603.483C270.515 603.691 270.111 603.795 269.615 603.795ZM269.963 602.595C270.403 602.595 270.743 602.451 270.983 602.163C271.231 601.875 271.387 601.519 271.451 601.095H270.143C269.735 601.095 269.443 601.171 269.267 601.323C269.091 601.467 269.003 601.647 269.003 601.863C269.003 602.095 269.091 602.275 269.267 602.403C269.443 602.531 269.675 602.595 269.963 602.595ZM274.489 603.651V595.011H276.025V603.651H274.489ZM280.454 603.651V597.699H281.81L281.942 598.503C282.134 598.215 282.386 597.987 282.698 597.819C283.018 597.643 283.386 597.555 283.802 597.555C284.722 597.555 285.374 597.911 285.758 598.623C285.974 598.295 286.262 598.035 286.622 597.843C286.99 597.651 287.39 597.555 287.822 597.555C288.598 597.555 289.194 597.787 289.61 598.251C290.026 598.715 290.234 599.395 290.234 600.291V603.651H288.698V600.435C288.698 599.923 288.598 599.531 288.398 599.259C288.206 598.987 287.906 598.851 287.498 598.851C287.082 598.851 286.746 599.003 286.49 599.307C286.242 599.611 286.118 600.035 286.118 600.579V603.651H284.582V600.435C284.582 599.923 284.482 599.531 284.282 599.259C284.082 598.987 283.774 598.851 283.358 598.851C282.95 598.851 282.618 599.003 282.362 599.307C282.114 599.611 281.99 600.035 281.99 600.579V603.651H280.454ZM293.744 603.795C293.232 603.795 292.812 603.715 292.484 603.555C292.156 603.387 291.912 603.167 291.752 602.895C291.592 602.623 291.512 602.323 291.512 601.995C291.512 601.443 291.728 600.995 292.16 600.651C292.592 600.307 293.24 600.135 294.104 600.135H295.616V599.991C295.616 599.583 295.5 599.283 295.268 599.091C295.036 598.899 294.748 598.803 294.404 598.803C294.092 598.803 293.82 598.879 293.588 599.031C293.356 599.175 293.212 599.391 293.156 599.679H291.656C291.696 599.247 291.84 598.871 292.088 598.551C292.344 598.231 292.672 597.987 293.072 597.819C293.472 597.643 293.92 597.555 294.416 597.555C295.264 597.555 295.932 597.767 296.42 598.191C296.908 598.615 297.152 599.215 297.152 599.991V603.651H295.844L295.7 602.691C295.524 603.011 295.276 603.275 294.956 603.483C294.644 603.691 294.24 603.795 293.744 603.795ZM294.092 602.595C294.532 602.595 294.872 602.451 295.112 602.163C295.36 601.875 295.516 601.519 295.58 601.095H294.272C293.864 601.095 293.572 601.171 293.396 601.323C293.22 601.467 293.132 601.647 293.132 601.863C293.132 602.095 293.22 602.275 293.396 602.403C293.572 602.531 293.804 602.595 294.092 602.595ZM298.618 603.651V597.699H299.986L300.13 598.815C300.346 598.431 300.638 598.127 301.006 597.903C301.382 597.671 301.822 597.555 302.326 597.555V599.175H301.894C301.558 599.175 301.258 599.227 300.994 599.331C300.73 599.435 300.522 599.615 300.37 599.871C300.226 600.127 300.154 600.483 300.154 600.939V603.651H298.618ZM303.376 603.651V595.011H304.912V600.111L307.024 597.699H308.848L306.412 600.411L309.244 603.651H307.324L304.912 600.663V603.651H303.376ZM312.596 603.795C311.996 603.795 311.464 603.667 311 603.411C310.536 603.155 310.172 602.795 309.908 602.331C309.644 601.867 309.512 601.331 309.512 600.723C309.512 600.107 309.64 599.559 309.896 599.079C310.16 598.599 310.52 598.227 310.976 597.963C311.44 597.691 311.984 597.555 312.608 597.555C313.192 597.555 313.708 597.683 314.156 597.939C314.604 598.195 314.952 598.547 315.2 598.995C315.456 599.435 315.584 599.927 315.584 600.471C315.584 600.559 315.58 600.651 315.572 600.747C315.572 600.843 315.568 600.943 315.56 601.047H311.036C311.068 601.511 311.228 601.875 311.516 602.139C311.812 602.403 312.168 602.535 312.584 602.535C312.896 602.535 313.156 602.467 313.364 602.331C313.58 602.187 313.74 602.003 313.844 601.779H315.404C315.292 602.155 315.104 602.499 314.84 602.811C314.584 603.115 314.264 603.355 313.88 603.531C313.504 603.707 313.076 603.795 312.596 603.795ZM312.608 598.803C312.232 598.803 311.9 598.911 311.612 599.127C311.324 599.335 311.14 599.655 311.06 600.087H314.024C314 599.695 313.856 599.383 313.592 599.151C313.328 598.919 313 598.803 312.608 598.803ZM319.422 603.651C318.798 603.651 318.298 603.499 317.922 603.195C317.546 602.891 317.358 602.351 317.358 601.575V598.983H316.338V597.699H317.358L317.538 596.103H318.894V597.699H320.502V598.983H318.894V601.587C318.894 601.875 318.954 602.075 319.074 602.187C319.202 602.291 319.418 602.343 319.722 602.343H320.466V603.651H319.422ZM324.281 603.795C323.753 603.795 323.289 603.711 322.889 603.543C322.489 603.367 322.169 603.127 321.929 602.823C321.689 602.519 321.545 602.167 321.497 601.767H323.045C323.093 601.999 323.221 602.199 323.429 602.367C323.645 602.527 323.921 602.607 324.257 602.607C324.593 602.607 324.837 602.539 324.989 602.403C325.149 602.267 325.229 602.111 325.229 601.935C325.229 601.679 325.117 601.507 324.893 601.419C324.669 601.323 324.357 601.231 323.957 601.143C323.701 601.087 323.441 601.019 323.177 600.939C322.913 600.859 322.669 600.759 322.445 600.639C322.229 600.511 322.053 600.351 321.917 600.159C321.781 599.959 321.713 599.715 321.713 599.427C321.713 598.899 321.921 598.455 322.337 598.095C322.761 597.735 323.353 597.555 324.113 597.555C324.817 597.555 325.377 597.719 325.793 598.047C326.217 598.375 326.469 598.827 326.549 599.403H325.097C325.009 598.963 324.677 598.743 324.101 598.743C323.813 598.743 323.589 598.799 323.429 598.911C323.277 599.023 323.201 599.163 323.201 599.331C323.201 599.507 323.317 599.647 323.549 599.751C323.781 599.855 324.089 599.951 324.473 600.039C324.889 600.135 325.269 600.243 325.613 600.363C325.965 600.475 326.245 600.647 326.453 600.879C326.661 601.103 326.765 601.427 326.765 601.851C326.773 602.219 326.677 602.551 326.477 602.847C326.277 603.143 325.989 603.375 325.613 603.543C325.237 603.711 324.793 603.795 324.281 603.795ZM220.569 619.651L218.829 613.699H220.353L221.385 617.983L222.585 613.699H224.289L225.489 617.983L226.533 613.699H228.057L226.305 619.651H224.709L223.437 615.199L222.165 619.651H220.569ZM229.854 612.775C229.574 612.775 229.342 612.691 229.158 612.523C228.982 612.355 228.894 612.143 228.894 611.887C228.894 611.631 228.982 611.423 229.158 611.263C229.342 611.095 229.574 611.011 229.854 611.011C230.134 611.011 230.362 611.095 230.538 611.263C230.722 611.423 230.814 611.631 230.814 611.887C230.814 612.143 230.722 612.355 230.538 612.523C230.362 612.691 230.134 612.775 229.854 612.775ZM229.086 619.651V613.699H230.622V619.651H229.086ZM234.877 619.651C234.253 619.651 233.753 619.499 233.377 619.195C233.001 618.891 232.813 618.351 232.813 617.575V614.983H231.793V613.699H232.813L232.993 612.103H234.349V613.699H235.957V614.983H234.349V617.587C234.349 617.875 234.409 618.075 234.529 618.187C234.657 618.291 234.873 618.343 235.177 618.343H235.921V619.651H234.877ZM237.276 619.651V611.011H238.812V614.611C239.012 614.283 239.28 614.027 239.616 613.843C239.96 613.651 240.352 613.555 240.792 613.555C241.528 613.555 242.096 613.787 242.496 614.251C242.904 614.715 243.108 615.395 243.108 616.291V619.651H241.584V616.435C241.584 615.923 241.48 615.531 241.272 615.259C241.072 614.987 240.752 614.851 240.312 614.851C239.88 614.851 239.52 615.003 239.232 615.307C238.952 615.611 238.812 616.035 238.812 616.579V619.651H237.276ZM250.352 619.795C249.744 619.795 249.208 619.663 248.744 619.399C248.28 619.135 247.912 618.767 247.64 618.295C247.376 617.823 247.244 617.283 247.244 616.675C247.244 616.067 247.376 615.527 247.64 615.055C247.912 614.583 248.28 614.215 248.744 613.951C249.208 613.687 249.744 613.555 250.352 613.555C251.112 613.555 251.752 613.755 252.272 614.155C252.792 614.547 253.124 615.091 253.268 615.787H251.648C251.568 615.499 251.408 615.275 251.168 615.115C250.936 614.947 250.66 614.863 250.34 614.863C249.916 614.863 249.556 615.023 249.26 615.343C248.964 615.663 248.816 616.107 248.816 616.675C248.816 617.243 248.964 617.687 249.26 618.007C249.556 618.327 249.916 618.487 250.34 618.487C250.66 618.487 250.936 618.407 251.168 618.247C251.408 618.087 251.568 617.859 251.648 617.563H253.268C253.124 618.235 252.792 618.775 252.272 619.183C251.752 619.591 251.112 619.795 250.352 619.795ZM257.488 619.795C256.912 619.795 256.392 619.663 255.928 619.399C255.472 619.135 255.108 618.771 254.836 618.307C254.572 617.835 254.44 617.291 254.44 616.675C254.44 616.059 254.576 615.519 254.848 615.055C255.12 614.583 255.484 614.215 255.94 613.951C256.404 613.687 256.924 613.555 257.5 613.555C258.068 613.555 258.58 613.687 259.036 613.951C259.5 614.215 259.864 614.583 260.128 615.055C260.4 615.519 260.536 616.059 260.536 616.675C260.536 617.291 260.4 617.835 260.128 618.307C259.864 618.771 259.5 619.135 259.036 619.399C258.572 619.663 258.056 619.795 257.488 619.795ZM257.488 618.463C257.888 618.463 258.236 618.315 258.532 618.019C258.828 617.715 258.976 617.267 258.976 616.675C258.976 616.083 258.828 615.639 258.532 615.343C258.236 615.039 257.892 614.887 257.5 614.887C257.092 614.887 256.74 615.039 256.444 615.343C256.156 615.639 256.012 616.083 256.012 616.675C256.012 617.267 256.156 617.715 256.444 618.019C256.74 618.315 257.088 618.463 257.488 618.463ZM261.909 619.651V613.699H263.265L263.385 614.707C263.569 614.355 263.833 614.075 264.177 613.867C264.529 613.659 264.941 613.555 265.413 613.555C266.149 613.555 266.721 613.787 267.129 614.251C267.537 614.715 267.741 615.395 267.741 616.291V619.651H266.205V616.435C266.205 615.923 266.101 615.531 265.893 615.259C265.685 614.987 265.361 614.851 264.921 614.851C264.489 614.851 264.133 615.003 263.853 615.307C263.581 615.611 263.445 616.035 263.445 616.579V619.651H261.909ZM269.486 619.651V614.983H268.67V613.699H269.486V613.003C269.486 612.283 269.666 611.771 270.026 611.467C270.394 611.163 270.89 611.011 271.514 611.011H272.174V612.319H271.754C271.49 612.319 271.302 612.371 271.19 612.475C271.078 612.579 271.022 612.755 271.022 613.003V613.699H274.862V619.651H273.326V614.983H271.022V619.651H269.486ZM274.106 612.847C273.826 612.847 273.594 612.763 273.41 612.595C273.234 612.427 273.146 612.215 273.146 611.959C273.146 611.703 273.234 611.495 273.41 611.335C273.594 611.167 273.826 611.083 274.106 611.083C274.386 611.083 274.614 611.167 274.79 611.335C274.974 611.495 275.066 611.703 275.066 611.959C275.066 612.215 274.974 612.427 274.79 612.595C274.614 612.763 274.386 612.847 274.106 612.847ZM279.223 619.795C278.663 619.795 278.163 619.659 277.723 619.387C277.283 619.115 276.935 618.743 276.679 618.271C276.423 617.799 276.295 617.263 276.295 616.663C276.295 616.063 276.423 615.531 276.679 615.067C276.935 614.595 277.283 614.227 277.723 613.963C278.163 613.691 278.663 613.555 279.223 613.555C279.671 613.555 280.063 613.639 280.399 613.807C280.735 613.975 281.007 614.211 281.215 614.515V611.011H282.751V619.651H281.383L281.215 618.799C281.023 619.063 280.767 619.295 280.447 619.495C280.135 619.695 279.727 619.795 279.223 619.795ZM279.547 618.451C280.043 618.451 280.447 618.287 280.759 617.959C281.079 617.623 281.239 617.195 281.239 616.675C281.239 616.155 281.079 615.731 280.759 615.403C280.447 615.067 280.043 614.899 279.547 614.899C279.059 614.899 278.655 615.063 278.335 615.391C278.015 615.719 277.855 616.143 277.855 616.663C277.855 617.183 278.015 617.611 278.335 617.947C278.655 618.283 279.059 618.451 279.547 618.451ZM287.207 619.795C286.607 619.795 286.075 619.667 285.611 619.411C285.147 619.155 284.783 618.795 284.519 618.331C284.255 617.867 284.123 617.331 284.123 616.723C284.123 616.107 284.251 615.559 284.507 615.079C284.771 614.599 285.131 614.227 285.587 613.963C286.051 613.691 286.595 613.555 287.219 613.555C287.803 613.555 288.319 613.683 288.767 613.939C289.215 614.195 289.563 614.547 289.811 614.995C290.067 615.435 290.195 615.927 290.195 616.471C290.195 616.559 290.191 616.651 290.183 616.747C290.183 616.843 290.179 616.943 290.171 617.047H285.647C285.679 617.511 285.839 617.875 286.127 618.139C286.423 618.403 286.779 618.535 287.195 618.535C287.507 618.535 287.767 618.467 287.975 618.331C288.191 618.187 288.351 618.003 288.455 617.779H290.015C289.903 618.155 289.715 618.499 289.451 618.811C289.195 619.115 288.875 619.355 288.491 619.531C288.115 619.707 287.687 619.795 287.207 619.795ZM287.219 614.803C286.843 614.803 286.511 614.911 286.223 615.127C285.935 615.335 285.751 615.655 285.671 616.087H288.635C288.611 615.695 288.467 615.383 288.203 615.151C287.939 614.919 287.611 614.803 287.219 614.803ZM291.487 619.651V613.699H292.843L292.963 614.707C293.147 614.355 293.411 614.075 293.755 613.867C294.107 613.659 294.519 613.555 294.991 613.555C295.727 613.555 296.299 613.787 296.707 614.251C297.115 614.715 297.319 615.395 297.319 616.291V619.651H295.783V616.435C295.783 615.923 295.679 615.531 295.471 615.259C295.263 614.987 294.939 614.851 294.499 614.851C294.067 614.851 293.711 615.003 293.431 615.307C293.159 615.611 293.023 616.035 293.023 616.579V619.651H291.487ZM301.704 619.795C301.096 619.795 300.56 619.663 300.096 619.399C299.632 619.135 299.264 618.767 298.992 618.295C298.728 617.823 298.596 617.283 298.596 616.675C298.596 616.067 298.728 615.527 298.992 615.055C299.264 614.583 299.632 614.215 300.096 613.951C300.56 613.687 301.096 613.555 301.704 613.555C302.464 613.555 303.104 613.755 303.624 614.155C304.144 614.547 304.476 615.091 304.62 615.787H303C302.92 615.499 302.76 615.275 302.52 615.115C302.288 614.947 302.012 614.863 301.692 614.863C301.268 614.863 300.908 615.023 300.612 615.343C300.316 615.663 300.168 616.107 300.168 616.675C300.168 617.243 300.316 617.687 300.612 618.007C300.908 618.327 301.268 618.487 301.692 618.487C302.012 618.487 302.288 618.407 302.52 618.247C302.76 618.087 302.92 617.859 303 617.563H304.62C304.476 618.235 304.144 618.775 303.624 619.183C303.104 619.591 302.464 619.795 301.704 619.795ZM308.875 619.795C308.275 619.795 307.743 619.667 307.279 619.411C306.815 619.155 306.451 618.795 306.187 618.331C305.923 617.867 305.791 617.331 305.791 616.723C305.791 616.107 305.919 615.559 306.175 615.079C306.439 614.599 306.799 614.227 307.255 613.963C307.719 613.691 308.263 613.555 308.887 613.555C309.471 613.555 309.987 613.683 310.435 613.939C310.883 614.195 311.231 614.547 311.479 614.995C311.735 615.435 311.863 615.927 311.863 616.471C311.863 616.559 311.859 616.651 311.851 616.747C311.851 616.843 311.847 616.943 311.839 617.047H307.315C307.347 617.511 307.507 617.875 307.795 618.139C308.091 618.403 308.447 618.535 308.863 618.535C309.175 618.535 309.435 618.467 309.643 618.331C309.859 618.187 310.019 618.003 310.123 617.779H311.683C311.571 618.155 311.383 618.499 311.119 618.811C310.863 619.115 310.543 619.355 310.159 619.531C309.783 619.707 309.355 619.795 308.875 619.795ZM308.887 614.803C308.511 614.803 308.179 614.911 307.891 615.127C307.603 615.335 307.419 615.655 307.339 616.087H310.303C310.279 615.695 310.135 615.383 309.871 615.151C309.607 614.919 309.279 614.803 308.887 614.803Z" fill="#FBFFFF"/>
</g>
<ellipse cx="90" cy="500.576" rx="27" ry="22" fill="#2C2C2C"/>
<ellipse cx="90" cy="495.576" rx="27" ry="21" fill="#343434"/>
<path opacity="0.8" d="M71.8589 507.241C67.1644 499.118 63.5735 481.958 86.7657 478.302L71.8589 507.241Z" fill="#2C2C2C"/>
<rect opacity="0.8" x="98.8867" y="481.775" width="10.2044" height="32.303" transform="rotate(27.8158 98.8867 481.775)" fill="#2C2C2C"/>
<path opacity="0.3" d="M89.4597 502.776C88.473 502.776 87.5064 502.636 86.5597 502.356C85.6264 502.063 84.8397 501.663 84.1997 501.156L85.3197 499.136C85.8264 499.549 86.4397 499.883 87.1597 500.136C87.8797 500.389 88.633 500.516 89.4197 500.516C90.353 500.516 91.0797 500.329 91.5997 499.956C92.1197 499.569 92.3797 499.049 92.3797 498.396C92.3797 497.756 92.1397 497.249 91.6597 496.876C91.1797 496.503 90.4064 496.316 89.3397 496.316H88.0597V494.536L92.0597 489.776L92.3997 490.756H84.8797V488.576H94.4197V490.316L90.4197 495.076L89.0597 494.276H89.8397C91.5597 494.276 92.8464 494.663 93.6997 495.436C94.5664 496.196 94.9997 497.176 94.9997 498.376C94.9997 499.163 94.7997 499.889 94.3997 500.556C93.9997 501.223 93.3864 501.763 92.5597 502.176C91.7464 502.576 90.713 502.776 89.4597 502.776Z" fill="#FFF616"/>
<g opacity="0.4">
<path d="M158 401.051H2C1.17157 401.051 0.5 401.723 0.5 402.551V449.375C0.5 450.203 1.17157 450.875 2 450.875H57.4969C58.5115 450.875 59.4255 451.488 59.8102 452.427L66.0943 467.76C66.6068 469.01 68.3817 468.998 68.8776 467.741L74.9064 452.457C75.2831 451.502 76.2054 450.875 77.232 450.875H158C158.828 450.875 159.5 450.203 159.5 449.375V402.551C159.5 401.723 158.828 401.051 158 401.051Z" stroke="#FBFFFF"/>
<path d="M19.4703 421.625V413.225H21.0063V421.625H19.4703ZM22.5984 421.625V415.673H23.9544L24.0744 416.681C24.2584 416.329 24.5224 416.049 24.8664 415.841C25.2184 415.633 25.6304 415.529 26.1024 415.529C26.8384 415.529 27.4104 415.761 27.8184 416.225C28.2264 416.689 28.4304 417.369 28.4304 418.265V421.625H26.8944V418.409C26.8944 417.897 26.7904 417.505 26.5824 417.233C26.3744 416.961 26.0504 416.825 25.6104 416.825C25.1784 416.825 24.8224 416.977 24.5424 417.281C24.2704 417.585 24.1344 418.009 24.1344 418.553V421.625H22.5984ZM31.4485 421.625L29.2645 415.673H30.8725L32.3845 420.173L33.8965 415.673H35.5045L33.3085 421.625H31.4485ZM39.0724 421.769C38.4724 421.769 37.9404 421.641 37.4764 421.385C37.0124 421.129 36.6484 420.769 36.3844 420.305C36.1204 419.841 35.9884 419.305 35.9884 418.697C35.9884 418.081 36.1164 417.533 36.3724 417.053C36.6364 416.573 36.9964 416.201 37.4524 415.937C37.9164 415.665 38.4604 415.529 39.0844 415.529C39.6684 415.529 40.1844 415.657 40.6324 415.913C41.0804 416.169 41.4284 416.521 41.6764 416.969C41.9324 417.409 42.0604 417.901 42.0604 418.445C42.0604 418.533 42.0564 418.625 42.0484 418.721C42.0484 418.817 42.0444 418.917 42.0364 419.021H37.5124C37.5444 419.485 37.7044 419.849 37.9924 420.113C38.2884 420.377 38.6444 420.509 39.0604 420.509C39.3724 420.509 39.6324 420.441 39.8404 420.305C40.0564 420.161 40.2164 419.977 40.3204 419.753H41.8804C41.7684 420.129 41.5804 420.473 41.3164 420.785C41.0604 421.089 40.7404 421.329 40.3564 421.505C39.9804 421.681 39.5524 421.769 39.0724 421.769ZM39.0844 416.777C38.7084 416.777 38.3764 416.885 38.0884 417.101C37.8004 417.309 37.6164 417.629 37.5364 418.061H40.5004C40.4764 417.669 40.3324 417.357 40.0684 417.125C39.8044 416.893 39.4764 416.777 39.0844 416.777ZM45.8123 421.769C45.2843 421.769 44.8203 421.685 44.4203 421.517C44.0203 421.341 43.7003 421.101 43.4603 420.797C43.2203 420.493 43.0763 420.141 43.0283 419.741H44.5763C44.6243 419.973 44.7523 420.173 44.9603 420.341C45.1763 420.501 45.4523 420.581 45.7883 420.581C46.1243 420.581 46.3683 420.513 46.5203 420.377C46.6803 420.241 46.7603 420.085 46.7603 419.909C46.7603 419.653 46.6483 419.481 46.4243 419.393C46.2003 419.297 45.8883 419.205 45.4883 419.117C45.2323 419.061 44.9723 418.993 44.7083 418.913C44.4443 418.833 44.2003 418.733 43.9763 418.613C43.7603 418.485 43.5843 418.325 43.4483 418.133C43.3123 417.933 43.2443 417.689 43.2443 417.401C43.2443 416.873 43.4523 416.429 43.8683 416.069C44.2923 415.709 44.8843 415.529 45.6443 415.529C46.3483 415.529 46.9083 415.693 47.3243 416.021C47.7483 416.349 48.0003 416.801 48.0803 417.377H46.6283C46.5403 416.937 46.2083 416.717 45.6323 416.717C45.3443 416.717 45.1203 416.773 44.9603 416.885C44.8083 416.997 44.7323 417.137 44.7323 417.305C44.7323 417.481 44.8483 417.621 45.0803 417.725C45.3123 417.829 45.6203 417.925 46.0043 418.013C46.4203 418.109 46.8003 418.217 47.1443 418.337C47.4963 418.449 47.7763 418.621 47.9843 418.853C48.1923 419.077 48.2963 419.401 48.2963 419.825C48.3043 420.193 48.2083 420.525 48.0083 420.821C47.8083 421.117 47.5203 421.349 47.1443 421.517C46.7683 421.685 46.3243 421.769 45.8123 421.769ZM52.1215 421.625C51.4975 421.625 50.9975 421.473 50.6215 421.169C50.2455 420.865 50.0575 420.325 50.0575 419.549V416.957H49.0375V415.673H50.0575L50.2375 414.077H51.5935V415.673H53.2015V416.957H51.5935V419.561C51.5935 419.849 51.6535 420.049 51.7735 420.161C51.9015 420.265 52.1175 420.317 52.4215 420.317H53.1655V421.625H52.1215ZM58.2076 414.749C57.9276 414.749 57.6956 414.665 57.5116 414.497C57.3356 414.329 57.2476 414.117 57.2476 413.861C57.2476 413.605 57.3356 413.397 57.5116 413.237C57.6956 413.069 57.9276 412.985 58.2076 412.985C58.4876 412.985 58.7156 413.069 58.8916 413.237C59.0756 413.397 59.1676 413.605 59.1676 413.861C59.1676 414.117 59.0756 414.329 58.8916 414.497C58.7156 414.665 58.4876 414.749 58.2076 414.749ZM57.4396 421.625V415.673H58.9756V421.625H57.4396ZM60.5788 421.625V415.673H61.9348L62.0548 416.681C62.2388 416.329 62.5028 416.049 62.8468 415.841C63.1988 415.633 63.6108 415.529 64.0828 415.529C64.8188 415.529 65.3908 415.761 65.7988 416.225C66.2068 416.689 66.4108 417.369 66.4108 418.265V421.625H64.8748V418.409C64.8748 417.897 64.7708 417.505 64.5628 417.233C64.3548 416.961 64.0308 416.825 63.5908 416.825C63.1588 416.825 62.8028 416.977 62.5228 417.281C62.2508 417.585 62.1148 418.009 62.1148 418.553V421.625H60.5788ZM70.739 421.625V415.673H72.107L72.251 416.789C72.467 416.405 72.759 416.101 73.127 415.877C73.503 415.645 73.943 415.529 74.447 415.529V417.149H74.015C73.679 417.149 73.379 417.201 73.115 417.305C72.851 417.409 72.643 417.589 72.491 417.845C72.347 418.101 72.275 418.457 72.275 418.913V421.625H70.739ZM78.2833 421.769C77.6833 421.769 77.1513 421.641 76.6873 421.385C76.2233 421.129 75.8593 420.769 75.5953 420.305C75.3313 419.841 75.1993 419.305 75.1993 418.697C75.1993 418.081 75.3273 417.533 75.5833 417.053C75.8473 416.573 76.2073 416.201 76.6633 415.937C77.1273 415.665 77.6713 415.529 78.2953 415.529C78.8793 415.529 79.3953 415.657 79.8433 415.913C80.2913 416.169 80.6393 416.521 80.8873 416.969C81.1433 417.409 81.2713 417.901 81.2713 418.445C81.2713 418.533 81.2673 418.625 81.2593 418.721C81.2593 418.817 81.2553 418.917 81.2473 419.021H76.7233C76.7553 419.485 76.9153 419.849 77.2033 420.113C77.4993 420.377 77.8553 420.509 78.2713 420.509C78.5833 420.509 78.8433 420.441 79.0513 420.305C79.2673 420.161 79.4273 419.977 79.5313 419.753H81.0913C80.9793 420.129 80.7913 420.473 80.5273 420.785C80.2713 421.089 79.9513 421.329 79.5673 421.505C79.1913 421.681 78.7633 421.769 78.2833 421.769ZM78.2953 416.777C77.9193 416.777 77.5873 416.885 77.2993 417.101C77.0113 417.309 76.8273 417.629 76.7473 418.061H79.7113C79.6873 417.669 79.5433 417.357 79.2793 417.125C79.0153 416.893 78.6873 416.777 78.2953 416.777ZM84.6152 421.769C84.1032 421.769 83.6832 421.689 83.3552 421.529C83.0272 421.361 82.7832 421.141 82.6232 420.869C82.4632 420.597 82.3832 420.297 82.3832 419.969C82.3832 419.417 82.5992 418.969 83.0312 418.625C83.4632 418.281 84.1112 418.109 84.9752 418.109H86.4872V417.965C86.4872 417.557 86.3712 417.257 86.1392 417.065C85.9072 416.873 85.6192 416.777 85.2752 416.777C84.9632 416.777 84.6912 416.853 84.4592 417.005C84.2272 417.149 84.0832 417.365 84.0272 417.653H82.5272C82.5672 417.221 82.7112 416.845 82.9592 416.525C83.2152 416.205 83.5432 415.961 83.9432 415.793C84.3432 415.617 84.7912 415.529 85.2872 415.529C86.1352 415.529 86.8032 415.741 87.2912 416.165C87.7792 416.589 88.0232 417.189 88.0232 417.965V421.625H86.7152L86.5712 420.665C86.3952 420.985 86.1472 421.249 85.8272 421.457C85.5152 421.665 85.1112 421.769 84.6152 421.769ZM84.9632 420.569C85.4032 420.569 85.7432 420.425 85.9832 420.137C86.2312 419.849 86.3872 419.493 86.4512 419.069H85.1432C84.7352 419.069 84.4432 419.145 84.2672 419.297C84.0912 419.441 84.0032 419.621 84.0032 419.837C84.0032 420.069 84.0912 420.249 84.2672 420.377C84.4432 420.505 84.6752 420.569 84.9632 420.569ZM89.489 421.625V412.985H91.025V421.625H89.489ZM95.4538 421.625V415.673H96.8098L96.9418 416.477C97.1338 416.189 97.3858 415.961 97.6978 415.793C98.0178 415.617 98.3858 415.529 98.8018 415.529C99.7218 415.529 100.374 415.885 100.758 416.597C100.974 416.269 101.262 416.009 101.622 415.817C101.99 415.625 102.39 415.529 102.822 415.529C103.598 415.529 104.194 415.761 104.61 416.225C105.026 416.689 105.234 417.369 105.234 418.265V421.625H103.698V418.409C103.698 417.897 103.598 417.505 103.398 417.233C103.206 416.961 102.906 416.825 102.498 416.825C102.082 416.825 101.746 416.977 101.49 417.281C101.242 417.585 101.118 418.009 101.118 418.553V421.625H99.5818V418.409C99.5818 417.897 99.4818 417.505 99.2818 417.233C99.0818 416.961 98.7738 416.825 98.3578 416.825C97.9498 416.825 97.6178 416.977 97.3618 417.281C97.1138 417.585 96.9898 418.009 96.9898 418.553V421.625H95.4538ZM108.744 421.769C108.232 421.769 107.812 421.689 107.484 421.529C107.156 421.361 106.912 421.141 106.752 420.869C106.592 420.597 106.512 420.297 106.512 419.969C106.512 419.417 106.728 418.969 107.16 418.625C107.592 418.281 108.24 418.109 109.104 418.109H110.616V417.965C110.616 417.557 110.5 417.257 110.268 417.065C110.036 416.873 109.748 416.777 109.404 416.777C109.092 416.777 108.82 416.853 108.588 417.005C108.356 417.149 108.212 417.365 108.156 417.653H106.656C106.696 417.221 106.84 416.845 107.088 416.525C107.344 416.205 107.672 415.961 108.072 415.793C108.472 415.617 108.92 415.529 109.416 415.529C110.264 415.529 110.932 415.741 111.42 416.165C111.908 416.589 112.152 417.189 112.152 417.965V421.625H110.844L110.7 420.665C110.524 420.985 110.276 421.249 109.956 421.457C109.644 421.665 109.24 421.769 108.744 421.769ZM109.092 420.569C109.532 420.569 109.872 420.425 110.112 420.137C110.36 419.849 110.516 419.493 110.58 419.069H109.272C108.864 419.069 108.572 419.145 108.396 419.297C108.22 419.441 108.132 419.621 108.132 419.837C108.132 420.069 108.22 420.249 108.396 420.377C108.572 420.505 108.804 420.569 109.092 420.569ZM113.618 421.625V415.673H114.986L115.13 416.789C115.346 416.405 115.638 416.101 116.006 415.877C116.382 415.645 116.822 415.529 117.326 415.529V417.149H116.894C116.558 417.149 116.258 417.201 115.994 417.305C115.73 417.409 115.522 417.589 115.37 417.845C115.226 418.101 115.154 418.457 115.154 418.913V421.625H113.618ZM118.376 421.625V412.985H119.912V418.085L122.024 415.673H123.848L121.412 418.385L124.244 421.625H122.324L119.912 418.637V421.625H118.376ZM127.596 421.769C126.996 421.769 126.464 421.641 126 421.385C125.536 421.129 125.172 420.769 124.908 420.305C124.644 419.841 124.512 419.305 124.512 418.697C124.512 418.081 124.64 417.533 124.896 417.053C125.16 416.573 125.52 416.201 125.976 415.937C126.44 415.665 126.984 415.529 127.608 415.529C128.192 415.529 128.708 415.657 129.156 415.913C129.604 416.169 129.952 416.521 130.2 416.969C130.456 417.409 130.584 417.901 130.584 418.445C130.584 418.533 130.58 418.625 130.572 418.721C130.572 418.817 130.568 418.917 130.56 419.021H126.036C126.068 419.485 126.228 419.849 126.516 420.113C126.812 420.377 127.168 420.509 127.584 420.509C127.896 420.509 128.156 420.441 128.364 420.305C128.58 420.161 128.74 419.977 128.844 419.753H130.404C130.292 420.129 130.104 420.473 129.84 420.785C129.584 421.089 129.264 421.329 128.88 421.505C128.504 421.681 128.076 421.769 127.596 421.769ZM127.608 416.777C127.232 416.777 126.9 416.885 126.612 417.101C126.324 417.309 126.14 417.629 126.06 418.061H129.024C129 417.669 128.856 417.357 128.592 417.125C128.328 416.893 128 416.777 127.608 416.777ZM134.422 421.625C133.798 421.625 133.298 421.473 132.922 421.169C132.546 420.865 132.358 420.325 132.358 419.549V416.957H131.338V415.673H132.358L132.538 414.077H133.894V415.673H135.502V416.957H133.894V419.561C133.894 419.849 133.954 420.049 134.074 420.161C134.202 420.265 134.418 420.317 134.722 420.317H135.466V421.625H134.422ZM139.281 421.769C138.753 421.769 138.289 421.685 137.889 421.517C137.489 421.341 137.169 421.101 136.929 420.797C136.689 420.493 136.545 420.141 136.497 419.741H138.045C138.093 419.973 138.221 420.173 138.429 420.341C138.645 420.501 138.921 420.581 139.257 420.581C139.593 420.581 139.837 420.513 139.989 420.377C140.149 420.241 140.229 420.085 140.229 419.909C140.229 419.653 140.117 419.481 139.893 419.393C139.669 419.297 139.357 419.205 138.957 419.117C138.701 419.061 138.441 418.993 138.177 418.913C137.913 418.833 137.669 418.733 137.445 418.613C137.229 418.485 137.053 418.325 136.917 418.133C136.781 417.933 136.713 417.689 136.713 417.401C136.713 416.873 136.921 416.429 137.337 416.069C137.761 415.709 138.353 415.529 139.113 415.529C139.817 415.529 140.377 415.693 140.793 416.021C141.217 416.349 141.469 416.801 141.549 417.377H140.097C140.009 416.937 139.677 416.717 139.101 416.717C138.813 416.717 138.589 416.773 138.429 416.885C138.277 416.997 138.201 417.137 138.201 417.305C138.201 417.481 138.317 417.621 138.549 417.725C138.781 417.829 139.089 417.925 139.473 418.013C139.889 418.109 140.269 418.217 140.613 418.337C140.965 418.449 141.245 418.621 141.453 418.853C141.661 419.077 141.765 419.401 141.765 419.825C141.773 420.193 141.677 420.525 141.477 420.821C141.277 421.117 140.989 421.349 140.613 421.517C140.237 421.685 139.793 421.769 139.281 421.769ZM35.569 437.625L33.829 431.673H35.353L36.385 435.957L37.585 431.673H39.289L40.489 435.957L41.533 431.673H43.057L41.305 437.625H39.709L38.437 433.173L37.165 437.625H35.569ZM44.8541 430.749C44.5741 430.749 44.3421 430.665 44.1581 430.497C43.9821 430.329 43.8941 430.117 43.8941 429.861C43.8941 429.605 43.9821 429.397 44.1581 429.237C44.3421 429.069 44.5741 428.985 44.8541 428.985C45.1341 428.985 45.3621 429.069 45.5381 429.237C45.7221 429.397 45.8141 429.605 45.8141 429.861C45.8141 430.117 45.7221 430.329 45.5381 430.497C45.3621 430.665 45.1341 430.749 44.8541 430.749ZM44.0861 437.625V431.673H45.6221V437.625H44.0861ZM49.8773 437.625C49.2533 437.625 48.7533 437.473 48.3773 437.169C48.0013 436.865 47.8133 436.325 47.8133 435.549V432.957H46.7933V431.673H47.8133L47.9933 430.077H49.3493V431.673H50.9573V432.957H49.3493V435.561C49.3493 435.849 49.4093 436.049 49.5293 436.161C49.6573 436.265 49.8733 436.317 50.1773 436.317H50.9213V437.625H49.8773ZM52.2761 437.625V428.985H53.8121V432.585C54.0121 432.257 54.2801 432.001 54.6161 431.817C54.9601 431.625 55.3521 431.529 55.7921 431.529C56.5281 431.529 57.0961 431.761 57.4961 432.225C57.9041 432.689 58.1081 433.369 58.1081 434.265V437.625H56.5841V434.409C56.5841 433.897 56.4801 433.505 56.2721 433.233C56.0721 432.961 55.7521 432.825 55.3121 432.825C54.8801 432.825 54.5201 432.977 54.2321 433.281C53.9521 433.585 53.8121 434.009 53.8121 434.553V437.625H52.2761ZM65.3523 437.769C64.7443 437.769 64.2083 437.637 63.7443 437.373C63.2803 437.109 62.9123 436.741 62.6403 436.269C62.3763 435.797 62.2443 435.257 62.2443 434.649C62.2443 434.041 62.3763 433.501 62.6403 433.029C62.9123 432.557 63.2803 432.189 63.7443 431.925C64.2083 431.661 64.7443 431.529 65.3523 431.529C66.1123 431.529 66.7523 431.729 67.2723 432.129C67.7923 432.521 68.1243 433.065 68.2682 433.761H66.6483C66.5683 433.473 66.4083 433.249 66.1683 433.089C65.9363 432.921 65.6603 432.837 65.3403 432.837C64.9163 432.837 64.5563 432.997 64.2603 433.317C63.9643 433.637 63.8163 434.081 63.8163 434.649C63.8163 435.217 63.9643 435.661 64.2603 435.981C64.5563 436.301 64.9163 436.461 65.3403 436.461C65.6603 436.461 65.9363 436.381 66.1683 436.221C66.4083 436.061 66.5683 435.833 66.6483 435.537H68.2682C68.1243 436.209 67.7923 436.749 67.2723 437.157C66.7523 437.565 66.1123 437.769 65.3523 437.769ZM72.4876 437.769C71.9116 437.769 71.3916 437.637 70.9276 437.373C70.4716 437.109 70.1076 436.745 69.8356 436.281C69.5716 435.809 69.4396 435.265 69.4396 434.649C69.4396 434.033 69.5756 433.493 69.8476 433.029C70.1196 432.557 70.4836 432.189 70.9396 431.925C71.4036 431.661 71.9236 431.529 72.4996 431.529C73.0676 431.529 73.5796 431.661 74.0356 431.925C74.4996 432.189 74.8636 432.557 75.1276 433.029C75.3996 433.493 75.5356 434.033 75.5356 434.649C75.5356 435.265 75.3996 435.809 75.1276 436.281C74.8636 436.745 74.4996 437.109 74.0356 437.373C73.5716 437.637 73.0556 437.769 72.4876 437.769ZM72.4876 436.437C72.8876 436.437 73.2356 436.289 73.5316 435.993C73.8276 435.689 73.9756 435.241 73.9756 434.649C73.9756 434.057 73.8276 433.613 73.5316 433.317C73.2356 433.013 72.8916 432.861 72.4996 432.861C72.0916 432.861 71.7396 433.013 71.4436 433.317C71.1556 433.613 71.0116 434.057 71.0116 434.649C71.0116 435.241 71.1556 435.689 71.4436 435.993C71.7396 436.289 72.0876 436.437 72.4876 436.437ZM76.9089 437.625V431.673H78.2649L78.3849 432.681C78.5689 432.329 78.8329 432.049 79.1769 431.841C79.5289 431.633 79.9409 431.529 80.4129 431.529C81.1489 431.529 81.7209 431.761 82.1289 432.225C82.5369 432.689 82.7409 433.369 82.7409 434.265V437.625H81.2049V434.409C81.2049 433.897 81.1009 433.505 80.8929 433.233C80.6849 432.961 80.3609 432.825 79.9209 432.825C79.4889 432.825 79.1329 432.977 78.8529 433.281C78.5809 433.585 78.4449 434.009 78.4449 434.553V437.625H76.9089ZM84.4857 437.625V432.957H83.6697V431.673H84.4857V430.977C84.4857 430.257 84.6657 429.745 85.0257 429.441C85.3937 429.137 85.8897 428.985 86.5137 428.985H87.1737V430.293H86.7537C86.4897 430.293 86.3017 430.345 86.1897 430.449C86.0777 430.553 86.0217 430.729 86.0217 430.977V431.673H89.8617V437.625H88.3257V432.957H86.0217V437.625H84.4857ZM89.1057 430.821C88.8257 430.821 88.5937 430.737 88.4097 430.569C88.2337 430.401 88.1457 430.189 88.1457 429.933C88.1457 429.677 88.2337 429.469 88.4097 429.309C88.5937 429.141 88.8257 429.057 89.1057 429.057C89.3857 429.057 89.6137 429.141 89.7897 429.309C89.9737 429.469 90.0657 429.677 90.0657 429.933C90.0657 430.189 89.9737 430.401 89.7897 430.569C89.6137 430.737 89.3857 430.821 89.1057 430.821ZM94.223 437.769C93.663 437.769 93.163 437.633 92.723 437.361C92.283 437.089 91.935 436.717 91.679 436.245C91.423 435.773 91.295 435.237 91.295 434.637C91.295 434.037 91.423 433.505 91.679 433.041C91.935 432.569 92.283 432.201 92.723 431.937C93.163 431.665 93.663 431.529 94.223 431.529C94.671 431.529 95.063 431.613 95.399 431.781C95.735 431.949 96.007 432.185 96.215 432.489V428.985H97.751V437.625H96.383L96.215 436.773C96.023 437.037 95.767 437.269 95.447 437.469C95.135 437.669 94.727 437.769 94.223 437.769ZM94.547 436.425C95.043 436.425 95.447 436.261 95.759 435.933C96.079 435.597 96.239 435.169 96.239 434.649C96.239 434.129 96.079 433.705 95.759 433.377C95.447 433.041 95.043 432.873 94.547 432.873C94.059 432.873 93.655 433.037 93.335 433.365C93.015 433.693 92.855 434.117 92.855 434.637C92.855 435.157 93.015 435.585 93.335 435.921C93.655 436.257 94.059 436.425 94.547 436.425ZM102.207 437.769C101.607 437.769 101.075 437.641 100.611 437.385C100.147 437.129 99.7832 436.769 99.5192 436.305C99.2552 435.841 99.1232 435.305 99.1232 434.697C99.1232 434.081 99.2512 433.533 99.5072 433.053C99.7712 432.573 100.131 432.201 100.587 431.937C101.051 431.665 101.595 431.529 102.219 431.529C102.803 431.529 103.319 431.657 103.767 431.913C104.215 432.169 104.563 432.521 104.811 432.969C105.067 433.409 105.195 433.901 105.195 434.445C105.195 434.533 105.191 434.625 105.183 434.721C105.183 434.817 105.179 434.917 105.171 435.021H100.647C100.679 435.485 100.839 435.849 101.127 436.113C101.423 436.377 101.779 436.509 102.195 436.509C102.507 436.509 102.767 436.441 102.975 436.305C103.191 436.161 103.351 435.977 103.455 435.753H105.015C104.903 436.129 104.715 436.473 104.451 436.785C104.195 437.089 103.875 437.329 103.491 437.505C103.115 437.681 102.687 437.769 102.207 437.769ZM102.219 432.777C101.843 432.777 101.511 432.885 101.223 433.101C100.935 433.309 100.751 433.629 100.671 434.061H103.635C103.611 433.669 103.467 433.357 103.203 433.125C102.939 432.893 102.611 432.777 102.219 432.777ZM106.487 437.625V431.673H107.843L107.963 432.681C108.147 432.329 108.411 432.049 108.755 431.841C109.107 431.633 109.519 431.529 109.991 431.529C110.727 431.529 111.299 431.761 111.707 432.225C112.115 432.689 112.319 433.369 112.319 434.265V437.625H110.783V434.409C110.783 433.897 110.679 433.505 110.471 433.233C110.263 432.961 109.939 432.825 109.499 432.825C109.067 432.825 108.711 432.977 108.431 433.281C108.159 433.585 108.023 434.009 108.023 434.553V437.625H106.487ZM116.704 437.769C116.096 437.769 115.56 437.637 115.096 437.373C114.632 437.109 114.264 436.741 113.992 436.269C113.728 435.797 113.596 435.257 113.596 434.649C113.596 434.041 113.728 433.501 113.992 433.029C114.264 432.557 114.632 432.189 115.096 431.925C115.56 431.661 116.096 431.529 116.704 431.529C117.464 431.529 118.104 431.729 118.624 432.129C119.144 432.521 119.476 433.065 119.62 433.761H118C117.92 433.473 117.76 433.249 117.52 433.089C117.288 432.921 117.012 432.837 116.692 432.837C116.268 432.837 115.908 432.997 115.612 433.317C115.316 433.637 115.168 434.081 115.168 434.649C115.168 435.217 115.316 435.661 115.612 435.981C115.908 436.301 116.268 436.461 116.692 436.461C117.012 436.461 117.288 436.381 117.52 436.221C117.76 436.061 117.92 435.833 118 435.537H119.62C119.476 436.209 119.144 436.749 118.624 437.157C118.104 437.565 117.464 437.769 116.704 437.769ZM123.875 437.769C123.275 437.769 122.743 437.641 122.279 437.385C121.815 437.129 121.451 436.769 121.187 436.305C120.923 435.841 120.791 435.305 120.791 434.697C120.791 434.081 120.919 433.533 121.175 433.053C121.439 432.573 121.799 432.201 122.255 431.937C122.719 431.665 123.263 431.529 123.887 431.529C124.471 431.529 124.987 431.657 125.435 431.913C125.883 432.169 126.231 432.521 126.479 432.969C126.735 433.409 126.863 433.901 126.863 434.445C126.863 434.533 126.859 434.625 126.851 434.721C126.851 434.817 126.847 434.917 126.839 435.021H122.315C122.347 435.485 122.507 435.849 122.795 436.113C123.091 436.377 123.447 436.509 123.863 436.509C124.175 436.509 124.435 436.441 124.643 436.305C124.859 436.161 125.019 435.977 125.123 435.753H126.683C126.571 436.129 126.383 436.473 126.119 436.785C125.863 437.089 125.543 437.329 125.159 437.505C124.783 437.681 124.355 437.769 123.875 437.769ZM123.887 432.777C123.511 432.777 123.179 432.885 122.891 433.101C122.603 433.309 122.419 433.629 122.339 434.061H125.303C125.279 433.669 125.135 433.357 124.871 433.125C124.607 432.893 124.279 432.777 123.887 432.777Z" fill="#FBFFFF"/>
</g>
<ellipse cx="90" cy="90.5767" rx="27" ry="22" fill="#E3A101"/>
<ellipse cx="90" cy="85.5767" rx="27" ry="21" fill="#FFE600"/>
<path opacity="0.8" d="M71.8589 97.242C67.1644 89.1189 63.5735 71.9587 86.7657 68.3028L71.8589 97.242Z" fill="#F5EC9A"/>
<rect opacity="0.8" x="98.8867" y="71.7759" width="10.2044" height="32.303" transform="rotate(27.8158 98.8867 71.7759)" fill="#F5EC9A"/>
<path d="M89.3114 92.5768V79.5768L90.4514 80.7568H86.3514V78.5768H91.9114V92.5768H89.3114Z" fill="#121212"/>
<path d="M163 16.0767H30C29.1716 16.0767 28.5 16.7482 28.5 17.5767V43.2237C28.5 44.0522 29.1716 44.7237 30 44.7237H77.2498C78.1269 44.7237 78.9399 45.1834 79.392 45.935L84.4938 54.4154C85.0824 55.3939 86.505 55.382 87.0772 54.3938L91.9541 45.971C92.401 45.1991 93.2255 44.7237 94.1176 44.7237H163C163.828 44.7237 164.5 44.0522 164.5 43.2237V17.5767C164.5 16.7482 163.828 16.0767 163 16.0767Z" stroke="#FFF616"/>
<path d="M65.488 34.2695C64.696 34.2695 64.004 34.0895 63.412 33.7295C62.82 33.3695 62.36 32.8695 62.032 32.2295C61.704 31.5815 61.54 30.8295 61.54 29.9735C61.54 29.1095 61.708 28.3495 62.044 27.6935C62.388 27.0295 62.872 26.5135 63.496 26.1455C64.128 25.7695 64.876 25.5815 65.74 25.5815C66.724 25.5815 67.54 25.8175 68.188 26.2895C68.836 26.7615 69.256 27.4135 69.448 28.2455H67.732C67.604 27.8535 67.372 27.5495 67.036 27.3335C66.7 27.1095 66.268 26.9975 65.74 26.9975C64.9 26.9975 64.252 27.2655 63.796 27.8015C63.34 28.3295 63.112 29.0575 63.112 29.9855C63.112 30.9135 63.336 31.6335 63.784 32.1455C64.24 32.6495 64.856 32.9015 65.632 32.9015C66.392 32.9015 66.964 32.6975 67.348 32.2895C67.74 31.8735 67.976 31.3295 68.056 30.6575H65.932V29.5055H69.604V34.1255H68.188L68.068 33.0215C67.796 33.4215 67.456 33.7295 67.048 33.9455C66.64 34.1615 66.12 34.2695 65.488 34.2695ZM73.9533 34.2695C73.3533 34.2695 72.8213 34.1415 72.3573 33.8855C71.8933 33.6295 71.5293 33.2695 71.2653 32.8055C71.0013 32.3415 70.8693 31.8055 70.8693 31.1975C70.8693 30.5815 70.9973 30.0335 71.2533 29.5535C71.5173 29.0735 71.8773 28.7015 72.3333 28.4375C72.7973 28.1655 73.3413 28.0295 73.9653 28.0295C74.5493 28.0295 75.0653 28.1575 75.5133 28.4135C75.9613 28.6695 76.3093 29.0215 76.5573 29.4695C76.8133 29.9095 76.9413 30.4015 76.9413 30.9455C76.9413 31.0335 76.9373 31.1255 76.9293 31.2215C76.9293 31.3175 76.9253 31.4175 76.9173 31.5215H72.3933C72.4253 31.9855 72.5853 32.3495 72.8733 32.6135C73.1693 32.8775 73.5253 33.0095 73.9413 33.0095C74.2533 33.0095 74.5133 32.9415 74.7213 32.8055C74.9373 32.6615 75.0973 32.4775 75.2013 32.2535H76.7613C76.6493 32.6295 76.4613 32.9735 76.1973 33.2855C75.9413 33.5895 75.6213 33.8295 75.2373 34.0055C74.8613 34.1815 74.4333 34.2695 73.9533 34.2695ZM73.9653 29.2775C73.5893 29.2775 73.2573 29.3855 72.9693 29.6015C72.6813 29.8095 72.4973 30.1295 72.4173 30.5615H75.3813C75.3573 30.1695 75.2133 29.8575 74.9493 29.6255C74.6853 29.3935 74.3573 29.2775 73.9653 29.2775ZM80.7797 34.1255C80.1557 34.1255 79.6557 33.9735 79.2797 33.6695C78.9037 33.3655 78.7157 32.8255 78.7157 32.0495V29.4575H77.6957V28.1735H78.7157L78.8957 26.5775H80.2517V28.1735H81.8597V29.4575H80.2517V32.0615C80.2517 32.3495 80.3117 32.5495 80.4317 32.6615C80.5597 32.7655 80.7757 32.8175 81.0797 32.8175H81.8237V34.1255H80.7797ZM88.9418 34.2695C88.3258 34.2695 87.7818 34.1655 87.3098 33.9575C86.8378 33.7415 86.4658 33.4375 86.1938 33.0455C85.9218 32.6455 85.7818 32.1615 85.7738 31.5935H87.3938C87.4098 31.9855 87.5498 32.3175 87.8138 32.5895C88.0858 32.8535 88.4578 32.9855 88.9298 32.9855C89.3378 32.9855 89.6618 32.8895 89.9018 32.6975C90.1418 32.4975 90.2618 32.2335 90.2618 31.9055C90.2618 31.5615 90.1538 31.2935 89.9378 31.1015C89.7298 30.9095 89.4498 30.7535 89.0978 30.6335C88.7458 30.5135 88.3698 30.3855 87.9698 30.2495C87.3218 30.0255 86.8258 29.7375 86.4818 29.3855C86.1458 29.0335 85.9778 28.5655 85.9778 27.9815C85.9698 27.4855 86.0858 27.0615 86.3258 26.7095C86.5738 26.3495 86.9098 26.0735 87.3338 25.8815C87.7578 25.6815 88.2458 25.5815 88.7978 25.5815C89.3578 25.5815 89.8498 25.6815 90.2738 25.8815C90.7058 26.0815 91.0418 26.3615 91.2818 26.7215C91.5298 27.0815 91.6618 27.5095 91.6778 28.0055H90.0338C90.0258 27.7095 89.9098 27.4495 89.6858 27.2255C89.4698 26.9935 89.1658 26.8775 88.7738 26.8775C88.4378 26.8695 88.1538 26.9535 87.9218 27.1295C87.6978 27.2975 87.5858 27.5455 87.5858 27.8735C87.5858 28.1535 87.6738 28.3775 87.8498 28.5455C88.0258 28.7055 88.2658 28.8415 88.5698 28.9535C88.8738 29.0655 89.2218 29.1855 89.6138 29.3135C90.0298 29.4575 90.4098 29.6255 90.7538 29.8175C91.0978 30.0095 91.3738 30.2655 91.5818 30.5855C91.7898 30.8975 91.8938 31.3015 91.8938 31.7975C91.8938 32.2375 91.7818 32.6455 91.5578 33.0215C91.3338 33.3975 91.0018 33.7015 90.5618 33.9335C90.1218 34.1575 89.5818 34.2695 88.9418 34.2695ZM95.85 34.1255C95.226 34.1255 94.726 33.9735 94.35 33.6695C93.974 33.3655 93.786 32.8255 93.786 32.0495V29.4575H92.766V28.1735H93.786L93.966 26.5775H95.322V28.1735H96.93V29.4575H95.322V32.0615C95.322 32.3495 95.382 32.5495 95.502 32.6615C95.63 32.7655 95.846 32.8175 96.15 32.8175H96.894V34.1255H95.85ZM100.301 34.2695C99.7888 34.2695 99.3688 34.1895 99.0408 34.0295C98.7128 33.8615 98.4688 33.6415 98.3088 33.3695C98.1488 33.0975 98.0688 32.7975 98.0688 32.4695C98.0688 31.9175 98.2848 31.4695 98.7168 31.1255C99.1488 30.7815 99.7968 30.6095 100.661 30.6095H102.173V30.4655C102.173 30.0575 102.057 29.7575 101.825 29.5655C101.593 29.3735 101.305 29.2775 100.961 29.2775C100.649 29.2775 100.377 29.3535 100.145 29.5055C99.9128 29.6495 99.7688 29.8655 99.7128 30.1535H98.2128C98.2528 29.7215 98.3968 29.3455 98.6448 29.0255C98.9008 28.7055 99.2288 28.4615 99.6288 28.2935C100.029 28.1175 100.477 28.0295 100.973 28.0295C101.821 28.0295 102.489 28.2415 102.977 28.6655C103.465 29.0895 103.709 29.6895 103.709 30.4655V34.1255H102.401L102.257 33.1655C102.081 33.4855 101.833 33.7495 101.513 33.9575C101.201 34.1655 100.797 34.2695 100.301 34.2695ZM100.649 33.0695C101.089 33.0695 101.429 32.9255 101.669 32.6375C101.917 32.3495 102.073 31.9935 102.137 31.5695H100.829C100.421 31.5695 100.129 31.6455 99.9528 31.7975C99.7768 31.9415 99.6888 32.1215 99.6888 32.3375C99.6888 32.5695 99.7768 32.7495 99.9528 32.8775C100.129 33.0055 100.361 33.0695 100.649 33.0695ZM105.175 34.1255V28.1735H106.543L106.687 29.2895C106.903 28.9055 107.195 28.6015 107.563 28.3775C107.939 28.1455 108.379 28.0295 108.883 28.0295V29.6495H108.451C108.115 29.6495 107.815 29.7015 107.551 29.8055C107.287 29.9095 107.079 30.0895 106.927 30.3455C106.783 30.6015 106.711 30.9575 106.711 31.4135V34.1255H105.175ZM112.584 34.1255C111.96 34.1255 111.46 33.9735 111.084 33.6695C110.708 33.3655 110.52 32.8255 110.52 32.0495V29.4575H109.5V28.1735H110.52L110.7 26.5775H112.056V28.1735H113.664V29.4575H112.056V32.0615C112.056 32.3495 112.116 32.5495 112.236 32.6615C112.364 32.7655 112.58 32.8175 112.884 32.8175H113.628V34.1255H112.584ZM117.723 34.2695C117.123 34.2695 116.591 34.1415 116.127 33.8855C115.663 33.6295 115.299 33.2695 115.035 32.8055C114.771 32.3415 114.639 31.8055 114.639 31.1975C114.639 30.5815 114.767 30.0335 115.023 29.5535C115.287 29.0735 115.647 28.7015 116.103 28.4375C116.567 28.1655 117.111 28.0295 117.735 28.0295C118.319 28.0295 118.835 28.1575 119.283 28.4135C119.731 28.6695 120.079 29.0215 120.327 29.4695C120.583 29.9095 120.711 30.4015 120.711 30.9455C120.711 31.0335 120.707 31.1255 120.699 31.2215C120.699 31.3175 120.695 31.4175 120.687 31.5215H116.163C116.195 31.9855 116.355 32.3495 116.643 32.6135C116.939 32.8775 117.295 33.0095 117.711 33.0095C118.023 33.0095 118.283 32.9415 118.491 32.8055C118.707 32.6615 118.867 32.4775 118.971 32.2535H120.531C120.419 32.6295 120.231 32.9735 119.967 33.2855C119.711 33.5895 119.391 33.8295 119.007 34.0055C118.631 34.1815 118.203 34.2695 117.723 34.2695ZM117.735 29.2775C117.359 29.2775 117.027 29.3855 116.739 29.6015C116.451 29.8095 116.267 30.1295 116.187 30.5615H119.151C119.127 30.1695 118.983 29.8575 118.719 29.6255C118.455 29.3935 118.127 29.2775 117.735 29.2775ZM124.739 34.2695C124.179 34.2695 123.679 34.1335 123.239 33.8615C122.799 33.5895 122.451 33.2175 122.195 32.7455C121.939 32.2735 121.811 31.7375 121.811 31.1375C121.811 30.5375 121.939 30.0055 122.195 29.5415C122.451 29.0695 122.799 28.7015 123.239 28.4375C123.679 28.1655 124.179 28.0295 124.739 28.0295C125.187 28.0295 125.579 28.1135 125.915 28.2815C126.251 28.4495 126.523 28.6855 126.731 28.9895V25.4855H128.267V34.1255H126.899L126.731 33.2735C126.539 33.5375 126.283 33.7695 125.963 33.9695C125.651 34.1695 125.243 34.2695 124.739 34.2695ZM125.063 32.9255C125.559 32.9255 125.963 32.7615 126.275 32.4335C126.595 32.0975 126.755 31.6695 126.755 31.1495C126.755 30.6295 126.595 30.2055 126.275 29.8775C125.963 29.5415 125.559 29.3735 125.063 29.3735C124.575 29.3735 124.171 29.5375 123.851 29.8655C123.531 30.1935 123.371 30.6175 123.371 31.1375C123.371 31.6575 123.531 32.0855 123.851 32.4215C124.171 32.7575 124.575 32.9255 125.063 32.9255Z" fill="#FFF616"/>
<ellipse cx="172" cy="83.5765" rx="7" ry="7.00001" fill="#FFF616"/>
<ellipse cx="172" cy="279.577" rx="7" ry="7.00001" fill="#333202"/>
<ellipse cx="172" cy="495.577" rx="7" ry="7.00001" fill="#333202"/>
<ellipse cx="172" cy="679.577" rx="7" ry="7.00001" fill="#333202"/>
<path d="M172 83.5767L172 115.577" stroke="#FFF616"/>
</svg>
