<svg width="343" height="46" viewBox="0 0 343 46" fill="none" xmlns="http://www.w3.org/2000/svg">
<rect width="343" height="46" rx="4" fill="#2B2B2B"/>
<path opacity="0.8" d="M36.1519 28L40.2799 16.8H41.7039L45.8159 28H44.3919L43.3679 25.12H38.5999L37.5599 28H36.1519ZM38.9999 24.032H42.9679L40.9839 18.496L38.9999 24.032ZM47.4009 31.52V20.064H48.6169L48.7449 21.376C49.0009 20.992 49.3635 20.6453 49.8329 20.336C50.3129 20.0267 50.9209 19.872 51.6569 19.872C52.4462 19.872 53.1342 20.0533 53.7209 20.416C54.3075 20.7787 54.7609 21.2747 55.0809 21.904C55.4115 22.5333 55.5769 23.248 55.5769 24.048C55.5769 24.848 55.4115 25.5627 55.0809 26.192C54.7609 26.8107 54.3022 27.3013 53.7049 27.664C53.1182 28.016 52.4302 28.192 51.6409 28.192C50.9902 28.192 50.4089 28.0587 49.8969 27.792C49.3955 27.5253 49.0115 27.152 48.7449 26.672V31.52H47.4009ZM51.4969 27.024C52.0302 27.024 52.4995 26.9013 52.9049 26.656C53.3102 26.4 53.6302 26.048 53.8649 25.6C54.0995 25.152 54.2169 24.6293 54.2169 24.032C54.2169 23.4347 54.0995 22.912 53.8649 22.464C53.6302 22.016 53.3102 21.6693 52.9049 21.424C52.4995 21.168 52.0302 21.04 51.4969 21.04C50.9635 21.04 50.4942 21.168 50.0889 21.424C49.6835 21.6693 49.3635 22.016 49.1289 22.464C48.8942 22.912 48.7769 23.4347 48.7769 24.032C48.7769 24.6293 48.8942 25.152 49.1289 25.6C49.3635 26.048 49.6835 26.4 50.0889 26.656C50.4942 26.9013 50.9635 27.024 51.4969 27.024ZM57.4478 31.52V20.064H58.6638L58.7918 21.376C59.0478 20.992 59.4104 20.6453 59.8798 20.336C60.3598 20.0267 60.9678 19.872 61.7038 19.872C62.4931 19.872 63.1811 20.0533 63.7678 20.416C64.3544 20.7787 64.8078 21.2747 65.1278 21.904C65.4584 22.5333 65.6238 23.248 65.6238 24.048C65.6238 24.848 65.4584 25.5627 65.1278 26.192C64.8078 26.8107 64.3491 27.3013 63.7518 27.664C63.1651 28.016 62.4771 28.192 61.6878 28.192C61.0371 28.192 60.4558 28.0587 59.9438 27.792C59.4424 27.5253 59.0584 27.152 58.7918 26.672V31.52H57.4478ZM61.5438 27.024C62.0771 27.024 62.5464 26.9013 62.9518 26.656C63.3571 26.4 63.6771 26.048 63.9118 25.6C64.1464 25.152 64.2638 24.6293 64.2638 24.032C64.2638 23.4347 64.1464 22.912 63.9118 22.464C63.6771 22.016 63.3571 21.6693 62.9518 21.424C62.5464 21.168 62.0771 21.04 61.5438 21.04C61.0104 21.04 60.5411 21.168 60.1358 21.424C59.7304 21.6693 59.4104 22.016 59.1758 22.464C58.9411 22.912 58.8238 23.4347 58.8238 24.032C58.8238 24.6293 58.9411 25.152 59.1758 25.6C59.4104 26.048 59.7304 26.4 60.1358 26.656C60.5411 26.9013 61.0104 27.024 61.5438 27.024ZM71.809 28V16.8H75.425C76.2997 16.8 77.0143 16.944 77.569 17.232C78.1237 17.52 78.5343 17.9147 78.801 18.416C79.0677 18.9173 79.201 19.472 79.201 20.08C79.201 20.784 79.009 21.4187 78.625 21.984C78.2517 22.5493 77.665 22.9493 76.865 23.184L79.313 28H77.729L75.457 23.376H75.361H73.153V28H71.809ZM73.153 22.32H75.329C76.193 22.32 76.8223 22.112 77.217 21.696C77.6117 21.28 77.809 20.7467 77.809 20.096C77.809 19.4347 77.6117 18.912 77.217 18.528C76.833 18.1333 76.1983 17.936 75.313 17.936H73.153V22.32ZM83.6346 28.192C82.9733 28.192 82.424 28.08 81.9866 27.856C81.5493 27.632 81.224 27.3333 81.0106 26.96C80.7973 26.5867 80.6906 26.1813 80.6906 25.744C80.6906 24.9333 81 24.3093 81.6186 23.872C82.2373 23.4347 83.08 23.216 84.1466 23.216H86.2906V23.12C86.2906 22.4267 86.1093 21.904 85.7466 21.552C85.384 21.1893 84.8986 21.008 84.2906 21.008C83.768 21.008 83.3146 21.1413 82.9306 21.408C82.5573 21.664 82.3226 22.0427 82.2266 22.544H80.8506C80.904 21.968 81.096 21.4827 81.4266 21.088C81.768 20.6933 82.1893 20.3947 82.6906 20.192C83.192 19.9787 83.7253 19.872 84.2906 19.872C85.4 19.872 86.232 20.1707 86.7866 20.768C87.352 21.3547 87.6346 22.1387 87.6346 23.12V28H86.4346L86.3546 26.576C86.1306 27.024 85.8 27.408 85.3626 27.728C84.936 28.0373 84.36 28.192 83.6346 28.192ZM83.8426 27.056C84.3546 27.056 84.792 26.9227 85.1546 26.656C85.528 26.3893 85.8106 26.0427 86.0026 25.616C86.1946 25.1893 86.2906 24.7413 86.2906 24.272V24.256H84.2586C83.4693 24.256 82.9093 24.3947 82.5786 24.672C82.2586 24.9387 82.0986 25.2747 82.0986 25.68C82.0986 26.096 82.248 26.432 82.5466 26.688C82.856 26.9333 83.288 27.056 83.8426 27.056ZM92.5681 28C91.8428 28 91.2721 27.824 90.8561 27.472C90.4401 27.12 90.2321 26.4853 90.2321 25.568V21.2H88.8561V20.064H90.2321L90.4081 18.16H91.5761V20.064H93.9121V21.2H91.5761V25.568C91.5761 26.0693 91.6775 26.4107 91.8801 26.592C92.0828 26.7627 92.4401 26.848 92.9521 26.848H93.7841V28H92.5681ZM96.4356 18.304C96.169 18.304 95.945 18.2187 95.7636 18.048C95.593 17.8667 95.5076 17.6427 95.5076 17.376C95.5076 17.12 95.593 16.9067 95.7636 16.736C95.945 16.5653 96.169 16.48 96.4356 16.48C96.6916 16.48 96.9103 16.5653 97.0916 16.736C97.273 16.9067 97.3636 17.12 97.3636 17.376C97.3636 17.6427 97.273 17.8667 97.0916 18.048C96.9103 18.2187 96.6916 18.304 96.4356 18.304ZM95.7636 28V20.064H97.1076V28H95.7636ZM99.4478 28V20.064H100.664L100.744 21.488C101 20.9867 101.368 20.592 101.848 20.304C102.328 20.016 102.872 19.872 103.48 19.872C104.418 19.872 105.165 20.16 105.72 20.736C106.285 21.3013 106.568 22.176 106.568 23.36V28H105.224V23.504C105.224 21.8507 104.541 21.024 103.176 21.024C102.493 21.024 101.922 21.2747 101.464 21.776C101.016 22.2667 100.792 22.9707 100.792 23.888V28H99.4478ZM111.74 25.504C111.292 25.504 110.881 25.4453 110.508 25.328L109.708 26.08C109.825 26.1653 109.969 26.24 110.14 26.304C110.321 26.3573 110.577 26.4107 110.908 26.464C111.239 26.5067 111.703 26.5547 112.3 26.608C113.367 26.6827 114.129 26.928 114.588 27.344C115.047 27.76 115.276 28.304 115.276 28.976C115.276 29.4347 115.148 29.872 114.892 30.288C114.647 30.704 114.263 31.0453 113.74 31.312C113.228 31.5787 112.567 31.712 111.756 31.712C111.041 31.712 110.407 31.616 109.852 31.424C109.297 31.2427 108.865 30.96 108.556 30.576C108.247 30.2027 108.092 29.728 108.092 29.152C108.092 28.8533 108.172 28.528 108.332 28.176C108.492 27.8347 108.791 27.5093 109.228 27.2C108.993 27.104 108.791 27.0027 108.62 26.896C108.46 26.7787 108.311 26.6507 108.172 26.512V26.144L109.532 24.8C108.903 24.2667 108.588 23.5627 108.588 22.688C108.588 22.1653 108.711 21.6907 108.956 21.264C109.201 20.8373 109.559 20.5013 110.028 20.256C110.497 20 111.068 19.872 111.74 19.872C112.199 19.872 112.615 19.936 112.988 20.064H115.916V21.072L114.428 21.136C114.737 21.584 114.892 22.1013 114.892 22.688C114.892 23.2107 114.764 23.6853 114.508 24.112C114.263 24.5387 113.905 24.88 113.436 25.136C112.977 25.3813 112.412 25.504 111.74 25.504ZM111.74 24.4C112.305 24.4 112.753 24.256 113.084 23.968C113.425 23.6693 113.596 23.2427 113.596 22.688C113.596 22.144 113.425 21.728 113.084 21.44C112.753 21.1413 112.305 20.992 111.74 20.992C111.164 20.992 110.705 21.1413 110.364 21.44C110.033 21.728 109.868 22.144 109.868 22.688C109.868 23.2427 110.033 23.6693 110.364 23.968C110.705 24.256 111.164 24.4 111.74 24.4ZM109.404 29.024C109.404 29.5573 109.628 29.952 110.076 30.208C110.524 30.4747 111.084 30.608 111.756 30.608C112.417 30.608 112.945 30.464 113.34 30.176C113.745 29.888 113.948 29.504 113.948 29.024C113.948 28.6827 113.809 28.384 113.532 28.128C113.255 27.8827 112.743 27.7387 111.996 27.696C111.409 27.6533 110.903 27.6 110.476 27.536C110.039 27.7707 109.751 28.0213 109.612 28.288C109.473 28.5653 109.404 28.8107 109.404 29.024Z" fill="#FBFFFF"/>
<path d="M143.907 29.6811L150.957 34L149.086 25.86L155.315 20.3832L147.113 19.6768L143.907 12L140.702 19.6768L132.5 20.3832L138.728 25.86L136.858 34L143.907 29.6811Z" fill="#FFD600"/>
<path d="M170.722 29.6811L177.772 34L175.901 25.86L182.13 20.3832L173.928 19.6768L170.722 12L167.517 19.6768L159.315 20.3832L165.543 25.86L163.672 34L170.722 29.6811Z" fill="#FFD600"/>
<path d="M197.537 29.6811L204.587 34L202.716 25.86L208.944 20.3832L200.743 19.6768L197.537 12L194.332 19.6768L186.13 20.3832L192.358 25.86L190.487 34L197.537 29.6811Z" fill="#FFD600"/>
<path d="M224.352 29.6811L231.402 34L229.531 25.86L235.759 20.3832L227.557 19.6768L224.352 12L221.146 19.6768L212.944 20.3832L219.173 25.86L217.302 34L224.352 29.6811Z" fill="#FFD600"/>
<g clip-path="url(#clip0_510_71954)">
<path d="M251.222 29.6811L258.272 34L256.401 25.86L262.63 20.3832L254.428 19.6768L251.222 12L248.017 19.6768L239.815 20.3832L246.043 25.86L244.173 34L251.222 29.6811Z" fill="#FFD600"/>
</g>
<path opacity="0.6" d="M251.428 29.2547L251.167 29.0947L250.905 29.2547L244.871 32.9517L246.475 25.972L246.542 25.6814L246.318 25.4845L240.969 20.7809L248.004 20.175L248.306 20.149L248.423 19.8695L251.167 13.2977L253.911 19.8695L254.027 20.149L254.329 20.175L261.365 20.7809L256.015 25.4845L255.792 25.6814L255.858 25.972L257.463 32.9517L251.428 29.2547Z" stroke="#FFD600"/>
<path opacity="0.8" d="M289.2 28V25.92H283.68V24.288L288.928 16.8H291.248V24.144H292.72V25.92H291.248V28H289.2ZM285.872 24.144H289.328V19.056L285.872 24.144ZM295.162 28.112C294.789 28.112 294.48 27.9947 294.234 27.76C294 27.5253 293.882 27.2427 293.882 26.912C293.882 26.5707 294 26.2827 294.234 26.048C294.48 25.8133 294.789 25.696 295.162 25.696C295.536 25.696 295.84 25.8133 296.074 26.048C296.32 26.2827 296.442 26.5707 296.442 26.912C296.442 27.2427 296.32 27.5253 296.074 27.76C295.84 27.9947 295.536 28.112 295.162 28.112ZM302.19 28.192C301.369 28.192 300.659 28.048 300.062 27.76C299.475 27.472 299.011 27.0773 298.67 26.576C298.339 26.064 298.147 25.488 298.094 24.848H300.094C300.19 25.3067 300.425 25.6907 300.798 26C301.171 26.2987 301.635 26.448 302.19 26.448C302.787 26.448 303.273 26.2293 303.646 25.792C304.03 25.3547 304.222 24.8107 304.222 24.16C304.222 23.488 304.03 22.9547 303.646 22.56C303.273 22.1653 302.798 21.968 302.222 21.968C301.742 21.968 301.326 22.0853 300.974 22.32C300.622 22.5547 300.371 22.848 300.222 23.2H298.254L299.214 16.8H305.422V18.592H300.75L300.238 21.184C300.473 20.928 300.793 20.72 301.198 20.56C301.603 20.3893 302.057 20.304 302.558 20.304C303.358 20.304 304.025 20.4853 304.558 20.848C305.091 21.2 305.497 21.6693 305.774 22.256C306.051 22.832 306.19 23.4613 306.19 24.144C306.19 24.9227 306.019 25.616 305.678 26.224C305.347 26.832 304.878 27.312 304.27 27.664C303.673 28.016 302.979 28.192 302.19 28.192Z" fill="#FBFFFF"/>
<defs>
<clipPath id="clip0_510_71954">
<rect width="11.4" height="22" fill="white" transform="translate(239.815 12)"/>
</clipPath>
</defs>
</svg>
