<svg width="93" height="16" viewBox="0 0 93 16" fill="none" xmlns="http://www.w3.org/2000/svg">
<path d="M8.78778 12.9596L13.6199 15.92L12.3376 10.3405L16.6068 6.58653L10.9849 6.1024L8.78778 0.840424L6.59063 6.1024L0.96875 6.58653L5.23794 10.3405L3.95562 15.92L8.78778 12.9596Z" fill="#737373"/>
<path d="M27.1706 12.9596L32.0028 15.92L30.7204 10.3405L34.9896 6.58653L29.3677 6.1024L27.1706 0.840424L24.9734 6.1024L19.3516 6.58653L23.6208 10.3405L22.3384 15.92L27.1706 12.9596Z" fill="#737373"/>
<path d="M45.5456 12.9596L50.3778 15.92L49.0954 10.3405L53.3646 6.58653L47.7427 6.1024L45.5456 0.840424L43.3484 6.1024L37.7266 6.58653L41.9958 10.3405L40.7134 15.92L45.5456 12.9596Z" fill="#737373"/>
<path d="M63.9284 12.9596L68.7606 15.92L67.4782 10.3405L71.7474 6.58653L66.1256 6.1024L63.9284 0.840424L61.7313 6.1024L56.1094 6.58653L60.3786 10.3405L59.0962 15.92L63.9284 12.9596Z" fill="#737373"/>
<g clip-path="url(#clip0_1251_56021)">
<path d="M82.3425 12.9596L87.1746 15.92L85.8923 10.3405L90.1615 6.58653L84.5396 6.1024L82.3425 0.840424L80.1453 6.1024L74.5234 6.58653L78.7926 10.3405L77.5103 15.92L82.3425 12.9596Z" fill="#737373"/>
</g>
<path opacity="0.6" d="M82.4824 12.6674L82.3034 12.5577L82.1244 12.6674L77.988 15.2015L79.0876 10.4173L79.1334 10.2181L78.9799 10.0832L75.3134 6.85912L80.1357 6.44385L80.3425 6.42604L80.4225 6.23445L82.3034 1.72988L84.1843 6.23445L84.2643 6.42604L84.4711 6.44385L89.2934 6.85912L85.6269 10.0832L85.4735 10.2181L85.5192 10.4173L86.6188 15.2015L82.4824 12.6674Z" stroke="#737373" stroke-width="0.685435"/>
<defs>
<clipPath id="clip0_1251_56021">
<rect width="7.81395" height="15.0796" fill="white" transform="translate(74.5234 0.840424)"/>
</clipPath>
</defs>
</svg>
