<svg width="34" height="24" viewBox="0 0 34 24" fill="none" xmlns="http://www.w3.org/2000/svg">
<g clip-path="url(#clip0_1217_56522)">
<path d="M33.0807 3.46307C32.8866 2.74601 32.5081 2.09229 31.9828 1.56703C31.4575 1.04177 30.8037 0.663286 30.0867 0.46928C27.4614 -0.246582 16.8964 -0.246582 16.8964 -0.246582C16.8964 -0.246582 6.33101 -0.224858 3.70612 0.491004C2.98907 0.685041 2.33538 1.06354 1.81011 1.5888C1.28485 2.11406 0.906359 2.76776 0.712322 3.4848C-0.0817469 8.14928 -0.389816 15.2564 0.734046 19.734C0.928084 20.4511 1.30658 21.1048 1.83184 21.63C2.3571 22.1553 3.0108 22.5338 3.72784 22.7278C6.35294 23.4437 16.9181 23.4437 16.9181 23.4437C16.9181 23.4437 27.4833 23.4437 30.1084 22.7278C30.8254 22.5338 31.4791 22.1553 32.0044 21.63C32.5297 21.1048 32.9081 20.4511 33.1022 19.734C33.9395 15.0631 34.1977 7.96038 33.0805 3.46328L33.0807 3.46307Z" fill="#FF0000"/>
<path d="M13.5312 16.6751L22.2958 11.5987L13.5312 6.52209V16.6751Z" fill="white"/>
</g>
<defs>
<clipPath id="clip0_1217_56522">
<rect width="34" height="24" fill="white"/>
</clipPath>
</defs>
</svg>
